  0
SECTION
  2
BLOCKS
  0
ENDSEC
  0
SECTION
  2
ENTITIES
  0
LINE
  8
0
 10
37
 20
35.5
 11
39.995
 21
35.5
  0
LINE
  8
0
 10
39.995
 20
35.5
 11
39.995
 21
50.5
  0
LINE
  8
0
 10
39.995
 20
50.5
 11
37
 21
50.5
  0
LINE
  8
0
 10
37
 20
50.5
 11
37
 21
54.995
  0
LINE
  8
0
 10
37
 20
54.995
 11
-37
 21
54.995
  0
LINE
  8
0
 10
-37
 20
54.995
 11
-37
 21
50.5
  0
LINE
  8
0
 10
-37
 20
50.5
 11
-39.995
 21
50.5
  0
LINE
  8
0
 10
-39.995
 20
50.5
 11
-39.995
 21
35.5
  0
LINE
  8
0
 10
-39.995
 20
35.5
 11
-37
 21
35.5
  0
LINE
  8
0
 10
-37
 20
35.5
 11
-37
 21
15.005
  0
LINE
  8
0
 10
-37
 20
15.005
 11
37
 21
15.005
  0
LINE
  8
0
 10
37
 20
15.005
 11
37
 21
35.5
  0
LINE
  8
0
 10
-0.243607
 20
40.0601
 11
-0.724182
 21
40.1403
  0
LINE
  8
0
 10
-0.724182
 20
40.1403
 11
-1.185
 21
40.2985
  0
LINE
  8
0
 10
-1.185
 20
40.2985
 11
-1.61349
 21
40.5303
  0
LINE
  8
0
 10
-1.61349
 20
40.5303
 11
-1.99797
 21
40.8296
  0
LINE
  8
0
 10
-1.99797
 20
40.8296
 11
-2.32796
 21
41.1881
  0
LINE
  8
0
 10
-2.32796
 20
41.1881
 11
-2.59444
 21
41.5959
  0
LINE
  8
0
 10
-2.59444
 20
41.5959
 11
-2.79015
 21
42.0421
  0
LINE
  8
0
 10
-2.79015
 20
42.0421
 11
-2.90976
 21
42.5144
  0
LINE
  8
0
 10
-2.90976
 20
42.5144
 11
-2.95
 21
43
  0
LINE
  8
0
 10
-2.95
 20
43
 11
-2.90976
 21
43.4855
  0
LINE
  8
0
 10
-2.90976
 20
43.4855
 11
-2.79015
 21
43.9579
  0
LINE
  8
0
 10
-2.79015
 20
43.9579
 11
-2.59444
 21
44.404
  0
LINE
  8
0
 10
-2.59444
 20
44.404
 11
-2.32796
 21
44.8119
  0
LINE
  8
0
 10
-2.32796
 20
44.8119
 11
-1.99797
 21
45.1704
  0
LINE
  8
0
 10
-1.99797
 20
45.1704
 11
-1.61349
 21
45.4696
  0
LINE
  8
0
 10
-1.61349
 20
45.4696
 11
-1.185
 21
45.7015
  0
LINE
  8
0
 10
-1.185
 20
45.7015
 11
-0.724182
 21
45.8597
  0
LINE
  8
0
 10
-0.724182
 20
45.8597
 11
-0.243607
 21
45.9399
  0
LINE
  8
0
 10
-0.243607
 20
45.9399
 11
0.243607
 21
45.9399
  0
LINE
  8
0
 10
0.243607
 20
45.9399
 11
0.724182
 21
45.8597
  0
LINE
  8
0
 10
0.724182
 20
45.8597
 11
1.185
 21
45.7015
  0
LINE
  8
0
 10
1.185
 20
45.7015
 11
1.61349
 21
45.4696
  0
LINE
  8
0
 10
1.61349
 20
45.4696
 11
1.99797
 21
45.1704
  0
LINE
  8
0
 10
1.99797
 20
45.1704
 11
2.32796
 21
44.8119
  0
LINE
  8
0
 10
2.32796
 20
44.8119
 11
2.59444
 21
44.404
  0
LINE
  8
0
 10
2.59444
 20
44.404
 11
2.79015
 21
43.9579
  0
LINE
  8
0
 10
2.79015
 20
43.9579
 11
2.90976
 21
43.4855
  0
LINE
  8
0
 10
2.90976
 20
43.4855
 11
2.95
 21
43
  0
LINE
  8
0
 10
2.95
 20
43
 11
2.90976
 21
42.5144
  0
LINE
  8
0
 10
2.90976
 20
42.5144
 11
2.79015
 21
42.0421
  0
LINE
  8
0
 10
2.79015
 20
42.0421
 11
2.59444
 21
41.5959
  0
LINE
  8
0
 10
2.59444
 20
41.5959
 11
2.32796
 21
41.1881
  0
LINE
  8
0
 10
2.32796
 20
41.1881
 11
1.99797
 21
40.8296
  0
LINE
  8
0
 10
1.99797
 20
40.8296
 11
1.61349
 21
40.5303
  0
LINE
  8
0
 10
1.61349
 20
40.5303
 11
1.185
 21
40.2985
  0
LINE
  8
0
 10
1.185
 20
40.2985
 11
0.724182
 21
40.1403
  0
LINE
  8
0
 10
0.724182
 20
40.1403
 11
0.243607
 21
40.0601
  0
LINE
  8
0
 10
0.243607
 20
40.0601
 11
-0.243607
 21
40.0601
  0
LINE
  8
0
 10
37
 20
-7.5
 11
39.995
 21
-7.5
  0
LINE
  8
0
 10
39.995
 20
-7.5
 11
39.995
 21
7.5
  0
LINE
  8
0
 10
39.995
 20
7.5
 11
37
 21
7.5
  0
LINE
  8
0
 10
37
 20
7.5
 11
37
 21
11.995
  0
LINE
  8
0
 10
37
 20
11.995
 11
-37
 21
11.995
  0
LINE
  8
0
 10
-37
 20
11.995
 11
-37
 21
7.5
  0
LINE
  8
0
 10
-37
 20
7.5
 11
-39.995
 21
7.5
  0
LINE
  8
0
 10
-39.995
 20
7.5
 11
-39.995
 21
-7.5
  0
LINE
  8
0
 10
-39.995
 20
-7.5
 11
-37
 21
-7.5
  0
LINE
  8
0
 10
-37
 20
-7.5
 11
-37
 21
-27.995
  0
LINE
  8
0
 10
-37
 20
-27.995
 11
37
 21
-27.995
  0
LINE
  8
0
 10
37
 20
-27.995
 11
37
 21
-7.5
  0
LINE
  8
0
 10
-0.243607
 20
-2.93991
 11
-0.724182
 21
-2.85973
  0
LINE
  8
0
 10
-0.724182
 20
-2.85973
 11
-1.185
 21
-2.70152
  0
LINE
  8
0
 10
-1.185
 20
-2.70152
 11
-1.61349
 21
-2.46964
  0
LINE
  8
0
 10
-1.61349
 20
-2.46964
 11
-1.99797
 21
-2.17038
  0
LINE
  8
0
 10
-1.99797
 20
-2.17038
 11
-2.32796
 21
-1.81192
  0
LINE
  8
0
 10
-2.32796
 20
-1.81192
 11
-2.59444
 21
-1.40404
  0
LINE
  8
0
 10
-2.59444
 20
-1.40404
 11
-2.79015
 21
-0.957855
  0
LINE
  8
0
 10
-2.79015
 20
-0.957855
 11
-2.90976
 21
-0.48555
  0
LINE
  8
0
 10
-2.90976
 20
-0.48555
 11
-2.95
 21
0
  0
LINE
  8
0
 10
-2.95
 20
0
 11
-2.90976
 21
0.48555
  0
LINE
  8
0
 10
-2.90976
 20
0.48555
 11
-2.79015
 21
0.957855
  0
LINE
  8
0
 10
-2.79015
 20
0.957855
 11
-2.59444
 21
1.40404
  0
LINE
  8
0
 10
-2.59444
 20
1.40404
 11
-2.32796
 21
1.81192
  0
LINE
  8
0
 10
-2.32796
 20
1.81192
 11
-1.99797
 21
2.17038
  0
LINE
  8
0
 10
-1.99797
 20
2.17038
 11
-1.61349
 21
2.46964
  0
LINE
  8
0
 10
-1.61349
 20
2.46964
 11
-1.185
 21
2.70152
  0
LINE
  8
0
 10
-1.185
 20
2.70152
 11
-0.724182
 21
2.85973
  0
LINE
  8
0
 10
-0.724182
 20
2.85973
 11
-0.243607
 21
2.93991
  0
LINE
  8
0
 10
-0.243607
 20
2.93991
 11
0.243607
 21
2.93991
  0
LINE
  8
0
 10
0.243607
 20
2.93991
 11
0.724182
 21
2.85973
  0
LINE
  8
0
 10
0.724182
 20
2.85973
 11
1.185
 21
2.70152
  0
LINE
  8
0
 10
1.185
 20
2.70152
 11
1.61349
 21
2.46964
  0
LINE
  8
0
 10
1.61349
 20
2.46964
 11
1.99797
 21
2.17038
  0
LINE
  8
0
 10
1.99797
 20
2.17038
 11
2.32796
 21
1.81192
  0
LINE
  8
0
 10
2.32796
 20
1.81192
 11
2.59444
 21
1.40404
  0
LINE
  8
0
 10
2.59444
 20
1.40404
 11
2.79015
 21
0.957855
  0
LINE
  8
0
 10
2.79015
 20
0.957855
 11
2.90976
 21
0.48555
  0
LINE
  8
0
 10
2.90976
 20
0.48555
 11
2.95
 21
0
  0
LINE
  8
0
 10
2.95
 20
0
 11
2.90976
 21
-0.48555
  0
LINE
  8
0
 10
2.90976
 20
-0.48555
 11
2.79015
 21
-0.957855
  0
LINE
  8
0
 10
2.79015
 20
-0.957855
 11
2.59444
 21
-1.40404
  0
LINE
  8
0
 10
2.59444
 20
-1.40404
 11
2.32796
 21
-1.81192
  0
LINE
  8
0
 10
2.32796
 20
-1.81192
 11
1.99797
 21
-2.17038
  0
LINE
  8
0
 10
1.99797
 20
-2.17038
 11
1.61349
 21
-2.46964
  0
LINE
  8
0
 10
1.61349
 20
-2.46964
 11
1.185
 21
-2.70152
  0
LINE
  8
0
 10
1.185
 20
-2.70152
 11
0.724182
 21
-2.85973
  0
LINE
  8
0
 10
0.724182
 20
-2.85973
 11
0.243607
 21
-2.93991
  0
LINE
  8
0
 10
0.243607
 20
-2.93991
 11
-0.243607
 21
-2.93991
  0
LINE
  8
0
 10
30.6972
 20
-86.9696
 11
31.3892
 21
-86.8785
  0
LINE
  8
0
 10
31.3892
 20
-86.8785
 11
32.0705
 21
-86.7274
  0
LINE
  8
0
 10
32.0705
 20
-86.7274
 11
32.7362
 21
-86.5175
  0
LINE
  8
0
 10
32.7362
 20
-86.5175
 11
33.3809
 21
-86.2505
  0
LINE
  8
0
 10
33.3809
 20
-86.2505
 11
34
 21
-85.9282
  0
LINE
  8
0
 10
34
 20
-85.9282
 11
34.5886
 21
-85.5532
  0
LINE
  8
0
 10
34.5886
 20
-85.5532
 11
35.1423
 21
-85.1284
  0
LINE
  8
0
 10
35.1423
 20
-85.1284
 11
35.6568
 21
-84.6568
  0
LINE
  8
0
 10
35.6568
 20
-84.6568
 11
36.1283
 21
-84.1423
  0
LINE
  8
0
 10
36.1283
 20
-84.1423
 11
36.5532
 21
-83.5886
  0
LINE
  8
0
 10
36.5532
 20
-83.5886
 11
36.9282
 21
-83
  0
LINE
  8
0
 10
36.9282
 20
-83
 11
37.2505
 21
-82.3809
  0
LINE
  8
0
 10
37.2505
 20
-82.3809
 11
37.5175
 21
-81.7362
  0
LINE
  8
0
 10
37.5175
 20
-81.7362
 11
37.7274
 21
-81.0705
  0
LINE
  8
0
 10
37.7274
 20
-81.0705
 11
37.8784
 21
-80.3892
  0
LINE
  8
0
 10
37.8784
 20
-80.3892
 11
37.9695
 21
-79.6972
  0
LINE
  8
0
 10
37.9695
 20
-79.6972
 11
38
 21
-79
  0
LINE
  8
0
 10
38
 20
-79
 11
38
 21
-69.5
  0
LINE
  8
0
 10
38
 20
-69.5
 11
35
 21
-69.5
  0
LINE
  8
0
 10
35
 20
-69.5
 11
35
 21
-54.5
  0
LINE
  8
0
 10
35
 20
-54.5
 11
38
 21
-54.5
  0
LINE
  8
0
 10
38
 20
-54.5
 11
38
 21
-31
  0
LINE
  8
0
 10
38
 20
-31
 11
17.5
 21
-31
  0
LINE
  8
0
 10
17.5
 20
-31
 11
17.5
 21
-34
  0
LINE
  8
0
 10
17.5
 20
-34
 11
2.5
 21
-34
  0
LINE
  8
0
 10
2.5
 20
-34
 11
2.5
 21
-31
  0
LINE
  8
0
 10
2.5
 20
-31
 11
-10
 21
-31
  0
LINE
  8
0
 10
-10
 20
-31
 11
-10.6972
 21
-31.0304
  0
LINE
  8
0
 10
-10.6972
 20
-31.0304
 11
-11.3892
 21
-31.1215
  0
LINE
  8
0
 10
-11.3892
 20
-31.1215
 11
-12.0705
 21
-31.2726
  0
LINE
  8
0
 10
-12.0705
 20
-31.2726
 11
-12.7362
 21
-31.4825
  0
LINE
  8
0
 10
-12.7362
 20
-31.4825
 11
-13.3809
 21
-31.7495
  0
LINE
  8
0
 10
-13.3809
 20
-31.7495
 11
-14
 21
-32.0718
  0
LINE
  8
0
 10
-14
 20
-32.0718
 11
-14.5886
 21
-32.4468
  0
LINE
  8
0
 10
-14.5886
 20
-32.4468
 11
-15.1423
 21
-32.8716
  0
LINE
  8
0
 10
-15.1423
 20
-32.8716
 11
-15.6568
 21
-33.3431
  0
LINE
  8
0
 10
-15.6568
 20
-33.3431
 11
-16.1283
 21
-33.8577
  0
LINE
  8
0
 10
-16.1283
 20
-33.8577
 11
-16.5532
 21
-34.4114
  0
LINE
  8
0
 10
-16.5532
 20
-34.4114
 11
-16.9282
 21
-35
  0
LINE
  8
0
 10
-16.9282
 20
-35
 11
-17.2505
 21
-35.619
  0
LINE
  8
0
 10
-17.2505
 20
-35.619
 11
-17.5175
 21
-36.2638
  0
LINE
  8
0
 10
-17.5175
 20
-36.2638
 11
-17.7274
 21
-36.9294
  0
LINE
  8
0
 10
-17.7274
 20
-36.9294
 11
-17.8784
 21
-37.6108
  0
LINE
  8
0
 10
-17.8784
 20
-37.6108
 11
-17.9695
 21
-38.3027
  0
LINE
  8
0
 10
-17.9695
 20
-38.3027
 11
-18
 21
-39
  0
LINE
  8
0
 10
-18
 20
-39
 11
-17.9695
 21
-39.6972
  0
LINE
  8
0
 10
-17.9695
 20
-39.6972
 11
-17.8784
 21
-40.3892
  0
LINE
  8
0
 10
-17.8784
 20
-40.3892
 11
-17.7274
 21
-41.0705
  0
LINE
  8
0
 10
-17.7274
 20
-41.0705
 11
-17.5175
 21
-41.7362
  0
LINE
  8
0
 10
-17.5175
 20
-41.7362
 11
-17.2505
 21
-42.3809
  0
LINE
  8
0
 10
-17.2505
 20
-42.3809
 11
-16.9282
 21
-43
  0
LINE
  8
0
 10
-16.9282
 20
-43
 11
-16.5532
 21
-43.5886
  0
LINE
  8
0
 10
-16.5532
 20
-43.5886
 11
-16.1283
 21
-44.1423
  0
LINE
  8
0
 10
-16.1283
 20
-44.1423
 11
-15.6568
 21
-44.6568
  0
LINE
  8
0
 10
-15.6568
 20
-44.6568
 11
-15.1423
 21
-45.1284
  0
LINE
  8
0
 10
-15.1423
 20
-45.1284
 11
-14.5886
 21
-45.5532
  0
LINE
  8
0
 10
-14.5886
 20
-45.5532
 11
-14
 21
-45.9282
  0
LINE
  8
0
 10
-14
 20
-45.9282
 11
-13.3809
 21
-46.2505
  0
LINE
  8
0
 10
-13.3809
 20
-46.2505
 11
-12.7362
 21
-46.5175
  0
LINE
  8
0
 10
-12.7362
 20
-46.5175
 11
-12.0705
 21
-46.7274
  0
LINE
  8
0
 10
-12.0705
 20
-46.7274
 11
-11.3892
 21
-46.8785
  0
LINE
  8
0
 10
-11.3892
 20
-46.8785
 11
-10.6972
 21
-46.9696
  0
LINE
  8
0
 10
-10.6972
 20
-46.9696
 11
-10
 21
-47
  0
LINE
  8
0
 10
-10
 20
-47
 11
22
 21
-47
  0
LINE
  8
0
 10
22
 20
-47
 11
22
 21
-79
  0
LINE
  8
0
 10
22
 20
-79
 11
22.0304
 21
-79.6972
  0
LINE
  8
0
 10
22.0304
 20
-79.6972
 11
22.1215
 21
-80.3892
  0
LINE
  8
0
 10
22.1215
 20
-80.3892
 11
22.2726
 21
-81.0705
  0
LINE
  8
0
 10
22.2726
 20
-81.0705
 11
22.4825
 21
-81.7362
  0
LINE
  8
0
 10
22.4825
 20
-81.7362
 11
22.7495
 21
-82.3809
  0
LINE
  8
0
 10
22.7495
 20
-82.3809
 11
23.0718
 21
-83
  0
LINE
  8
0
 10
23.0718
 20
-83
 11
23.4468
 21
-83.5886
  0
LINE
  8
0
 10
23.4468
 20
-83.5886
 11
23.8716
 21
-84.1423
  0
LINE
  8
0
 10
23.8716
 20
-84.1423
 11
24.3431
 21
-84.6568
  0
LINE
  8
0
 10
24.3431
 20
-84.6568
 11
24.8577
 21
-85.1284
  0
LINE
  8
0
 10
24.8577
 20
-85.1284
 11
25.4114
 21
-85.5532
  0
LINE
  8
0
 10
25.4114
 20
-85.5532
 11
26
 21
-85.9282
  0
LINE
  8
0
 10
26
 20
-85.9282
 11
26.619
 21
-86.2505
  0
LINE
  8
0
 10
26.619
 20
-86.2505
 11
27.2638
 21
-86.5175
  0
LINE
  8
0
 10
27.2638
 20
-86.5175
 11
27.9294
 21
-86.7274
  0
LINE
  8
0
 10
27.9294
 20
-86.7274
 11
28.6108
 21
-86.8785
  0
LINE
  8
0
 10
28.6108
 20
-86.8785
 11
29.3027
 21
-86.9696
  0
LINE
  8
0
 10
29.3027
 20
-86.9696
 11
30
 21
-87
  0
LINE
  8
0
 10
30
 20
-87
 11
30.6972
 21
-86.9696
  0
LINE
  8
0
 10
-10.4786
 20
-40.9419
 11
-10.9294
 21
-40.7709
  0
LINE
  8
0
 10
-10.9294
 20
-40.7709
 11
-11.3262
 21
-40.497
  0
LINE
  8
0
 10
-11.3262
 20
-40.497
 11
-11.646
 21
-40.1361
  0
LINE
  8
0
 10
-11.646
 20
-40.1361
 11
-11.87
 21
-39.7092
  0
LINE
  8
0
 10
-11.87
 20
-39.7092
 11
-11.9854
 21
-39.2411
  0
LINE
  8
0
 10
-11.9854
 20
-39.2411
 11
-11.9854
 21
-38.7589
  0
LINE
  8
0
 10
-11.9854
 20
-38.7589
 11
-11.87
 21
-38.2908
  0
LINE
  8
0
 10
-11.87
 20
-38.2908
 11
-11.646
 21
-37.8639
  0
LINE
  8
0
 10
-11.646
 20
-37.8639
 11
-11.3262
 21
-37.503
  0
LINE
  8
0
 10
-11.3262
 20
-37.503
 11
-10.9294
 21
-37.2291
  0
LINE
  8
0
 10
-10.9294
 20
-37.2291
 11
-10.4786
 21
-37.0581
  0
LINE
  8
0
 10
-10.4786
 20
-37.0581
 11
-10
 21
-37
  0
LINE
  8
0
 10
-10
 20
-37
 11
-9.52136
 21
-37.0581
  0
LINE
  8
0
 10
-9.52136
 20
-37.0581
 11
-9.07054
 21
-37.2291
  0
LINE
  8
0
 10
-9.07054
 20
-37.2291
 11
-8.67375
 21
-37.503
  0
LINE
  8
0
 10
-8.67375
 20
-37.503
 11
-8.35402
 21
-37.8639
  0
LINE
  8
0
 10
-8.35402
 20
-37.8639
 11
-8.12996
 21
-38.2908
  0
LINE
  8
0
 10
-8.12996
 20
-38.2908
 11
-8.01457
 21
-38.7589
  0
LINE
  8
0
 10
-8.01457
 20
-38.7589
 11
-8.01457
 21
-39.2411
  0
LINE
  8
0
 10
-8.01457
 20
-39.2411
 11
-8.12996
 21
-39.7092
  0
LINE
  8
0
 10
-8.12996
 20
-39.7092
 11
-8.35402
 21
-40.1361
  0
LINE
  8
0
 10
-8.35402
 20
-40.1361
 11
-8.67375
 21
-40.497
  0
LINE
  8
0
 10
-8.67375
 20
-40.497
 11
-9.07054
 21
-40.7709
  0
LINE
  8
0
 10
-9.07054
 20
-40.7709
 11
-9.52136
 21
-40.9419
  0
LINE
  8
0
 10
-9.52136
 20
-40.9419
 11
-10
 21
-41
  0
LINE
  8
0
 10
-10
 20
-41
 11
-10.4786
 21
-40.9419
  0
LINE
  8
0
 10
29.5214
 20
-40.9419
 11
29.0705
 21
-40.7709
  0
LINE
  8
0
 10
29.0705
 20
-40.7709
 11
28.6738
 21
-40.497
  0
LINE
  8
0
 10
28.6738
 20
-40.497
 11
28.354
 21
-40.1361
  0
LINE
  8
0
 10
28.354
 20
-40.1361
 11
28.13
 21
-39.7092
  0
LINE
  8
0
 10
28.13
 20
-39.7092
 11
28.0146
 21
-39.2411
  0
LINE
  8
0
 10
28.0146
 20
-39.2411
 11
28.0146
 21
-38.7589
  0
LINE
  8
0
 10
28.0146
 20
-38.7589
 11
28.13
 21
-38.2908
  0
LINE
  8
0
 10
28.13
 20
-38.2908
 11
28.354
 21
-37.8639
  0
LINE
  8
0
 10
28.354
 20
-37.8639
 11
28.6738
 21
-37.503
  0
LINE
  8
0
 10
28.6738
 20
-37.503
 11
29.0705
 21
-37.2291
  0
LINE
  8
0
 10
29.0705
 20
-37.2291
 11
29.5214
 21
-37.0581
  0
LINE
  8
0
 10
29.5214
 20
-37.0581
 11
30
 21
-37
  0
LINE
  8
0
 10
30
 20
-37
 11
30.4786
 21
-37.0581
  0
LINE
  8
0
 10
30.4786
 20
-37.0581
 11
30.9294
 21
-37.2291
  0
LINE
  8
0
 10
30.9294
 20
-37.2291
 11
31.3262
 21
-37.503
  0
LINE
  8
0
 10
31.3262
 20
-37.503
 11
31.646
 21
-37.8639
  0
LINE
  8
0
 10
31.646
 20
-37.8639
 11
31.87
 21
-38.2908
  0
LINE
  8
0
 10
31.87
 20
-38.2908
 11
31.9854
 21
-38.7589
  0
LINE
  8
0
 10
31.9854
 20
-38.7589
 11
31.9854
 21
-39.2411
  0
LINE
  8
0
 10
31.9854
 20
-39.2411
 11
31.87
 21
-39.7092
  0
LINE
  8
0
 10
31.87
 20
-39.7092
 11
31.646
 21
-40.1361
  0
LINE
  8
0
 10
31.646
 20
-40.1361
 11
31.3262
 21
-40.497
  0
LINE
  8
0
 10
31.3262
 20
-40.497
 11
30.9294
 21
-40.7709
  0
LINE
  8
0
 10
30.9294
 20
-40.7709
 11
30.4786
 21
-40.9419
  0
LINE
  8
0
 10
30.4786
 20
-40.9419
 11
30
 21
-41
  0
LINE
  8
0
 10
30
 20
-41
 11
29.5214
 21
-40.9419
  0
LINE
  8
0
 10
29.5214
 20
-80.9419
 11
29.0705
 21
-80.7709
  0
LINE
  8
0
 10
29.0705
 20
-80.7709
 11
28.6738
 21
-80.497
  0
LINE
  8
0
 10
28.6738
 20
-80.497
 11
28.354
 21
-80.1361
  0
LINE
  8
0
 10
28.354
 20
-80.1361
 11
28.13
 21
-79.7092
  0
LINE
  8
0
 10
28.13
 20
-79.7092
 11
28.0146
 21
-79.2411
  0
LINE
  8
0
 10
28.0146
 20
-79.2411
 11
28.0146
 21
-78.7589
  0
LINE
  8
0
 10
28.0146
 20
-78.7589
 11
28.13
 21
-78.2908
  0
LINE
  8
0
 10
28.13
 20
-78.2908
 11
28.354
 21
-77.8639
  0
LINE
  8
0
 10
28.354
 20
-77.8639
 11
28.6738
 21
-77.503
  0
LINE
  8
0
 10
28.6738
 20
-77.503
 11
29.0705
 21
-77.2291
  0
LINE
  8
0
 10
29.0705
 20
-77.2291
 11
29.5214
 21
-77.0581
  0
LINE
  8
0
 10
29.5214
 20
-77.0581
 11
30
 21
-77
  0
LINE
  8
0
 10
30
 20
-77
 11
30.4786
 21
-77.0581
  0
LINE
  8
0
 10
30.4786
 20
-77.0581
 11
30.9294
 21
-77.2291
  0
LINE
  8
0
 10
30.9294
 20
-77.2291
 11
31.3262
 21
-77.503
  0
LINE
  8
0
 10
31.3262
 20
-77.503
 11
31.646
 21
-77.8639
  0
LINE
  8
0
 10
31.646
 20
-77.8639
 11
31.87
 21
-78.2908
  0
LINE
  8
0
 10
31.87
 20
-78.2908
 11
31.9854
 21
-78.7589
  0
LINE
  8
0
 10
31.9854
 20
-78.7589
 11
31.9854
 21
-79.2411
  0
LINE
  8
0
 10
31.9854
 20
-79.2411
 11
31.87
 21
-79.7092
  0
LINE
  8
0
 10
31.87
 20
-79.7092
 11
31.646
 21
-80.1361
  0
LINE
  8
0
 10
31.646
 20
-80.1361
 11
31.3262
 21
-80.497
  0
LINE
  8
0
 10
31.3262
 20
-80.497
 11
30.9294
 21
-80.7709
  0
LINE
  8
0
 10
30.9294
 20
-80.7709
 11
30.4786
 21
-80.9419
  0
LINE
  8
0
 10
30.4786
 20
-80.9419
 11
30
 21
-81
  0
LINE
  8
0
 10
30
 20
-81
 11
29.5214
 21
-80.9419
  0
LINE
  8
0
 10
-14.5
 20
-84
 11
0.5
 21
-84
  0
LINE
  8
0
 10
0.5
 20
-84
 11
0.5
 21
-87
  0
LINE
  8
0
 10
0.5
 20
-87
 11
10
 21
-87
  0
LINE
  8
0
 10
10
 20
-87
 11
10.6972
 21
-86.9696
  0
LINE
  8
0
 10
10.6972
 20
-86.9696
 11
11.3892
 21
-86.8785
  0
LINE
  8
0
 10
11.3892
 20
-86.8785
 11
12.0705
 21
-86.7274
  0
LINE
  8
0
 10
12.0705
 20
-86.7274
 11
12.7362
 21
-86.5175
  0
LINE
  8
0
 10
12.7362
 20
-86.5175
 11
13.3809
 21
-86.2505
  0
LINE
  8
0
 10
13.3809
 20
-86.2505
 11
14
 21
-85.9282
  0
LINE
  8
0
 10
14
 20
-85.9282
 11
14.5886
 21
-85.5532
  0
LINE
  8
0
 10
14.5886
 20
-85.5532
 11
15.1423
 21
-85.1284
  0
LINE
  8
0
 10
15.1423
 20
-85.1284
 11
15.6568
 21
-84.6568
  0
LINE
  8
0
 10
15.6568
 20
-84.6568
 11
16.1283
 21
-84.1423
  0
LINE
  8
0
 10
16.1283
 20
-84.1423
 11
16.5532
 21
-83.5886
  0
LINE
  8
0
 10
16.5532
 20
-83.5886
 11
16.9282
 21
-83
  0
LINE
  8
0
 10
16.9282
 20
-83
 11
17.2505
 21
-82.3809
  0
LINE
  8
0
 10
17.2505
 20
-82.3809
 11
17.5175
 21
-81.7362
  0
LINE
  8
0
 10
17.5175
 20
-81.7362
 11
17.7274
 21
-81.0705
  0
LINE
  8
0
 10
17.7274
 20
-81.0705
 11
17.8784
 21
-80.3892
  0
LINE
  8
0
 10
17.8784
 20
-80.3892
 11
17.9695
 21
-79.6972
  0
LINE
  8
0
 10
17.9695
 20
-79.6972
 11
18
 21
-79
  0
LINE
  8
0
 10
18
 20
-79
 11
17.9695
 21
-78.3027
  0
LINE
  8
0
 10
17.9695
 20
-78.3027
 11
17.8784
 21
-77.6108
  0
LINE
  8
0
 10
17.8784
 20
-77.6108
 11
17.7274
 21
-76.9294
  0
LINE
  8
0
 10
17.7274
 20
-76.9294
 11
17.5175
 21
-76.2638
  0
LINE
  8
0
 10
17.5175
 20
-76.2638
 11
17.2505
 21
-75.619
  0
LINE
  8
0
 10
17.2505
 20
-75.619
 11
16.9282
 21
-75
  0
LINE
  8
0
 10
16.9282
 20
-75
 11
16.5532
 21
-74.4114
  0
LINE
  8
0
 10
16.5532
 20
-74.4114
 11
16.1283
 21
-73.8577
  0
LINE
  8
0
 10
16.1283
 20
-73.8577
 11
15.6568
 21
-73.3431
  0
LINE
  8
0
 10
15.6568
 20
-73.3431
 11
15.1423
 21
-72.8716
  0
LINE
  8
0
 10
15.1423
 20
-72.8716
 11
14.5886
 21
-72.4468
  0
LINE
  8
0
 10
14.5886
 20
-72.4468
 11
14
 21
-72.0718
  0
LINE
  8
0
 10
14
 20
-72.0718
 11
13.3809
 21
-71.7495
  0
LINE
  8
0
 10
13.3809
 20
-71.7495
 11
12.7362
 21
-71.4825
  0
LINE
  8
0
 10
12.7362
 20
-71.4825
 11
12.0705
 21
-71.2726
  0
LINE
  8
0
 10
12.0705
 20
-71.2726
 11
11.3892
 21
-71.1215
  0
LINE
  8
0
 10
11.3892
 20
-71.1215
 11
10.6972
 21
-71.0304
  0
LINE
  8
0
 10
10.6972
 20
-71.0304
 11
10
 21
-71
  0
LINE
  8
0
 10
10
 20
-71
 11
-22
 21
-71
  0
LINE
  8
0
 10
-22
 20
-71
 11
-22
 21
-39
  0
LINE
  8
0
 10
-22
 20
-39
 11
-22.0304
 21
-38.3027
  0
LINE
  8
0
 10
-22.0304
 20
-38.3027
 11
-22.1215
 21
-37.6108
  0
LINE
  8
0
 10
-22.1215
 20
-37.6108
 11
-22.2726
 21
-36.9294
  0
LINE
  8
0
 10
-22.2726
 20
-36.9294
 11
-22.4825
 21
-36.2638
  0
LINE
  8
0
 10
-22.4825
 20
-36.2638
 11
-22.7495
 21
-35.619
  0
LINE
  8
0
 10
-22.7495
 20
-35.619
 11
-23.0718
 21
-35
  0
LINE
  8
0
 10
-23.0718
 20
-35
 11
-23.4468
 21
-34.4114
  0
LINE
  8
0
 10
-23.4468
 20
-34.4114
 11
-23.8716
 21
-33.8577
  0
LINE
  8
0
 10
-23.8716
 20
-33.8577
 11
-24.3431
 21
-33.3431
  0
LINE
  8
0
 10
-24.3431
 20
-33.3431
 11
-24.8577
 21
-32.8716
  0
LINE
  8
0
 10
-24.8577
 20
-32.8716
 11
-25.4114
 21
-32.4468
  0
LINE
  8
0
 10
-25.4114
 20
-32.4468
 11
-26
 21
-32.0718
  0
LINE
  8
0
 10
-26
 20
-32.0718
 11
-26.619
 21
-31.7495
  0
LINE
  8
0
 10
-26.619
 20
-31.7495
 11
-27.2638
 21
-31.4825
  0
LINE
  8
0
 10
-27.2638
 20
-31.4825
 11
-27.9294
 21
-31.2726
  0
LINE
  8
0
 10
-27.9294
 20
-31.2726
 11
-28.6108
 21
-31.1215
  0
LINE
  8
0
 10
-28.6108
 20
-31.1215
 11
-29.3027
 21
-31.0304
  0
LINE
  8
0
 10
-29.3027
 20
-31.0304
 11
-30
 21
-31
  0
LINE
  8
0
 10
-30
 20
-31
 11
-30.6972
 21
-31.0304
  0
LINE
  8
0
 10
-30.6972
 20
-31.0304
 11
-31.3892
 21
-31.1215
  0
LINE
  8
0
 10
-31.3892
 20
-31.1215
 11
-32.0705
 21
-31.2726
  0
LINE
  8
0
 10
-32.0705
 20
-31.2726
 11
-32.7362
 21
-31.4825
  0
LINE
  8
0
 10
-32.7362
 20
-31.4825
 11
-33.3809
 21
-31.7495
  0
LINE
  8
0
 10
-33.3809
 20
-31.7495
 11
-34
 21
-32.0718
  0
LINE
  8
0
 10
-34
 20
-32.0718
 11
-34.5886
 21
-32.4468
  0
LINE
  8
0
 10
-34.5886
 20
-32.4468
 11
-35.1423
 21
-32.8716
  0
LINE
  8
0
 10
-35.1423
 20
-32.8716
 11
-35.6568
 21
-33.3431
  0
LINE
  8
0
 10
-35.6568
 20
-33.3431
 11
-36.1284
 21
-33.8577
  0
LINE
  8
0
 10
-36.1284
 20
-33.8577
 11
-36.5532
 21
-34.4114
  0
LINE
  8
0
 10
-36.5532
 20
-34.4114
 11
-36.9282
 21
-35
  0
LINE
  8
0
 10
-36.9282
 20
-35
 11
-37.2505
 21
-35.619
  0
LINE
  8
0
 10
-37.2505
 20
-35.619
 11
-37.5175
 21
-36.2638
  0
LINE
  8
0
 10
-37.5175
 20
-36.2638
 11
-37.7274
 21
-36.9294
  0
LINE
  8
0
 10
-37.7274
 20
-36.9294
 11
-37.8785
 21
-37.6108
  0
LINE
  8
0
 10
-37.8785
 20
-37.6108
 11
-37.9696
 21
-38.3027
  0
LINE
  8
0
 10
-37.9696
 20
-38.3027
 11
-38
 21
-39
  0
LINE
  8
0
 10
-38
 20
-39
 11
-38
 21
-51.5
  0
LINE
  8
0
 10
-38
 20
-51.5
 11
-35
 21
-51.5
  0
LINE
  8
0
 10
-35
 20
-51.5
 11
-35
 21
-66.5
  0
LINE
  8
0
 10
-35
 20
-66.5
 11
-38
 21
-66.5
  0
LINE
  8
0
 10
-38
 20
-66.5
 11
-38
 21
-87
  0
LINE
  8
0
 10
-38
 20
-87
 11
-14.5
 21
-87
  0
LINE
  8
0
 10
-14.5
 20
-87
 11
-14.5
 21
-84
  0
LINE
  8
0
 10
-30.2411
 20
-40.9854
 11
-30.7092
 21
-40.87
  0
LINE
  8
0
 10
-30.7092
 20
-40.87
 11
-31.1361
 21
-40.646
  0
LINE
  8
0
 10
-31.1361
 20
-40.646
 11
-31.497
 21
-40.3262
  0
LINE
  8
0
 10
-31.497
 20
-40.3262
 11
-31.7709
 21
-39.9294
  0
LINE
  8
0
 10
-31.7709
 20
-39.9294
 11
-31.9419
 21
-39.4786
  0
LINE
  8
0
 10
-31.9419
 20
-39.4786
 11
-32
 21
-39
  0
LINE
  8
0
 10
-32
 20
-39
 11
-31.9419
 21
-38.5214
  0
LINE
  8
0
 10
-31.9419
 20
-38.5214
 11
-31.7709
 21
-38.0705
  0
LINE
  8
0
 10
-31.7709
 20
-38.0705
 11
-31.497
 21
-37.6738
  0
LINE
  8
0
 10
-31.497
 20
-37.6738
 11
-31.1361
 21
-37.354
  0
LINE
  8
0
 10
-31.1361
 20
-37.354
 11
-30.7092
 21
-37.13
  0
LINE
  8
0
 10
-30.7092
 20
-37.13
 11
-30.2411
 21
-37.0146
  0
LINE
  8
0
 10
-30.2411
 20
-37.0146
 11
-29.7589
 21
-37.0146
  0
LINE
  8
0
 10
-29.7589
 20
-37.0146
 11
-29.2908
 21
-37.13
  0
LINE
  8
0
 10
-29.2908
 20
-37.13
 11
-28.8639
 21
-37.354
  0
LINE
  8
0
 10
-28.8639
 20
-37.354
 11
-28.503
 21
-37.6738
  0
LINE
  8
0
 10
-28.503
 20
-37.6738
 11
-28.2291
 21
-38.0705
  0
LINE
  8
0
 10
-28.2291
 20
-38.0705
 11
-28.0581
 21
-38.5214
  0
LINE
  8
0
 10
-28.0581
 20
-38.5214
 11
-28
 21
-39
  0
LINE
  8
0
 10
-28
 20
-39
 11
-28.0581
 21
-39.4786
  0
LINE
  8
0
 10
-28.0581
 20
-39.4786
 11
-28.2291
 21
-39.9294
  0
LINE
  8
0
 10
-28.2291
 20
-39.9294
 11
-28.503
 21
-40.3262
  0
LINE
  8
0
 10
-28.503
 20
-40.3262
 11
-28.8639
 21
-40.646
  0
LINE
  8
0
 10
-28.8639
 20
-40.646
 11
-29.2908
 21
-40.87
  0
LINE
  8
0
 10
-29.2908
 20
-40.87
 11
-29.7589
 21
-40.9854
  0
LINE
  8
0
 10
-29.7589
 20
-40.9854
 11
-30.2411
 21
-40.9854
  0
LINE
  8
0
 10
9.75893
 20
-80.9854
 11
9.29079
 21
-80.87
  0
LINE
  8
0
 10
9.29079
 20
-80.87
 11
8.86386
 21
-80.646
  0
LINE
  8
0
 10
8.86386
 20
-80.646
 11
8.50298
 21
-80.3262
  0
LINE
  8
0
 10
8.50298
 20
-80.3262
 11
8.22908
 21
-79.9294
  0
LINE
  8
0
 10
8.22908
 20
-79.9294
 11
8.05811
 21
-79.4786
  0
LINE
  8
0
 10
8.05811
 20
-79.4786
 11
8
 21
-79
  0
LINE
  8
0
 10
8
 20
-79
 11
8.05811
 21
-78.5214
  0
LINE
  8
0
 10
8.05811
 20
-78.5214
 11
8.22908
 21
-78.0706
  0
LINE
  8
0
 10
8.22908
 20
-78.0706
 11
8.50298
 21
-77.6738
  0
LINE
  8
0
 10
8.50298
 20
-77.6738
 11
8.86386
 21
-77.354
  0
LINE
  8
0
 10
8.86386
 20
-77.354
 11
9.29079
 21
-77.13
  0
LINE
  8
0
 10
9.29079
 20
-77.13
 11
9.75893
 21
-77.0146
  0
LINE
  8
0
 10
9.75893
 20
-77.0146
 11
10.2411
 21
-77.0146
  0
LINE
  8
0
 10
10.2411
 20
-77.0146
 11
10.7092
 21
-77.13
  0
LINE
  8
0
 10
10.7092
 20
-77.13
 11
11.1361
 21
-77.354
  0
LINE
  8
0
 10
11.1361
 20
-77.354
 11
11.497
 21
-77.6738
  0
LINE
  8
0
 10
11.497
 20
-77.6738
 11
11.7709
 21
-78.0706
  0
LINE
  8
0
 10
11.7709
 20
-78.0706
 11
11.9419
 21
-78.5214
  0
LINE
  8
0
 10
11.9419
 20
-78.5214
 11
12
 21
-79
  0
LINE
  8
0
 10
12
 20
-79
 11
11.9419
 21
-79.4786
  0
LINE
  8
0
 10
11.9419
 20
-79.4786
 11
11.7709
 21
-79.9294
  0
LINE
  8
0
 10
11.7709
 20
-79.9294
 11
11.497
 21
-80.3262
  0
LINE
  8
0
 10
11.497
 20
-80.3262
 11
11.1361
 21
-80.646
  0
LINE
  8
0
 10
11.1361
 20
-80.646
 11
10.7092
 21
-80.87
  0
LINE
  8
0
 10
10.7092
 20
-80.87
 11
10.2411
 21
-80.9854
  0
LINE
  8
0
 10
10.2411
 20
-80.9854
 11
9.75893
 21
-80.9854
  0
LINE
  8
0
 10
-30.2411
 20
-80.9854
 11
-30.7092
 21
-80.87
  0
LINE
  8
0
 10
-30.7092
 20
-80.87
 11
-31.1361
 21
-80.646
  0
LINE
  8
0
 10
-31.1361
 20
-80.646
 11
-31.497
 21
-80.3262
  0
LINE
  8
0
 10
-31.497
 20
-80.3262
 11
-31.7709
 21
-79.9294
  0
LINE
  8
0
 10
-31.7709
 20
-79.9294
 11
-31.9419
 21
-79.4786
  0
LINE
  8
0
 10
-31.9419
 20
-79.4786
 11
-32
 21
-79
  0
LINE
  8
0
 10
-32
 20
-79
 11
-31.9419
 21
-78.5214
  0
LINE
  8
0
 10
-31.9419
 20
-78.5214
 11
-31.7709
 21
-78.0706
  0
LINE
  8
0
 10
-31.7709
 20
-78.0706
 11
-31.497
 21
-77.6738
  0
LINE
  8
0
 10
-31.497
 20
-77.6738
 11
-31.1361
 21
-77.354
  0
LINE
  8
0
 10
-31.1361
 20
-77.354
 11
-30.7092
 21
-77.13
  0
LINE
  8
0
 10
-30.7092
 20
-77.13
 11
-30.2411
 21
-77.0146
  0
LINE
  8
0
 10
-30.2411
 20
-77.0146
 11
-29.7589
 21
-77.0146
  0
LINE
  8
0
 10
-29.7589
 20
-77.0146
 11
-29.2908
 21
-77.13
  0
LINE
  8
0
 10
-29.2908
 20
-77.13
 11
-28.8639
 21
-77.354
  0
LINE
  8
0
 10
-28.8639
 20
-77.354
 11
-28.503
 21
-77.6738
  0
LINE
  8
0
 10
-28.503
 20
-77.6738
 11
-28.2291
 21
-78.0706
  0
LINE
  8
0
 10
-28.2291
 20
-78.0706
 11
-28.0581
 21
-78.5214
  0
LINE
  8
0
 10
-28.0581
 20
-78.5214
 11
-28
 21
-79
  0
LINE
  8
0
 10
-28
 20
-79
 11
-28.0581
 21
-79.4786
  0
LINE
  8
0
 10
-28.0581
 20
-79.4786
 11
-28.2291
 21
-79.9294
  0
LINE
  8
0
 10
-28.2291
 20
-79.9294
 11
-28.503
 21
-80.3262
  0
LINE
  8
0
 10
-28.503
 20
-80.3262
 11
-28.8639
 21
-80.646
  0
LINE
  8
0
 10
-28.8639
 20
-80.646
 11
-29.2908
 21
-80.87
  0
LINE
  8
0
 10
-29.2908
 20
-80.87
 11
-29.7589
 21
-80.9854
  0
LINE
  8
0
 10
-29.7589
 20
-80.9854
 11
-30.2411
 21
-80.9854
  0
ENDSEC
  0
SECTION
  2
OBJECTS
  0
DICTIONARY
  0
ENDSEC
  0
EOF
