  0
SECTION
  2
BLOCKS
  0
ENDSEC
  0
SECTION
  2
ENTITIES
  0
LINE
  8
0
 10
-39.995
 20
-7.5
 11
-37
 21
-7.5
  0
LINE
  8
0
 10
-37
 20
-7.5
 11
-37
 21
-27.995
  0
LINE
  8
0
 10
-37
 20
-27.995
 11
37
 21
-27.995
  0
LINE
  8
0
 10
37
 20
-27.995
 11
37
 21
-7.5
  0
LINE
  8
0
 10
37
 20
-7.5
 11
39.995
 21
-7.5
  0
LINE
  8
0
 10
39.995
 20
-7.5
 11
39.995
 21
7.5
  0
LINE
  8
0
 10
39.995
 20
7.5
 11
37
 21
7.5
  0
LINE
  8
0
 10
37
 20
7.5
 11
37
 21
11.995
  0
LINE
  8
0
 10
37
 20
11.995
 11
-37
 21
11.995
  0
LINE
  8
0
 10
-37
 20
11.995
 11
-37
 21
7.5
  0
LINE
  8
0
 10
-37
 20
7.5
 11
-39.995
 21
7.5
  0
LINE
  8
0
 10
-39.995
 20
7.5
 11
-39.995
 21
-7.5
  0
LINE
  8
0
 10
-33.2434
 20
-8.71725
 11
-33.1103
 21
-7.65126
  0
LINE
  8
0
 10
-33.1103
 20
-7.65126
 11
-32.711
 21
-6.6946
  0
LINE
  8
0
 10
-32.711
 20
-6.6946
 11
-32.0454
 21
-5.84726
  0
LINE
  8
0
 10
-32.0454
 20
-5.84726
 11
-31.1888
 21
-5.18393
  0
LINE
  8
0
 10
-31.1888
 20
-5.18393
 11
-30.2228
 21
-4.78592
  0
LINE
  8
0
 10
-30.2228
 20
-4.78592
 11
-29.1474
 21
-4.65326
  0
LINE
  8
0
 10
-29.1474
 20
-4.65326
 11
-28.0749
 21
-4.78592
  0
LINE
  8
0
 10
-28.0749
 20
-4.78592
 11
-27.1105
 21
-5.18393
  0
LINE
  8
0
 10
-27.1105
 20
-5.18393
 11
-26.2544
 21
-5.84726
  0
LINE
  8
0
 10
-26.2544
 20
-5.84726
 11
-25.8857
 21
-6.25914
  0
LINE
  8
0
 10
-25.8857
 20
-6.25914
 11
-25.5847
 21
-6.69615
  0
LINE
  8
0
 10
-25.5847
 20
-6.69615
 11
-25.3514
 21
-7.15826
  0
LINE
  8
0
 10
-25.3514
 20
-7.15826
 11
-25.1848
 21
-7.64748
  0
LINE
  8
0
 10
-25.1848
 20
-7.64748
 11
-25.0848
 21
-8.16714
  0
LINE
  8
0
 10
-25.0848
 20
-8.16714
 11
-25.0514
 21
-8.71725
  0
LINE
  8
0
 10
-25.0514
 20
-8.71725
 11
-25.1851
 21
-9.78381
  0
LINE
  8
0
 10
-25.1851
 20
-9.78381
 11
-25.5861
 21
-10.7421
  0
LINE
  8
0
 10
-25.5861
 20
-10.7421
 11
-26.2544
 21
-11.5922
  0
LINE
  8
0
 10
-26.2544
 20
-11.5922
 11
-27.1083
 21
-12.2528
  0
LINE
  8
0
 10
-27.1083
 20
-12.2528
 11
-28.0727
 21
-12.6491
  0
LINE
  8
0
 10
-28.0727
 20
-12.6491
 11
-29.1474
 21
-12.7812
  0
LINE
  8
0
 10
-29.1474
 20
-12.7812
 11
-30.225
 21
-12.6491
  0
LINE
  8
0
 10
-30.225
 20
-12.6491
 11
-31.191
 21
-12.2528
  0
LINE
  8
0
 10
-31.191
 20
-12.2528
 11
-32.0454
 21
-11.5922
  0
LINE
  8
0
 10
-32.0454
 20
-11.5922
 11
-32.711
 21
-10.7448
  0
LINE
  8
0
 10
-32.711
 20
-10.7448
 11
-33.1103
 21
-9.78648
  0
LINE
  8
0
 10
-33.1103
 20
-9.78648
 11
-33.2434
 21
-8.71725
  0
LINE
  8
0
 10
-24.4886
 20
-14.6852
 11
-24.4886
 21
-9.93025
  0
LINE
  8
0
 10
-24.4886
 20
-9.93025
 11
-24.3949
 21
-9.18271
  0
LINE
  8
0
 10
-24.3949
 20
-9.18271
 11
-24.1139
 21
-8.51204
  0
LINE
  8
0
 10
-24.1139
 20
-8.51204
 11
-23.6456
 21
-7.91826
  0
LINE
  8
0
 10
-23.6456
 20
-7.91826
 11
-23.0441
 21
-7.45547
  0
LINE
  8
0
 10
-23.0441
 20
-7.45547
 11
-22.3651
 21
-7.17781
  0
LINE
  8
0
 10
-22.3651
 20
-7.17781
 11
-21.6086
 21
-7.08525
  0
LINE
  8
0
 10
-21.6086
 20
-7.08525
 11
-20.8564
 21
-7.17792
  0
LINE
  8
0
 10
-20.8564
 20
-7.17792
 11
-20.1774
 21
-7.45592
  0
LINE
  8
0
 10
-20.1774
 20
-7.45592
 11
-19.5715
 21
-7.91925
  0
LINE
  8
0
 10
-19.5715
 20
-7.91925
 11
-19.3142
 21
-8.20438
  0
LINE
  8
0
 10
-19.3142
 20
-8.20438
 11
-19.1035
 21
-8.51038
  0
LINE
  8
0
 10
-19.1035
 20
-8.51038
 11
-18.9395
 21
-8.83727
  0
LINE
  8
0
 10
-18.9395
 20
-8.83727
 11
-18.8223
 21
-9.18393
  0
LINE
  8
0
 10
-18.8223
 20
-9.18393
 11
-18.752
 21
-9.54926
  0
LINE
  8
0
 10
-18.752
 20
-9.54926
 11
-18.7285
 21
-9.93326
  0
LINE
  8
0
 10
-18.7285
 20
-9.93326
 11
-18.822
 21
-10.6859
  0
LINE
  8
0
 10
-18.822
 20
-10.6859
 11
-19.1023
 21
-11.3572
  0
LINE
  8
0
 10
-19.1023
 20
-11.3572
 11
-19.5695
 21
-11.9472
  0
LINE
  8
0
 10
-19.5695
 20
-11.9472
 11
-19.8651
 21
-12.2046
  0
LINE
  8
0
 10
-19.8651
 20
-12.2046
 11
-20.1771
 21
-12.4139
  0
LINE
  8
0
 10
-20.1771
 20
-12.4139
 11
-20.5056
 21
-12.5752
  0
LINE
  8
0
 10
-20.5056
 20
-12.5752
 11
-20.8517
 21
-12.6897
  0
LINE
  8
0
 10
-20.8517
 20
-12.6897
 11
-21.2167
 21
-12.7583
  0
LINE
  8
0
 10
-21.2167
 20
-12.7583
 11
-21.6006
 21
-12.7812
  0
LINE
  8
0
 10
-21.6006
 20
-12.7812
 11
-22.2588
 21
-12.7101
  0
LINE
  8
0
 10
-22.2588
 20
-12.7101
 11
-22.8588
 21
-12.4968
  0
LINE
  8
0
 10
-22.8588
 20
-12.4968
 11
-23.4006
 21
-12.1412
  0
LINE
  8
0
 10
-23.4006
 20
-12.1412
 11
-23.4006
 21
-14.6832
  0
LINE
  8
0
 10
-23.4006
 20
-14.6832
 11
-23.4182
 21
-14.8271
  0
LINE
  8
0
 10
-23.4182
 20
-14.8271
 11
-23.4712
 21
-14.9535
  0
LINE
  8
0
 10
-23.4712
 20
-14.9535
 11
-23.5596
 21
-15.0622
  0
LINE
  8
0
 10
-23.5596
 20
-15.0622
 11
-23.6733
 21
-15.1461
  0
LINE
  8
0
 10
-23.6733
 20
-15.1461
 11
-23.8027
 21
-15.1965
  0
LINE
  8
0
 10
-23.8027
 20
-15.1965
 11
-23.9476
 21
-15.2132
  0
LINE
  8
0
 10
-23.9476
 20
-15.2132
 11
-24.0947
 21
-15.1966
  0
LINE
  8
0
 10
-24.0947
 20
-15.1966
 11
-24.224
 21
-15.1466
  0
LINE
  8
0
 10
-24.224
 20
-15.1466
 11
-24.3356
 21
-15.0632
  0
LINE
  8
0
 10
-24.3356
 20
-15.0632
 11
-24.4205
 21
-14.9546
  0
LINE
  8
0
 10
-24.4205
 20
-14.9546
 11
-24.4716
 21
-14.8286
  0
LINE
  8
0
 10
-24.4716
 20
-14.8286
 11
-24.4886
 21
-14.6852
  0
LINE
  8
0
 10
-18.0974
 20
-9.93326
 11
-18.0046
 21
-9.18503
  0
LINE
  8
0
 10
-18.0046
 20
-9.18503
 11
-17.7263
 21
-8.5137
  0
LINE
  8
0
 10
-17.7263
 20
-8.5137
 11
-17.2624
 21
-7.91925
  0
LINE
  8
0
 10
-17.2624
 20
-7.91925
 11
-16.6671
 21
-7.45592
  0
LINE
  8
0
 10
-16.6671
 20
-7.45592
 11
-15.9948
 21
-7.17792
  0
LINE
  8
0
 10
-15.9948
 20
-7.17792
 11
-15.2454
 21
-7.08525
  0
LINE
  8
0
 10
-15.2454
 20
-7.08525
 11
-14.5004
 21
-7.17838
  0
LINE
  8
0
 10
-14.5004
 20
-7.17838
 11
-13.828
 21
-7.4577
  0
LINE
  8
0
 10
-13.828
 20
-7.4577
 11
-13.2284
 21
-7.92326
  0
LINE
  8
0
 10
-13.2284
 20
-7.92326
 11
-12.9729
 21
-8.2097
  0
LINE
  8
0
 10
-12.9729
 20
-8.2097
 11
-12.7639
 21
-8.51703
  0
LINE
  8
0
 10
-12.7639
 20
-8.51703
 11
-12.6014
 21
-8.84526
  0
LINE
  8
0
 10
-12.6014
 20
-8.84526
 11
-12.4852
 21
-9.19337
  0
LINE
  8
0
 10
-12.4852
 20
-9.19337
 11
-12.4156
 21
-9.56036
  0
LINE
  8
0
 10
-12.4156
 20
-9.56036
 11
-12.3924
 21
-9.94626
  0
LINE
  8
0
 10
-12.3924
 20
-9.94626
 11
-12.4097
 21
-10.0908
  0
LINE
  8
0
 10
-12.4097
 20
-10.0908
 11
-12.4617
 21
-10.2178
  0
LINE
  8
0
 10
-12.4617
 20
-10.2178
 11
-12.5484
 21
-10.3272
  0
LINE
  8
0
 10
-12.5484
 20
-10.3272
 11
-12.6594
 21
-10.4106
  0
LINE
  8
0
 10
-12.6594
 20
-10.4106
 11
-12.7857
 21
-10.4606
  0
LINE
  8
0
 10
-12.7857
 20
-10.4606
 11
-12.9274
 21
-10.4772
  0
LINE
  8
0
 10
-12.9274
 20
-10.4772
 11
-16.9624
 21
-10.4772
  0
LINE
  8
0
 10
-16.9624
 20
-10.4772
 11
-16.8954
 21
-10.6527
  0
LINE
  8
0
 10
-16.8954
 20
-10.6527
 11
-16.8104
 21
-10.8177
  0
LINE
  8
0
 10
-16.8104
 20
-10.8177
 11
-16.7074
 21
-10.9722
  0
LINE
  8
0
 10
-16.7074
 20
-10.9722
 11
-16.5888
 21
-11.1145
  0
LINE
  8
0
 10
-16.5888
 20
-11.1145
 11
-16.4571
 21
-11.2425
  0
LINE
  8
0
 10
-16.4571
 20
-11.2425
 11
-16.3124
 21
-11.3562
  0
LINE
  8
0
 10
-16.3124
 20
-11.3562
 11
-16.156
 21
-11.455
  0
LINE
  8
0
 10
-16.156
 20
-11.455
 11
-15.9897
 21
-11.538
  0
LINE
  8
0
 10
-15.9897
 20
-11.538
 11
-15.8134
 21
-11.6052
  0
LINE
  8
0
 10
-15.8134
 20
-11.6052
 11
-15.6289
 21
-11.6541
  0
LINE
  8
0
 10
-15.6289
 20
-11.6541
 11
-15.4396
 21
-11.6835
  0
LINE
  8
0
 10
-15.4396
 20
-11.6835
 11
-15.2454
 21
-11.6932
  0
LINE
  8
0
 10
-15.2454
 20
-11.6932
 11
-15.0276
 21
-11.6826
  0
LINE
  8
0
 10
-15.0276
 20
-11.6826
 11
-14.8223
 21
-11.6506
  0
LINE
  8
0
 10
-14.8223
 20
-11.6506
 11
-14.6294
 21
-11.5972
  0
LINE
  8
0
 10
-14.6294
 20
-11.5972
 11
-14.4467
 21
-11.5219
  0
LINE
  8
0
 10
-14.4467
 20
-11.5219
 11
-14.2734
 21
-11.4252
  0
LINE
  8
0
 10
-14.2734
 20
-11.4252
 11
-14.1094
 21
-11.3072
  0
LINE
  8
0
 10
-14.1094
 20
-11.3072
 11
-14.0024
 21
-11.2395
  0
LINE
  8
0
 10
-14.0024
 20
-11.2395
 11
-13.8854
 21
-11.1975
  0
LINE
  8
0
 10
-13.8854
 20
-11.1975
 11
-13.7584
 21
-11.1812
  0
LINE
  8
0
 10
-13.7584
 20
-11.1812
 11
-13.6139
 21
-11.1979
  0
LINE
  8
0
 10
-13.6139
 20
-11.1979
 11
-13.4873
 21
-11.2479
  0
LINE
  8
0
 10
-13.4873
 20
-11.2479
 11
-13.3784
 21
-11.3312
  0
LINE
  8
0
 10
-13.3784
 20
-11.3312
 11
-13.295
 21
-11.4399
  0
LINE
  8
0
 10
-13.295
 20
-11.4399
 11
-13.245
 21
-11.5659
  0
LINE
  8
0
 10
-13.245
 20
-11.5659
 11
-13.2284
 21
-11.7092
  0
LINE
  8
0
 10
-13.2284
 20
-11.7092
 11
-13.2454
 21
-11.8511
  0
LINE
  8
0
 10
-13.2454
 20
-11.8511
 11
-13.2964
 21
-11.9781
  0
LINE
  8
0
 10
-13.2964
 20
-11.9781
 11
-13.3814
 21
-12.0902
  0
LINE
  8
0
 10
-13.3814
 20
-12.0902
 11
-13.9391
 21
-12.4741
  0
LINE
  8
0
 10
-13.9391
 20
-12.4741
 11
-14.5605
 21
-12.7045
  0
LINE
  8
0
 10
-14.5605
 20
-12.7045
 11
-15.2454
 21
-12.7812
  0
LINE
  8
0
 10
-15.2454
 20
-12.7812
 11
-15.9948
 21
-12.6886
  0
LINE
  8
0
 10
-15.9948
 20
-12.6886
 11
-16.6671
 21
-12.4106
  0
LINE
  8
0
 10
-16.6671
 20
-12.4106
 11
-17.2624
 21
-11.9472
  0
LINE
  8
0
 10
-17.2624
 20
-11.9472
 11
-17.7263
 21
-11.3528
  0
LINE
  8
0
 10
-17.7263
 20
-11.3528
 11
-18.0046
 21
-10.6815
  0
LINE
  8
0
 10
-18.0046
 20
-10.6815
 11
-18.0974
 21
-9.93326
  0
LINE
  8
0
 10
-11.7542
 20
-12.2472
 11
-11.7542
 21
-7.61926
  0
LINE
  8
0
 10
-11.7542
 20
-7.61926
 11
-11.7365
 21
-7.48015
  0
LINE
  8
0
 10
-11.7365
 20
-7.48015
 11
-11.6835
 21
-7.35481
  0
LINE
  8
0
 10
-11.6835
 20
-7.35481
 11
-11.5952
 21
-7.24326
  0
LINE
  8
0
 10
-11.5952
 20
-7.24326
 11
-11.4814
 21
-7.15549
  0
LINE
  8
0
 10
-11.4814
 20
-7.15549
 11
-11.3521
 21
-7.10281
  0
LINE
  8
0
 10
-11.3521
 20
-7.10281
 11
-11.2072
 21
-7.08525
  0
LINE
  8
0
 10
-11.2072
 20
-7.08525
 11
-11.0656
 21
-7.10326
  0
LINE
  8
0
 10
-11.0656
 20
-7.10326
 11
-10.9383
 21
-7.15726
  0
LINE
  8
0
 10
-10.9383
 20
-7.15726
 11
-10.8252
 21
-7.24725
  0
LINE
  8
0
 10
-10.8252
 20
-7.24725
 11
-10.7368
 21
-7.36037
  0
LINE
  8
0
 10
-10.7368
 20
-7.36037
 11
-10.6838
 21
-7.48503
  0
LINE
  8
0
 10
-10.6838
 20
-7.48503
 11
-10.6662
 21
-7.62126
  0
LINE
  8
0
 10
-10.6662
 20
-7.62126
 11
-10.1841
 21
-7.32349
  0
LINE
  8
0
 10
-10.1841
 20
-7.32349
 11
-9.64839
 21
-7.14481
  0
LINE
  8
0
 10
-9.64839
 20
-7.14481
 11
-9.05917
 21
-7.08525
  0
LINE
  8
0
 10
-9.05917
 20
-7.08525
 11
-8.70529
 21
-7.10847
  0
LINE
  8
0
 10
-8.70529
 20
-7.10847
 11
-8.36362
 21
-7.17815
  0
LINE
  8
0
 10
-8.36362
 20
-7.17815
 11
-8.03418
 21
-7.29425
  0
LINE
  8
0
 10
-8.03418
 20
-7.29425
 11
-7.72362
 21
-7.44971
  0
LINE
  8
0
 10
-7.72362
 20
-7.44971
 11
-7.43861
 21
-7.6387
  0
LINE
  8
0
 10
-7.43861
 20
-7.6387
 11
-7.17917
 21
-7.86125
  0
LINE
  8
0
 10
-7.17917
 20
-7.86125
 11
-6.94974
 21
-8.11415
  0
LINE
  8
0
 10
-6.94974
 20
-8.11415
 11
-6.75473
 21
-8.39548
  0
LINE
  8
0
 10
-6.75473
 20
-8.39548
 11
-6.59418
 21
-8.70526
  0
LINE
  8
0
 10
-6.59418
 20
-8.70526
 11
-6.47418
 21
-9.03581
  0
LINE
  8
0
 10
-6.47418
 20
-9.03581
 11
-6.40218
 21
-9.38081
  0
LINE
  8
0
 10
-6.40218
 20
-9.38081
 11
-6.37817
 21
-9.74026
  0
LINE
  8
0
 10
-6.37817
 20
-9.74026
 11
-6.37817
 21
-12.2472
  0
LINE
  8
0
 10
-6.37817
 20
-12.2472
 11
-6.39584
 21
-12.3889
  0
LINE
  8
0
 10
-6.39584
 20
-12.3889
 11
-6.44884
 21
-12.5152
  0
LINE
  8
0
 10
-6.44884
 20
-12.5152
 11
-6.53717
 21
-12.6262
  0
LINE
  8
0
 10
-6.53717
 20
-12.6262
 11
-6.65028
 21
-12.7124
  0
LINE
  8
0
 10
-6.65028
 20
-12.7124
 11
-6.77762
 21
-12.764
  0
LINE
  8
0
 10
-6.77762
 20
-12.764
 11
-6.91917
 21
-12.7812
  0
LINE
  8
0
 10
-6.91917
 20
-12.7812
 11
-7.06407
 21
-12.7641
  0
LINE
  8
0
 10
-7.06407
 20
-12.7641
 11
-7.19341
 21
-12.7128
  0
LINE
  8
0
 10
-7.19341
 20
-12.7128
 11
-7.30717
 21
-12.6272
  0
LINE
  8
0
 10
-7.30717
 20
-12.6272
 11
-7.39551
 21
-12.5165
  0
LINE
  8
0
 10
-7.39551
 20
-12.5165
 11
-7.44852
 21
-12.3908
  0
LINE
  8
0
 10
-7.44852
 20
-12.3908
 11
-7.46617
 21
-12.2502
  0
LINE
  8
0
 10
-7.46617
 20
-12.2502
 11
-7.46617
 21
-9.75626
  0
LINE
  8
0
 10
-7.46617
 20
-9.75626
 11
-7.48039
 21
-9.54425
  0
LINE
  8
0
 10
-7.48039
 20
-9.54425
 11
-7.52307
 21
-9.34026
  0
LINE
  8
0
 10
-7.52307
 20
-9.34026
 11
-7.59418
 21
-9.14426
  0
LINE
  8
0
 10
-7.59418
 20
-9.14426
 11
-7.68939
 21
-8.96037
  0
LINE
  8
0
 10
-7.68939
 20
-8.96037
 11
-7.8044
 21
-8.79271
  0
LINE
  8
0
 10
-7.8044
 20
-8.79271
 11
-7.93918
 21
-8.64125
  0
LINE
  8
0
 10
-7.93918
 20
-8.64125
 11
-8.09218
 21
-8.50781
  0
LINE
  8
0
 10
-8.09218
 20
-8.50781
 11
-8.26184
 21
-8.39415
  0
LINE
  8
0
 10
-8.26184
 20
-8.39415
 11
-8.44818
 21
-8.30026
  0
LINE
  8
0
 10
-8.44818
 20
-8.30026
 11
-8.64618
 21
-8.22971
  0
LINE
  8
0
 10
-8.64618
 20
-8.22971
 11
-8.85217
 21
-8.18736
  0
LINE
  8
0
 10
-8.85217
 20
-8.18736
 11
-9.06618
 21
-8.17326
  0
LINE
  8
0
 10
-9.06618
 20
-8.17326
 11
-9.28273
 21
-8.18704
  0
LINE
  8
0
 10
-9.28273
 20
-8.18704
 11
-9.48973
 21
-8.22836
  0
LINE
  8
0
 10
-9.48973
 20
-8.22836
 11
-9.68718
 21
-8.29726
  0
LINE
  8
0
 10
-9.68718
 20
-8.29726
 11
-9.87218
 21
-8.39037
  0
LINE
  8
0
 10
-9.87218
 20
-8.39037
 11
-10.0418
 21
-8.50436
  0
LINE
  8
0
 10
-10.0418
 20
-8.50436
 11
-10.1962
 21
-8.63925
  0
LINE
  8
0
 10
-10.1962
 20
-8.63925
 11
-10.3323
 21
-8.79181
  0
LINE
  8
0
 10
-10.3323
 20
-8.79181
 11
-10.4473
 21
-8.96014
  0
LINE
  8
0
 10
-10.4473
 20
-8.96014
 11
-10.5412
 21
-9.14426
  0
LINE
  8
0
 10
-10.5412
 20
-9.14426
 11
-10.6106
 21
-9.34026
  0
LINE
  8
0
 10
-10.6106
 20
-9.34026
 11
-10.6523
 21
-9.54425
  0
LINE
  8
0
 10
-10.6523
 20
-9.54425
 11
-10.6662
 21
-9.75626
  0
LINE
  8
0
 10
-10.6662
 20
-9.75626
 11
-10.6662
 21
-12.2502
  0
LINE
  8
0
 10
-10.6662
 20
-12.2502
 11
-10.6838
 21
-12.3908
  0
LINE
  8
0
 10
-10.6838
 20
-12.3908
 11
-10.7368
 21
-12.5165
  0
LINE
  8
0
 10
-10.7368
 20
-12.5165
 11
-10.8252
 21
-12.6272
  0
LINE
  8
0
 10
-10.8252
 20
-12.6272
 11
-10.9383
 21
-12.7128
  0
LINE
  8
0
 10
-10.9383
 20
-12.7128
 11
-11.0656
 21
-12.7641
  0
LINE
  8
0
 10
-11.0656
 20
-12.7641
 11
-11.2072
 21
-12.7812
  0
LINE
  8
0
 10
-11.2072
 20
-12.7812
 11
-11.3521
 21
-12.764
  0
LINE
  8
0
 10
-11.3521
 20
-12.764
 11
-11.4814
 21
-12.7124
  0
LINE
  8
0
 10
-11.4814
 20
-12.7124
 11
-11.5952
 21
-12.6262
  0
LINE
  8
0
 10
-11.5952
 20
-12.6262
 11
-11.6835
 21
-12.5152
  0
LINE
  8
0
 10
-11.6835
 20
-12.5152
 11
-11.7365
 21
-12.3889
  0
LINE
  8
0
 10
-11.7365
 20
-12.3889
 11
-11.7542
 21
-12.2472
  0
LINE
  8
0
 10
-5.78445
 20
-12.2432
 11
-5.78445
 21
-5.19125
  0
LINE
  8
0
 10
-5.78445
 20
-5.19125
 11
-5.77968
 21
-5.11859
  0
LINE
  8
0
 10
-5.77968
 20
-5.11859
 11
-5.76534
 21
-5.04858
  0
LINE
  8
0
 10
-5.76534
 20
-5.04858
 11
-5.74146
 21
-4.98126
  0
LINE
  8
0
 10
-5.74146
 20
-4.98126
 11
-5.70889
 21
-4.91837
  0
LINE
  8
0
 10
-5.70889
 20
-4.91837
 11
-5.66989
 21
-4.86171
  0
LINE
  8
0
 10
-5.66989
 20
-4.86171
 11
-5.62445
 21
-4.81126
  0
LINE
  8
0
 10
-5.62445
 20
-4.81126
 11
-5.57256
 21
-4.76648
  0
LINE
  8
0
 10
-5.57256
 20
-4.76648
 11
-5.51556
 21
-4.72815
  0
LINE
  8
0
 10
-5.51556
 20
-4.72815
 11
-5.45345
 21
-4.69626
  0
LINE
  8
0
 10
-5.45345
 20
-4.69626
 11
-5.38712
 21
-4.67236
  0
LINE
  8
0
 10
-5.38712
 20
-4.67236
 11
-5.31744
 21
-4.65804
  0
LINE
  8
0
 10
-5.31744
 20
-4.65804
 11
-5.24445
 21
-4.65326
  0
LINE
  8
0
 10
-5.24445
 20
-4.65326
 11
-3.66945
 21
-4.65326
  0
LINE
  8
0
 10
-3.66945
 20
-4.65326
 11
-3.38623
 21
-4.67159
  0
LINE
  8
0
 10
-3.38623
 20
-4.67159
 11
-3.11389
 21
-4.72659
  0
LINE
  8
0
 10
-3.11389
 20
-4.72659
 11
-2.85245
 21
-4.81825
  0
LINE
  8
0
 10
-2.85245
 20
-4.81825
 11
-2.60657
 21
-4.94182
  0
LINE
  8
0
 10
-2.60657
 20
-4.94182
 11
-2.38223
 21
-5.09248
  0
LINE
  8
0
 10
-2.38223
 20
-5.09248
 11
-2.17944
 21
-5.27026
  0
LINE
  8
0
 10
-2.17944
 20
-5.27026
 11
-2.00111
 21
-5.47237
  0
LINE
  8
0
 10
-2.00111
 20
-5.47237
 11
-1.93316
 21
-5.57301
  0
LINE
  8
0
 10
-1.93316
 20
-5.57301
 11
-1.85011
 21
-5.69603
  0
LINE
  8
0
 10
-1.85011
 20
-5.69603
 11
-1.72646
 21
-5.94125
  0
LINE
  8
0
 10
-1.72646
 20
-5.94125
 11
-1.63423
 21
-6.20204
  0
LINE
  8
0
 10
-1.63423
 20
-6.20204
 11
-1.57889
 21
-6.47371
  0
LINE
  8
0
 10
-1.57889
 20
-6.47371
 11
-1.56045
 21
-6.75626
  0
LINE
  8
0
 10
-1.56045
 20
-6.75626
 11
-1.61368
 21
-7.24893
  0
LINE
  8
0
 10
-1.61368
 20
-7.24893
 11
-1.77333
 21
-7.69759
  0
LINE
  8
0
 10
-1.77333
 20
-7.69759
 11
-1.89308
 21
-7.87969
  0
LINE
  8
0
 10
-1.89308
 20
-7.87969
 11
-2.03944
 21
-8.10226
  0
LINE
  8
0
 10
-2.03944
 20
-8.10226
 11
-1.95015
 21
-8.15996
  0
LINE
  8
0
 10
-1.95015
 20
-8.15996
 11
-1.841
 21
-8.23048
  0
LINE
  8
0
 10
-1.841
 20
-8.23048
 11
-1.66034
 21
-8.37114
  0
LINE
  8
0
 10
-1.66034
 20
-8.37114
 11
-1.49745
 21
-8.52426
  0
LINE
  8
0
 10
-1.49745
 20
-8.52426
 11
-1.35167
 21
-8.68837
  0
LINE
  8
0
 10
-1.35167
 20
-8.68837
 11
-1.22234
 21
-8.86203
  0
LINE
  8
0
 10
-1.22234
 20
-8.86203
 11
-1.10945
 21
-9.04526
  0
LINE
  8
0
 10
-1.10945
 20
-9.04526
 11
-1.01334
 21
-9.23659
  0
LINE
  8
0
 10
-1.01334
 20
-9.23659
 11
-0.934341
 21
-9.43459
  0
LINE
  8
0
 10
-0.934341
 20
-9.43459
 11
-0.872451
 21
-9.63925
  0
LINE
  8
0
 10
-0.872451
 20
-9.63925
 11
-0.828002
 21
-9.84937
  0
LINE
  8
0
 10
-0.828002
 20
-9.84937
 11
-0.801345
 21
-10.0637
  0
LINE
  8
0
 10
-0.801345
 20
-10.0637
 11
-0.792449
 21
-10.2822
  0
LINE
  8
0
 10
-0.792449
 20
-10.2822
 11
-0.814453
 21
-10.6178
  0
LINE
  8
0
 10
-0.814453
 20
-10.6178
 11
-0.880447
 21
-10.9405
  0
LINE
  8
0
 10
-0.880447
 20
-10.9405
 11
-0.990447
 21
-11.2502
  0
LINE
  8
0
 10
-0.990447
 20
-11.2502
 11
-1.138
 21
-11.5404
  0
LINE
  8
0
 10
-1.138
 20
-11.5404
 11
-1.31667
 21
-11.8054
  0
LINE
  8
0
 10
-1.31667
 20
-11.8054
 11
-1.52644
 21
-12.0452
  0
LINE
  8
0
 10
-1.52644
 20
-12.0452
 11
-1.76479
 21
-12.2561
  0
LINE
  8
0
 10
-1.76479
 20
-12.2561
 11
-1.88373
 21
-12.3368
  0
LINE
  8
0
 10
-1.88373
 20
-12.3368
 11
-2.02911
 21
-12.4355
  0
LINE
  8
0
 10
-2.02911
 20
-12.4355
 11
-2.31944
 21
-12.5832
  0
LINE
  8
0
 10
-2.31944
 20
-12.5832
 11
-2.62856
 21
-12.6932
  0
LINE
  8
0
 10
-2.62856
 20
-12.6932
 11
-2.95056
 21
-12.7592
  0
LINE
  8
0
 10
-2.95056
 20
-12.7592
 11
-3.28545
 21
-12.7812
  0
LINE
  8
0
 10
-3.28545
 20
-12.7812
 11
-5.24644
 21
-12.7812
  0
LINE
  8
0
 10
-5.24644
 20
-12.7812
 11
-5.31889
 21
-12.7765
  0
LINE
  8
0
 10
-5.31889
 20
-12.7765
 11
-5.38823
 21
-12.7621
  0
LINE
  8
0
 10
-5.38823
 20
-12.7621
 11
-5.45445
 21
-12.7382
  0
LINE
  8
0
 10
-5.45445
 20
-12.7382
 11
-5.51601
 21
-12.7065
  0
LINE
  8
0
 10
-5.51601
 20
-12.7065
 11
-5.57268
 21
-12.6685
  0
LINE
  8
0
 10
-5.57268
 20
-12.6685
 11
-5.62445
 21
-12.6242
  0
LINE
  8
0
 10
-5.62445
 20
-12.6242
 11
-5.67033
 21
-12.5732
  0
LINE
  8
0
 10
-5.67033
 20
-12.5732
 11
-5.70934
 21
-12.5162
  0
LINE
  8
0
 10
-5.70934
 20
-12.5162
 11
-5.74146
 21
-12.4532
  0
LINE
  8
0
 10
-5.74146
 20
-12.4532
 11
-5.76534
 21
-12.3859
  0
LINE
  8
0
 10
-5.76534
 20
-12.3859
 11
-5.77968
 21
-12.3159
  0
LINE
  8
0
 10
-5.77968
 20
-12.3159
 11
-5.78445
 21
-12.2432
  0
LINE
  8
0
 10
-2.45
 20
0
 11
-2.39985
 21
0.493181
  0
LINE
  8
0
 10
-2.39985
 20
0.493181
 11
-2.25145
 21
0.966171
  0
LINE
  8
0
 10
-2.25145
 20
0.966171
 11
-2.01087
 21
1.39961
  0
LINE
  8
0
 10
-2.01087
 20
1.39961
 11
-1.68797
 21
1.77574
  0
LINE
  8
0
 10
-1.68797
 20
1.77574
 11
-1.29596
 21
2.07918
  0
LINE
  8
0
 10
-1.29596
 20
2.07918
 11
-0.850898
 21
2.29749
  0
LINE
  8
0
 10
-0.850898
 20
2.29749
 11
-0.370997
 21
2.42175
  0
LINE
  8
0
 10
-0.370997
 20
2.42175
 11
0.12409
 21
2.44685
  0
LINE
  8
0
 10
0.12409
 20
2.44685
 11
0.614099
 21
2.37179
  0
LINE
  8
0
 10
0.614099
 20
2.37179
 11
1.07897
 21
2.19962
  0
LINE
  8
0
 10
1.07897
 20
2.19962
 11
1.49966
 21
1.9374
  0
LINE
  8
0
 10
1.49966
 20
1.9374
 11
1.85896
 21
1.59586
  0
LINE
  8
0
 10
1.85896
 20
1.59586
 11
2.14215
 21
1.18899
  0
LINE
  8
0
 10
2.14215
 20
1.18899
 11
2.33764
 21
0.733439
  0
LINE
  8
0
 10
2.33764
 20
0.733439
 11
2.43743
 21
0.247862
  0
LINE
  8
0
 10
2.43743
 20
0.247862
 11
2.43743
 21
-0.247862
  0
LINE
  8
0
 10
2.43743
 20
-0.247862
 11
2.33764
 21
-0.733439
  0
LINE
  8
0
 10
2.33764
 20
-0.733439
 11
2.14215
 21
-1.18899
  0
LINE
  8
0
 10
2.14215
 20
-1.18899
 11
1.85896
 21
-1.59586
  0
LINE
  8
0
 10
1.85896
 20
-1.59586
 11
1.49966
 21
-1.9374
  0
LINE
  8
0
 10
1.49966
 20
-1.9374
 11
1.07897
 21
-2.19962
  0
LINE
  8
0
 10
1.07897
 20
-2.19962
 11
0.614099
 21
-2.37179
  0
LINE
  8
0
 10
0.614099
 20
-2.37179
 11
0.12409
 21
-2.44685
  0
LINE
  8
0
 10
0.12409
 20
-2.44685
 11
-0.370997
 21
-2.42175
  0
LINE
  8
0
 10
-0.370997
 20
-2.42175
 11
-0.850898
 21
-2.29749
  0
LINE
  8
0
 10
-0.850898
 20
-2.29749
 11
-1.29596
 21
-2.07918
  0
LINE
  8
0
 10
-1.29596
 20
-2.07918
 11
-1.68797
 21
-1.77574
  0
LINE
  8
0
 10
-1.68797
 20
-1.77574
 11
-2.01087
 21
-1.39961
  0
LINE
  8
0
 10
-2.01087
 20
-1.39961
 11
-2.25145
 21
-0.966171
  0
LINE
  8
0
 10
-2.25145
 20
-0.966171
 11
-2.39985
 21
-0.493181
  0
LINE
  8
0
 10
-2.39985
 20
-0.493181
 11
-2.45
 21
0
  0
LINE
  8
0
 10
-0.00115914
 20
-6.06126
 11
0.0191646
 21
-5.89326
  0
LINE
  8
0
 10
0.0191646
 20
-5.89326
 11
0.080154
 21
-5.74258
  0
LINE
  8
0
 10
0.080154
 20
-5.74258
 11
0.181823
 21
-5.60925
  0
LINE
  8
0
 10
0.181823
 20
-5.60925
 11
0.312942
 21
-5.50481
  0
LINE
  8
0
 10
0.312942
 20
-5.50481
 11
0.460937
 21
-5.44215
  0
LINE
  8
0
 10
0.460937
 20
-5.44215
 11
0.625824
 21
-5.42126
  0
LINE
  8
0
 10
0.625824
 20
-5.42126
 11
0.790039
 21
-5.44215
  0
LINE
  8
0
 10
0.790039
 20
-5.44215
 11
0.937378
 21
-5.50481
  0
LINE
  8
0
 10
0.937378
 20
-5.50481
 11
1.06782
 21
-5.60925
  0
LINE
  8
0
 10
1.06782
 20
-5.60925
 11
1.17004
 21
-5.74258
  0
LINE
  8
0
 10
1.17004
 20
-5.74258
 11
1.23138
 21
-5.89326
  0
LINE
  8
0
 10
1.23138
 20
-5.89326
 11
1.25183
 21
-6.06126
  0
LINE
  8
0
 10
1.25183
 20
-6.06126
 11
1.23138
 21
-6.22937
  0
LINE
  8
0
 10
1.23138
 20
-6.22937
 11
1.17004
 21
-6.38037
  0
LINE
  8
0
 10
1.17004
 20
-6.38037
 11
1.06782
 21
-6.51425
  0
LINE
  8
0
 10
1.06782
 20
-6.51425
 11
0.937378
 21
-6.61815
  0
LINE
  8
0
 10
0.937378
 20
-6.61815
 11
0.790039
 21
-6.68048
  0
LINE
  8
0
 10
0.790039
 20
-6.68048
 11
0.625824
 21
-6.70126
  0
LINE
  8
0
 10
0.625824
 20
-6.70126
 11
0.460937
 21
-6.68048
  0
LINE
  8
0
 10
0.460937
 20
-6.68048
 11
0.312942
 21
-6.61815
  0
LINE
  8
0
 10
0.312942
 20
-6.61815
 11
0.181823
 21
-6.51425
  0
LINE
  8
0
 10
0.181823
 20
-6.51425
 11
0.080154
 21
-6.38037
  0
LINE
  8
0
 10
0.080154
 20
-6.38037
 11
0.0191646
 21
-6.22937
  0
LINE
  8
0
 10
0.0191646
 20
-6.22937
 11
-0.00115914
 21
-6.06126
  0
LINE
  8
0
 10
0.106826
 20
-12.2462
 11
0.106826
 21
-7.61125
  0
LINE
  8
0
 10
0.106826
 20
-7.61125
 11
0.124496
 21
-7.46959
  0
LINE
  8
0
 10
0.124496
 20
-7.46959
 11
0.17749
 21
-7.34326
  0
LINE
  8
0
 10
0.17749
 20
-7.34326
 11
0.265823
 21
-7.23225
  0
LINE
  8
0
 10
0.265823
 20
-7.23225
 11
0.378936
 21
-7.14558
  0
LINE
  8
0
 10
0.378936
 20
-7.14558
 11
0.506271
 21
-7.0936
  0
LINE
  8
0
 10
0.506271
 20
-7.0936
 11
0.647827
 21
-7.07626
  0
LINE
  8
0
 10
0.647827
 20
-7.07626
 11
0.789932
 21
-7.0936
  0
LINE
  8
0
 10
0.789932
 20
-7.0936
 11
0.917602
 21
-7.14558
  0
LINE
  8
0
 10
0.917602
 20
-7.14558
 11
1.03082
 21
-7.23225
  0
LINE
  8
0
 10
1.03082
 20
-7.23225
 11
1.11972
 21
-7.34326
  0
LINE
  8
0
 10
1.11972
 20
-7.34326
 11
1.17438
 21
-7.46959
  0
LINE
  8
0
 10
1.17438
 20
-7.46959
 11
1.19482
 21
-7.61125
  0
LINE
  8
0
 10
1.19482
 20
-7.61125
 11
1.19482
 21
-12.2462
  0
LINE
  8
0
 10
1.19482
 20
-12.2462
 11
1.17438
 21
-12.388
  0
LINE
  8
0
 10
1.17438
 20
-12.388
 11
1.11972
 21
-12.5147
  0
LINE
  8
0
 10
1.11972
 20
-12.5147
 11
1.03082
 21
-12.6262
  0
LINE
  8
0
 10
1.03082
 20
-12.6262
 11
0.917602
 21
-12.7124
  0
LINE
  8
0
 10
0.917602
 20
-12.7124
 11
0.789932
 21
-12.764
  0
LINE
  8
0
 10
0.789932
 20
-12.764
 11
0.647827
 21
-12.7812
  0
LINE
  8
0
 10
0.647827
 20
-12.7812
 11
0.506271
 21
-12.764
  0
LINE
  8
0
 10
0.506271
 20
-12.764
 11
0.378936
 21
-12.7124
  0
LINE
  8
0
 10
0.378936
 20
-12.7124
 11
0.265823
 21
-12.6262
  0
LINE
  8
0
 10
0.265823
 20
-12.6262
 11
0.17749
 21
-12.5147
  0
LINE
  8
0
 10
0.17749
 20
-12.5147
 11
0.124496
 21
-12.388
  0
LINE
  8
0
 10
0.124496
 20
-12.388
 11
0.106826
 21
-12.2462
  0
LINE
  8
0
 10
2.17451
 20
-12.2472
 11
2.17451
 21
-7.61926
  0
LINE
  8
0
 10
2.17451
 20
-7.61926
 11
2.19218
 21
-7.48015
  0
LINE
  8
0
 10
2.19218
 20
-7.48015
 11
2.24519
 21
-7.35481
  0
LINE
  8
0
 10
2.24519
 20
-7.35481
 11
2.33353
 21
-7.24326
  0
LINE
  8
0
 10
2.33353
 20
-7.24326
 11
2.4473
 21
-7.15549
  0
LINE
  8
0
 10
2.4473
 20
-7.15549
 11
2.57663
 21
-7.10281
  0
LINE
  8
0
 10
2.57663
 20
-7.10281
 11
2.72153
 21
-7.08525
  0
LINE
  8
0
 10
2.72153
 20
-7.08525
 11
2.86308
 21
-7.10326
  0
LINE
  8
0
 10
2.86308
 20
-7.10326
 11
2.9904
 21
-7.15726
  0
LINE
  8
0
 10
2.9904
 20
-7.15726
 11
3.10352
 21
-7.24725
  0
LINE
  8
0
 10
3.10352
 20
-7.24725
 11
3.19185
 21
-7.36037
  0
LINE
  8
0
 10
3.19185
 20
-7.36037
 11
3.24486
 21
-7.48503
  0
LINE
  8
0
 10
3.24486
 20
-7.48503
 11
3.26251
 21
-7.62126
  0
LINE
  8
0
 10
3.26251
 20
-7.62126
 11
3.74463
 21
-7.32349
  0
LINE
  8
0
 10
3.74463
 20
-7.32349
 11
4.2803
 21
-7.14481
  0
LINE
  8
0
 10
4.2803
 20
-7.14481
 11
4.86952
 21
-7.08525
  0
LINE
  8
0
 10
4.86952
 20
-7.08525
 11
5.2234
 21
-7.10847
  0
LINE
  8
0
 10
5.2234
 20
-7.10847
 11
5.56508
 21
-7.17815
  0
LINE
  8
0
 10
5.56508
 20
-7.17815
 11
5.89452
 21
-7.29425
  0
LINE
  8
0
 10
5.89452
 20
-7.29425
 11
6.20508
 21
-7.44971
  0
LINE
  8
0
 10
6.20508
 20
-7.44971
 11
6.49008
 21
-7.6387
  0
LINE
  8
0
 10
6.49008
 20
-7.6387
 11
6.74953
 21
-7.86125
  0
LINE
  8
0
 10
6.74953
 20
-7.86125
 11
6.97896
 21
-8.11415
  0
LINE
  8
0
 10
6.97896
 20
-8.11415
 11
7.17397
 21
-8.39548
  0
LINE
  8
0
 10
7.17397
 20
-8.39548
 11
7.33452
 21
-8.70526
  0
LINE
  8
0
 10
7.33452
 20
-8.70526
 11
7.45451
 21
-9.03581
  0
LINE
  8
0
 10
7.45451
 20
-9.03581
 11
7.52652
 21
-9.38081
  0
LINE
  8
0
 10
7.52652
 20
-9.38081
 11
7.55052
 21
-9.74026
  0
LINE
  8
0
 10
7.55052
 20
-9.74026
 11
7.55052
 21
-12.2472
  0
LINE
  8
0
 10
7.55052
 20
-12.2472
 11
7.53285
 21
-12.3889
  0
LINE
  8
0
 10
7.53285
 20
-12.3889
 11
7.47986
 21
-12.5152
  0
LINE
  8
0
 10
7.47986
 20
-12.5152
 11
7.39153
 21
-12.6262
  0
LINE
  8
0
 10
7.39153
 20
-12.6262
 11
7.27841
 21
-12.7124
  0
LINE
  8
0
 10
7.27841
 20
-12.7124
 11
7.15108
 21
-12.764
  0
LINE
  8
0
 10
7.15108
 20
-12.764
 11
7.00952
 21
-12.7812
  0
LINE
  8
0
 10
7.00952
 20
-12.7812
 11
6.86462
 21
-12.7641
  0
LINE
  8
0
 10
6.86462
 20
-12.7641
 11
6.73529
 21
-12.7128
  0
LINE
  8
0
 10
6.73529
 20
-12.7128
 11
6.62152
 21
-12.6272
  0
LINE
  8
0
 10
6.62152
 20
-12.6272
 11
6.53319
 21
-12.5165
  0
LINE
  8
0
 10
6.53319
 20
-12.5165
 11
6.48018
 21
-12.3908
  0
LINE
  8
0
 10
6.48018
 20
-12.3908
 11
6.46252
 21
-12.2502
  0
LINE
  8
0
 10
6.46252
 20
-12.2502
 11
6.46252
 21
-9.75626
  0
LINE
  8
0
 10
6.46252
 20
-9.75626
 11
6.4483
 21
-9.54425
  0
LINE
  8
0
 10
6.4483
 20
-9.54425
 11
6.40562
 21
-9.34026
  0
LINE
  8
0
 10
6.40562
 20
-9.34026
 11
6.33452
 21
-9.14426
  0
LINE
  8
0
 10
6.33452
 20
-9.14426
 11
6.2393
 21
-8.96037
  0
LINE
  8
0
 10
6.2393
 20
-8.96037
 11
6.1243
 21
-8.79271
  0
LINE
  8
0
 10
6.1243
 20
-8.79271
 11
5.98952
 21
-8.64125
  0
LINE
  8
0
 10
5.98952
 20
-8.64125
 11
5.83652
 21
-8.50781
  0
LINE
  8
0
 10
5.83652
 20
-8.50781
 11
5.66685
 21
-8.39415
  0
LINE
  8
0
 10
5.66685
 20
-8.39415
 11
5.48051
 21
-8.30026
  0
LINE
  8
0
 10
5.48051
 20
-8.30026
 11
5.28252
 21
-8.22971
  0
LINE
  8
0
 10
5.28252
 20
-8.22971
 11
5.07652
 21
-8.18736
  0
LINE
  8
0
 10
5.07652
 20
-8.18736
 11
4.86252
 21
-8.17326
  0
LINE
  8
0
 10
4.86252
 20
-8.17326
 11
4.64597
 21
-8.18704
  0
LINE
  8
0
 10
4.64597
 20
-8.18704
 11
4.43896
 21
-8.22836
  0
LINE
  8
0
 10
4.43896
 20
-8.22836
 11
4.24152
 21
-8.29726
  0
LINE
  8
0
 10
4.24152
 20
-8.29726
 11
4.05652
 21
-8.39037
  0
LINE
  8
0
 10
4.05652
 20
-8.39037
 11
3.88686
 21
-8.50436
  0
LINE
  8
0
 10
3.88686
 20
-8.50436
 11
3.73251
 21
-8.63925
  0
LINE
  8
0
 10
3.73251
 20
-8.63925
 11
3.59641
 21
-8.79181
  0
LINE
  8
0
 10
3.59641
 20
-8.79181
 11
3.48141
 21
-8.96014
  0
LINE
  8
0
 10
3.48141
 20
-8.96014
 11
3.38751
 21
-9.14426
  0
LINE
  8
0
 10
3.38751
 20
-9.14426
 11
3.31807
 21
-9.34026
  0
LINE
  8
0
 10
3.31807
 20
-9.34026
 11
3.27641
 21
-9.54425
  0
LINE
  8
0
 10
3.27641
 20
-9.54425
 11
3.26251
 21
-9.75626
  0
LINE
  8
0
 10
3.26251
 20
-9.75626
 11
3.26251
 21
-12.2502
  0
LINE
  8
0
 10
3.26251
 20
-12.2502
 11
3.24486
 21
-12.3908
  0
LINE
  8
0
 10
3.24486
 20
-12.3908
 11
3.19185
 21
-12.5165
  0
LINE
  8
0
 10
3.19185
 20
-12.5165
 11
3.10352
 21
-12.6272
  0
LINE
  8
0
 10
3.10352
 20
-12.6272
 11
2.9904
 21
-12.7128
  0
LINE
  8
0
 10
2.9904
 20
-12.7128
 11
2.86308
 21
-12.7641
  0
LINE
  8
0
 10
2.86308
 20
-12.7641
 11
2.72153
 21
-12.7812
  0
LINE
  8
0
 10
2.72153
 20
-12.7812
 11
2.57663
 21
-12.764
  0
LINE
  8
0
 10
2.57663
 20
-12.764
 11
2.4473
 21
-12.7124
  0
LINE
  8
0
 10
2.4473
 20
-12.7124
 11
2.33353
 21
-12.6262
  0
LINE
  8
0
 10
2.33353
 20
-12.6262
 11
2.24519
 21
-12.5152
  0
LINE
  8
0
 10
2.24519
 20
-12.5152
 11
2.19218
 21
-12.3889
  0
LINE
  8
0
 10
2.19218
 20
-12.3889
 11
2.17451
 21
-12.2472
  0
LINE
  8
0
 10
8.14424
 20
-9.93326
 11
8.23792
 21
-9.18503
  0
LINE
  8
0
 10
8.23792
 20
-9.18503
 11
8.51891
 21
-8.5137
  0
LINE
  8
0
 10
8.51891
 20
-8.5137
 11
8.98724
 21
-7.91925
  0
LINE
  8
0
 10
8.98724
 20
-7.91925
 11
9.58868
 21
-7.45592
  0
LINE
  8
0
 10
9.58868
 20
-7.45592
 11
10.2677
 21
-7.17792
  0
LINE
  8
0
 10
10.2677
 20
-7.17792
 11
11.0242
 21
-7.08525
  0
LINE
  8
0
 10
11.0242
 20
-7.08525
 11
11.7764
 21
-7.17792
  0
LINE
  8
0
 10
11.7764
 20
-7.17792
 11
12.4554
 21
-7.45592
  0
LINE
  8
0
 10
12.4554
 20
-7.45592
 11
13.0612
 21
-7.91925
  0
LINE
  8
0
 10
13.0612
 20
-7.91925
 11
13.5296
 21
-8.5137
  0
LINE
  8
0
 10
13.5296
 20
-8.5137
 11
13.8106
 21
-9.18503
  0
LINE
  8
0
 10
13.8106
 20
-9.18503
 11
13.9043
 21
-9.93326
  0
LINE
  8
0
 10
13.9043
 20
-9.93326
 11
13.9043
 21
-12.2522
  0
LINE
  8
0
 10
13.9043
 20
-12.2522
 11
13.8866
 21
-12.3911
  0
LINE
  8
0
 10
13.8866
 20
-12.3911
 11
13.8336
 21
-12.5158
  0
LINE
  8
0
 10
13.8336
 20
-12.5158
 11
13.7452
 21
-12.6262
  0
LINE
  8
0
 10
13.7452
 20
-12.6262
 11
13.6321
 21
-12.7124
  0
LINE
  8
0
 10
13.6321
 20
-12.7124
 11
13.5048
 21
-12.764
  0
LINE
  8
0
 10
13.5048
 20
-12.764
 11
13.3633
 21
-12.7812
  0
LINE
  8
0
 10
13.3633
 20
-12.7812
 11
13.2184
 21
-12.7636
  0
LINE
  8
0
 10
13.2184
 20
-12.7636
 11
13.089
 21
-12.7106
  0
LINE
  8
0
 10
13.089
 20
-12.7106
 11
12.9753
 21
-12.6222
  0
LINE
  8
0
 10
12.9753
 20
-12.6222
 11
12.8869
 21
-12.509
  0
LINE
  8
0
 10
12.8869
 20
-12.509
 11
12.8339
 21
-12.3813
  0
LINE
  8
0
 10
12.8339
 20
-12.3813
 11
12.8163
 21
-12.2392
  0
LINE
  8
0
 10
12.8163
 20
-12.2392
 11
12.8292
 21
-12.1352
  0
LINE
  8
0
 10
12.8292
 20
-12.1352
 11
12.5645
 21
-12.3277
  0
LINE
  8
0
 10
12.5645
 20
-12.3277
 11
12.2848
 21
-12.4877
  0
LINE
  8
0
 10
12.2848
 20
-12.4877
 11
11.9902
 21
-12.6152
  0
LINE
  8
0
 10
11.9902
 20
-12.6152
 11
11.682
 21
-12.7075
  0
LINE
  8
0
 10
11.682
 20
-12.7075
 11
11.36
 21
-12.7628
  0
LINE
  8
0
 10
11.36
 20
-12.7628
 11
11.0242
 21
-12.7812
  0
LINE
  8
0
 10
11.0242
 20
-12.7812
 11
10.2677
 21
-12.6886
  0
LINE
  8
0
 10
10.2677
 20
-12.6886
 11
9.58868
 21
-12.4106
  0
LINE
  8
0
 10
9.58868
 20
-12.4106
 11
8.98724
 21
-11.9472
  0
LINE
  8
0
 10
8.98724
 20
-11.9472
 11
8.51891
 21
-11.3528
  0
LINE
  8
0
 10
8.51891
 20
-11.3528
 11
8.23792
 21
-10.6815
  0
LINE
  8
0
 10
8.23792
 20
-10.6815
 11
8.14424
 21
-9.93326
  0
LINE
  8
0
 10
14.5114
 20
-10.1262
 11
14.5114
 21
-7.61426
  0
LINE
  8
0
 10
14.5114
 20
-7.61426
 11
14.5291
 21
-7.47537
  0
LINE
  8
0
 10
14.5291
 20
-7.47537
 11
14.5821
 21
-7.35071
  0
LINE
  8
0
 10
14.5821
 20
-7.35071
 11
14.6704
 21
-7.24026
  0
LINE
  8
0
 10
14.6704
 20
-7.24026
 11
14.7842
 21
-7.15414
  0
LINE
  8
0
 10
14.7842
 20
-7.15414
 11
14.9135
 21
-7.10248
  0
LINE
  8
0
 10
14.9135
 20
-7.10248
 11
15.0584
 21
-7.08525
  0
LINE
  8
0
 10
15.0584
 20
-7.08525
 11
15.2
 21
-7.10248
  0
LINE
  8
0
 10
15.2
 20
-7.10248
 11
15.3273
 21
-7.15414
  0
LINE
  8
0
 10
15.3273
 20
-7.15414
 11
15.4404
 21
-7.24026
  0
LINE
  8
0
 10
15.4404
 20
-7.24026
 11
15.5288
 21
-7.34993
  0
LINE
  8
0
 10
15.5288
 20
-7.34993
 11
15.5818
 21
-7.47359
  0
LINE
  8
0
 10
15.5818
 20
-7.47359
 11
15.5994
 21
-7.61125
  0
LINE
  8
0
 10
15.5994
 20
-7.61125
 11
15.5994
 21
-10.1102
  0
LINE
  8
0
 10
15.5994
 20
-10.1102
 11
15.6133
 21
-10.325
  0
LINE
  8
0
 10
15.6133
 20
-10.325
 11
15.655
 21
-10.5307
  0
LINE
  8
0
 10
15.655
 20
-10.5307
 11
15.7244
 21
-10.7272
  0
LINE
  8
0
 10
15.7244
 20
-10.7272
 11
15.818
 21
-10.9111
  0
LINE
  8
0
 10
15.818
 20
-10.9111
 11
15.932
 21
-11.0788
  0
LINE
  8
0
 10
15.932
 20
-11.0788
 11
16.0664
 21
-11.2302
  0
LINE
  8
0
 10
16.0664
 20
-11.2302
 11
16.2199
 21
-11.3635
  0
LINE
  8
0
 10
16.2199
 20
-11.3635
 11
16.3895
 21
-11.4765
  0
LINE
  8
0
 10
16.3895
 20
-11.4765
 11
16.5754
 21
-11.5692
  0
LINE
  8
0
 10
16.5754
 20
-11.5692
 11
16.7746
 21
-11.6381
  0
LINE
  8
0
 10
16.7746
 20
-11.6381
 11
16.9825
 21
-11.6795
  0
LINE
  8
0
 10
16.9825
 20
-11.6795
 11
17.1994
 21
-11.6932
  0
LINE
  8
0
 10
17.1994
 20
-11.6932
 11
17.4134
 21
-11.6795
  0
LINE
  8
0
 10
17.4134
 20
-11.6795
 11
17.6194
 21
-11.6381
  0
LINE
  8
0
 10
17.6194
 20
-11.6381
 11
17.8174
 21
-11.5692
  0
LINE
  8
0
 10
17.8174
 20
-11.5692
 11
18.0041
 21
-11.4762
  0
LINE
  8
0
 10
18.0041
 20
-11.4762
 11
18.1748
 21
-11.3626
  0
LINE
  8
0
 10
18.1748
 20
-11.3626
 11
18.3294
 21
-11.2282
  0
LINE
  8
0
 10
18.3294
 20
-11.2282
 11
18.4655
 21
-11.0755
  0
LINE
  8
0
 10
18.4655
 20
-11.0755
 11
18.5806
 21
-10.9078
  0
LINE
  8
0
 10
18.5806
 20
-10.9078
 11
18.6744
 21
-10.7252
  0
LINE
  8
0
 10
18.6744
 20
-10.7252
 11
18.7439
 21
-10.5298
  0
LINE
  8
0
 10
18.7439
 20
-10.5298
 11
18.7855
 21
-10.3248
  0
LINE
  8
0
 10
18.7855
 20
-10.3248
 11
18.7994
 21
-10.1102
  0
LINE
  8
0
 10
18.7994
 20
-10.1102
 11
18.7994
 21
-7.61125
  0
LINE
  8
0
 10
18.7994
 20
-7.61125
 11
18.8171
 21
-7.47359
  0
LINE
  8
0
 10
18.8171
 20
-7.47359
 11
18.8701
 21
-7.34993
  0
LINE
  8
0
 10
18.8701
 20
-7.34993
 11
18.9584
 21
-7.24026
  0
LINE
  8
0
 10
18.9584
 20
-7.24026
 11
19.0722
 21
-7.15414
  0
LINE
  8
0
 10
19.0722
 20
-7.15414
 11
19.2015
 21
-7.10248
  0
LINE
  8
0
 10
19.2015
 20
-7.10248
 11
19.3464
 21
-7.08525
  0
LINE
  8
0
 10
19.3464
 20
-7.08525
 11
19.488
 21
-7.10248
  0
LINE
  8
0
 10
19.488
 20
-7.10248
 11
19.6153
 21
-7.15414
  0
LINE
  8
0
 10
19.6153
 20
-7.15414
 11
19.7284
 21
-7.24026
  0
LINE
  8
0
 10
19.7284
 20
-7.24026
 11
19.8168
 21
-7.35071
  0
LINE
  8
0
 10
19.8168
 20
-7.35071
 11
19.8698
 21
-7.47537
  0
LINE
  8
0
 10
19.8698
 20
-7.47537
 11
19.8874
 21
-7.61426
  0
LINE
  8
0
 10
19.8874
 20
-7.61426
 11
19.8874
 21
-12.2522
  0
LINE
  8
0
 10
19.8874
 20
-12.2522
 11
19.8698
 21
-12.3911
  0
LINE
  8
0
 10
19.8698
 20
-12.3911
 11
19.8168
 21
-12.5158
  0
LINE
  8
0
 10
19.8168
 20
-12.5158
 11
19.7284
 21
-12.6262
  0
LINE
  8
0
 10
19.7284
 20
-12.6262
 11
19.6147
 21
-12.7124
  0
LINE
  8
0
 10
19.6147
 20
-12.7124
 11
19.4853
 21
-12.764
  0
LINE
  8
0
 10
19.4853
 20
-12.764
 11
19.3404
 21
-12.7812
  0
LINE
  8
0
 10
19.3404
 20
-12.7812
 11
19.1936
 21
-12.7639
  0
LINE
  8
0
 10
19.1936
 20
-12.7639
 11
19.0653
 21
-12.7119
  0
LINE
  8
0
 10
19.0653
 20
-12.7119
 11
18.9554
 21
-12.6252
  0
LINE
  8
0
 10
18.9554
 20
-12.6252
 11
18.871
 21
-12.5137
  0
LINE
  8
0
 10
18.871
 20
-12.5137
 11
18.819
 21
-12.387
  0
LINE
  8
0
 10
18.819
 20
-12.387
 11
18.7994
 21
-12.2452
  0
LINE
  8
0
 10
18.7994
 20
-12.2452
 11
18.5588
 21
-12.4156
  0
LINE
  8
0
 10
18.5588
 20
-12.4156
 11
18.3088
 21
-12.5519
  0
LINE
  8
0
 10
18.3088
 20
-12.5519
 11
18.0494
 21
-12.6542
  0
LINE
  8
0
 10
18.0494
 20
-12.6542
 11
17.7787
 21
-12.7248
  0
LINE
  8
0
 10
17.7787
 20
-12.7248
 11
17.493
 21
-12.7671
  0
LINE
  8
0
 10
17.493
 20
-12.7671
 11
17.1924
 21
-12.7812
  0
LINE
  8
0
 10
17.1924
 20
-12.7812
 11
16.8327
 21
-12.7578
  0
LINE
  8
0
 10
16.8327
 20
-12.7578
 11
16.4866
 21
-12.6875
  0
LINE
  8
0
 10
16.4866
 20
-12.6875
 11
16.1544
 21
-12.5702
  0
LINE
  8
0
 10
16.1544
 20
-12.5702
 11
15.8428
 21
-12.4129
  0
LINE
  8
0
 10
15.8428
 20
-12.4129
 11
15.5584
 21
-12.2222
  0
LINE
  8
0
 10
15.5584
 20
-12.2222
 11
15.3014
 21
-11.9982
  0
LINE
  8
0
 10
15.3014
 20
-11.9982
 11
15.0755
 21
-11.744
  0
LINE
  8
0
 10
15.0755
 20
-11.744
 11
14.8832
 21
-11.4627
  0
LINE
  8
0
 10
14.8832
 20
-11.4627
 11
14.7244
 21
-11.1542
  0
LINE
  8
0
 10
14.7244
 20
-11.1542
 11
14.6061
 21
-10.8249
  0
LINE
  8
0
 10
14.6061
 20
-10.8249
 11
14.5351
 21
-10.4822
  0
LINE
  8
0
 10
14.5351
 20
-10.4822
 11
14.5114
 21
-10.1262
  0
LINE
  8
0
 10
20.4812
 20
-12.2522
 11
20.4812
 21
-7.61426
  0
LINE
  8
0
 10
20.4812
 20
-7.61426
 11
20.4988
 21
-7.47537
  0
LINE
  8
0
 10
20.4988
 20
-7.47537
 11
20.5518
 21
-7.35071
  0
LINE
  8
0
 10
20.5518
 20
-7.35071
 11
20.6402
 21
-7.24026
  0
LINE
  8
0
 10
20.6402
 20
-7.24026
 11
20.7539
 21
-7.15414
  0
LINE
  8
0
 10
20.7539
 20
-7.15414
 11
20.8833
 21
-7.10248
  0
LINE
  8
0
 10
20.8833
 20
-7.10248
 11
21.0282
 21
-7.08525
  0
LINE
  8
0
 10
21.0282
 20
-7.08525
 11
21.1697
 21
-7.10292
  0
LINE
  8
0
 10
21.1697
 20
-7.10292
 11
21.297
 21
-7.15593
  0
LINE
  8
0
 10
21.297
 20
-7.15593
 11
21.4102
 21
-7.24426
  0
LINE
  8
0
 10
21.4102
 20
-7.24426
 11
21.4985
 21
-7.35748
  0
LINE
  8
0
 10
21.4985
 20
-7.35748
 11
21.5515
 21
-7.48515
  0
LINE
  8
0
 10
21.5515
 20
-7.48515
 11
21.5692
 21
-7.62726
  0
LINE
  8
0
 10
21.5692
 20
-7.62726
 11
21.5692
 21
-7.73126
  0
LINE
  8
0
 10
21.5692
 20
-7.73126
 11
21.8312
 21
-7.53893
  0
LINE
  8
0
 10
21.8312
 20
-7.53893
 11
22.1078
 21
-7.37926
  0
LINE
  8
0
 10
22.1078
 20
-7.37926
 11
22.3992
 21
-7.25226
  0
LINE
  8
0
 10
22.3992
 20
-7.25226
 11
22.7047
 21
-7.15948
  0
LINE
  8
0
 10
22.7047
 20
-7.15948
 11
23.024
 21
-7.10382
  0
LINE
  8
0
 10
23.024
 20
-7.10382
 11
23.3572
 21
-7.08525
  0
LINE
  8
0
 10
23.3572
 20
-7.08525
 11
23.5102
 21
-7.08881
  0
LINE
  8
0
 10
23.5102
 20
-7.08881
 11
23.6705
 21
-7.09949
  0
LINE
  8
0
 10
23.6705
 20
-7.09949
 11
23.8382
 21
-7.11726
  0
LINE
  8
0
 10
23.8382
 20
-7.11726
 11
24.0049
 21
-7.14348
  0
LINE
  8
0
 10
24.0049
 20
-7.14348
 11
24.1626
 21
-7.18082
  0
LINE
  8
0
 10
24.1626
 20
-7.18082
 11
24.3112
 21
-7.22926
  0
LINE
  8
0
 10
24.3112
 20
-7.22926
 11
24.4475
 21
-7.28992
  0
LINE
  8
0
 10
24.4475
 20
-7.28992
 11
24.5672
 21
-7.36392
  0
LINE
  8
0
 10
24.5672
 20
-7.36392
 11
24.6702
 21
-7.45126
  0
LINE
  8
0
 10
24.6702
 20
-7.45126
 11
24.7496
 21
-7.55447
  0
LINE
  8
0
 10
24.7496
 20
-7.55447
 11
24.7973
 21
-7.67615
  0
LINE
  8
0
 10
24.7973
 20
-7.67615
 11
24.8132
 21
-7.81625
  0
LINE
  8
0
 10
24.8132
 20
-7.81625
 11
24.8084
 21
-7.89125
  0
LINE
  8
0
 10
24.8084
 20
-7.89125
 11
24.7941
 21
-7.96292
  0
LINE
  8
0
 10
24.7941
 20
-7.96292
 11
24.7702
 21
-8.03125
  0
LINE
  8
0
 10
24.7702
 20
-8.03125
 11
24.7383
 21
-8.0947
  0
LINE
  8
0
 10
24.7383
 20
-8.0947
 11
24.6999
 21
-8.15303
  0
LINE
  8
0
 10
24.6999
 20
-8.15303
 11
24.6552
 21
-8.20625
  0
LINE
  8
0
 10
24.6552
 20
-8.20625
 11
24.6049
 21
-8.25259
  0
LINE
  8
0
 10
24.6049
 20
-8.25259
 11
24.5489
 21
-8.2916
  0
LINE
  8
0
 10
24.5489
 20
-8.2916
 11
24.4872
 21
-8.32326
  0
LINE
  8
0
 10
24.4872
 20
-8.32326
 11
24.4214
 21
-8.34659
  0
LINE
  8
0
 10
24.4214
 20
-8.34659
 11
24.3521
 21
-8.3606
  0
LINE
  8
0
 10
24.3521
 20
-8.3606
 11
24.2792
 21
-8.36526
  0
LINE
  8
0
 10
24.2792
 20
-8.36526
 11
24.211
 21
-8.3587
  0
LINE
  8
0
 10
24.211
 20
-8.3587
 11
24.136
 21
-8.33904
  0
LINE
  8
0
 10
24.136
 20
-8.33904
 11
24.0542
 21
-8.30626
  0
LINE
  8
0
 10
24.0542
 20
-8.30626
 11
23.8345
 21
-8.23238
  0
LINE
  8
0
 10
23.8345
 20
-8.23238
 11
23.6022
 21
-8.18803
  0
LINE
  8
0
 10
23.6022
 20
-8.18803
 11
23.3572
 21
-8.17326
  0
LINE
  8
0
 10
23.3572
 20
-8.17326
 11
23.1143
 21
-8.18871
  0
LINE
  8
0
 10
23.1143
 20
-8.18871
 11
22.8816
 21
-8.23503
  0
LINE
  8
0
 10
22.8816
 20
-8.23503
 11
22.6592
 21
-8.31226
  0
LINE
  8
0
 10
22.6592
 20
-8.31226
 11
22.4512
 21
-8.41626
  0
LINE
  8
0
 10
22.4512
 20
-8.41626
 11
22.2618
 21
-8.54292
  0
LINE
  8
0
 10
22.2618
 20
-8.54292
 11
22.0912
 21
-8.69226
  0
LINE
  8
0
 10
22.0912
 20
-8.69226
 11
21.9412
 21
-8.86159
  0
LINE
  8
0
 10
21.9412
 20
-8.86159
 11
21.8138
 21
-9.04959
  0
LINE
  8
0
 10
21.8138
 20
-9.04959
 11
21.7092
 21
-9.25626
  0
LINE
  8
0
 10
21.7092
 20
-9.25626
 11
21.6314
 21
-9.4767
  0
LINE
  8
0
 10
21.6314
 20
-9.4767
 11
21.5847
 21
-9.70737
  0
LINE
  8
0
 10
21.5847
 20
-9.70737
 11
21.5692
 21
-9.94826
  0
LINE
  8
0
 10
21.5692
 20
-9.94826
 11
21.5692
 21
-12.2552
  0
LINE
  8
0
 10
21.5692
 20
-12.2552
 11
21.5515
 21
-12.393
  0
LINE
  8
0
 10
21.5515
 20
-12.393
 11
21.4985
 21
-12.517
  0
LINE
  8
0
 10
21.4985
 20
-12.517
 11
21.4102
 21
-12.6272
  0
LINE
  8
0
 10
21.4102
 20
-12.6272
 11
21.297
 21
-12.7128
  0
LINE
  8
0
 10
21.297
 20
-12.7128
 11
21.1697
 21
-12.7641
  0
LINE
  8
0
 10
21.1697
 20
-12.7641
 11
21.0282
 21
-12.7812
  0
LINE
  8
0
 10
21.0282
 20
-12.7812
 11
20.8833
 21
-12.764
  0
LINE
  8
0
 10
20.8833
 20
-12.764
 11
20.7539
 21
-12.7124
  0
LINE
  8
0
 10
20.7539
 20
-12.7124
 11
20.6402
 21
-12.6262
  0
LINE
  8
0
 10
20.6402
 20
-12.6262
 11
20.5518
 21
-12.5158
  0
LINE
  8
0
 10
20.5518
 20
-12.5158
 11
20.4988
 21
-12.3911
  0
LINE
  8
0
 10
20.4988
 20
-12.3911
 11
20.4812
 21
-12.2522
  0
LINE
  8
0
 10
25.2565
 20
-9.93326
 11
25.3502
 21
-9.18503
  0
LINE
  8
0
 10
25.3502
 20
-9.18503
 11
25.6312
 21
-8.5137
  0
LINE
  8
0
 10
25.6312
 20
-8.5137
 11
26.0995
 21
-7.91925
  0
LINE
  8
0
 10
26.0995
 20
-7.91925
 11
26.701
 21
-7.45592
  0
LINE
  8
0
 10
26.701
 20
-7.45592
 11
27.38
 21
-7.17792
  0
LINE
  8
0
 10
27.38
 20
-7.17792
 11
28.1366
 21
-7.08525
  0
LINE
  8
0
 10
28.1366
 20
-7.08525
 11
28.8887
 21
-7.17792
  0
LINE
  8
0
 10
28.8887
 20
-7.17792
 11
29.5677
 21
-7.45592
  0
LINE
  8
0
 10
29.5677
 20
-7.45592
 11
30.1736
 21
-7.91925
  0
LINE
  8
0
 10
30.1736
 20
-7.91925
 11
30.6419
 21
-8.5137
  0
LINE
  8
0
 10
30.6419
 20
-8.5137
 11
30.9229
 21
-9.18503
  0
LINE
  8
0
 10
30.9229
 20
-9.18503
 11
31.0166
 21
-9.93326
  0
LINE
  8
0
 10
31.0166
 20
-9.93326
 11
31.0166
 21
-12.2522
  0
LINE
  8
0
 10
31.0166
 20
-12.2522
 11
30.9989
 21
-12.3911
  0
LINE
  8
0
 10
30.9989
 20
-12.3911
 11
30.9459
 21
-12.5158
  0
LINE
  8
0
 10
30.9459
 20
-12.5158
 11
30.8575
 21
-12.6262
  0
LINE
  8
0
 10
30.8575
 20
-12.6262
 11
30.7444
 21
-12.7124
  0
LINE
  8
0
 10
30.7444
 20
-12.7124
 11
30.6171
 21
-12.764
  0
LINE
  8
0
 10
30.6171
 20
-12.764
 11
30.4756
 21
-12.7812
  0
LINE
  8
0
 10
30.4756
 20
-12.7812
 11
30.3307
 21
-12.7636
  0
LINE
  8
0
 10
30.3307
 20
-12.7636
 11
30.2013
 21
-12.7106
  0
LINE
  8
0
 10
30.2013
 20
-12.7106
 11
30.0876
 21
-12.6222
  0
LINE
  8
0
 10
30.0876
 20
-12.6222
 11
29.9992
 21
-12.509
  0
LINE
  8
0
 10
29.9992
 20
-12.509
 11
29.9462
 21
-12.3813
  0
LINE
  8
0
 10
29.9462
 20
-12.3813
 11
29.9286
 21
-12.2392
  0
LINE
  8
0
 10
29.9286
 20
-12.2392
 11
29.9415
 21
-12.1352
  0
LINE
  8
0
 10
29.9415
 20
-12.1352
 11
29.6768
 21
-12.3277
  0
LINE
  8
0
 10
29.6768
 20
-12.3277
 11
29.3971
 21
-12.4877
  0
LINE
  8
0
 10
29.3971
 20
-12.4877
 11
29.1026
 21
-12.6152
  0
LINE
  8
0
 10
29.1026
 20
-12.6152
 11
28.7943
 21
-12.7075
  0
LINE
  8
0
 10
28.7943
 20
-12.7075
 11
28.4723
 21
-12.7628
  0
LINE
  8
0
 10
28.4723
 20
-12.7628
 11
28.1366
 21
-12.7812
  0
LINE
  8
0
 10
28.1366
 20
-12.7812
 11
27.38
 21
-12.6886
  0
LINE
  8
0
 10
27.38
 20
-12.6886
 11
26.701
 21
-12.4106
  0
LINE
  8
0
 10
26.701
 20
-12.4106
 11
26.0995
 21
-11.9472
  0
LINE
  8
0
 10
26.0995
 20
-11.9472
 11
25.6312
 21
-11.3528
  0
LINE
  8
0
 10
25.6312
 20
-11.3528
 11
25.3502
 21
-10.6815
  0
LINE
  8
0
 10
25.3502
 20
-10.6815
 11
25.2565
 21
-9.93326
  0
LINE
  8
0
 10
31.5597
 20
-12.2532
 11
31.5597
 21
-5.18626
  0
LINE
  8
0
 10
31.5597
 20
-5.18626
 11
31.5768
 21
-5.04515
  0
LINE
  8
0
 10
31.5768
 20
-5.04515
 11
31.6282
 21
-4.91914
  0
LINE
  8
0
 10
31.6282
 20
-4.91914
 11
31.7137
 21
-4.80826
  0
LINE
  8
0
 10
31.7137
 20
-4.80826
 11
31.826
 21
-4.72215
  0
LINE
  8
0
 10
31.826
 20
-4.72215
 11
31.956
 21
-4.67049
  0
LINE
  8
0
 10
31.956
 20
-4.67049
 11
32.1037
 21
-4.65326
  0
LINE
  8
0
 10
32.1037
 20
-4.65326
 11
32.2514
 21
-4.67049
  0
LINE
  8
0
 10
32.2514
 20
-4.67049
 11
32.3811
 21
-4.72215
  0
LINE
  8
0
 10
32.3811
 20
-4.72215
 11
32.4927
 21
-4.80826
  0
LINE
  8
0
 10
32.4927
 20
-4.80826
 11
32.5788
 21
-4.91847
  0
LINE
  8
0
 10
32.5788
 20
-4.91847
 11
32.6305
 21
-5.04381
  0
LINE
  8
0
 10
32.6305
 20
-5.04381
 11
32.6477
 21
-5.18427
  0
LINE
  8
0
 10
32.6477
 20
-5.18427
 11
32.6477
 21
-11.6932
  0
LINE
  8
0
 10
32.6477
 20
-11.6932
 11
32.8907
 21
-11.6932
  0
LINE
  8
0
 10
32.8907
 20
-11.6932
 11
33.0284
 21
-11.7109
  0
LINE
  8
0
 10
33.0284
 20
-11.7109
 11
33.1521
 21
-11.7639
  0
LINE
  8
0
 10
33.1521
 20
-11.7639
 11
33.2617
 21
-11.8522
  0
LINE
  8
0
 10
33.2617
 20
-11.8522
 11
33.3473
 21
-11.966
  0
LINE
  8
0
 10
33.3473
 20
-11.966
 11
33.3986
 21
-12.0954
  0
LINE
  8
0
 10
33.3986
 20
-12.0954
 11
33.4157
 21
-12.2402
  0
LINE
  8
0
 10
33.4157
 20
-12.2402
 11
33.3983
 21
-12.3818
  0
LINE
  8
0
 10
33.3983
 20
-12.3818
 11
33.346
 21
-12.5091
  0
LINE
  8
0
 10
33.346
 20
-12.5091
 11
33.2587
 21
-12.6222
  0
LINE
  8
0
 10
33.2587
 20
-12.6222
 11
33.1469
 21
-12.7106
  0
LINE
  8
0
 10
33.1469
 20
-12.7106
 11
33.0205
 21
-12.7636
  0
LINE
  8
0
 10
33.0205
 20
-12.7636
 11
32.8797
 21
-12.7812
  0
LINE
  8
0
 10
32.8797
 20
-12.7812
 11
32.0907
 21
-12.7812
  0
LINE
  8
0
 10
32.0907
 20
-12.7812
 11
31.9502
 21
-12.764
  0
LINE
  8
0
 10
31.9502
 20
-12.764
 11
31.8245
 21
-12.7124
  0
LINE
  8
0
 10
31.8245
 20
-12.7124
 11
31.7137
 21
-12.6262
  0
LINE
  8
0
 10
31.7137
 20
-12.6262
 11
31.6282
 21
-12.5159
  0
LINE
  8
0
 10
31.6282
 20
-12.5159
 11
31.5768
 21
-12.3916
  0
LINE
  8
0
 10
31.5768
 20
-12.3916
 11
31.5597
 21
-12.2532
  0
LINE
  8
0
 10
-39.995
 20
35.5
 11
-37
 21
35.5
  0
LINE
  8
0
 10
-37
 20
35.5
 11
-37
 21
15.005
  0
LINE
  8
0
 10
-37
 20
15.005
 11
37
 21
15.005
  0
LINE
  8
0
 10
37
 20
15.005
 11
37
 21
35.5
  0
LINE
  8
0
 10
37
 20
35.5
 11
39.995
 21
35.5
  0
LINE
  8
0
 10
39.995
 20
35.5
 11
39.995
 21
50.5
  0
LINE
  8
0
 10
39.995
 20
50.5
 11
37
 21
50.5
  0
LINE
  8
0
 10
37
 20
50.5
 11
37
 21
54.995
  0
LINE
  8
0
 10
37
 20
54.995
 11
-37
 21
54.995
  0
LINE
  8
0
 10
-37
 20
54.995
 11
-37
 21
50.5
  0
LINE
  8
0
 10
-37
 20
50.5
 11
-39.995
 21
50.5
  0
LINE
  8
0
 10
-39.995
 20
50.5
 11
-39.995
 21
35.5
  0
LINE
  8
0
 10
-33.2434
 20
34.2827
 11
-33.1103
 21
35.3487
  0
LINE
  8
0
 10
-33.1103
 20
35.3487
 11
-32.711
 21
36.3054
  0
LINE
  8
0
 10
-32.711
 20
36.3054
 11
-32.0454
 21
37.1527
  0
LINE
  8
0
 10
-32.0454
 20
37.1527
 11
-31.1888
 21
37.8161
  0
LINE
  8
0
 10
-31.1888
 20
37.8161
 11
-30.2228
 21
38.2141
  0
LINE
  8
0
 10
-30.2228
 20
38.2141
 11
-29.1474
 21
38.3467
  0
LINE
  8
0
 10
-29.1474
 20
38.3467
 11
-28.0749
 21
38.2141
  0
LINE
  8
0
 10
-28.0749
 20
38.2141
 11
-27.1105
 21
37.8161
  0
LINE
  8
0
 10
-27.1105
 20
37.8161
 11
-26.2544
 21
37.1527
  0
LINE
  8
0
 10
-26.2544
 20
37.1527
 11
-25.8857
 21
36.7409
  0
LINE
  8
0
 10
-25.8857
 20
36.7409
 11
-25.5847
 21
36.3038
  0
LINE
  8
0
 10
-25.5847
 20
36.3038
 11
-25.3514
 21
35.8417
  0
LINE
  8
0
 10
-25.3514
 20
35.8417
 11
-25.1848
 21
35.3525
  0
LINE
  8
0
 10
-25.1848
 20
35.3525
 11
-25.0848
 21
34.8329
  0
LINE
  8
0
 10
-25.0848
 20
34.8329
 11
-25.0514
 21
34.2827
  0
LINE
  8
0
 10
-25.0514
 20
34.2827
 11
-25.1851
 21
33.2162
  0
LINE
  8
0
 10
-25.1851
 20
33.2162
 11
-25.5861
 21
32.2579
  0
LINE
  8
0
 10
-25.5861
 20
32.2579
 11
-26.2544
 21
31.4078
  0
LINE
  8
0
 10
-26.2544
 20
31.4078
 11
-27.1083
 21
30.7472
  0
LINE
  8
0
 10
-27.1083
 20
30.7472
 11
-28.0727
 21
30.3509
  0
LINE
  8
0
 10
-28.0727
 20
30.3509
 11
-29.1474
 21
30.2187
  0
LINE
  8
0
 10
-29.1474
 20
30.2187
 11
-30.225
 21
30.3509
  0
LINE
  8
0
 10
-30.225
 20
30.3509
 11
-31.191
 21
30.7472
  0
LINE
  8
0
 10
-31.191
 20
30.7472
 11
-32.0454
 21
31.4078
  0
LINE
  8
0
 10
-32.0454
 20
31.4078
 11
-32.711
 21
32.2552
  0
LINE
  8
0
 10
-32.711
 20
32.2552
 11
-33.1103
 21
33.2135
  0
LINE
  8
0
 10
-33.1103
 20
33.2135
 11
-33.2434
 21
34.2827
  0
LINE
  8
0
 10
-24.4886
 20
28.3148
 11
-24.4886
 21
33.0697
  0
LINE
  8
0
 10
-24.4886
 20
33.0697
 11
-24.3949
 21
33.8173
  0
LINE
  8
0
 10
-24.3949
 20
33.8173
 11
-24.1139
 21
34.488
  0
LINE
  8
0
 10
-24.1139
 20
34.488
 11
-23.6456
 21
35.0817
  0
LINE
  8
0
 10
-23.6456
 20
35.0817
 11
-23.0441
 21
35.5445
  0
LINE
  8
0
 10
-23.0441
 20
35.5445
 11
-22.3651
 21
35.8222
  0
LINE
  8
0
 10
-22.3651
 20
35.8222
 11
-21.6086
 21
35.9147
  0
LINE
  8
0
 10
-21.6086
 20
35.9147
 11
-20.8564
 21
35.8221
  0
LINE
  8
0
 10
-20.8564
 20
35.8221
 11
-20.1774
 21
35.5441
  0
LINE
  8
0
 10
-20.1774
 20
35.5441
 11
-19.5715
 21
35.0807
  0
LINE
  8
0
 10
-19.5715
 20
35.0807
 11
-19.3142
 21
34.7956
  0
LINE
  8
0
 10
-19.3142
 20
34.7956
 11
-19.1035
 21
34.4896
  0
LINE
  8
0
 10
-19.1035
 20
34.4896
 11
-18.9395
 21
34.1627
  0
LINE
  8
0
 10
-18.9395
 20
34.1627
 11
-18.8223
 21
33.8161
  0
LINE
  8
0
 10
-18.8223
 20
33.8161
 11
-18.752
 21
33.4507
  0
LINE
  8
0
 10
-18.752
 20
33.4507
 11
-18.7285
 21
33.0667
  0
LINE
  8
0
 10
-18.7285
 20
33.0667
 11
-18.822
 21
32.3141
  0
LINE
  8
0
 10
-18.822
 20
32.3141
 11
-19.1023
 21
31.6428
  0
LINE
  8
0
 10
-19.1023
 20
31.6428
 11
-19.5695
 21
31.0528
  0
LINE
  8
0
 10
-19.5695
 20
31.0528
 11
-19.8651
 21
30.7954
  0
LINE
  8
0
 10
-19.8651
 20
30.7954
 11
-20.1771
 21
30.5861
  0
LINE
  8
0
 10
-20.1771
 20
30.5861
 11
-20.5056
 21
30.4248
  0
LINE
  8
0
 10
-20.5056
 20
30.4248
 11
-20.8517
 21
30.3103
  0
LINE
  8
0
 10
-20.8517
 20
30.3103
 11
-21.2167
 21
30.2417
  0
LINE
  8
0
 10
-21.2167
 20
30.2417
 11
-21.6006
 21
30.2187
  0
LINE
  8
0
 10
-21.6006
 20
30.2187
 11
-22.2588
 21
30.2899
  0
LINE
  8
0
 10
-22.2588
 20
30.2899
 11
-22.8588
 21
30.5032
  0
LINE
  8
0
 10
-22.8588
 20
30.5032
 11
-23.4006
 21
30.8588
  0
LINE
  8
0
 10
-23.4006
 20
30.8588
 11
-23.4006
 21
28.3168
  0
LINE
  8
0
 10
-23.4006
 20
28.3168
 11
-23.4182
 21
28.1729
  0
LINE
  8
0
 10
-23.4182
 20
28.1729
 11
-23.4712
 21
28.0465
  0
LINE
  8
0
 10
-23.4712
 20
28.0465
 11
-23.5596
 21
27.9378
  0
LINE
  8
0
 10
-23.5596
 20
27.9378
 11
-23.6733
 21
27.8539
  0
LINE
  8
0
 10
-23.6733
 20
27.8539
 11
-23.8027
 21
27.8035
  0
LINE
  8
0
 10
-23.8027
 20
27.8035
 11
-23.9476
 21
27.7868
  0
LINE
  8
0
 10
-23.9476
 20
27.7868
 11
-24.0947
 21
27.8034
  0
LINE
  8
0
 10
-24.0947
 20
27.8034
 11
-24.224
 21
27.8534
  0
LINE
  8
0
 10
-24.224
 20
27.8534
 11
-24.3356
 21
27.9368
  0
LINE
  8
0
 10
-24.3356
 20
27.9368
 11
-24.4205
 21
28.0454
  0
LINE
  8
0
 10
-24.4205
 20
28.0454
 11
-24.4716
 21
28.1714
  0
LINE
  8
0
 10
-24.4716
 20
28.1714
 11
-24.4886
 21
28.3148
  0
LINE
  8
0
 10
-18.0974
 20
33.0667
 11
-18.0046
 21
33.815
  0
LINE
  8
0
 10
-18.0046
 20
33.815
 11
-17.7263
 21
34.4863
  0
LINE
  8
0
 10
-17.7263
 20
34.4863
 11
-17.2624
 21
35.0807
  0
LINE
  8
0
 10
-17.2624
 20
35.0807
 11
-16.6671
 21
35.5441
  0
LINE
  8
0
 10
-16.6671
 20
35.5441
 11
-15.9948
 21
35.8221
  0
LINE
  8
0
 10
-15.9948
 20
35.8221
 11
-15.2454
 21
35.9147
  0
LINE
  8
0
 10
-15.2454
 20
35.9147
 11
-14.5004
 21
35.8216
  0
LINE
  8
0
 10
-14.5004
 20
35.8216
 11
-13.828
 21
35.5423
  0
LINE
  8
0
 10
-13.828
 20
35.5423
 11
-13.2284
 21
35.0767
  0
LINE
  8
0
 10
-13.2284
 20
35.0767
 11
-12.9729
 21
34.7903
  0
LINE
  8
0
 10
-12.9729
 20
34.7903
 11
-12.7639
 21
34.483
  0
LINE
  8
0
 10
-12.7639
 20
34.483
 11
-12.6014
 21
34.1547
  0
LINE
  8
0
 10
-12.6014
 20
34.1547
 11
-12.4852
 21
33.8066
  0
LINE
  8
0
 10
-12.4852
 20
33.8066
 11
-12.4156
 21
33.4396
  0
LINE
  8
0
 10
-12.4156
 20
33.4396
 11
-12.3924
 21
33.0537
  0
LINE
  8
0
 10
-12.3924
 20
33.0537
 11
-12.4097
 21
32.9092
  0
LINE
  8
0
 10
-12.4097
 20
32.9092
 11
-12.4617
 21
32.7822
  0
LINE
  8
0
 10
-12.4617
 20
32.7822
 11
-12.5484
 21
32.6728
  0
LINE
  8
0
 10
-12.5484
 20
32.6728
 11
-12.6594
 21
32.5894
  0
LINE
  8
0
 10
-12.6594
 20
32.5894
 11
-12.7857
 21
32.5394
  0
LINE
  8
0
 10
-12.7857
 20
32.5394
 11
-12.9274
 21
32.5228
  0
LINE
  8
0
 10
-12.9274
 20
32.5228
 11
-16.9624
 21
32.5228
  0
LINE
  8
0
 10
-16.9624
 20
32.5228
 11
-16.8954
 21
32.3473
  0
LINE
  8
0
 10
-16.8954
 20
32.3473
 11
-16.8104
 21
32.1823
  0
LINE
  8
0
 10
-16.8104
 20
32.1823
 11
-16.7074
 21
32.0278
  0
LINE
  8
0
 10
-16.7074
 20
32.0278
 11
-16.5888
 21
31.8855
  0
LINE
  8
0
 10
-16.5888
 20
31.8855
 11
-16.4571
 21
31.7575
  0
LINE
  8
0
 10
-16.4571
 20
31.7575
 11
-16.3124
 21
31.6438
  0
LINE
  8
0
 10
-16.3124
 20
31.6438
 11
-16.156
 21
31.545
  0
LINE
  8
0
 10
-16.156
 20
31.545
 11
-15.9897
 21
31.462
  0
LINE
  8
0
 10
-15.9897
 20
31.462
 11
-15.8134
 21
31.3948
  0
LINE
  8
0
 10
-15.8134
 20
31.3948
 11
-15.6289
 21
31.3459
  0
LINE
  8
0
 10
-15.6289
 20
31.3459
 11
-15.4396
 21
31.3165
  0
LINE
  8
0
 10
-15.4396
 20
31.3165
 11
-15.2454
 21
31.3068
  0
LINE
  8
0
 10
-15.2454
 20
31.3068
 11
-15.0276
 21
31.3174
  0
LINE
  8
0
 10
-15.0276
 20
31.3174
 11
-14.8223
 21
31.3494
  0
LINE
  8
0
 10
-14.8223
 20
31.3494
 11
-14.6294
 21
31.4028
  0
LINE
  8
0
 10
-14.6294
 20
31.4028
 11
-14.4467
 21
31.4781
  0
LINE
  8
0
 10
-14.4467
 20
31.4781
 11
-14.2734
 21
31.5748
  0
LINE
  8
0
 10
-14.2734
 20
31.5748
 11
-14.1094
 21
31.6928
  0
LINE
  8
0
 10
-14.1094
 20
31.6928
 11
-14.0024
 21
31.7605
  0
LINE
  8
0
 10
-14.0024
 20
31.7605
 11
-13.8854
 21
31.8025
  0
LINE
  8
0
 10
-13.8854
 20
31.8025
 11
-13.7584
 21
31.8188
  0
LINE
  8
0
 10
-13.7584
 20
31.8188
 11
-13.6139
 21
31.8021
  0
LINE
  8
0
 10
-13.6139
 20
31.8021
 11
-13.4873
 21
31.7521
  0
LINE
  8
0
 10
-13.4873
 20
31.7521
 11
-13.3784
 21
31.6688
  0
LINE
  8
0
 10
-13.3784
 20
31.6688
 11
-13.295
 21
31.5601
  0
LINE
  8
0
 10
-13.295
 20
31.5601
 11
-13.245
 21
31.4341
  0
LINE
  8
0
 10
-13.245
 20
31.4341
 11
-13.2284
 21
31.2908
  0
LINE
  8
0
 10
-13.2284
 20
31.2908
 11
-13.2454
 21
31.1489
  0
LINE
  8
0
 10
-13.2454
 20
31.1489
 11
-13.2964
 21
31.0219
  0
LINE
  8
0
 10
-13.2964
 20
31.0219
 11
-13.3814
 21
30.9098
  0
LINE
  8
0
 10
-13.3814
 20
30.9098
 11
-13.9391
 21
30.5259
  0
LINE
  8
0
 10
-13.9391
 20
30.5259
 11
-14.5605
 21
30.2955
  0
LINE
  8
0
 10
-14.5605
 20
30.2955
 11
-15.2454
 21
30.2187
  0
LINE
  8
0
 10
-15.2454
 20
30.2187
 11
-15.9948
 21
30.3114
  0
LINE
  8
0
 10
-15.9948
 20
30.3114
 11
-16.6671
 21
30.5894
  0
LINE
  8
0
 10
-16.6671
 20
30.5894
 11
-17.2624
 21
31.0528
  0
LINE
  8
0
 10
-17.2624
 20
31.0528
 11
-17.7263
 21
31.6472
  0
LINE
  8
0
 10
-17.7263
 20
31.6472
 11
-18.0046
 21
32.3185
  0
LINE
  8
0
 10
-18.0046
 20
32.3185
 11
-18.0974
 21
33.0667
  0
LINE
  8
0
 10
-11.7542
 20
30.7528
 11
-11.7542
 21
35.3807
  0
LINE
  8
0
 10
-11.7542
 20
35.3807
 11
-11.7365
 21
35.5199
  0
LINE
  8
0
 10
-11.7365
 20
35.5199
 11
-11.6835
 21
35.6452
  0
LINE
  8
0
 10
-11.6835
 20
35.6452
 11
-11.5952
 21
35.7567
  0
LINE
  8
0
 10
-11.5952
 20
35.7567
 11
-11.4814
 21
35.8445
  0
LINE
  8
0
 10
-11.4814
 20
35.8445
 11
-11.3521
 21
35.8972
  0
LINE
  8
0
 10
-11.3521
 20
35.8972
 11
-11.2072
 21
35.9147
  0
LINE
  8
0
 10
-11.2072
 20
35.9147
 11
-11.0656
 21
35.8967
  0
LINE
  8
0
 10
-11.0656
 20
35.8967
 11
-10.9383
 21
35.8427
  0
LINE
  8
0
 10
-10.9383
 20
35.8427
 11
-10.8252
 21
35.7527
  0
LINE
  8
0
 10
-10.8252
 20
35.7527
 11
-10.7368
 21
35.6396
  0
LINE
  8
0
 10
-10.7368
 20
35.6396
 11
-10.6838
 21
35.515
  0
LINE
  8
0
 10
-10.6838
 20
35.515
 11
-10.6662
 21
35.3787
  0
LINE
  8
0
 10
-10.6662
 20
35.3787
 11
-10.1841
 21
35.6765
  0
LINE
  8
0
 10
-10.1841
 20
35.6765
 11
-9.64839
 21
35.8552
  0
LINE
  8
0
 10
-9.64839
 20
35.8552
 11
-9.05917
 21
35.9147
  0
LINE
  8
0
 10
-9.05917
 20
35.9147
 11
-8.70529
 21
35.8915
  0
LINE
  8
0
 10
-8.70529
 20
35.8915
 11
-8.36362
 21
35.8219
  0
LINE
  8
0
 10
-8.36362
 20
35.8219
 11
-8.03418
 21
35.7057
  0
LINE
  8
0
 10
-8.03418
 20
35.7057
 11
-7.72362
 21
35.5503
  0
LINE
  8
0
 10
-7.72362
 20
35.5503
 11
-7.43861
 21
35.3613
  0
LINE
  8
0
 10
-7.43861
 20
35.3613
 11
-7.17917
 21
35.1387
  0
LINE
  8
0
 10
-7.17917
 20
35.1387
 11
-6.94974
 21
34.8858
  0
LINE
  8
0
 10
-6.94974
 20
34.8858
 11
-6.75473
 21
34.6045
  0
LINE
  8
0
 10
-6.75473
 20
34.6045
 11
-6.59418
 21
34.2947
  0
LINE
  8
0
 10
-6.59418
 20
34.2947
 11
-6.47418
 21
33.9642
  0
LINE
  8
0
 10
-6.47418
 20
33.9642
 11
-6.40218
 21
33.6192
  0
LINE
  8
0
 10
-6.40218
 20
33.6192
 11
-6.37817
 21
33.2597
  0
LINE
  8
0
 10
-6.37817
 20
33.2597
 11
-6.37817
 21
30.7528
  0
LINE
  8
0
 10
-6.37817
 20
30.7528
 11
-6.39584
 21
30.6111
  0
LINE
  8
0
 10
-6.39584
 20
30.6111
 11
-6.44884
 21
30.4848
  0
LINE
  8
0
 10
-6.44884
 20
30.4848
 11
-6.53717
 21
30.3738
  0
LINE
  8
0
 10
-6.53717
 20
30.3738
 11
-6.65028
 21
30.2876
  0
LINE
  8
0
 10
-6.65028
 20
30.2876
 11
-6.77762
 21
30.236
  0
LINE
  8
0
 10
-6.77762
 20
30.236
 11
-6.91917
 21
30.2187
  0
LINE
  8
0
 10
-6.91917
 20
30.2187
 11
-7.06407
 21
30.2359
  0
LINE
  8
0
 10
-7.06407
 20
30.2359
 11
-7.19341
 21
30.2872
  0
LINE
  8
0
 10
-7.19341
 20
30.2872
 11
-7.30717
 21
30.3728
  0
LINE
  8
0
 10
-7.30717
 20
30.3728
 11
-7.39551
 21
30.4835
  0
LINE
  8
0
 10
-7.39551
 20
30.4835
 11
-7.44852
 21
30.6092
  0
LINE
  8
0
 10
-7.44852
 20
30.6092
 11
-7.46617
 21
30.7498
  0
LINE
  8
0
 10
-7.46617
 20
30.7498
 11
-7.46617
 21
33.2437
  0
LINE
  8
0
 10
-7.46617
 20
33.2437
 11
-7.48039
 21
33.4557
  0
LINE
  8
0
 10
-7.48039
 20
33.4557
 11
-7.52307
 21
33.6597
  0
LINE
  8
0
 10
-7.52307
 20
33.6597
 11
-7.59418
 21
33.8557
  0
LINE
  8
0
 10
-7.59418
 20
33.8557
 11
-7.68939
 21
34.0396
  0
LINE
  8
0
 10
-7.68939
 20
34.0396
 11
-7.8044
 21
34.2073
  0
LINE
  8
0
 10
-7.8044
 20
34.2073
 11
-7.93918
 21
34.3587
  0
LINE
  8
0
 10
-7.93918
 20
34.3587
 11
-8.09218
 21
34.4922
  0
LINE
  8
0
 10
-8.09218
 20
34.4922
 11
-8.26184
 21
34.6059
  0
LINE
  8
0
 10
-8.26184
 20
34.6059
 11
-8.44818
 21
34.6997
  0
LINE
  8
0
 10
-8.44818
 20
34.6997
 11
-8.64618
 21
34.7703
  0
LINE
  8
0
 10
-8.64618
 20
34.7703
 11
-8.85217
 21
34.8126
  0
LINE
  8
0
 10
-8.85217
 20
34.8126
 11
-9.06618
 21
34.8267
  0
LINE
  8
0
 10
-9.06618
 20
34.8267
 11
-9.28273
 21
34.813
  0
LINE
  8
0
 10
-9.28273
 20
34.813
 11
-9.48973
 21
34.7716
  0
LINE
  8
0
 10
-9.48973
 20
34.7716
 11
-9.68718
 21
34.7027
  0
LINE
  8
0
 10
-9.68718
 20
34.7027
 11
-9.87218
 21
34.6096
  0
LINE
  8
0
 10
-9.87218
 20
34.6096
 11
-10.0418
 21
34.4956
  0
LINE
  8
0
 10
-10.0418
 20
34.4956
 11
-10.1962
 21
34.3607
  0
LINE
  8
0
 10
-10.1962
 20
34.3607
 11
-10.3323
 21
34.2082
  0
LINE
  8
0
 10
-10.3323
 20
34.2082
 11
-10.4473
 21
34.0399
  0
LINE
  8
0
 10
-10.4473
 20
34.0399
 11
-10.5412
 21
33.8557
  0
LINE
  8
0
 10
-10.5412
 20
33.8557
 11
-10.6106
 21
33.6597
  0
LINE
  8
0
 10
-10.6106
 20
33.6597
 11
-10.6523
 21
33.4557
  0
LINE
  8
0
 10
-10.6523
 20
33.4557
 11
-10.6662
 21
33.2437
  0
LINE
  8
0
 10
-10.6662
 20
33.2437
 11
-10.6662
 21
30.7498
  0
LINE
  8
0
 10
-10.6662
 20
30.7498
 11
-10.6838
 21
30.6092
  0
LINE
  8
0
 10
-10.6838
 20
30.6092
 11
-10.7368
 21
30.4835
  0
LINE
  8
0
 10
-10.7368
 20
30.4835
 11
-10.8252
 21
30.3728
  0
LINE
  8
0
 10
-10.8252
 20
30.3728
 11
-10.9383
 21
30.2872
  0
LINE
  8
0
 10
-10.9383
 20
30.2872
 11
-11.0656
 21
30.2359
  0
LINE
  8
0
 10
-11.0656
 20
30.2359
 11
-11.2072
 21
30.2187
  0
LINE
  8
0
 10
-11.2072
 20
30.2187
 11
-11.3521
 21
30.236
  0
LINE
  8
0
 10
-11.3521
 20
30.236
 11
-11.4814
 21
30.2876
  0
LINE
  8
0
 10
-11.4814
 20
30.2876
 11
-11.5952
 21
30.3738
  0
LINE
  8
0
 10
-11.5952
 20
30.3738
 11
-11.6835
 21
30.4848
  0
LINE
  8
0
 10
-11.6835
 20
30.4848
 11
-11.7365
 21
30.6111
  0
LINE
  8
0
 10
-11.7365
 20
30.6111
 11
-11.7542
 21
30.7528
  0
LINE
  8
0
 10
-5.78445
 20
30.7568
 11
-5.78445
 21
37.8087
  0
LINE
  8
0
 10
-5.78445
 20
37.8087
 11
-5.77968
 21
37.8814
  0
LINE
  8
0
 10
-5.77968
 20
37.8814
 11
-5.76534
 21
37.9514
  0
LINE
  8
0
 10
-5.76534
 20
37.9514
 11
-5.74146
 21
38.0187
  0
LINE
  8
0
 10
-5.74146
 20
38.0187
 11
-5.70889
 21
38.0816
  0
LINE
  8
0
 10
-5.70889
 20
38.0816
 11
-5.66989
 21
38.1383
  0
LINE
  8
0
 10
-5.66989
 20
38.1383
 11
-5.62445
 21
38.1887
  0
LINE
  8
0
 10
-5.62445
 20
38.1887
 11
-5.57256
 21
38.2335
  0
LINE
  8
0
 10
-5.57256
 20
38.2335
 11
-5.51556
 21
38.2719
  0
LINE
  8
0
 10
-5.51556
 20
38.2719
 11
-5.45345
 21
38.3037
  0
LINE
  8
0
 10
-5.45345
 20
38.3037
 11
-5.38712
 21
38.3276
  0
LINE
  8
0
 10
-5.38712
 20
38.3276
 11
-5.31744
 21
38.342
  0
LINE
  8
0
 10
-5.31744
 20
38.342
 11
-5.24445
 21
38.3467
  0
LINE
  8
0
 10
-5.24445
 20
38.3467
 11
-3.66945
 21
38.3467
  0
LINE
  8
0
 10
-3.66945
 20
38.3467
 11
-3.38623
 21
38.3284
  0
LINE
  8
0
 10
-3.38623
 20
38.3284
 11
-3.11389
 21
38.2734
  0
LINE
  8
0
 10
-3.11389
 20
38.2734
 11
-2.85245
 21
38.1817
  0
LINE
  8
0
 10
-2.85245
 20
38.1817
 11
-2.60657
 21
38.0582
  0
LINE
  8
0
 10
-2.60657
 20
38.0582
 11
-2.38223
 21
37.9075
  0
LINE
  8
0
 10
-2.38223
 20
37.9075
 11
-2.17944
 21
37.7297
  0
LINE
  8
0
 10
-2.17944
 20
37.7297
 11
-2.00111
 21
37.5276
  0
LINE
  8
0
 10
-2.00111
 20
37.5276
 11
-1.93316
 21
37.427
  0
LINE
  8
0
 10
-1.93316
 20
37.427
 11
-1.85011
 21
37.304
  0
LINE
  8
0
 10
-1.85011
 20
37.304
 11
-1.72646
 21
37.0587
  0
LINE
  8
0
 10
-1.72646
 20
37.0587
 11
-1.63423
 21
36.798
  0
LINE
  8
0
 10
-1.63423
 20
36.798
 11
-1.57889
 21
36.5263
  0
LINE
  8
0
 10
-1.57889
 20
36.5263
 11
-1.56045
 21
36.2437
  0
LINE
  8
0
 10
-1.56045
 20
36.2437
 11
-1.61368
 21
35.7511
  0
LINE
  8
0
 10
-1.61368
 20
35.7511
 11
-1.77333
 21
35.3024
  0
LINE
  8
0
 10
-1.77333
 20
35.3024
 11
-1.89308
 21
35.1203
  0
LINE
  8
0
 10
-1.89308
 20
35.1203
 11
-2.03944
 21
34.8977
  0
LINE
  8
0
 10
-2.03944
 20
34.8977
 11
-1.95015
 21
34.84
  0
LINE
  8
0
 10
-1.95015
 20
34.84
 11
-1.841
 21
34.7695
  0
LINE
  8
0
 10
-1.841
 20
34.7695
 11
-1.66034
 21
34.6289
  0
LINE
  8
0
 10
-1.66034
 20
34.6289
 11
-1.49745
 21
34.4757
  0
LINE
  8
0
 10
-1.49745
 20
34.4757
 11
-1.35167
 21
34.3116
  0
LINE
  8
0
 10
-1.35167
 20
34.3116
 11
-1.22234
 21
34.138
  0
LINE
  8
0
 10
-1.22234
 20
34.138
 11
-1.10945
 21
33.9547
  0
LINE
  8
0
 10
-1.10945
 20
33.9547
 11
-1.01334
 21
33.7634
  0
LINE
  8
0
 10
-1.01334
 20
33.7634
 11
-0.934341
 21
33.5654
  0
LINE
  8
0
 10
-0.934341
 20
33.5654
 11
-0.872451
 21
33.3607
  0
LINE
  8
0
 10
-0.872451
 20
33.3607
 11
-0.828002
 21
33.1506
  0
LINE
  8
0
 10
-0.828002
 20
33.1506
 11
-0.801345
 21
32.9363
  0
LINE
  8
0
 10
-0.801345
 20
32.9363
 11
-0.792449
 21
32.7178
  0
LINE
  8
0
 10
-0.792449
 20
32.7178
 11
-0.814453
 21
32.3822
  0
LINE
  8
0
 10
-0.814453
 20
32.3822
 11
-0.880447
 21
32.0595
  0
LINE
  8
0
 10
-0.880447
 20
32.0595
 11
-0.990447
 21
31.7498
  0
LINE
  8
0
 10
-0.990447
 20
31.7498
 11
-1.138
 21
31.4596
  0
LINE
  8
0
 10
-1.138
 20
31.4596
 11
-1.31667
 21
31.1946
  0
LINE
  8
0
 10
-1.31667
 20
31.1946
 11
-1.52644
 21
30.9548
  0
LINE
  8
0
 10
-1.52644
 20
30.9548
 11
-1.76479
 21
30.7439
  0
LINE
  8
0
 10
-1.76479
 20
30.7439
 11
-1.88373
 21
30.6632
  0
LINE
  8
0
 10
-1.88373
 20
30.6632
 11
-2.02911
 21
30.5645
  0
LINE
  8
0
 10
-2.02911
 20
30.5645
 11
-2.31944
 21
30.4168
  0
LINE
  8
0
 10
-2.31944
 20
30.4168
 11
-2.62856
 21
30.3068
  0
LINE
  8
0
 10
-2.62856
 20
30.3068
 11
-2.95056
 21
30.2408
  0
LINE
  8
0
 10
-2.95056
 20
30.2408
 11
-3.28545
 21
30.2187
  0
LINE
  8
0
 10
-3.28545
 20
30.2187
 11
-5.24644
 21
30.2187
  0
LINE
  8
0
 10
-5.24644
 20
30.2187
 11
-5.31889
 21
30.2235
  0
LINE
  8
0
 10
-5.31889
 20
30.2235
 11
-5.38823
 21
30.2379
  0
LINE
  8
0
 10
-5.38823
 20
30.2379
 11
-5.45445
 21
30.2618
  0
LINE
  8
0
 10
-5.45445
 20
30.2618
 11
-5.51601
 21
30.2935
  0
LINE
  8
0
 10
-5.51601
 20
30.2935
 11
-5.57268
 21
30.3315
  0
LINE
  8
0
 10
-5.57268
 20
30.3315
 11
-5.62445
 21
30.3758
  0
LINE
  8
0
 10
-5.62445
 20
30.3758
 11
-5.67033
 21
30.4268
  0
LINE
  8
0
 10
-5.67033
 20
30.4268
 11
-5.70934
 21
30.4838
  0
LINE
  8
0
 10
-5.70934
 20
30.4838
 11
-5.74146
 21
30.5468
  0
LINE
  8
0
 10
-5.74146
 20
30.5468
 11
-5.76534
 21
30.6141
  0
LINE
  8
0
 10
-5.76534
 20
30.6141
 11
-5.77968
 21
30.6841
  0
LINE
  8
0
 10
-5.77968
 20
30.6841
 11
-5.78445
 21
30.7568
  0
LINE
  8
0
 10
-2.45
 20
43
 11
-2.39985
 21
43.4932
  0
LINE
  8
0
 10
-2.39985
 20
43.4932
 11
-2.25145
 21
43.9662
  0
LINE
  8
0
 10
-2.25145
 20
43.9662
 11
-2.01087
 21
44.3996
  0
LINE
  8
0
 10
-2.01087
 20
44.3996
 11
-1.68797
 21
44.7757
  0
LINE
  8
0
 10
-1.68797
 20
44.7757
 11
-1.29596
 21
45.0792
  0
LINE
  8
0
 10
-1.29596
 20
45.0792
 11
-0.850898
 21
45.2975
  0
LINE
  8
0
 10
-0.850898
 20
45.2975
 11
-0.370997
 21
45.4217
  0
LINE
  8
0
 10
-0.370997
 20
45.4217
 11
0.12409
 21
45.4469
  0
LINE
  8
0
 10
0.12409
 20
45.4469
 11
0.614099
 21
45.3718
  0
LINE
  8
0
 10
0.614099
 20
45.3718
 11
1.07897
 21
45.1996
  0
LINE
  8
0
 10
1.07897
 20
45.1996
 11
1.49966
 21
44.9374
  0
LINE
  8
0
 10
1.49966
 20
44.9374
 11
1.85896
 21
44.5959
  0
LINE
  8
0
 10
1.85896
 20
44.5959
 11
2.14215
 21
44.189
  0
LINE
  8
0
 10
2.14215
 20
44.189
 11
2.33764
 21
43.7334
  0
LINE
  8
0
 10
2.33764
 20
43.7334
 11
2.43743
 21
43.2479
  0
LINE
  8
0
 10
2.43743
 20
43.2479
 11
2.43743
 21
42.7521
  0
LINE
  8
0
 10
2.43743
 20
42.7521
 11
2.33764
 21
42.2666
  0
LINE
  8
0
 10
2.33764
 20
42.2666
 11
2.14215
 21
41.811
  0
LINE
  8
0
 10
2.14215
 20
41.811
 11
1.85896
 21
41.4041
  0
LINE
  8
0
 10
1.85896
 20
41.4041
 11
1.49966
 21
41.0626
  0
LINE
  8
0
 10
1.49966
 20
41.0626
 11
1.07897
 21
40.8004
  0
LINE
  8
0
 10
1.07897
 20
40.8004
 11
0.614099
 21
40.6282
  0
LINE
  8
0
 10
0.614099
 20
40.6282
 11
0.12409
 21
40.5531
  0
LINE
  8
0
 10
0.12409
 20
40.5531
 11
-0.370997
 21
40.5783
  0
LINE
  8
0
 10
-0.370997
 20
40.5783
 11
-0.850898
 21
40.7025
  0
LINE
  8
0
 10
-0.850898
 20
40.7025
 11
-1.29596
 21
40.9208
  0
LINE
  8
0
 10
-1.29596
 20
40.9208
 11
-1.68797
 21
41.2243
  0
LINE
  8
0
 10
-1.68797
 20
41.2243
 11
-2.01087
 21
41.6004
  0
LINE
  8
0
 10
-2.01087
 20
41.6004
 11
-2.25145
 21
42.0338
  0
LINE
  8
0
 10
-2.25145
 20
42.0338
 11
-2.39985
 21
42.5068
  0
LINE
  8
0
 10
-2.39985
 20
42.5068
 11
-2.45
 21
43
  0
LINE
  8
0
 10
-0.00115914
 20
36.9387
 11
0.0191646
 21
37.1067
  0
LINE
  8
0
 10
0.0191646
 20
37.1067
 11
0.080154
 21
37.2574
  0
LINE
  8
0
 10
0.080154
 20
37.2574
 11
0.181823
 21
37.3907
  0
LINE
  8
0
 10
0.181823
 20
37.3907
 11
0.312942
 21
37.4952
  0
LINE
  8
0
 10
0.312942
 20
37.4952
 11
0.460937
 21
37.5578
  0
LINE
  8
0
 10
0.460937
 20
37.5578
 11
0.625824
 21
37.5787
  0
LINE
  8
0
 10
0.625824
 20
37.5787
 11
0.790039
 21
37.5578
  0
LINE
  8
0
 10
0.790039
 20
37.5578
 11
0.937378
 21
37.4952
  0
LINE
  8
0
 10
0.937378
 20
37.4952
 11
1.06782
 21
37.3907
  0
LINE
  8
0
 10
1.06782
 20
37.3907
 11
1.17004
 21
37.2574
  0
LINE
  8
0
 10
1.17004
 20
37.2574
 11
1.23138
 21
37.1067
  0
LINE
  8
0
 10
1.23138
 20
37.1067
 11
1.25183
 21
36.9387
  0
LINE
  8
0
 10
1.25183
 20
36.9387
 11
1.23138
 21
36.7706
  0
LINE
  8
0
 10
1.23138
 20
36.7706
 11
1.17004
 21
36.6196
  0
LINE
  8
0
 10
1.17004
 20
36.6196
 11
1.06782
 21
36.4857
  0
LINE
  8
0
 10
1.06782
 20
36.4857
 11
0.937378
 21
36.3819
  0
LINE
  8
0
 10
0.937378
 20
36.3819
 11
0.790039
 21
36.3195
  0
LINE
  8
0
 10
0.790039
 20
36.3195
 11
0.625824
 21
36.2987
  0
LINE
  8
0
 10
0.625824
 20
36.2987
 11
0.460937
 21
36.3195
  0
LINE
  8
0
 10
0.460937
 20
36.3195
 11
0.312942
 21
36.3819
  0
LINE
  8
0
 10
0.312942
 20
36.3819
 11
0.181823
 21
36.4857
  0
LINE
  8
0
 10
0.181823
 20
36.4857
 11
0.080154
 21
36.6196
  0
LINE
  8
0
 10
0.080154
 20
36.6196
 11
0.0191646
 21
36.7706
  0
LINE
  8
0
 10
0.0191646
 20
36.7706
 11
-0.00115914
 21
36.9387
  0
LINE
  8
0
 10
0.106826
 20
30.7538
 11
0.106826
 21
35.3887
  0
LINE
  8
0
 10
0.106826
 20
35.3887
 11
0.124496
 21
35.5304
  0
LINE
  8
0
 10
0.124496
 20
35.5304
 11
0.17749
 21
35.6567
  0
LINE
  8
0
 10
0.17749
 20
35.6567
 11
0.265823
 21
35.7677
  0
LINE
  8
0
 10
0.265823
 20
35.7677
 11
0.378936
 21
35.8544
  0
LINE
  8
0
 10
0.378936
 20
35.8544
 11
0.506271
 21
35.9064
  0
LINE
  8
0
 10
0.506271
 20
35.9064
 11
0.647827
 21
35.9237
  0
LINE
  8
0
 10
0.647827
 20
35.9237
 11
0.789932
 21
35.9064
  0
LINE
  8
0
 10
0.789932
 20
35.9064
 11
0.917602
 21
35.8544
  0
LINE
  8
0
 10
0.917602
 20
35.8544
 11
1.03082
 21
35.7677
  0
LINE
  8
0
 10
1.03082
 20
35.7677
 11
1.11972
 21
35.6567
  0
LINE
  8
0
 10
1.11972
 20
35.6567
 11
1.17438
 21
35.5304
  0
LINE
  8
0
 10
1.17438
 20
35.5304
 11
1.19482
 21
35.3887
  0
LINE
  8
0
 10
1.19482
 20
35.3887
 11
1.19482
 21
30.7538
  0
LINE
  8
0
 10
1.19482
 20
30.7538
 11
1.17438
 21
30.612
  0
LINE
  8
0
 10
1.17438
 20
30.612
 11
1.11972
 21
30.4853
  0
LINE
  8
0
 10
1.11972
 20
30.4853
 11
1.03082
 21
30.3738
  0
LINE
  8
0
 10
1.03082
 20
30.3738
 11
0.917602
 21
30.2876
  0
LINE
  8
0
 10
0.917602
 20
30.2876
 11
0.789932
 21
30.236
  0
LINE
  8
0
 10
0.789932
 20
30.236
 11
0.647827
 21
30.2187
  0
LINE
  8
0
 10
0.647827
 20
30.2187
 11
0.506271
 21
30.236
  0
LINE
  8
0
 10
0.506271
 20
30.236
 11
0.378936
 21
30.2876
  0
LINE
  8
0
 10
0.378936
 20
30.2876
 11
0.265823
 21
30.3738
  0
LINE
  8
0
 10
0.265823
 20
30.3738
 11
0.17749
 21
30.4853
  0
LINE
  8
0
 10
0.17749
 20
30.4853
 11
0.124496
 21
30.612
  0
LINE
  8
0
 10
0.124496
 20
30.612
 11
0.106826
 21
30.7538
  0
LINE
  8
0
 10
2.17451
 20
30.7528
 11
2.17451
 21
35.3807
  0
LINE
  8
0
 10
2.17451
 20
35.3807
 11
2.19218
 21
35.5199
  0
LINE
  8
0
 10
2.19218
 20
35.5199
 11
2.24519
 21
35.6452
  0
LINE
  8
0
 10
2.24519
 20
35.6452
 11
2.33353
 21
35.7567
  0
LINE
  8
0
 10
2.33353
 20
35.7567
 11
2.4473
 21
35.8445
  0
LINE
  8
0
 10
2.4473
 20
35.8445
 11
2.57663
 21
35.8972
  0
LINE
  8
0
 10
2.57663
 20
35.8972
 11
2.72153
 21
35.9147
  0
LINE
  8
0
 10
2.72153
 20
35.9147
 11
2.86308
 21
35.8967
  0
LINE
  8
0
 10
2.86308
 20
35.8967
 11
2.9904
 21
35.8427
  0
LINE
  8
0
 10
2.9904
 20
35.8427
 11
3.10352
 21
35.7527
  0
LINE
  8
0
 10
3.10352
 20
35.7527
 11
3.19185
 21
35.6396
  0
LINE
  8
0
 10
3.19185
 20
35.6396
 11
3.24486
 21
35.515
  0
LINE
  8
0
 10
3.24486
 20
35.515
 11
3.26251
 21
35.3787
  0
LINE
  8
0
 10
3.26251
 20
35.3787
 11
3.74463
 21
35.6765
  0
LINE
  8
0
 10
3.74463
 20
35.6765
 11
4.2803
 21
35.8552
  0
LINE
  8
0
 10
4.2803
 20
35.8552
 11
4.86952
 21
35.9147
  0
LINE
  8
0
 10
4.86952
 20
35.9147
 11
5.2234
 21
35.8915
  0
LINE
  8
0
 10
5.2234
 20
35.8915
 11
5.56508
 21
35.8219
  0
LINE
  8
0
 10
5.56508
 20
35.8219
 11
5.89452
 21
35.7057
  0
LINE
  8
0
 10
5.89452
 20
35.7057
 11
6.20508
 21
35.5503
  0
LINE
  8
0
 10
6.20508
 20
35.5503
 11
6.49008
 21
35.3613
  0
LINE
  8
0
 10
6.49008
 20
35.3613
 11
6.74953
 21
35.1387
  0
LINE
  8
0
 10
6.74953
 20
35.1387
 11
6.97896
 21
34.8858
  0
LINE
  8
0
 10
6.97896
 20
34.8858
 11
7.17397
 21
34.6045
  0
LINE
  8
0
 10
7.17397
 20
34.6045
 11
7.33452
 21
34.2947
  0
LINE
  8
0
 10
7.33452
 20
34.2947
 11
7.45451
 21
33.9642
  0
LINE
  8
0
 10
7.45451
 20
33.9642
 11
7.52652
 21
33.6192
  0
LINE
  8
0
 10
7.52652
 20
33.6192
 11
7.55052
 21
33.2597
  0
LINE
  8
0
 10
7.55052
 20
33.2597
 11
7.55052
 21
30.7528
  0
LINE
  8
0
 10
7.55052
 20
30.7528
 11
7.53285
 21
30.6111
  0
LINE
  8
0
 10
7.53285
 20
30.6111
 11
7.47986
 21
30.4848
  0
LINE
  8
0
 10
7.47986
 20
30.4848
 11
7.39153
 21
30.3738
  0
LINE
  8
0
 10
7.39153
 20
30.3738
 11
7.27841
 21
30.2876
  0
LINE
  8
0
 10
7.27841
 20
30.2876
 11
7.15108
 21
30.236
  0
LINE
  8
0
 10
7.15108
 20
30.236
 11
7.00952
 21
30.2187
  0
LINE
  8
0
 10
7.00952
 20
30.2187
 11
6.86462
 21
30.2359
  0
LINE
  8
0
 10
6.86462
 20
30.2359
 11
6.73529
 21
30.2872
  0
LINE
  8
0
 10
6.73529
 20
30.2872
 11
6.62152
 21
30.3728
  0
LINE
  8
0
 10
6.62152
 20
30.3728
 11
6.53319
 21
30.4835
  0
LINE
  8
0
 10
6.53319
 20
30.4835
 11
6.48018
 21
30.6092
  0
LINE
  8
0
 10
6.48018
 20
30.6092
 11
6.46252
 21
30.7498
  0
LINE
  8
0
 10
6.46252
 20
30.7498
 11
6.46252
 21
33.2437
  0
LINE
  8
0
 10
6.46252
 20
33.2437
 11
6.4483
 21
33.4557
  0
LINE
  8
0
 10
6.4483
 20
33.4557
 11
6.40562
 21
33.6597
  0
LINE
  8
0
 10
6.40562
 20
33.6597
 11
6.33452
 21
33.8557
  0
LINE
  8
0
 10
6.33452
 20
33.8557
 11
6.2393
 21
34.0396
  0
LINE
  8
0
 10
6.2393
 20
34.0396
 11
6.1243
 21
34.2073
  0
LINE
  8
0
 10
6.1243
 20
34.2073
 11
5.98952
 21
34.3587
  0
LINE
  8
0
 10
5.98952
 20
34.3587
 11
5.83652
 21
34.4922
  0
LINE
  8
0
 10
5.83652
 20
34.4922
 11
5.66685
 21
34.6059
  0
LINE
  8
0
 10
5.66685
 20
34.6059
 11
5.48051
 21
34.6997
  0
LINE
  8
0
 10
5.48051
 20
34.6997
 11
5.28252
 21
34.7703
  0
LINE
  8
0
 10
5.28252
 20
34.7703
 11
5.07652
 21
34.8126
  0
LINE
  8
0
 10
5.07652
 20
34.8126
 11
4.86252
 21
34.8267
  0
LINE
  8
0
 10
4.86252
 20
34.8267
 11
4.64597
 21
34.813
  0
LINE
  8
0
 10
4.64597
 20
34.813
 11
4.43896
 21
34.7716
  0
LINE
  8
0
 10
4.43896
 20
34.7716
 11
4.24152
 21
34.7027
  0
LINE
  8
0
 10
4.24152
 20
34.7027
 11
4.05652
 21
34.6096
  0
LINE
  8
0
 10
4.05652
 20
34.6096
 11
3.88686
 21
34.4956
  0
LINE
  8
0
 10
3.88686
 20
34.4956
 11
3.73251
 21
34.3607
  0
LINE
  8
0
 10
3.73251
 20
34.3607
 11
3.59641
 21
34.2082
  0
LINE
  8
0
 10
3.59641
 20
34.2082
 11
3.48141
 21
34.0399
  0
LINE
  8
0
 10
3.48141
 20
34.0399
 11
3.38751
 21
33.8557
  0
LINE
  8
0
 10
3.38751
 20
33.8557
 11
3.31807
 21
33.6597
  0
LINE
  8
0
 10
3.31807
 20
33.6597
 11
3.27641
 21
33.4557
  0
LINE
  8
0
 10
3.27641
 20
33.4557
 11
3.26251
 21
33.2437
  0
LINE
  8
0
 10
3.26251
 20
33.2437
 11
3.26251
 21
30.7498
  0
LINE
  8
0
 10
3.26251
 20
30.7498
 11
3.24486
 21
30.6092
  0
LINE
  8
0
 10
3.24486
 20
30.6092
 11
3.19185
 21
30.4835
  0
LINE
  8
0
 10
3.19185
 20
30.4835
 11
3.10352
 21
30.3728
  0
LINE
  8
0
 10
3.10352
 20
30.3728
 11
2.9904
 21
30.2872
  0
LINE
  8
0
 10
2.9904
 20
30.2872
 11
2.86308
 21
30.2359
  0
LINE
  8
0
 10
2.86308
 20
30.2359
 11
2.72153
 21
30.2187
  0
LINE
  8
0
 10
2.72153
 20
30.2187
 11
2.57663
 21
30.236
  0
LINE
  8
0
 10
2.57663
 20
30.236
 11
2.4473
 21
30.2876
  0
LINE
  8
0
 10
2.4473
 20
30.2876
 11
2.33353
 21
30.3738
  0
LINE
  8
0
 10
2.33353
 20
30.3738
 11
2.24519
 21
30.4848
  0
LINE
  8
0
 10
2.24519
 20
30.4848
 11
2.19218
 21
30.6111
  0
LINE
  8
0
 10
2.19218
 20
30.6111
 11
2.17451
 21
30.7528
  0
LINE
  8
0
 10
8.14424
 20
33.0667
 11
8.23792
 21
33.815
  0
LINE
  8
0
 10
8.23792
 20
33.815
 11
8.51891
 21
34.4863
  0
LINE
  8
0
 10
8.51891
 20
34.4863
 11
8.98724
 21
35.0807
  0
LINE
  8
0
 10
8.98724
 20
35.0807
 11
9.58868
 21
35.5441
  0
LINE
  8
0
 10
9.58868
 20
35.5441
 11
10.2677
 21
35.8221
  0
LINE
  8
0
 10
10.2677
 20
35.8221
 11
11.0242
 21
35.9147
  0
LINE
  8
0
 10
11.0242
 20
35.9147
 11
11.7764
 21
35.8221
  0
LINE
  8
0
 10
11.7764
 20
35.8221
 11
12.4554
 21
35.5441
  0
LINE
  8
0
 10
12.4554
 20
35.5441
 11
13.0612
 21
35.0807
  0
LINE
  8
0
 10
13.0612
 20
35.0807
 11
13.5296
 21
34.4863
  0
LINE
  8
0
 10
13.5296
 20
34.4863
 11
13.8106
 21
33.815
  0
LINE
  8
0
 10
13.8106
 20
33.815
 11
13.9043
 21
33.0667
  0
LINE
  8
0
 10
13.9043
 20
33.0667
 11
13.9043
 21
30.7478
  0
LINE
  8
0
 10
13.9043
 20
30.7478
 11
13.8866
 21
30.6089
  0
LINE
  8
0
 10
13.8866
 20
30.6089
 11
13.8336
 21
30.4842
  0
LINE
  8
0
 10
13.8336
 20
30.4842
 11
13.7452
 21
30.3738
  0
LINE
  8
0
 10
13.7452
 20
30.3738
 11
13.6321
 21
30.2876
  0
LINE
  8
0
 10
13.6321
 20
30.2876
 11
13.5048
 21
30.236
  0
LINE
  8
0
 10
13.5048
 20
30.236
 11
13.3633
 21
30.2187
  0
LINE
  8
0
 10
13.3633
 20
30.2187
 11
13.2184
 21
30.2364
  0
LINE
  8
0
 10
13.2184
 20
30.2364
 11
13.089
 21
30.2894
  0
LINE
  8
0
 10
13.089
 20
30.2894
 11
12.9753
 21
30.3778
  0
LINE
  8
0
 10
12.9753
 20
30.3778
 11
12.8869
 21
30.491
  0
LINE
  8
0
 10
12.8869
 20
30.491
 11
12.8339
 21
30.6187
  0
LINE
  8
0
 10
12.8339
 20
30.6187
 11
12.8163
 21
30.7608
  0
LINE
  8
0
 10
12.8163
 20
30.7608
 11
12.8292
 21
30.8648
  0
LINE
  8
0
 10
12.8292
 20
30.8648
 11
12.5645
 21
30.6723
  0
LINE
  8
0
 10
12.5645
 20
30.6723
 11
12.2848
 21
30.5123
  0
LINE
  8
0
 10
12.2848
 20
30.5123
 11
11.9902
 21
30.3848
  0
LINE
  8
0
 10
11.9902
 20
30.3848
 11
11.682
 21
30.2925
  0
LINE
  8
0
 10
11.682
 20
30.2925
 11
11.36
 21
30.2372
  0
LINE
  8
0
 10
11.36
 20
30.2372
 11
11.0242
 21
30.2187
  0
LINE
  8
0
 10
11.0242
 20
30.2187
 11
10.2677
 21
30.3114
  0
LINE
  8
0
 10
10.2677
 20
30.3114
 11
9.58868
 21
30.5894
  0
LINE
  8
0
 10
9.58868
 20
30.5894
 11
8.98724
 21
31.0528
  0
LINE
  8
0
 10
8.98724
 20
31.0528
 11
8.51891
 21
31.6472
  0
LINE
  8
0
 10
8.51891
 20
31.6472
 11
8.23792
 21
32.3185
  0
LINE
  8
0
 10
8.23792
 20
32.3185
 11
8.14424
 21
33.0667
  0
LINE
  8
0
 10
14.5114
 20
32.8738
 11
14.5114
 21
35.3857
  0
LINE
  8
0
 10
14.5114
 20
35.3857
 11
14.5291
 21
35.5246
  0
LINE
  8
0
 10
14.5291
 20
35.5246
 11
14.5821
 21
35.6493
  0
LINE
  8
0
 10
14.5821
 20
35.6493
 11
14.6704
 21
35.7597
  0
LINE
  8
0
 10
14.6704
 20
35.7597
 11
14.7842
 21
35.8459
  0
LINE
  8
0
 10
14.7842
 20
35.8459
 11
14.9135
 21
35.8975
  0
LINE
  8
0
 10
14.9135
 20
35.8975
 11
15.0584
 21
35.9147
  0
LINE
  8
0
 10
15.0584
 20
35.9147
 11
15.2
 21
35.8975
  0
LINE
  8
0
 10
15.2
 20
35.8975
 11
15.3273
 21
35.8459
  0
LINE
  8
0
 10
15.3273
 20
35.8459
 11
15.4404
 21
35.7597
  0
LINE
  8
0
 10
15.4404
 20
35.7597
 11
15.5288
 21
35.6501
  0
LINE
  8
0
 10
15.5288
 20
35.6501
 11
15.5818
 21
35.5264
  0
LINE
  8
0
 10
15.5818
 20
35.5264
 11
15.5994
 21
35.3887
  0
LINE
  8
0
 10
15.5994
 20
35.3887
 11
15.5994
 21
32.8898
  0
LINE
  8
0
 10
15.5994
 20
32.8898
 11
15.6133
 21
32.675
  0
LINE
  8
0
 10
15.6133
 20
32.675
 11
15.655
 21
32.4693
  0
LINE
  8
0
 10
15.655
 20
32.4693
 11
15.7244
 21
32.2728
  0
LINE
  8
0
 10
15.7244
 20
32.2728
 11
15.818
 21
32.0889
  0
LINE
  8
0
 10
15.818
 20
32.0889
 11
15.932
 21
31.9212
  0
LINE
  8
0
 10
15.932
 20
31.9212
 11
16.0664
 21
31.7698
  0
LINE
  8
0
 10
16.0664
 20
31.7698
 11
16.2199
 21
31.6365
  0
LINE
  8
0
 10
16.2199
 20
31.6365
 11
16.3895
 21
31.5235
  0
LINE
  8
0
 10
16.3895
 20
31.5235
 11
16.5754
 21
31.4308
  0
LINE
  8
0
 10
16.5754
 20
31.4308
 11
16.7746
 21
31.3619
  0
LINE
  8
0
 10
16.7746
 20
31.3619
 11
16.9825
 21
31.3205
  0
LINE
  8
0
 10
16.9825
 20
31.3205
 11
17.1994
 21
31.3068
  0
LINE
  8
0
 10
17.1994
 20
31.3068
 11
17.4134
 21
31.3205
  0
LINE
  8
0
 10
17.4134
 20
31.3205
 11
17.6194
 21
31.3619
  0
LINE
  8
0
 10
17.6194
 20
31.3619
 11
17.8174
 21
31.4308
  0
LINE
  8
0
 10
17.8174
 20
31.4308
 11
18.0041
 21
31.5238
  0
LINE
  8
0
 10
18.0041
 20
31.5238
 11
18.1748
 21
31.6374
  0
LINE
  8
0
 10
18.1748
 20
31.6374
 11
18.3294
 21
31.7718
  0
LINE
  8
0
 10
18.3294
 20
31.7718
 11
18.4655
 21
31.9245
  0
LINE
  8
0
 10
18.4655
 20
31.9245
 11
18.5806
 21
32.0922
  0
LINE
  8
0
 10
18.5806
 20
32.0922
 11
18.6744
 21
32.2748
  0
LINE
  8
0
 10
18.6744
 20
32.2748
 11
18.7439
 21
32.4702
  0
LINE
  8
0
 10
18.7439
 20
32.4702
 11
18.7855
 21
32.6752
  0
LINE
  8
0
 10
18.7855
 20
32.6752
 11
18.7994
 21
32.8898
  0
LINE
  8
0
 10
18.7994
 20
32.8898
 11
18.7994
 21
35.3887
  0
LINE
  8
0
 10
18.7994
 20
35.3887
 11
18.8171
 21
35.5264
  0
LINE
  8
0
 10
18.8171
 20
35.5264
 11
18.8701
 21
35.6501
  0
LINE
  8
0
 10
18.8701
 20
35.6501
 11
18.9584
 21
35.7597
  0
LINE
  8
0
 10
18.9584
 20
35.7597
 11
19.0722
 21
35.8459
  0
LINE
  8
0
 10
19.0722
 20
35.8459
 11
19.2015
 21
35.8975
  0
LINE
  8
0
 10
19.2015
 20
35.8975
 11
19.3464
 21
35.9147
  0
LINE
  8
0
 10
19.3464
 20
35.9147
 11
19.488
 21
35.8975
  0
LINE
  8
0
 10
19.488
 20
35.8975
 11
19.6153
 21
35.8459
  0
LINE
  8
0
 10
19.6153
 20
35.8459
 11
19.7284
 21
35.7597
  0
LINE
  8
0
 10
19.7284
 20
35.7597
 11
19.8168
 21
35.6493
  0
LINE
  8
0
 10
19.8168
 20
35.6493
 11
19.8698
 21
35.5246
  0
LINE
  8
0
 10
19.8698
 20
35.5246
 11
19.8874
 21
35.3857
  0
LINE
  8
0
 10
19.8874
 20
35.3857
 11
19.8874
 21
30.7478
  0
LINE
  8
0
 10
19.8874
 20
30.7478
 11
19.8698
 21
30.6089
  0
LINE
  8
0
 10
19.8698
 20
30.6089
 11
19.8168
 21
30.4842
  0
LINE
  8
0
 10
19.8168
 20
30.4842
 11
19.7284
 21
30.3738
  0
LINE
  8
0
 10
19.7284
 20
30.3738
 11
19.6147
 21
30.2876
  0
LINE
  8
0
 10
19.6147
 20
30.2876
 11
19.4853
 21
30.236
  0
LINE
  8
0
 10
19.4853
 20
30.236
 11
19.3404
 21
30.2187
  0
LINE
  8
0
 10
19.3404
 20
30.2187
 11
19.1936
 21
30.2361
  0
LINE
  8
0
 10
19.1936
 20
30.2361
 11
19.0653
 21
30.2881
  0
LINE
  8
0
 10
19.0653
 20
30.2881
 11
18.9554
 21
30.3748
  0
LINE
  8
0
 10
18.9554
 20
30.3748
 11
18.871
 21
30.4863
  0
LINE
  8
0
 10
18.871
 20
30.4863
 11
18.819
 21
30.613
  0
LINE
  8
0
 10
18.819
 20
30.613
 11
18.7994
 21
30.7548
  0
LINE
  8
0
 10
18.7994
 20
30.7548
 11
18.5588
 21
30.5844
  0
LINE
  8
0
 10
18.5588
 20
30.5844
 11
18.3088
 21
30.4481
  0
LINE
  8
0
 10
18.3088
 20
30.4481
 11
18.0494
 21
30.3458
  0
LINE
  8
0
 10
18.0494
 20
30.3458
 11
17.7787
 21
30.2752
  0
LINE
  8
0
 10
17.7787
 20
30.2752
 11
17.493
 21
30.2329
  0
LINE
  8
0
 10
17.493
 20
30.2329
 11
17.1924
 21
30.2187
  0
LINE
  8
0
 10
17.1924
 20
30.2187
 11
16.8327
 21
30.2422
  0
LINE
  8
0
 10
16.8327
 20
30.2422
 11
16.4866
 21
30.3125
  0
LINE
  8
0
 10
16.4866
 20
30.3125
 11
16.1544
 21
30.4298
  0
LINE
  8
0
 10
16.1544
 20
30.4298
 11
15.8428
 21
30.5871
  0
LINE
  8
0
 10
15.8428
 20
30.5871
 11
15.5584
 21
30.7778
  0
LINE
  8
0
 10
15.5584
 20
30.7778
 11
15.3014
 21
31.0018
  0
LINE
  8
0
 10
15.3014
 20
31.0018
 11
15.0755
 21
31.256
  0
LINE
  8
0
 10
15.0755
 20
31.256
 11
14.8832
 21
31.5373
  0
LINE
  8
0
 10
14.8832
 20
31.5373
 11
14.7244
 21
31.8458
  0
LINE
  8
0
 10
14.7244
 20
31.8458
 11
14.6061
 21
32.1751
  0
LINE
  8
0
 10
14.6061
 20
32.1751
 11
14.5351
 21
32.5178
  0
LINE
  8
0
 10
14.5351
 20
32.5178
 11
14.5114
 21
32.8738
  0
LINE
  8
0
 10
20.4812
 20
30.7478
 11
20.4812
 21
35.3857
  0
LINE
  8
0
 10
20.4812
 20
35.3857
 11
20.4988
 21
35.5246
  0
LINE
  8
0
 10
20.4988
 20
35.5246
 11
20.5518
 21
35.6493
  0
LINE
  8
0
 10
20.5518
 20
35.6493
 11
20.6402
 21
35.7597
  0
LINE
  8
0
 10
20.6402
 20
35.7597
 11
20.7539
 21
35.8459
  0
LINE
  8
0
 10
20.7539
 20
35.8459
 11
20.8833
 21
35.8975
  0
LINE
  8
0
 10
20.8833
 20
35.8975
 11
21.0282
 21
35.9147
  0
LINE
  8
0
 10
21.0282
 20
35.9147
 11
21.1697
 21
35.8971
  0
LINE
  8
0
 10
21.1697
 20
35.8971
 11
21.297
 21
35.8441
  0
LINE
  8
0
 10
21.297
 20
35.8441
 11
21.4102
 21
35.7557
  0
LINE
  8
0
 10
21.4102
 20
35.7557
 11
21.4985
 21
35.6425
  0
LINE
  8
0
 10
21.4985
 20
35.6425
 11
21.5515
 21
35.5148
  0
LINE
  8
0
 10
21.5515
 20
35.5148
 11
21.5692
 21
35.3727
  0
LINE
  8
0
 10
21.5692
 20
35.3727
 11
21.5692
 21
35.2687
  0
LINE
  8
0
 10
21.5692
 20
35.2687
 11
21.8312
 21
35.4611
  0
LINE
  8
0
 10
21.8312
 20
35.4611
 11
22.1078
 21
35.6207
  0
LINE
  8
0
 10
22.1078
 20
35.6207
 11
22.3992
 21
35.7477
  0
LINE
  8
0
 10
22.3992
 20
35.7477
 11
22.7047
 21
35.8405
  0
LINE
  8
0
 10
22.7047
 20
35.8405
 11
23.024
 21
35.8962
  0
LINE
  8
0
 10
23.024
 20
35.8962
 11
23.3572
 21
35.9147
  0
LINE
  8
0
 10
23.3572
 20
35.9147
 11
23.5102
 21
35.9112
  0
LINE
  8
0
 10
23.5102
 20
35.9112
 11
23.6705
 21
35.9005
  0
LINE
  8
0
 10
23.6705
 20
35.9005
 11
23.8382
 21
35.8827
  0
LINE
  8
0
 10
23.8382
 20
35.8827
 11
24.0049
 21
35.8565
  0
LINE
  8
0
 10
24.0049
 20
35.8565
 11
24.1626
 21
35.8192
  0
LINE
  8
0
 10
24.1626
 20
35.8192
 11
24.3112
 21
35.7707
  0
LINE
  8
0
 10
24.3112
 20
35.7707
 11
24.4475
 21
35.7101
  0
LINE
  8
0
 10
24.4475
 20
35.7101
 11
24.5672
 21
35.6361
  0
LINE
  8
0
 10
24.5672
 20
35.6361
 11
24.6702
 21
35.5487
  0
LINE
  8
0
 10
24.6702
 20
35.5487
 11
24.7496
 21
35.4455
  0
LINE
  8
0
 10
24.7496
 20
35.4455
 11
24.7973
 21
35.3239
  0
LINE
  8
0
 10
24.7973
 20
35.3239
 11
24.8132
 21
35.1837
  0
LINE
  8
0
 10
24.8132
 20
35.1837
 11
24.8084
 21
35.1087
  0
LINE
  8
0
 10
24.8084
 20
35.1087
 11
24.7941
 21
35.0371
  0
LINE
  8
0
 10
24.7941
 20
35.0371
 11
24.7702
 21
34.9687
  0
LINE
  8
0
 10
24.7702
 20
34.9687
 11
24.7383
 21
34.9053
  0
LINE
  8
0
 10
24.7383
 20
34.9053
 11
24.6999
 21
34.847
  0
LINE
  8
0
 10
24.6999
 20
34.847
 11
24.6552
 21
34.7937
  0
LINE
  8
0
 10
24.6552
 20
34.7937
 11
24.6049
 21
34.7474
  0
LINE
  8
0
 10
24.6049
 20
34.7474
 11
24.5489
 21
34.7084
  0
LINE
  8
0
 10
24.5489
 20
34.7084
 11
24.4872
 21
34.6767
  0
LINE
  8
0
 10
24.4872
 20
34.6767
 11
24.4214
 21
34.6534
  0
LINE
  8
0
 10
24.4214
 20
34.6534
 11
24.3521
 21
34.6394
  0
LINE
  8
0
 10
24.3521
 20
34.6394
 11
24.2792
 21
34.6347
  0
LINE
  8
0
 10
24.2792
 20
34.6347
 11
24.211
 21
34.6413
  0
LINE
  8
0
 10
24.211
 20
34.6413
 11
24.136
 21
34.661
  0
LINE
  8
0
 10
24.136
 20
34.661
 11
24.0542
 21
34.6937
  0
LINE
  8
0
 10
24.0542
 20
34.6937
 11
23.8345
 21
34.7676
  0
LINE
  8
0
 10
23.8345
 20
34.7676
 11
23.6022
 21
34.812
  0
LINE
  8
0
 10
23.6022
 20
34.812
 11
23.3572
 21
34.8267
  0
LINE
  8
0
 10
23.3572
 20
34.8267
 11
23.1143
 21
34.8113
  0
LINE
  8
0
 10
23.1143
 20
34.8113
 11
22.8816
 21
34.765
  0
LINE
  8
0
 10
22.8816
 20
34.765
 11
22.6592
 21
34.6877
  0
LINE
  8
0
 10
22.6592
 20
34.6877
 11
22.4512
 21
34.5837
  0
LINE
  8
0
 10
22.4512
 20
34.5837
 11
22.2618
 21
34.4571
  0
LINE
  8
0
 10
22.2618
 20
34.4571
 11
22.0912
 21
34.3077
  0
LINE
  8
0
 10
22.0912
 20
34.3077
 11
21.9412
 21
34.1384
  0
LINE
  8
0
 10
21.9412
 20
34.1384
 11
21.8138
 21
33.9504
  0
LINE
  8
0
 10
21.8138
 20
33.9504
 11
21.7092
 21
33.7437
  0
LINE
  8
0
 10
21.7092
 20
33.7437
 11
21.6314
 21
33.5233
  0
LINE
  8
0
 10
21.6314
 20
33.5233
 11
21.5847
 21
33.2926
  0
LINE
  8
0
 10
21.5847
 20
33.2926
 11
21.5692
 21
33.0517
  0
LINE
  8
0
 10
21.5692
 20
33.0517
 11
21.5692
 21
30.7448
  0
LINE
  8
0
 10
21.5692
 20
30.7448
 11
21.5515
 21
30.607
  0
LINE
  8
0
 10
21.5515
 20
30.607
 11
21.4985
 21
30.483
  0
LINE
  8
0
 10
21.4985
 20
30.483
 11
21.4102
 21
30.3728
  0
LINE
  8
0
 10
21.4102
 20
30.3728
 11
21.297
 21
30.2872
  0
LINE
  8
0
 10
21.297
 20
30.2872
 11
21.1697
 21
30.2359
  0
LINE
  8
0
 10
21.1697
 20
30.2359
 11
21.0282
 21
30.2187
  0
LINE
  8
0
 10
21.0282
 20
30.2187
 11
20.8833
 21
30.236
  0
LINE
  8
0
 10
20.8833
 20
30.236
 11
20.7539
 21
30.2876
  0
LINE
  8
0
 10
20.7539
 20
30.2876
 11
20.6402
 21
30.3738
  0
LINE
  8
0
 10
20.6402
 20
30.3738
 11
20.5518
 21
30.4842
  0
LINE
  8
0
 10
20.5518
 20
30.4842
 11
20.4988
 21
30.6089
  0
LINE
  8
0
 10
20.4988
 20
30.6089
 11
20.4812
 21
30.7478
  0
LINE
  8
0
 10
25.2565
 20
33.0667
 11
25.3502
 21
33.815
  0
LINE
  8
0
 10
25.3502
 20
33.815
 11
25.6312
 21
34.4863
  0
LINE
  8
0
 10
25.6312
 20
34.4863
 11
26.0995
 21
35.0807
  0
LINE
  8
0
 10
26.0995
 20
35.0807
 11
26.701
 21
35.5441
  0
LINE
  8
0
 10
26.701
 20
35.5441
 11
27.38
 21
35.8221
  0
LINE
  8
0
 10
27.38
 20
35.8221
 11
28.1366
 21
35.9147
  0
LINE
  8
0
 10
28.1366
 20
35.9147
 11
28.8887
 21
35.8221
  0
LINE
  8
0
 10
28.8887
 20
35.8221
 11
29.5677
 21
35.5441
  0
LINE
  8
0
 10
29.5677
 20
35.5441
 11
30.1736
 21
35.0807
  0
LINE
  8
0
 10
30.1736
 20
35.0807
 11
30.6419
 21
34.4863
  0
LINE
  8
0
 10
30.6419
 20
34.4863
 11
30.9229
 21
33.815
  0
LINE
  8
0
 10
30.9229
 20
33.815
 11
31.0166
 21
33.0667
  0
LINE
  8
0
 10
31.0166
 20
33.0667
 11
31.0166
 21
30.7478
  0
LINE
  8
0
 10
31.0166
 20
30.7478
 11
30.9989
 21
30.6089
  0
LINE
  8
0
 10
30.9989
 20
30.6089
 11
30.9459
 21
30.4842
  0
LINE
  8
0
 10
30.9459
 20
30.4842
 11
30.8575
 21
30.3738
  0
LINE
  8
0
 10
30.8575
 20
30.3738
 11
30.7444
 21
30.2876
  0
LINE
  8
0
 10
30.7444
 20
30.2876
 11
30.6171
 21
30.236
  0
LINE
  8
0
 10
30.6171
 20
30.236
 11
30.4756
 21
30.2187
  0
LINE
  8
0
 10
30.4756
 20
30.2187
 11
30.3307
 21
30.2364
  0
LINE
  8
0
 10
30.3307
 20
30.2364
 11
30.2013
 21
30.2894
  0
LINE
  8
0
 10
30.2013
 20
30.2894
 11
30.0876
 21
30.3778
  0
LINE
  8
0
 10
30.0876
 20
30.3778
 11
29.9992
 21
30.491
  0
LINE
  8
0
 10
29.9992
 20
30.491
 11
29.9462
 21
30.6187
  0
LINE
  8
0
 10
29.9462
 20
30.6187
 11
29.9286
 21
30.7608
  0
LINE
  8
0
 10
29.9286
 20
30.7608
 11
29.9415
 21
30.8648
  0
LINE
  8
0
 10
29.9415
 20
30.8648
 11
29.6768
 21
30.6723
  0
LINE
  8
0
 10
29.6768
 20
30.6723
 11
29.3971
 21
30.5123
  0
LINE
  8
0
 10
29.3971
 20
30.5123
 11
29.1026
 21
30.3848
  0
LINE
  8
0
 10
29.1026
 20
30.3848
 11
28.7943
 21
30.2925
  0
LINE
  8
0
 10
28.7943
 20
30.2925
 11
28.4723
 21
30.2372
  0
LINE
  8
0
 10
28.4723
 20
30.2372
 11
28.1366
 21
30.2187
  0
LINE
  8
0
 10
28.1366
 20
30.2187
 11
27.38
 21
30.3114
  0
LINE
  8
0
 10
27.38
 20
30.3114
 11
26.701
 21
30.5894
  0
LINE
  8
0
 10
26.701
 20
30.5894
 11
26.0995
 21
31.0528
  0
LINE
  8
0
 10
26.0995
 20
31.0528
 11
25.6312
 21
31.6472
  0
LINE
  8
0
 10
25.6312
 20
31.6472
 11
25.3502
 21
32.3185
  0
LINE
  8
0
 10
25.3502
 20
32.3185
 11
25.2565
 21
33.0667
  0
LINE
  8
0
 10
31.5597
 20
30.7468
 11
31.5597
 21
37.8137
  0
LINE
  8
0
 10
31.5597
 20
37.8137
 11
31.5768
 21
37.9548
  0
LINE
  8
0
 10
31.5768
 20
37.9548
 11
31.6282
 21
38.0809
  0
LINE
  8
0
 10
31.6282
 20
38.0809
 11
31.7137
 21
38.1917
  0
LINE
  8
0
 10
31.7137
 20
38.1917
 11
31.826
 21
38.2778
  0
LINE
  8
0
 10
31.826
 20
38.2778
 11
31.956
 21
38.3295
  0
LINE
  8
0
 10
31.956
 20
38.3295
 11
32.1037
 21
38.3467
  0
LINE
  8
0
 10
32.1037
 20
38.3467
 11
32.2514
 21
38.3295
  0
LINE
  8
0
 10
32.2514
 20
38.3295
 11
32.3811
 21
38.2778
  0
LINE
  8
0
 10
32.3811
 20
38.2778
 11
32.4927
 21
38.1917
  0
LINE
  8
0
 10
32.4927
 20
38.1917
 11
32.5788
 21
38.0815
  0
LINE
  8
0
 10
32.5788
 20
38.0815
 11
32.6305
 21
37.9562
  0
LINE
  8
0
 10
32.6305
 20
37.9562
 11
32.6477
 21
37.8157
  0
LINE
  8
0
 10
32.6477
 20
37.8157
 11
32.6477
 21
31.3068
  0
LINE
  8
0
 10
32.6477
 20
31.3068
 11
32.8907
 21
31.3068
  0
LINE
  8
0
 10
32.8907
 20
31.3068
 11
33.0284
 21
31.2891
  0
LINE
  8
0
 10
33.0284
 20
31.2891
 11
33.1521
 21
31.2361
  0
LINE
  8
0
 10
33.1521
 20
31.2361
 11
33.2617
 21
31.1478
  0
LINE
  8
0
 10
33.2617
 20
31.1478
 11
33.3473
 21
31.034
  0
LINE
  8
0
 10
33.3473
 20
31.034
 11
33.3986
 21
30.9046
  0
LINE
  8
0
 10
33.3986
 20
30.9046
 11
33.4157
 21
30.7598
  0
LINE
  8
0
 10
33.4157
 20
30.7598
 11
33.3983
 21
30.6182
  0
LINE
  8
0
 10
33.3983
 20
30.6182
 11
33.346
 21
30.4909
  0
LINE
  8
0
 10
33.346
 20
30.4909
 11
33.2587
 21
30.3778
  0
LINE
  8
0
 10
33.2587
 20
30.3778
 11
33.1469
 21
30.2894
  0
LINE
  8
0
 10
33.1469
 20
30.2894
 11
33.0205
 21
30.2364
  0
LINE
  8
0
 10
33.0205
 20
30.2364
 11
32.8797
 21
30.2187
  0
LINE
  8
0
 10
32.8797
 20
30.2187
 11
32.0907
 21
30.2187
  0
LINE
  8
0
 10
32.0907
 20
30.2187
 11
31.9502
 21
30.236
  0
LINE
  8
0
 10
31.9502
 20
30.236
 11
31.8245
 21
30.2876
  0
LINE
  8
0
 10
31.8245
 20
30.2876
 11
31.7137
 21
30.3738
  0
LINE
  8
0
 10
31.7137
 20
30.3738
 11
31.6282
 21
30.4841
  0
LINE
  8
0
 10
31.6282
 20
30.4841
 11
31.5768
 21
30.6084
  0
LINE
  8
0
 10
31.5768
 20
30.6084
 11
31.5597
 21
30.7468
  0
LINE
  8
0
 10
-38
 20
-87
 11
-14.5
 21
-87
  0
LINE
  8
0
 10
-14.5
 20
-87
 11
-14.5
 21
-84
  0
LINE
  8
0
 10
-14.5
 20
-84
 11
0.5
 21
-84
  0
LINE
  8
0
 10
0.5
 20
-84
 11
0.5
 21
-87
  0
LINE
  8
0
 10
0.5
 20
-87
 11
10
 21
-87
  0
LINE
  8
0
 10
10
 20
-87
 11
10.6972
 21
-86.9696
  0
LINE
  8
0
 10
10.6972
 20
-86.9696
 11
11.3892
 21
-86.8785
  0
LINE
  8
0
 10
11.3892
 20
-86.8785
 11
12.0706
 21
-86.7274
  0
LINE
  8
0
 10
12.0706
 20
-86.7274
 11
12.7362
 21
-86.5175
  0
LINE
  8
0
 10
12.7362
 20
-86.5175
 11
13.3809
 21
-86.2505
  0
LINE
  8
0
 10
13.3809
 20
-86.2505
 11
14
 21
-85.9282
  0
LINE
  8
0
 10
14
 20
-85.9282
 11
14.5886
 21
-85.5532
  0
LINE
  8
0
 10
14.5886
 20
-85.5532
 11
15.1423
 21
-85.1284
  0
LINE
  8
0
 10
15.1423
 20
-85.1284
 11
15.6569
 21
-84.6569
  0
LINE
  8
0
 10
15.6569
 20
-84.6569
 11
16.1284
 21
-84.1423
  0
LINE
  8
0
 10
16.1284
 20
-84.1423
 11
16.5532
 21
-83.5886
  0
LINE
  8
0
 10
16.5532
 20
-83.5886
 11
16.9282
 21
-83
  0
LINE
  8
0
 10
16.9282
 20
-83
 11
17.2505
 21
-82.3809
  0
LINE
  8
0
 10
17.2505
 20
-82.3809
 11
17.5175
 21
-81.7362
  0
LINE
  8
0
 10
17.5175
 20
-81.7362
 11
17.7274
 21
-81.0706
  0
LINE
  8
0
 10
17.7274
 20
-81.0706
 11
17.8785
 21
-80.3892
  0
LINE
  8
0
 10
17.8785
 20
-80.3892
 11
17.9696
 21
-79.6972
  0
LINE
  8
0
 10
17.9696
 20
-79.6972
 11
18
 21
-79
  0
LINE
  8
0
 10
18
 20
-79
 11
17.9696
 21
-78.3028
  0
LINE
  8
0
 10
17.9696
 20
-78.3028
 11
17.8785
 21
-77.6108
  0
LINE
  8
0
 10
17.8785
 20
-77.6108
 11
17.7274
 21
-76.9294
  0
LINE
  8
0
 10
17.7274
 20
-76.9294
 11
17.5175
 21
-76.2638
  0
LINE
  8
0
 10
17.5175
 20
-76.2638
 11
17.2505
 21
-75.6191
  0
LINE
  8
0
 10
17.2505
 20
-75.6191
 11
16.9282
 21
-75
  0
LINE
  8
0
 10
16.9282
 20
-75
 11
16.5532
 21
-74.4114
  0
LINE
  8
0
 10
16.5532
 20
-74.4114
 11
16.1284
 21
-73.8577
  0
LINE
  8
0
 10
16.1284
 20
-73.8577
 11
15.6569
 21
-73.3431
  0
LINE
  8
0
 10
15.6569
 20
-73.3431
 11
15.1423
 21
-72.8716
  0
LINE
  8
0
 10
15.1423
 20
-72.8716
 11
14.5886
 21
-72.4468
  0
LINE
  8
0
 10
14.5886
 20
-72.4468
 11
14
 21
-72.0718
  0
LINE
  8
0
 10
14
 20
-72.0718
 11
13.3809
 21
-71.7495
  0
LINE
  8
0
 10
13.3809
 20
-71.7495
 11
12.7362
 21
-71.4825
  0
LINE
  8
0
 10
12.7362
 20
-71.4825
 11
12.0706
 21
-71.2726
  0
LINE
  8
0
 10
12.0706
 20
-71.2726
 11
11.3892
 21
-71.1215
  0
LINE
  8
0
 10
11.3892
 20
-71.1215
 11
10.6972
 21
-71.0304
  0
LINE
  8
0
 10
10.6972
 20
-71.0304
 11
10
 21
-71
  0
LINE
  8
0
 10
10
 20
-71
 11
-22
 21
-71
  0
LINE
  8
0
 10
-22
 20
-71
 11
-22
 21
-39
  0
LINE
  8
0
 10
-22
 20
-39
 11
-22.0304
 21
-38.3028
  0
LINE
  8
0
 10
-22.0304
 20
-38.3028
 11
-22.1215
 21
-37.6108
  0
LINE
  8
0
 10
-22.1215
 20
-37.6108
 11
-22.2726
 21
-36.9294
  0
LINE
  8
0
 10
-22.2726
 20
-36.9294
 11
-22.4825
 21
-36.2638
  0
LINE
  8
0
 10
-22.4825
 20
-36.2638
 11
-22.7495
 21
-35.6191
  0
LINE
  8
0
 10
-22.7495
 20
-35.6191
 11
-23.0718
 21
-35
  0
LINE
  8
0
 10
-23.0718
 20
-35
 11
-23.4468
 21
-34.4114
  0
LINE
  8
0
 10
-23.4468
 20
-34.4114
 11
-23.8716
 21
-33.8577
  0
LINE
  8
0
 10
-23.8716
 20
-33.8577
 11
-24.3431
 21
-33.3431
  0
LINE
  8
0
 10
-24.3431
 20
-33.3431
 11
-24.8577
 21
-32.8716
  0
LINE
  8
0
 10
-24.8577
 20
-32.8716
 11
-25.4114
 21
-32.4468
  0
LINE
  8
0
 10
-25.4114
 20
-32.4468
 11
-26
 21
-32.0718
  0
LINE
  8
0
 10
-26
 20
-32.0718
 11
-26.6191
 21
-31.7495
  0
LINE
  8
0
 10
-26.6191
 20
-31.7495
 11
-27.2638
 21
-31.4825
  0
LINE
  8
0
 10
-27.2638
 20
-31.4825
 11
-27.9294
 21
-31.2726
  0
LINE
  8
0
 10
-27.9294
 20
-31.2726
 11
-28.6108
 21
-31.1215
  0
LINE
  8
0
 10
-28.6108
 20
-31.1215
 11
-29.3028
 21
-31.0304
  0
LINE
  8
0
 10
-29.3028
 20
-31.0304
 11
-30
 21
-31
  0
LINE
  8
0
 10
-30
 20
-31
 11
-30.6972
 21
-31.0304
  0
LINE
  8
0
 10
-30.6972
 20
-31.0304
 11
-31.3892
 21
-31.1215
  0
LINE
  8
0
 10
-31.3892
 20
-31.1215
 11
-32.0706
 21
-31.2726
  0
LINE
  8
0
 10
-32.0706
 20
-31.2726
 11
-32.7362
 21
-31.4825
  0
LINE
  8
0
 10
-32.7362
 20
-31.4825
 11
-33.3809
 21
-31.7495
  0
LINE
  8
0
 10
-33.3809
 20
-31.7495
 11
-34
 21
-32.0718
  0
LINE
  8
0
 10
-34
 20
-32.0718
 11
-34.5886
 21
-32.4468
  0
LINE
  8
0
 10
-34.5886
 20
-32.4468
 11
-35.1423
 21
-32.8716
  0
LINE
  8
0
 10
-35.1423
 20
-32.8716
 11
-35.6569
 21
-33.3431
  0
LINE
  8
0
 10
-35.6569
 20
-33.3431
 11
-36.1284
 21
-33.8577
  0
LINE
  8
0
 10
-36.1284
 20
-33.8577
 11
-36.5532
 21
-34.4114
  0
LINE
  8
0
 10
-36.5532
 20
-34.4114
 11
-36.9282
 21
-35
  0
LINE
  8
0
 10
-36.9282
 20
-35
 11
-37.2505
 21
-35.6191
  0
LINE
  8
0
 10
-37.2505
 20
-35.6191
 11
-37.5175
 21
-36.2638
  0
LINE
  8
0
 10
-37.5175
 20
-36.2638
 11
-37.7274
 21
-36.9294
  0
LINE
  8
0
 10
-37.7274
 20
-36.9294
 11
-37.8785
 21
-37.6108
  0
LINE
  8
0
 10
-37.8785
 20
-37.6108
 11
-37.9696
 21
-38.3028
  0
LINE
  8
0
 10
-37.9696
 20
-38.3028
 11
-38
 21
-39
  0
LINE
  8
0
 10
-38
 20
-39
 11
-38
 21
-51.5
  0
LINE
  8
0
 10
-38
 20
-51.5
 11
-35
 21
-51.5
  0
LINE
  8
0
 10
-35
 20
-51.5
 11
-35
 21
-66.5
  0
LINE
  8
0
 10
-35
 20
-66.5
 11
-38
 21
-66.5
  0
LINE
  8
0
 10
-38
 20
-66.5
 11
-38
 21
-87
  0
LINE
  8
0
 10
-31.4795
 20
-79.2469
 11
-31.4795
 21
-78.7531
  0
LINE
  8
0
 10
-31.4795
 20
-78.7531
 11
-31.3192
 21
-78.2861
  0
LINE
  8
0
 10
-31.3192
 20
-78.2861
 11
-31.0159
 21
-77.8964
  0
LINE
  8
0
 10
-31.0159
 20
-77.8964
 11
-30.6025
 21
-77.6263
  0
LINE
  8
0
 10
-30.6025
 20
-77.6263
 11
-30.1239
 21
-77.5051
  0
LINE
  8
0
 10
-30.1239
 20
-77.5051
 11
-29.6318
 21
-77.5459
  0
LINE
  8
0
 10
-29.6318
 20
-77.5459
 11
-29.1796
 21
-77.7442
  0
LINE
  8
0
 10
-29.1796
 20
-77.7442
 11
-28.8163
 21
-78.0787
  0
LINE
  8
0
 10
-28.8163
 20
-78.0787
 11
-28.5813
 21
-78.5129
  0
LINE
  8
0
 10
-28.5813
 20
-78.5129
 11
-28.5
 21
-79
  0
LINE
  8
0
 10
-28.5
 20
-79
 11
-28.5813
 21
-79.487
  0
LINE
  8
0
 10
-28.5813
 20
-79.487
 11
-28.8163
 21
-79.9213
  0
LINE
  8
0
 10
-28.8163
 20
-79.9213
 11
-29.1796
 21
-80.2557
  0
LINE
  8
0
 10
-29.1796
 20
-80.2557
 11
-29.6318
 21
-80.4541
  0
LINE
  8
0
 10
-29.6318
 20
-80.4541
 11
-30.1239
 21
-80.4949
  0
LINE
  8
0
 10
-30.1239
 20
-80.4949
 11
-30.6025
 21
-80.3737
  0
LINE
  8
0
 10
-30.6025
 20
-80.3737
 11
-31.0159
 21
-80.1036
  0
LINE
  8
0
 10
-31.0159
 20
-80.1036
 11
-31.3192
 21
-79.7139
  0
LINE
  8
0
 10
-31.3192
 20
-79.7139
 11
-31.4795
 21
-79.2469
  0
LINE
  8
0
 10
-31.4795
 20
-39.2469
 11
-31.4795
 21
-38.7531
  0
LINE
  8
0
 10
-31.4795
 20
-38.7531
 11
-31.3192
 21
-38.2861
  0
LINE
  8
0
 10
-31.3192
 20
-38.2861
 11
-31.0159
 21
-37.8964
  0
LINE
  8
0
 10
-31.0159
 20
-37.8964
 11
-30.6025
 21
-37.6263
  0
LINE
  8
0
 10
-30.6025
 20
-37.6263
 11
-30.1239
 21
-37.5051
  0
LINE
  8
0
 10
-30.1239
 20
-37.5051
 11
-29.6318
 21
-37.5459
  0
LINE
  8
0
 10
-29.6318
 20
-37.5459
 11
-29.1796
 21
-37.7443
  0
LINE
  8
0
 10
-29.1796
 20
-37.7443
 11
-28.8163
 21
-38.0787
  0
LINE
  8
0
 10
-28.8163
 20
-38.0787
 11
-28.5813
 21
-38.513
  0
LINE
  8
0
 10
-28.5813
 20
-38.513
 11
-28.5
 21
-39
  0
LINE
  8
0
 10
-28.5
 20
-39
 11
-28.5813
 21
-39.4871
  0
LINE
  8
0
 10
-28.5813
 20
-39.4871
 11
-28.8163
 21
-39.9213
  0
LINE
  8
0
 10
-28.8163
 20
-39.9213
 11
-29.1796
 21
-40.2558
  0
LINE
  8
0
 10
-29.1796
 20
-40.2558
 11
-29.6318
 21
-40.4541
  0
LINE
  8
0
 10
-29.6318
 20
-40.4541
 11
-30.1239
 21
-40.4949
  0
LINE
  8
0
 10
-30.1239
 20
-40.4949
 11
-30.6025
 21
-40.3737
  0
LINE
  8
0
 10
-30.6025
 20
-40.3737
 11
-31.0159
 21
-40.1036
  0
LINE
  8
0
 10
-31.0159
 20
-40.1036
 11
-31.3192
 21
-39.7139
  0
LINE
  8
0
 10
-31.3192
 20
-39.7139
 11
-31.4795
 21
-39.2469
  0
LINE
  8
0
 10
8.52046
 20
-79.2469
 11
8.52046
 21
-78.7531
  0
LINE
  8
0
 10
8.52046
 20
-78.7531
 11
8.68079
 21
-78.2861
  0
LINE
  8
0
 10
8.68079
 20
-78.2861
 11
8.98408
 21
-77.8964
  0
LINE
  8
0
 10
8.98408
 20
-77.8964
 11
9.39746
 21
-77.6263
  0
LINE
  8
0
 10
9.39746
 20
-77.6263
 11
9.87613
 21
-77.5051
  0
LINE
  8
0
 10
9.87613
 20
-77.5051
 11
10.3682
 21
-77.5459
  0
LINE
  8
0
 10
10.3682
 20
-77.5459
 11
10.8204
 21
-77.7442
  0
LINE
  8
0
 10
10.8204
 20
-77.7442
 11
11.1837
 21
-78.0787
  0
LINE
  8
0
 10
11.1837
 20
-78.0787
 11
11.4187
 21
-78.5129
  0
LINE
  8
0
 10
11.4187
 20
-78.5129
 11
11.5
 21
-79
  0
LINE
  8
0
 10
11.5
 20
-79
 11
11.4187
 21
-79.487
  0
LINE
  8
0
 10
11.4187
 20
-79.487
 11
11.1837
 21
-79.9213
  0
LINE
  8
0
 10
11.1837
 20
-79.9213
 11
10.8204
 21
-80.2557
  0
LINE
  8
0
 10
10.8204
 20
-80.2557
 11
10.3682
 21
-80.4541
  0
LINE
  8
0
 10
10.3682
 20
-80.4541
 11
9.87613
 21
-80.4949
  0
LINE
  8
0
 10
9.87613
 20
-80.4949
 11
9.39746
 21
-80.3737
  0
LINE
  8
0
 10
9.39746
 20
-80.3737
 11
8.98408
 21
-80.1036
  0
LINE
  8
0
 10
8.98408
 20
-80.1036
 11
8.68079
 21
-79.7139
  0
LINE
  8
0
 10
8.68079
 20
-79.7139
 11
8.52046
 21
-79.2469
  0
LINE
  8
0
 10
-32.1554
 20
-8.71725
 11
-32.0577
 21
-9.50003
  0
LINE
  8
0
 10
-32.0577
 20
-9.50003
 11
-31.7643
 21
-10.2017
  0
LINE
  8
0
 10
-31.7643
 20
-10.2017
 11
-31.2754
 21
-10.8222
  0
LINE
  8
0
 10
-31.2754
 20
-10.8222
 11
-30.6479
 21
-11.3061
  0
LINE
  8
0
 10
-30.6479
 20
-11.3061
 11
-29.9385
 21
-11.5965
  0
LINE
  8
0
 10
-29.9385
 20
-11.5965
 11
-29.1474
 21
-11.6932
  0
LINE
  8
0
 10
-29.1474
 20
-11.6932
 11
-28.3563
 21
-11.5965
  0
LINE
  8
0
 10
-28.3563
 20
-11.5965
 11
-27.647
 21
-11.3061
  0
LINE
  8
0
 10
-27.647
 20
-11.3061
 11
-27.0194
 21
-10.8222
  0
LINE
  8
0
 10
-27.0194
 20
-10.8222
 11
-26.5305
 21
-10.2017
  0
LINE
  8
0
 10
-26.5305
 20
-10.2017
 11
-26.2372
 21
-9.50003
  0
LINE
  8
0
 10
-26.2372
 20
-9.50003
 11
-26.1394
 21
-8.71725
  0
LINE
  8
0
 10
-26.1394
 20
-8.71725
 11
-26.2372
 21
-7.93726
  0
LINE
  8
0
 10
-26.2372
 20
-7.93726
 11
-26.5305
 21
-7.23726
  0
LINE
  8
0
 10
-26.5305
 20
-7.23726
 11
-27.0194
 21
-6.61726
  0
LINE
  8
0
 10
-27.0194
 20
-6.61726
 11
-27.6492
 21
-6.13058
  0
LINE
  8
0
 10
-27.6492
 20
-6.13058
 11
-28.3586
 21
-5.83859
  0
LINE
  8
0
 10
-28.3586
 20
-5.83859
 11
-29.1474
 21
-5.74126
  0
LINE
  8
0
 10
-29.1474
 20
-5.74126
 11
-29.558
 21
-5.76547
  0
LINE
  8
0
 10
-29.558
 20
-5.76547
 11
-29.9443
 21
-5.83815
  0
LINE
  8
0
 10
-29.9443
 20
-5.83815
 11
-30.3064
 21
-5.95926
  0
LINE
  8
0
 10
-30.3064
 20
-5.95926
 11
-30.647
 21
-6.12881
  0
LINE
  8
0
 10
-30.647
 20
-6.12881
 11
-30.97
 21
-6.34814
  0
LINE
  8
0
 10
-30.97
 20
-6.34814
 11
-31.2754
 21
-6.61726
  0
LINE
  8
0
 10
-31.2754
 20
-6.61726
 11
-31.5469
 21
-6.91904
  0
LINE
  8
0
 10
-31.5469
 20
-6.91904
 11
-31.7679
 21
-7.2377
  0
LINE
  8
0
 10
-31.7679
 20
-7.2377
 11
-31.9384
 21
-7.57326
  0
LINE
  8
0
 10
-31.9384
 20
-7.57326
 11
-32.059
 21
-7.9297
  0
LINE
  8
0
 10
-32.059
 20
-7.9297
 11
-32.1313
 21
-8.31104
  0
LINE
  8
0
 10
-32.1313
 20
-8.31104
 11
-32.1554
 21
-8.71725
  0
LINE
  8
0
 10
-32.1554
 20
34.2827
 11
-32.0577
 21
33.5
  0
LINE
  8
0
 10
-32.0577
 20
33.5
 11
-31.7643
 21
32.7983
  0
LINE
  8
0
 10
-31.7643
 20
32.7983
 11
-31.2754
 21
32.1778
  0
LINE
  8
0
 10
-31.2754
 20
32.1778
 11
-30.6479
 21
31.6939
  0
LINE
  8
0
 10
-30.6479
 20
31.6939
 11
-29.9385
 21
31.4035
  0
LINE
  8
0
 10
-29.9385
 20
31.4035
 11
-29.1474
 21
31.3068
  0
LINE
  8
0
 10
-29.1474
 20
31.3068
 11
-28.3563
 21
31.4035
  0
LINE
  8
0
 10
-28.3563
 20
31.4035
 11
-27.647
 21
31.6939
  0
LINE
  8
0
 10
-27.647
 20
31.6939
 11
-27.0194
 21
32.1778
  0
LINE
  8
0
 10
-27.0194
 20
32.1778
 11
-26.5305
 21
32.7983
  0
LINE
  8
0
 10
-26.5305
 20
32.7983
 11
-26.2372
 21
33.5
  0
LINE
  8
0
 10
-26.2372
 20
33.5
 11
-26.1394
 21
34.2827
  0
LINE
  8
0
 10
-26.1394
 20
34.2827
 11
-26.2372
 21
35.0627
  0
LINE
  8
0
 10
-26.2372
 20
35.0627
 11
-26.5305
 21
35.7627
  0
LINE
  8
0
 10
-26.5305
 20
35.7627
 11
-27.0194
 21
36.3827
  0
LINE
  8
0
 10
-27.0194
 20
36.3827
 11
-27.6492
 21
36.8694
  0
LINE
  8
0
 10
-27.6492
 20
36.8694
 11
-28.3586
 21
37.1614
  0
LINE
  8
0
 10
-28.3586
 20
37.1614
 11
-29.1474
 21
37.2587
  0
LINE
  8
0
 10
-29.1474
 20
37.2587
 11
-29.558
 21
37.2345
  0
LINE
  8
0
 10
-29.558
 20
37.2345
 11
-29.9443
 21
37.1618
  0
LINE
  8
0
 10
-29.9443
 20
37.1618
 11
-30.3064
 21
37.0407
  0
LINE
  8
0
 10
-30.3064
 20
37.0407
 11
-30.647
 21
36.8712
  0
LINE
  8
0
 10
-30.647
 20
36.8712
 11
-30.97
 21
36.6519
  0
LINE
  8
0
 10
-30.97
 20
36.6519
 11
-31.2754
 21
36.3827
  0
LINE
  8
0
 10
-31.2754
 20
36.3827
 11
-31.5469
 21
36.081
  0
LINE
  8
0
 10
-31.5469
 20
36.081
 11
-31.7679
 21
35.7623
  0
LINE
  8
0
 10
-31.7679
 20
35.7623
 11
-31.9384
 21
35.4267
  0
LINE
  8
0
 10
-31.9384
 20
35.4267
 11
-32.059
 21
35.0703
  0
LINE
  8
0
 10
-32.059
 20
35.0703
 11
-32.1313
 21
34.689
  0
LINE
  8
0
 10
-32.1313
 20
34.689
 11
-32.1554
 21
34.2827
  0
LINE
  8
0
 10
-23.4006
 20
-9.93326
 11
-23.385
 21
-10.1695
  0
LINE
  8
0
 10
-23.385
 20
-10.1695
 11
-23.3383
 21
-10.3968
  0
LINE
  8
0
 10
-23.3383
 20
-10.3968
 11
-23.2605
 21
-10.6152
  0
LINE
  8
0
 10
-23.2605
 20
-10.6152
 11
-23.1555
 21
-10.82
  0
LINE
  8
0
 10
-23.1555
 20
-10.82
 11
-23.0285
 21
-11.0063
  0
LINE
  8
0
 10
-23.0285
 20
-11.0063
 11
-22.8795
 21
-11.1742
  0
LINE
  8
0
 10
-22.8795
 20
-11.1742
 11
-22.71
 21
-11.3221
  0
LINE
  8
0
 10
-22.71
 20
-11.3221
 11
-22.5213
 21
-11.4485
  0
LINE
  8
0
 10
-22.5213
 20
-11.4485
 11
-22.3136
 21
-11.5532
  0
LINE
  8
0
 10
-22.3136
 20
-11.5532
 11
-22.0899
 21
-11.631
  0
LINE
  8
0
 10
-22.0899
 20
-11.631
 11
-21.8549
 21
-11.6777
  0
LINE
  8
0
 10
-21.8549
 20
-11.6777
 11
-21.6086
 21
-11.6932
  0
LINE
  8
0
 10
-21.6086
 20
-11.6932
 11
-21.3651
 21
-11.6777
  0
LINE
  8
0
 10
-21.3651
 20
-11.6777
 11
-21.1321
 21
-11.631
  0
LINE
  8
0
 10
-21.1321
 20
-11.631
 11
-20.9095
 21
-11.5532
  0
LINE
  8
0
 10
-20.9095
 20
-11.5532
 11
-20.701
 21
-11.4482
  0
LINE
  8
0
 10
-20.701
 20
-11.4482
 11
-20.5113
 21
-11.3212
  0
LINE
  8
0
 10
-20.5113
 20
-11.3212
 11
-20.3405
 21
-11.1722
  0
LINE
  8
0
 10
-20.3405
 20
-11.1722
 11
-20.19
 21
-11.003
  0
LINE
  8
0
 10
-20.19
 20
-11.003
 11
-20.0623
 21
-10.8167
  0
LINE
  8
0
 10
-20.0623
 20
-10.8167
 11
-19.9576
 21
-10.6132
  0
LINE
  8
0
 10
-19.9576
 20
-10.6132
 11
-19.8792
 21
-10.3959
  0
LINE
  8
0
 10
-19.8792
 20
-10.3959
 11
-19.8322
 21
-10.1692
  0
LINE
  8
0
 10
-19.8322
 20
-10.1692
 11
-19.8165
 21
-9.93326
  0
LINE
  8
0
 10
-19.8165
 20
-9.93326
 11
-19.8322
 21
-9.69737
  0
LINE
  8
0
 10
-19.8322
 20
-9.69737
 11
-19.8792
 21
-9.47104
  0
LINE
  8
0
 10
-19.8792
 20
-9.47104
 11
-19.9576
 21
-9.25426
  0
LINE
  8
0
 10
-19.9576
 20
-9.25426
 11
-20.0623
 21
-9.05037
  0
LINE
  8
0
 10
-20.0623
 20
-9.05037
 11
-20.19
 21
-8.86403
  0
LINE
  8
0
 10
-20.19
 20
-8.86403
 11
-20.3405
 21
-8.69525
  0
LINE
  8
0
 10
-20.3405
 20
-8.69525
 11
-20.5113
 21
-8.54581
  0
LINE
  8
0
 10
-20.5113
 20
-8.54581
 11
-20.701
 21
-8.41881
  0
LINE
  8
0
 10
-20.701
 20
-8.41881
 11
-20.9095
 21
-8.31425
  0
LINE
  8
0
 10
-20.9095
 20
-8.31425
 11
-21.1321
 21
-8.23593
  0
LINE
  8
0
 10
-21.1321
 20
-8.23593
 11
-21.3651
 21
-8.18892
  0
LINE
  8
0
 10
-21.3651
 20
-8.18892
 11
-21.6086
 21
-8.17326
  0
LINE
  8
0
 10
-21.6086
 20
-8.17326
 11
-21.8549
 21
-8.18892
  0
LINE
  8
0
 10
-21.8549
 20
-8.18892
 11
-22.0899
 21
-8.23593
  0
LINE
  8
0
 10
-22.0899
 20
-8.23593
 11
-22.3136
 21
-8.31425
  0
LINE
  8
0
 10
-22.3136
 20
-8.31425
 11
-22.5213
 21
-8.41847
  0
LINE
  8
0
 10
-22.5213
 20
-8.41847
 11
-22.71
 21
-8.54448
  0
LINE
  8
0
 10
-22.71
 20
-8.54448
 11
-22.8795
 21
-8.69226
  0
LINE
  8
0
 10
-22.8795
 20
-8.69226
 11
-23.0285
 21
-8.86015
  0
LINE
  8
0
 10
-23.0285
 20
-8.86015
 11
-23.1555
 21
-9.04648
  0
LINE
  8
0
 10
-23.1555
 20
-9.04648
 11
-23.2605
 21
-9.25125
  0
LINE
  8
0
 10
-23.2605
 20
-9.25125
 11
-23.3383
 21
-9.4697
  0
LINE
  8
0
 10
-23.3383
 20
-9.4697
 11
-23.385
 21
-9.69704
  0
LINE
  8
0
 10
-23.385
 20
-9.69704
 11
-23.4006
 21
-9.93326
  0
LINE
  8
0
 10
-23.4006
 20
33.0667
 11
-23.385
 21
32.8305
  0
LINE
  8
0
 10
-23.385
 20
32.8305
 11
-23.3383
 21
32.6032
  0
LINE
  8
0
 10
-23.3383
 20
32.6032
 11
-23.2605
 21
32.3848
  0
LINE
  8
0
 10
-23.2605
 20
32.3848
 11
-23.1555
 21
32.18
  0
LINE
  8
0
 10
-23.1555
 20
32.18
 11
-23.0285
 21
31.9937
  0
LINE
  8
0
 10
-23.0285
 20
31.9937
 11
-22.8795
 21
31.8258
  0
LINE
  8
0
 10
-22.8795
 20
31.8258
 11
-22.71
 21
31.6779
  0
LINE
  8
0
 10
-22.71
 20
31.6779
 11
-22.5213
 21
31.5515
  0
LINE
  8
0
 10
-22.5213
 20
31.5515
 11
-22.3136
 21
31.4468
  0
LINE
  8
0
 10
-22.3136
 20
31.4468
 11
-22.0899
 21
31.369
  0
LINE
  8
0
 10
-22.0899
 20
31.369
 11
-21.8549
 21
31.3223
  0
LINE
  8
0
 10
-21.8549
 20
31.3223
 11
-21.6086
 21
31.3068
  0
LINE
  8
0
 10
-21.6086
 20
31.3068
 11
-21.3651
 21
31.3223
  0
LINE
  8
0
 10
-21.3651
 20
31.3223
 11
-21.1321
 21
31.369
  0
LINE
  8
0
 10
-21.1321
 20
31.369
 11
-20.9095
 21
31.4468
  0
LINE
  8
0
 10
-20.9095
 20
31.4468
 11
-20.701
 21
31.5518
  0
LINE
  8
0
 10
-20.701
 20
31.5518
 11
-20.5113
 21
31.6788
  0
LINE
  8
0
 10
-20.5113
 20
31.6788
 11
-20.3405
 21
31.8278
  0
LINE
  8
0
 10
-20.3405
 20
31.8278
 11
-20.19
 21
31.997
  0
LINE
  8
0
 10
-20.19
 20
31.997
 11
-20.0623
 21
32.1833
  0
LINE
  8
0
 10
-20.0623
 20
32.1833
 11
-19.9576
 21
32.3868
  0
LINE
  8
0
 10
-19.9576
 20
32.3868
 11
-19.8792
 21
32.6041
  0
LINE
  8
0
 10
-19.8792
 20
32.6041
 11
-19.8322
 21
32.8308
  0
LINE
  8
0
 10
-19.8322
 20
32.8308
 11
-19.8165
 21
33.0667
  0
LINE
  8
0
 10
-19.8165
 20
33.0667
 11
-19.8322
 21
33.3026
  0
LINE
  8
0
 10
-19.8322
 20
33.3026
 11
-19.8792
 21
33.529
  0
LINE
  8
0
 10
-19.8792
 20
33.529
 11
-19.9576
 21
33.7457
  0
LINE
  8
0
 10
-19.9576
 20
33.7457
 11
-20.0623
 21
33.9496
  0
LINE
  8
0
 10
-20.0623
 20
33.9496
 11
-20.19
 21
34.136
  0
LINE
  8
0
 10
-20.19
 20
34.136
 11
-20.3405
 21
34.3047
  0
LINE
  8
0
 10
-20.3405
 20
34.3047
 11
-20.5113
 21
34.4542
  0
LINE
  8
0
 10
-20.5113
 20
34.4542
 11
-20.701
 21
34.5812
  0
LINE
  8
0
 10
-20.701
 20
34.5812
 11
-20.9095
 21
34.6857
  0
LINE
  8
0
 10
-20.9095
 20
34.6857
 11
-21.1321
 21
34.7641
  0
LINE
  8
0
 10
-21.1321
 20
34.7641
 11
-21.3651
 21
34.8111
  0
LINE
  8
0
 10
-21.3651
 20
34.8111
 11
-21.6086
 21
34.8267
  0
LINE
  8
0
 10
-21.6086
 20
34.8267
 11
-21.8549
 21
34.8111
  0
LINE
  8
0
 10
-21.8549
 20
34.8111
 11
-22.0899
 21
34.7641
  0
LINE
  8
0
 10
-22.0899
 20
34.7641
 11
-22.3136
 21
34.6857
  0
LINE
  8
0
 10
-22.3136
 20
34.6857
 11
-22.5213
 21
34.5815
  0
LINE
  8
0
 10
-22.5213
 20
34.5815
 11
-22.71
 21
34.4555
  0
LINE
  8
0
 10
-22.71
 20
34.4555
 11
-22.8795
 21
34.3077
  0
LINE
  8
0
 10
-22.8795
 20
34.3077
 11
-23.0285
 21
34.1398
  0
LINE
  8
0
 10
-23.0285
 20
34.1398
 11
-23.1555
 21
33.9535
  0
LINE
  8
0
 10
-23.1555
 20
33.9535
 11
-23.2605
 21
33.7487
  0
LINE
  8
0
 10
-23.2605
 20
33.7487
 11
-23.3383
 21
33.5303
  0
LINE
  8
0
 10
-23.3383
 20
33.5303
 11
-23.385
 21
33.303
  0
LINE
  8
0
 10
-23.385
 20
33.303
 11
-23.4006
 21
33.0667
  0
LINE
  8
0
 10
-18
 20
-39
 11
-17.9696
 21
-39.6972
  0
LINE
  8
0
 10
-17.9696
 20
-39.6972
 11
-17.8785
 21
-40.3892
  0
LINE
  8
0
 10
-17.8785
 20
-40.3892
 11
-17.7274
 21
-41.0706
  0
LINE
  8
0
 10
-17.7274
 20
-41.0706
 11
-17.5175
 21
-41.7362
  0
LINE
  8
0
 10
-17.5175
 20
-41.7362
 11
-17.2505
 21
-42.3809
  0
LINE
  8
0
 10
-17.2505
 20
-42.3809
 11
-16.9282
 21
-43
  0
LINE
  8
0
 10
-16.9282
 20
-43
 11
-16.5532
 21
-43.5886
  0
LINE
  8
0
 10
-16.5532
 20
-43.5886
 11
-16.1284
 21
-44.1423
  0
LINE
  8
0
 10
-16.1284
 20
-44.1423
 11
-15.6569
 21
-44.6569
  0
LINE
  8
0
 10
-15.6569
 20
-44.6569
 11
-15.1423
 21
-45.1284
  0
LINE
  8
0
 10
-15.1423
 20
-45.1284
 11
-14.5886
 21
-45.5532
  0
LINE
  8
0
 10
-14.5886
 20
-45.5532
 11
-14
 21
-45.9282
  0
LINE
  8
0
 10
-14
 20
-45.9282
 11
-13.3809
 21
-46.2505
  0
LINE
  8
0
 10
-13.3809
 20
-46.2505
 11
-12.7362
 21
-46.5175
  0
LINE
  8
0
 10
-12.7362
 20
-46.5175
 11
-12.0706
 21
-46.7274
  0
LINE
  8
0
 10
-12.0706
 20
-46.7274
 11
-11.3892
 21
-46.8785
  0
LINE
  8
0
 10
-11.3892
 20
-46.8785
 11
-10.6972
 21
-46.9696
  0
LINE
  8
0
 10
-10.6972
 20
-46.9696
 11
-10
 21
-47
  0
LINE
  8
0
 10
-10
 20
-47
 11
22
 21
-47
  0
LINE
  8
0
 10
22
 20
-47
 11
22
 21
-79
  0
LINE
  8
0
 10
22
 20
-79
 11
22.0304
 21
-79.6972
  0
LINE
  8
0
 10
22.0304
 20
-79.6972
 11
22.1215
 21
-80.3892
  0
LINE
  8
0
 10
22.1215
 20
-80.3892
 11
22.2726
 21
-81.0706
  0
LINE
  8
0
 10
22.2726
 20
-81.0706
 11
22.4825
 21
-81.7362
  0
LINE
  8
0
 10
22.4825
 20
-81.7362
 11
22.7495
 21
-82.3809
  0
LINE
  8
0
 10
22.7495
 20
-82.3809
 11
23.0718
 21
-83
  0
LINE
  8
0
 10
23.0718
 20
-83
 11
23.4468
 21
-83.5886
  0
LINE
  8
0
 10
23.4468
 20
-83.5886
 11
23.8716
 21
-84.1423
  0
LINE
  8
0
 10
23.8716
 20
-84.1423
 11
24.3431
 21
-84.6569
  0
LINE
  8
0
 10
24.3431
 20
-84.6569
 11
24.8577
 21
-85.1284
  0
LINE
  8
0
 10
24.8577
 20
-85.1284
 11
25.4114
 21
-85.5532
  0
LINE
  8
0
 10
25.4114
 20
-85.5532
 11
26
 21
-85.9282
  0
LINE
  8
0
 10
26
 20
-85.9282
 11
26.6191
 21
-86.2505
  0
LINE
  8
0
 10
26.6191
 20
-86.2505
 11
27.2638
 21
-86.5175
  0
LINE
  8
0
 10
27.2638
 20
-86.5175
 11
27.9294
 21
-86.7274
  0
LINE
  8
0
 10
27.9294
 20
-86.7274
 11
28.6108
 21
-86.8785
  0
LINE
  8
0
 10
28.6108
 20
-86.8785
 11
29.3028
 21
-86.9696
  0
LINE
  8
0
 10
29.3028
 20
-86.9696
 11
30
 21
-87
  0
LINE
  8
0
 10
30
 20
-87
 11
30.6972
 21
-86.9696
  0
LINE
  8
0
 10
30.6972
 20
-86.9696
 11
31.3892
 21
-86.8785
  0
LINE
  8
0
 10
31.3892
 20
-86.8785
 11
32.0706
 21
-86.7274
  0
LINE
  8
0
 10
32.0706
 20
-86.7274
 11
32.7362
 21
-86.5175
  0
LINE
  8
0
 10
32.7362
 20
-86.5175
 11
33.3809
 21
-86.2505
  0
LINE
  8
0
 10
33.3809
 20
-86.2505
 11
34
 21
-85.9282
  0
LINE
  8
0
 10
34
 20
-85.9282
 11
34.5886
 21
-85.5532
  0
LINE
  8
0
 10
34.5886
 20
-85.5532
 11
35.1423
 21
-85.1284
  0
LINE
  8
0
 10
35.1423
 20
-85.1284
 11
35.6569
 21
-84.6569
  0
LINE
  8
0
 10
35.6569
 20
-84.6569
 11
36.1284
 21
-84.1423
  0
LINE
  8
0
 10
36.1284
 20
-84.1423
 11
36.5532
 21
-83.5886
  0
LINE
  8
0
 10
36.5532
 20
-83.5886
 11
36.9282
 21
-83
  0
LINE
  8
0
 10
36.9282
 20
-83
 11
37.2505
 21
-82.3809
  0
LINE
  8
0
 10
37.2505
 20
-82.3809
 11
37.5175
 21
-81.7362
  0
LINE
  8
0
 10
37.5175
 20
-81.7362
 11
37.7274
 21
-81.0706
  0
LINE
  8
0
 10
37.7274
 20
-81.0706
 11
37.8785
 21
-80.3892
  0
LINE
  8
0
 10
37.8785
 20
-80.3892
 11
37.9696
 21
-79.6972
  0
LINE
  8
0
 10
37.9696
 20
-79.6972
 11
38
 21
-79
  0
LINE
  8
0
 10
38
 20
-79
 11
38
 21
-69.5
  0
LINE
  8
0
 10
38
 20
-69.5
 11
35
 21
-69.5
  0
LINE
  8
0
 10
35
 20
-69.5
 11
35
 21
-54.5
  0
LINE
  8
0
 10
35
 20
-54.5
 11
38
 21
-54.5
  0
LINE
  8
0
 10
38
 20
-54.5
 11
38
 21
-31
  0
LINE
  8
0
 10
38
 20
-31
 11
17.5
 21
-31
  0
LINE
  8
0
 10
17.5
 20
-31
 11
17.5
 21
-34
  0
LINE
  8
0
 10
17.5
 20
-34
 11
2.5
 21
-34
  0
LINE
  8
0
 10
2.5
 20
-34
 11
2.5
 21
-31
  0
LINE
  8
0
 10
2.5
 20
-31
 11
-10
 21
-31
  0
LINE
  8
0
 10
-10
 20
-31
 11
-10.6972
 21
-31.0304
  0
LINE
  8
0
 10
-10.6972
 20
-31.0304
 11
-11.3892
 21
-31.1215
  0
LINE
  8
0
 10
-11.3892
 20
-31.1215
 11
-12.0706
 21
-31.2726
  0
LINE
  8
0
 10
-12.0706
 20
-31.2726
 11
-12.7362
 21
-31.4825
  0
LINE
  8
0
 10
-12.7362
 20
-31.4825
 11
-13.3809
 21
-31.7495
  0
LINE
  8
0
 10
-13.3809
 20
-31.7495
 11
-14
 21
-32.0718
  0
LINE
  8
0
 10
-14
 20
-32.0718
 11
-14.5886
 21
-32.4468
  0
LINE
  8
0
 10
-14.5886
 20
-32.4468
 11
-15.1423
 21
-32.8716
  0
LINE
  8
0
 10
-15.1423
 20
-32.8716
 11
-15.6569
 21
-33.3431
  0
LINE
  8
0
 10
-15.6569
 20
-33.3431
 11
-16.1284
 21
-33.8577
  0
LINE
  8
0
 10
-16.1284
 20
-33.8577
 11
-16.5532
 21
-34.4114
  0
LINE
  8
0
 10
-16.5532
 20
-34.4114
 11
-16.9282
 21
-35
  0
LINE
  8
0
 10
-16.9282
 20
-35
 11
-17.2505
 21
-35.6191
  0
LINE
  8
0
 10
-17.2505
 20
-35.6191
 11
-17.5175
 21
-36.2638
  0
LINE
  8
0
 10
-17.5175
 20
-36.2638
 11
-17.7274
 21
-36.9294
  0
LINE
  8
0
 10
-17.7274
 20
-36.9294
 11
-17.8785
 21
-37.6108
  0
LINE
  8
0
 10
-17.8785
 20
-37.6108
 11
-17.9696
 21
-38.3028
  0
LINE
  8
0
 10
-17.9696
 20
-38.3028
 11
-18
 21
-39
  0
LINE
  8
0
 10
-11.4949
 20
-38.8761
 11
-11.3737
 21
-38.3975
  0
LINE
  8
0
 10
-11.3737
 20
-38.3975
 11
-11.1036
 21
-37.9841
  0
LINE
  8
0
 10
-11.1036
 20
-37.9841
 11
-10.7139
 21
-37.6808
  0
LINE
  8
0
 10
-10.7139
 20
-37.6808
 11
-10.2469
 21
-37.5205
  0
LINE
  8
0
 10
-10.2469
 20
-37.5205
 11
-9.75311
 21
-37.5205
  0
LINE
  8
0
 10
-9.75311
 20
-37.5205
 11
-9.28608
 21
-37.6808
  0
LINE
  8
0
 10
-9.28608
 20
-37.6808
 11
-8.89641
 21
-37.9841
  0
LINE
  8
0
 10
-8.89641
 20
-37.9841
 11
-8.62634
 21
-38.3975
  0
LINE
  8
0
 10
-8.62634
 20
-38.3975
 11
-8.50512
 21
-38.8761
  0
LINE
  8
0
 10
-8.50512
 20
-38.8761
 11
-8.5459
 21
-39.3682
  0
LINE
  8
0
 10
-8.5459
 20
-39.3682
 11
-8.74425
 21
-39.8204
  0
LINE
  8
0
 10
-8.74425
 20
-39.8204
 11
-9.07868
 21
-40.1837
  0
LINE
  8
0
 10
-9.07868
 20
-40.1837
 11
-9.51295
 21
-40.4187
  0
LINE
  8
0
 10
-9.51295
 20
-40.4187
 11
-10
 21
-40.5
  0
LINE
  8
0
 10
-10
 20
-40.5
 11
-10.487
 21
-40.4187
  0
LINE
  8
0
 10
-10.487
 20
-40.4187
 11
-10.9213
 21
-40.1837
  0
LINE
  8
0
 10
-10.9213
 20
-40.1837
 11
-11.2557
 21
-39.8204
  0
LINE
  8
0
 10
-11.2557
 20
-39.8204
 11
-11.4541
 21
-39.3682
  0
LINE
  8
0
 10
-11.4541
 20
-39.3682
 11
-11.4949
 21
-38.8761
  0
LINE
  8
0
 10
28.5051
 20
-78.8761
 11
28.6263
 21
-78.3975
  0
LINE
  8
0
 10
28.6263
 20
-78.3975
 11
28.8964
 21
-77.9841
  0
LINE
  8
0
 10
28.8964
 20
-77.9841
 11
29.2861
 21
-77.6808
  0
LINE
  8
0
 10
29.2861
 20
-77.6808
 11
29.7531
 21
-77.5205
  0
LINE
  8
0
 10
29.7531
 20
-77.5205
 11
30.2469
 21
-77.5205
  0
LINE
  8
0
 10
30.2469
 20
-77.5205
 11
30.7139
 21
-77.6808
  0
LINE
  8
0
 10
30.7139
 20
-77.6808
 11
31.1036
 21
-77.9841
  0
LINE
  8
0
 10
31.1036
 20
-77.9841
 11
31.3737
 21
-78.3975
  0
LINE
  8
0
 10
31.3737
 20
-78.3975
 11
31.4949
 21
-78.8761
  0
LINE
  8
0
 10
31.4949
 20
-78.8761
 11
31.4541
 21
-79.3682
  0
LINE
  8
0
 10
31.4541
 20
-79.3682
 11
31.2557
 21
-79.8204
  0
LINE
  8
0
 10
31.2557
 20
-79.8204
 11
30.9213
 21
-80.1837
  0
LINE
  8
0
 10
30.9213
 20
-80.1837
 11
30.487
 21
-80.4187
  0
LINE
  8
0
 10
30.487
 20
-80.4187
 11
30
 21
-80.5
  0
LINE
  8
0
 10
30
 20
-80.5
 11
29.5129
 21
-80.4187
  0
LINE
  8
0
 10
29.5129
 20
-80.4187
 11
29.0787
 21
-80.1837
  0
LINE
  8
0
 10
29.0787
 20
-80.1837
 11
28.7442
 21
-79.8204
  0
LINE
  8
0
 10
28.7442
 20
-79.8204
 11
28.5459
 21
-79.3682
  0
LINE
  8
0
 10
28.5459
 20
-79.3682
 11
28.5051
 21
-78.8761
  0
LINE
  8
0
 10
28.5051
 20
-38.8761
 11
28.6263
 21
-38.3975
  0
LINE
  8
0
 10
28.6263
 20
-38.3975
 11
28.8964
 21
-37.9841
  0
LINE
  8
0
 10
28.8964
 20
-37.9841
 11
29.2861
 21
-37.6808
  0
LINE
  8
0
 10
29.2861
 20
-37.6808
 11
29.7531
 21
-37.5205
  0
LINE
  8
0
 10
29.7531
 20
-37.5205
 11
30.2469
 21
-37.5205
  0
LINE
  8
0
 10
30.2469
 20
-37.5205
 11
30.7139
 21
-37.6808
  0
LINE
  8
0
 10
30.7139
 20
-37.6808
 11
31.1036
 21
-37.9841
  0
LINE
  8
0
 10
31.1036
 20
-37.9841
 11
31.3737
 21
-38.3975
  0
LINE
  8
0
 10
31.3737
 20
-38.3975
 11
31.4949
 21
-38.8761
  0
LINE
  8
0
 10
31.4949
 20
-38.8761
 11
31.4541
 21
-39.3682
  0
LINE
  8
0
 10
31.4541
 20
-39.3682
 11
31.2557
 21
-39.8204
  0
LINE
  8
0
 10
31.2557
 20
-39.8204
 11
30.9213
 21
-40.1837
  0
LINE
  8
0
 10
30.9213
 20
-40.1837
 11
30.487
 21
-40.4187
  0
LINE
  8
0
 10
30.487
 20
-40.4187
 11
30
 21
-40.5
  0
LINE
  8
0
 10
30
 20
-40.5
 11
29.5129
 21
-40.4187
  0
LINE
  8
0
 10
29.5129
 20
-40.4187
 11
29.0787
 21
-40.1837
  0
LINE
  8
0
 10
29.0787
 20
-40.1837
 11
28.7442
 21
-39.8204
  0
LINE
  8
0
 10
28.7442
 20
-39.8204
 11
28.5459
 21
-39.3682
  0
LINE
  8
0
 10
28.5459
 20
-39.3682
 11
28.5051
 21
-38.8761
  0
LINE
  8
0
 10
-16.9624
 20
-9.38925
 11
-13.5284
 21
-9.38925
  0
LINE
  8
0
 10
-13.5284
 20
-9.38925
 11
-13.5957
 21
-9.21381
  0
LINE
  8
0
 10
-13.5957
 20
-9.21381
 11
-13.6817
 21
-9.04881
  0
LINE
  8
0
 10
-13.6817
 20
-9.04881
 11
-13.7864
 21
-8.89426
  0
LINE
  8
0
 10
-13.7864
 20
-8.89426
 11
-13.906
 21
-8.75203
  0
LINE
  8
0
 10
-13.906
 20
-8.75203
 11
-14.0384
 21
-8.62404
  0
LINE
  8
0
 10
-14.0384
 20
-8.62404
 11
-14.1834
 21
-8.51025
  0
LINE
  8
0
 10
-14.1834
 20
-8.51025
 11
-14.3398
 21
-8.41159
  0
LINE
  8
0
 10
-14.3398
 20
-8.41159
 11
-14.5065
 21
-8.32892
  0
LINE
  8
0
 10
-14.5065
 20
-8.32892
 11
-14.6834
 21
-8.26225
  0
LINE
  8
0
 10
-14.6834
 20
-8.26225
 11
-14.8667
 21
-8.21281
  0
LINE
  8
0
 10
-14.8667
 20
-8.21281
 11
-15.054
 21
-8.18315
  0
LINE
  8
0
 10
-15.054
 20
-8.18315
 11
-15.2454
 21
-8.17326
  0
LINE
  8
0
 10
-15.2454
 20
-8.17326
 11
-15.437
 21
-8.18315
  0
LINE
  8
0
 10
-15.437
 20
-8.18315
 11
-15.6254
 21
-8.21281
  0
LINE
  8
0
 10
-15.6254
 20
-8.21281
 11
-15.8104
 21
-8.26225
  0
LINE
  8
0
 10
-15.8104
 20
-8.26225
 11
-15.9887
 21
-8.32892
  0
LINE
  8
0
 10
-15.9887
 20
-8.32892
 11
-16.157
 21
-8.41159
  0
LINE
  8
0
 10
-16.157
 20
-8.41159
 11
-16.3154
 21
-8.51025
  0
LINE
  8
0
 10
-16.3154
 20
-8.51025
 11
-16.4613
 21
-8.62404
  0
LINE
  8
0
 10
-16.4613
 20
-8.62404
 11
-16.5936
 21
-8.75203
  0
LINE
  8
0
 10
-16.5936
 20
-8.75203
 11
-16.7124
 21
-8.89426
  0
LINE
  8
0
 10
-16.7124
 20
-8.89426
 11
-16.8148
 21
-9.04881
  0
LINE
  8
0
 10
-16.8148
 20
-9.04881
 11
-16.8981
 21
-9.21381
  0
LINE
  8
0
 10
-16.8981
 20
-9.21381
 11
-16.9624
 21
-9.38925
  0
LINE
  8
0
 10
-16.9624
 20
33.6107
 11
-13.5284
 21
33.6107
  0
LINE
  8
0
 10
-13.5284
 20
33.6107
 11
-13.5957
 21
33.7862
  0
LINE
  8
0
 10
-13.5957
 20
33.7862
 11
-13.6817
 21
33.9512
  0
LINE
  8
0
 10
-13.6817
 20
33.9512
 11
-13.7864
 21
34.1057
  0
LINE
  8
0
 10
-13.7864
 20
34.1057
 11
-13.906
 21
34.248
  0
LINE
  8
0
 10
-13.906
 20
34.248
 11
-14.0384
 21
34.376
  0
LINE
  8
0
 10
-14.0384
 20
34.376
 11
-14.1834
 21
34.4897
  0
LINE
  8
0
 10
-14.1834
 20
34.4897
 11
-14.3398
 21
34.5884
  0
LINE
  8
0
 10
-14.3398
 20
34.5884
 11
-14.5065
 21
34.6711
  0
LINE
  8
0
 10
-14.5065
 20
34.6711
 11
-14.6834
 21
34.7377
  0
LINE
  8
0
 10
-14.6834
 20
34.7377
 11
-14.8667
 21
34.7872
  0
LINE
  8
0
 10
-14.8667
 20
34.7872
 11
-15.054
 21
34.8168
  0
LINE
  8
0
 10
-15.054
 20
34.8168
 11
-15.2454
 21
34.8267
  0
LINE
  8
0
 10
-15.2454
 20
34.8267
 11
-15.437
 21
34.8168
  0
LINE
  8
0
 10
-15.437
 20
34.8168
 11
-15.6254
 21
34.7872
  0
LINE
  8
0
 10
-15.6254
 20
34.7872
 11
-15.8104
 21
34.7377
  0
LINE
  8
0
 10
-15.8104
 20
34.7377
 11
-15.9887
 21
34.6711
  0
LINE
  8
0
 10
-15.9887
 20
34.6711
 11
-16.157
 21
34.5884
  0
LINE
  8
0
 10
-16.157
 20
34.5884
 11
-16.3154
 21
34.4897
  0
LINE
  8
0
 10
-16.3154
 20
34.4897
 11
-16.4613
 21
34.376
  0
LINE
  8
0
 10
-16.4613
 20
34.376
 11
-16.5936
 21
34.248
  0
LINE
  8
0
 10
-16.5936
 20
34.248
 11
-16.7124
 21
34.1057
  0
LINE
  8
0
 10
-16.7124
 20
34.1057
 11
-16.8148
 21
33.9512
  0
LINE
  8
0
 10
-16.8148
 20
33.9512
 11
-16.8981
 21
33.7862
  0
LINE
  8
0
 10
-16.8981
 20
33.7862
 11
-16.9624
 21
33.6107
  0
LINE
  8
0
 10
-4.69646
 20
-11.6932
 11
-3.28545
 21
-11.6932
  0
LINE
  8
0
 10
-3.28545
 20
-11.6932
 11
-3.09467
 21
-11.6809
  0
LINE
  8
0
 10
-3.09467
 20
-11.6809
 11
-2.91167
 21
-11.6439
  0
LINE
  8
0
 10
-2.91167
 20
-11.6439
 11
-2.73645
 21
-11.5822
  0
LINE
  8
0
 10
-2.73645
 20
-11.5822
 11
-2.57278
 21
-11.4994
  0
LINE
  8
0
 10
-2.57278
 20
-11.4994
 11
-2.42445
 21
-11.3987
  0
LINE
  8
0
 10
-2.42445
 20
-11.3987
 11
-2.29144
 21
-11.2802
  0
LINE
  8
0
 10
-2.29144
 20
-11.2802
 11
-2.17412
 21
-11.1451
  0
LINE
  8
0
 10
-2.17412
 20
-11.1451
 11
-2.07411
 21
-10.9958
  0
LINE
  8
0
 10
-2.07411
 20
-10.9958
 11
-2.02865
 21
-10.9058
  0
LINE
  8
0
 10
-2.02865
 20
-10.9058
 11
-1.99145
 21
-10.8322
  0
LINE
  8
0
 10
-1.99145
 20
-10.8322
 11
-1.92978
 21
-10.6569
  0
LINE
  8
0
 10
-1.92978
 20
-10.6569
 11
-1.89278
 21
-10.4736
  0
LINE
  8
0
 10
-1.89278
 20
-10.4736
 11
-1.88045
 21
-10.2822
  0
LINE
  8
0
 10
-1.88045
 20
-10.2822
 11
-1.89278
 21
-10.0944
  0
LINE
  8
0
 10
-1.89278
 20
-10.0944
 11
-1.92978
 21
-9.91338
  0
LINE
  8
0
 10
-1.92978
 20
-9.91338
 11
-1.99145
 21
-9.73926
  0
LINE
  8
0
 10
-1.99145
 20
-9.73926
 11
-2.0371
 21
-9.64906
  0
LINE
  8
0
 10
-2.0371
 20
-9.64906
 11
-2.07445
 21
-9.57526
  0
LINE
  8
0
 10
-2.07445
 20
-9.57526
 11
-2.17545
 21
-9.42592
  0
LINE
  8
0
 10
-2.17545
 20
-9.42592
 11
-2.29445
 21
-9.29126
  0
LINE
  8
0
 10
-2.29445
 20
-9.29126
 11
-2.42912
 21
-9.17226
  0
LINE
  8
0
 10
-2.42912
 20
-9.17226
 11
-2.57845
 21
-9.07126
  0
LINE
  8
0
 10
-2.57845
 20
-9.07126
 11
-2.74245
 21
-8.98825
  0
LINE
  8
0
 10
-2.74245
 20
-8.98825
 11
-2.91656
 21
-8.92659
  0
LINE
  8
0
 10
-2.91656
 20
-8.92659
 11
-3.09756
 21
-8.88959
  0
LINE
  8
0
 10
-3.09756
 20
-8.88959
 11
-3.28545
 21
-8.87726
  0
LINE
  8
0
 10
-3.28545
 20
-8.87726
 11
-4.69646
 21
-8.87726
  0
LINE
  8
0
 10
-4.69646
 20
-8.87726
 11
-4.69646
 21
-11.6932
  0
LINE
  8
0
 10
-4.69646
 20
-7.78926
 11
-3.66945
 21
-7.78926
  0
LINE
  8
0
 10
-3.66945
 20
-7.78926
 11
-3.53123
 21
-7.78026
  0
LINE
  8
0
 10
-3.53123
 20
-7.78026
 11
-3.39923
 21
-7.75325
  0
LINE
  8
0
 10
-3.39923
 20
-7.75325
 11
-3.27345
 21
-7.70825
  0
LINE
  8
0
 10
-3.27345
 20
-7.70825
 11
-3.15523
 21
-7.6476
  0
LINE
  8
0
 10
-3.15523
 20
-7.6476
 11
-3.04723
 21
-7.57359
  0
LINE
  8
0
 10
-3.04723
 20
-7.57359
 11
-2.94945
 21
-7.48625
  0
LINE
  8
0
 10
-2.94945
 20
-7.48625
 11
-2.86322
 21
-7.38692
  0
LINE
  8
0
 10
-2.86322
 20
-7.38692
 11
-2.78989
 21
-7.27826
  0
LINE
  8
0
 10
-2.78989
 20
-7.27826
 11
-2.72945
 21
-7.16026
  0
LINE
  8
0
 10
-2.72945
 20
-7.16026
 11
-2.68445
 21
-7.03381
  0
LINE
  8
0
 10
-2.68445
 20
-7.03381
 11
-2.65746
 21
-6.90115
  0
LINE
  8
0
 10
-2.65746
 20
-6.90115
 11
-2.64845
 21
-6.76225
  0
LINE
  8
0
 10
-2.64845
 20
-6.76225
 11
-2.65746
 21
-6.62682
  0
LINE
  8
0
 10
-2.65746
 20
-6.62682
 11
-2.68445
 21
-6.49648
  0
LINE
  8
0
 10
-2.68445
 20
-6.49648
 11
-2.72945
 21
-6.37126
  0
LINE
  8
0
 10
-2.72945
 20
-6.37126
 11
-2.79022
 21
-6.25281
  0
LINE
  8
0
 10
-2.79022
 20
-6.25281
 11
-2.86456
 21
-6.14415
  0
LINE
  8
0
 10
-2.86456
 20
-6.14415
 11
-2.95245
 21
-6.04526
  0
LINE
  8
0
 10
-2.95245
 20
-6.04526
 11
-3.05135
 21
-5.95737
  0
LINE
  8
0
 10
-3.05135
 20
-5.95737
 11
-3.16
 21
-5.88304
  0
LINE
  8
0
 10
-3.16
 20
-5.88304
 11
-3.27844
 21
-5.82225
  0
LINE
  8
0
 10
-3.27844
 20
-5.82225
 11
-3.40367
 21
-5.77725
  0
LINE
  8
0
 10
-3.40367
 20
-5.77725
 11
-3.53401
 21
-5.75026
  0
LINE
  8
0
 10
-3.53401
 20
-5.75026
 11
-3.66945
 21
-5.74126
  0
LINE
  8
0
 10
-3.66945
 20
-5.74126
 11
-4.69646
 21
-5.74126
  0
LINE
  8
0
 10
-4.69646
 20
-5.74126
 11
-4.69646
 21
-7.78926
  0
LINE
  8
0
 10
-4.69646
 20
31.3068
 11
-3.28545
 21
31.3068
  0
LINE
  8
0
 10
-3.28545
 20
31.3068
 11
-3.09467
 21
31.3191
  0
LINE
  8
0
 10
-3.09467
 20
31.3191
 11
-2.91167
 21
31.3561
  0
LINE
  8
0
 10
-2.91167
 20
31.3561
 11
-2.73645
 21
31.4178
  0
LINE
  8
0
 10
-2.73645
 20
31.4178
 11
-2.57278
 21
31.5006
  0
LINE
  8
0
 10
-2.57278
 20
31.5006
 11
-2.42445
 21
31.6013
  0
LINE
  8
0
 10
-2.42445
 20
31.6013
 11
-2.29144
 21
31.7198
  0
LINE
  8
0
 10
-2.29144
 20
31.7198
 11
-2.17412
 21
31.8549
  0
LINE
  8
0
 10
-2.17412
 20
31.8549
 11
-2.07411
 21
32.0042
  0
LINE
  8
0
 10
-2.07411
 20
32.0042
 11
-2.02865
 21
32.0942
  0
LINE
  8
0
 10
-2.02865
 20
32.0942
 11
-1.99145
 21
32.1678
  0
LINE
  8
0
 10
-1.99145
 20
32.1678
 11
-1.92978
 21
32.3431
  0
LINE
  8
0
 10
-1.92978
 20
32.3431
 11
-1.89278
 21
32.5264
  0
LINE
  8
0
 10
-1.89278
 20
32.5264
 11
-1.88045
 21
32.7178
  0
LINE
  8
0
 10
-1.88045
 20
32.7178
 11
-1.89278
 21
32.9056
  0
LINE
  8
0
 10
-1.89278
 20
32.9056
 11
-1.92978
 21
33.0866
  0
LINE
  8
0
 10
-1.92978
 20
33.0866
 11
-1.99145
 21
33.2607
  0
LINE
  8
0
 10
-1.99145
 20
33.2607
 11
-2.0371
 21
33.3509
  0
LINE
  8
0
 10
-2.0371
 20
33.3509
 11
-2.07445
 21
33.4247
  0
LINE
  8
0
 10
-2.07445
 20
33.4247
 11
-2.17545
 21
33.5741
  0
LINE
  8
0
 10
-2.17545
 20
33.5741
 11
-2.29445
 21
33.7087
  0
LINE
  8
0
 10
-2.29445
 20
33.7087
 11
-2.42912
 21
33.8277
  0
LINE
  8
0
 10
-2.42912
 20
33.8277
 11
-2.57845
 21
33.9287
  0
LINE
  8
0
 10
-2.57845
 20
33.9287
 11
-2.74245
 21
34.0117
  0
LINE
  8
0
 10
-2.74245
 20
34.0117
 11
-2.91656
 21
34.0734
  0
LINE
  8
0
 10
-2.91656
 20
34.0734
 11
-3.09756
 21
34.1104
  0
LINE
  8
0
 10
-3.09756
 20
34.1104
 11
-3.28545
 21
34.1227
  0
LINE
  8
0
 10
-3.28545
 20
34.1227
 11
-4.69646
 21
34.1227
  0
LINE
  8
0
 10
-4.69646
 20
34.1227
 11
-4.69646
 21
31.3068
  0
LINE
  8
0
 10
-4.69646
 20
35.2107
 11
-3.66945
 21
35.2107
  0
LINE
  8
0
 10
-3.66945
 20
35.2107
 11
-3.53123
 21
35.2197
  0
LINE
  8
0
 10
-3.53123
 20
35.2197
 11
-3.39923
 21
35.2467
  0
LINE
  8
0
 10
-3.39923
 20
35.2467
 11
-3.27345
 21
35.2917
  0
LINE
  8
0
 10
-3.27345
 20
35.2917
 11
-3.15523
 21
35.3524
  0
LINE
  8
0
 10
-3.15523
 20
35.3524
 11
-3.04723
 21
35.4264
  0
LINE
  8
0
 10
-3.04723
 20
35.4264
 11
-2.94945
 21
35.5137
  0
LINE
  8
0
 10
-2.94945
 20
35.5137
 11
-2.86322
 21
35.6131
  0
LINE
  8
0
 10
-2.86322
 20
35.6131
 11
-2.78989
 21
35.7217
  0
LINE
  8
0
 10
-2.78989
 20
35.7217
 11
-2.72945
 21
35.8397
  0
LINE
  8
0
 10
-2.72945
 20
35.8397
 11
-2.68445
 21
35.9662
  0
LINE
  8
0
 10
-2.68445
 20
35.9662
 11
-2.65746
 21
36.0988
  0
LINE
  8
0
 10
-2.65746
 20
36.0988
 11
-2.64845
 21
36.2377
  0
LINE
  8
0
 10
-2.64845
 20
36.2377
 11
-2.65746
 21
36.3732
  0
LINE
  8
0
 10
-2.65746
 20
36.3732
 11
-2.68445
 21
36.5035
  0
LINE
  8
0
 10
-2.68445
 20
36.5035
 11
-2.72945
 21
36.6287
  0
LINE
  8
0
 10
-2.72945
 20
36.6287
 11
-2.79022
 21
36.7472
  0
LINE
  8
0
 10
-2.79022
 20
36.7472
 11
-2.86456
 21
36.8559
  0
LINE
  8
0
 10
-2.86456
 20
36.8559
 11
-2.95245
 21
36.9547
  0
LINE
  8
0
 10
-2.95245
 20
36.9547
 11
-3.05135
 21
37.0426
  0
LINE
  8
0
 10
-3.05135
 20
37.0426
 11
-3.16
 21
37.117
  0
LINE
  8
0
 10
-3.16
 20
37.117
 11
-3.27844
 21
37.1777
  0
LINE
  8
0
 10
-3.27844
 20
37.1777
 11
-3.40367
 21
37.2227
  0
LINE
  8
0
 10
-3.40367
 20
37.2227
 11
-3.53401
 21
37.2497
  0
LINE
  8
0
 10
-3.53401
 20
37.2497
 11
-3.66945
 21
37.2587
  0
LINE
  8
0
 10
-3.66945
 20
37.2587
 11
-4.69646
 21
37.2587
  0
LINE
  8
0
 10
-4.69646
 20
37.2587
 11
-4.69646
 21
35.2107
  0
LINE
  8
0
 10
9.23224
 20
-9.93326
 11
9.2478
 21
-10.1695
  0
LINE
  8
0
 10
9.2478
 20
-10.1695
 11
9.29446
 21
-10.3968
  0
LINE
  8
0
 10
9.29446
 20
-10.3968
 11
9.37225
 21
-10.6152
  0
LINE
  8
0
 10
9.37225
 20
-10.6152
 11
9.47725
 21
-10.82
  0
LINE
  8
0
 10
9.47725
 20
-10.82
 11
9.60425
 21
-11.0063
  0
LINE
  8
0
 10
9.60425
 20
-11.0063
 11
9.75325
 21
-11.1742
  0
LINE
  8
0
 10
9.75325
 20
-11.1742
 11
9.92281
 21
-11.3221
  0
LINE
  8
0
 10
9.92281
 20
-11.3221
 11
10.1115
 21
-11.4485
  0
LINE
  8
0
 10
10.1115
 20
-11.4485
 11
10.3192
 21
-11.5532
  0
LINE
  8
0
 10
10.3192
 20
-11.5532
 11
10.5429
 21
-11.631
  0
LINE
  8
0
 10
10.5429
 20
-11.631
 11
10.7779
 21
-11.6777
  0
LINE
  8
0
 10
10.7779
 20
-11.6777
 11
11.0242
 21
-11.6932
  0
LINE
  8
0
 10
11.0242
 20
-11.6932
 11
11.2677
 21
-11.6777
  0
LINE
  8
0
 10
11.2677
 20
-11.6777
 11
11.5007
 21
-11.631
  0
LINE
  8
0
 10
11.5007
 20
-11.631
 11
11.7233
 21
-11.5532
  0
LINE
  8
0
 10
11.7233
 20
-11.5532
 11
11.9318
 21
-11.4482
  0
LINE
  8
0
 10
11.9318
 20
-11.4482
 11
12.1215
 21
-11.3212
  0
LINE
  8
0
 10
12.1215
 20
-11.3212
 11
12.2923
 21
-11.1722
  0
LINE
  8
0
 10
12.2923
 20
-11.1722
 11
12.4428
 21
-11.003
  0
LINE
  8
0
 10
12.4428
 20
-11.003
 11
12.5705
 21
-10.8167
  0
LINE
  8
0
 10
12.5705
 20
-10.8167
 11
12.6752
 21
-10.6132
  0
LINE
  8
0
 10
12.6752
 20
-10.6132
 11
12.7536
 21
-10.3959
  0
LINE
  8
0
 10
12.7536
 20
-10.3959
 11
12.8006
 21
-10.1692
  0
LINE
  8
0
 10
12.8006
 20
-10.1692
 11
12.8163
 21
-9.93326
  0
LINE
  8
0
 10
12.8163
 20
-9.93326
 11
12.8006
 21
-9.69737
  0
LINE
  8
0
 10
12.8006
 20
-9.69737
 11
12.7536
 21
-9.47104
  0
LINE
  8
0
 10
12.7536
 20
-9.47104
 11
12.6752
 21
-9.25426
  0
LINE
  8
0
 10
12.6752
 20
-9.25426
 11
12.5705
 21
-9.05037
  0
LINE
  8
0
 10
12.5705
 20
-9.05037
 11
12.4428
 21
-8.86403
  0
LINE
  8
0
 10
12.4428
 20
-8.86403
 11
12.2923
 21
-8.69525
  0
LINE
  8
0
 10
12.2923
 20
-8.69525
 11
12.1215
 21
-8.54581
  0
LINE
  8
0
 10
12.1215
 20
-8.54581
 11
11.9318
 21
-8.41881
  0
LINE
  8
0
 10
11.9318
 20
-8.41881
 11
11.7233
 21
-8.31425
  0
LINE
  8
0
 10
11.7233
 20
-8.31425
 11
11.5007
 21
-8.23593
  0
LINE
  8
0
 10
11.5007
 20
-8.23593
 11
11.2677
 21
-8.18892
  0
LINE
  8
0
 10
11.2677
 20
-8.18892
 11
11.0242
 21
-8.17326
  0
LINE
  8
0
 10
11.0242
 20
-8.17326
 11
10.7779
 21
-8.18892
  0
LINE
  8
0
 10
10.7779
 20
-8.18892
 11
10.5429
 21
-8.23593
  0
LINE
  8
0
 10
10.5429
 20
-8.23593
 11
10.3192
 21
-8.31425
  0
LINE
  8
0
 10
10.3192
 20
-8.31425
 11
10.1115
 21
-8.41847
  0
LINE
  8
0
 10
10.1115
 20
-8.41847
 11
9.92281
 21
-8.54448
  0
LINE
  8
0
 10
9.92281
 20
-8.54448
 11
9.75325
 21
-8.69226
  0
LINE
  8
0
 10
9.75325
 20
-8.69226
 11
9.60425
 21
-8.86015
  0
LINE
  8
0
 10
9.60425
 20
-8.86015
 11
9.47725
 21
-9.04648
  0
LINE
  8
0
 10
9.47725
 20
-9.04648
 11
9.37225
 21
-9.25125
  0
LINE
  8
0
 10
9.37225
 20
-9.25125
 11
9.29446
 21
-9.4697
  0
LINE
  8
0
 10
9.29446
 20
-9.4697
 11
9.2478
 21
-9.69704
  0
LINE
  8
0
 10
9.2478
 20
-9.69704
 11
9.23224
 21
-9.93326
  0
LINE
  8
0
 10
9.23224
 20
33.0667
 11
9.2478
 21
32.8305
  0
LINE
  8
0
 10
9.2478
 20
32.8305
 11
9.29446
 21
32.6032
  0
LINE
  8
0
 10
9.29446
 20
32.6032
 11
9.37225
 21
32.3848
  0
LINE
  8
0
 10
9.37225
 20
32.3848
 11
9.47725
 21
32.18
  0
LINE
  8
0
 10
9.47725
 20
32.18
 11
9.60425
 21
31.9937
  0
LINE
  8
0
 10
9.60425
 20
31.9937
 11
9.75325
 21
31.8258
  0
LINE
  8
0
 10
9.75325
 20
31.8258
 11
9.92281
 21
31.6779
  0
LINE
  8
0
 10
9.92281
 20
31.6779
 11
10.1115
 21
31.5515
  0
LINE
  8
0
 10
10.1115
 20
31.5515
 11
10.3192
 21
31.4468
  0
LINE
  8
0
 10
10.3192
 20
31.4468
 11
10.5429
 21
31.369
  0
LINE
  8
0
 10
10.5429
 20
31.369
 11
10.7779
 21
31.3223
  0
LINE
  8
0
 10
10.7779
 20
31.3223
 11
11.0242
 21
31.3068
  0
LINE
  8
0
 10
11.0242
 20
31.3068
 11
11.2677
 21
31.3223
  0
LINE
  8
0
 10
11.2677
 20
31.3223
 11
11.5007
 21
31.369
  0
LINE
  8
0
 10
11.5007
 20
31.369
 11
11.7233
 21
31.4468
  0
LINE
  8
0
 10
11.7233
 20
31.4468
 11
11.9318
 21
31.5518
  0
LINE
  8
0
 10
11.9318
 20
31.5518
 11
12.1215
 21
31.6788
  0
LINE
  8
0
 10
12.1215
 20
31.6788
 11
12.2923
 21
31.8278
  0
LINE
  8
0
 10
12.2923
 20
31.8278
 11
12.4428
 21
31.997
  0
LINE
  8
0
 10
12.4428
 20
31.997
 11
12.5705
 21
32.1833
  0
LINE
  8
0
 10
12.5705
 20
32.1833
 11
12.6752
 21
32.3868
  0
LINE
  8
0
 10
12.6752
 20
32.3868
 11
12.7536
 21
32.6041
  0
LINE
  8
0
 10
12.7536
 20
32.6041
 11
12.8006
 21
32.8308
  0
LINE
  8
0
 10
12.8006
 20
32.8308
 11
12.8163
 21
33.0667
  0
LINE
  8
0
 10
12.8163
 20
33.0667
 11
12.8006
 21
33.3026
  0
LINE
  8
0
 10
12.8006
 20
33.3026
 11
12.7536
 21
33.529
  0
LINE
  8
0
 10
12.7536
 20
33.529
 11
12.6752
 21
33.7457
  0
LINE
  8
0
 10
12.6752
 20
33.7457
 11
12.5705
 21
33.9496
  0
LINE
  8
0
 10
12.5705
 20
33.9496
 11
12.4428
 21
34.136
  0
LINE
  8
0
 10
12.4428
 20
34.136
 11
12.2923
 21
34.3047
  0
LINE
  8
0
 10
12.2923
 20
34.3047
 11
12.1215
 21
34.4542
  0
LINE
  8
0
 10
12.1215
 20
34.4542
 11
11.9318
 21
34.5812
  0
LINE
  8
0
 10
11.9318
 20
34.5812
 11
11.7233
 21
34.6857
  0
LINE
  8
0
 10
11.7233
 20
34.6857
 11
11.5007
 21
34.7641
  0
LINE
  8
0
 10
11.5007
 20
34.7641
 11
11.2677
 21
34.8111
  0
LINE
  8
0
 10
11.2677
 20
34.8111
 11
11.0242
 21
34.8267
  0
LINE
  8
0
 10
11.0242
 20
34.8267
 11
10.7779
 21
34.8111
  0
LINE
  8
0
 10
10.7779
 20
34.8111
 11
10.5429
 21
34.7641
  0
LINE
  8
0
 10
10.5429
 20
34.7641
 11
10.3192
 21
34.6857
  0
LINE
  8
0
 10
10.3192
 20
34.6857
 11
10.1115
 21
34.5815
  0
LINE
  8
0
 10
10.1115
 20
34.5815
 11
9.92281
 21
34.4555
  0
LINE
  8
0
 10
9.92281
 20
34.4555
 11
9.75325
 21
34.3077
  0
LINE
  8
0
 10
9.75325
 20
34.3077
 11
9.60425
 21
34.1398
  0
LINE
  8
0
 10
9.60425
 20
34.1398
 11
9.47725
 21
33.9535
  0
LINE
  8
0
 10
9.47725
 20
33.9535
 11
9.37225
 21
33.7487
  0
LINE
  8
0
 10
9.37225
 20
33.7487
 11
9.29446
 21
33.5303
  0
LINE
  8
0
 10
9.29446
 20
33.5303
 11
9.2478
 21
33.303
  0
LINE
  8
0
 10
9.2478
 20
33.303
 11
9.23224
 21
33.0667
  0
LINE
  8
0
 10
26.3445
 20
-9.93326
 11
26.3601
 21
-10.1695
  0
LINE
  8
0
 10
26.3601
 20
-10.1695
 11
26.4068
 21
-10.3968
  0
LINE
  8
0
 10
26.4068
 20
-10.3968
 11
26.4846
 21
-10.6152
  0
LINE
  8
0
 10
26.4846
 20
-10.6152
 11
26.5896
 21
-10.82
  0
LINE
  8
0
 10
26.5896
 20
-10.82
 11
26.7166
 21
-11.0063
  0
LINE
  8
0
 10
26.7166
 20
-11.0063
 11
26.8656
 21
-11.1742
  0
LINE
  8
0
 10
26.8656
 20
-11.1742
 11
27.0351
 21
-11.3221
  0
LINE
  8
0
 10
27.0351
 20
-11.3221
 11
27.2238
 21
-11.4485
  0
LINE
  8
0
 10
27.2238
 20
-11.4485
 11
27.4315
 21
-11.5532
  0
LINE
  8
0
 10
27.4315
 20
-11.5532
 11
27.6552
 21
-11.631
  0
LINE
  8
0
 10
27.6552
 20
-11.631
 11
27.8902
 21
-11.6777
  0
LINE
  8
0
 10
27.8902
 20
-11.6777
 11
28.1366
 21
-11.6932
  0
LINE
  8
0
 10
28.1366
 20
-11.6932
 11
28.38
 21
-11.6777
  0
LINE
  8
0
 10
28.38
 20
-11.6777
 11
28.613
 21
-11.631
  0
LINE
  8
0
 10
28.613
 20
-11.631
 11
28.8356
 21
-11.5532
  0
LINE
  8
0
 10
28.8356
 20
-11.5532
 11
29.0441
 21
-11.4482
  0
LINE
  8
0
 10
29.0441
 20
-11.4482
 11
29.2338
 21
-11.3212
  0
LINE
  8
0
 10
29.2338
 20
-11.3212
 11
29.4046
 21
-11.1722
  0
LINE
  8
0
 10
29.4046
 20
-11.1722
 11
29.5551
 21
-11.003
  0
LINE
  8
0
 10
29.5551
 20
-11.003
 11
29.6828
 21
-10.8167
  0
LINE
  8
0
 10
29.6828
 20
-10.8167
 11
29.7876
 21
-10.6132
  0
LINE
  8
0
 10
29.7876
 20
-10.6132
 11
29.8659
 21
-10.3959
  0
LINE
  8
0
 10
29.8659
 20
-10.3959
 11
29.9129
 21
-10.1692
  0
LINE
  8
0
 10
29.9129
 20
-10.1692
 11
29.9286
 21
-9.93326
  0
LINE
  8
0
 10
29.9286
 20
-9.93326
 11
29.9129
 21
-9.69737
  0
LINE
  8
0
 10
29.9129
 20
-9.69737
 11
29.8659
 21
-9.47104
  0
LINE
  8
0
 10
29.8659
 20
-9.47104
 11
29.7876
 21
-9.25426
  0
LINE
  8
0
 10
29.7876
 20
-9.25426
 11
29.6828
 21
-9.05037
  0
LINE
  8
0
 10
29.6828
 20
-9.05037
 11
29.5551
 21
-8.86403
  0
LINE
  8
0
 10
29.5551
 20
-8.86403
 11
29.4046
 21
-8.69525
  0
LINE
  8
0
 10
29.4046
 20
-8.69525
 11
29.2338
 21
-8.54581
  0
LINE
  8
0
 10
29.2338
 20
-8.54581
 11
29.0441
 21
-8.41881
  0
LINE
  8
0
 10
29.0441
 20
-8.41881
 11
28.8356
 21
-8.31425
  0
LINE
  8
0
 10
28.8356
 20
-8.31425
 11
28.613
 21
-8.23593
  0
LINE
  8
0
 10
28.613
 20
-8.23593
 11
28.38
 21
-8.18892
  0
LINE
  8
0
 10
28.38
 20
-8.18892
 11
28.1366
 21
-8.17326
  0
LINE
  8
0
 10
28.1366
 20
-8.17326
 11
27.8902
 21
-8.18892
  0
LINE
  8
0
 10
27.8902
 20
-8.18892
 11
27.6552
 21
-8.23593
  0
LINE
  8
0
 10
27.6552
 20
-8.23593
 11
27.4315
 21
-8.31425
  0
LINE
  8
0
 10
27.4315
 20
-8.31425
 11
27.2238
 21
-8.41847
  0
LINE
  8
0
 10
27.2238
 20
-8.41847
 11
27.0351
 21
-8.54448
  0
LINE
  8
0
 10
27.0351
 20
-8.54448
 11
26.8656
 21
-8.69226
  0
LINE
  8
0
 10
26.8656
 20
-8.69226
 11
26.7166
 21
-8.86015
  0
LINE
  8
0
 10
26.7166
 20
-8.86015
 11
26.5896
 21
-9.04648
  0
LINE
  8
0
 10
26.5896
 20
-9.04648
 11
26.4846
 21
-9.25125
  0
LINE
  8
0
 10
26.4846
 20
-9.25125
 11
26.4068
 21
-9.4697
  0
LINE
  8
0
 10
26.4068
 20
-9.4697
 11
26.3601
 21
-9.69704
  0
LINE
  8
0
 10
26.3601
 20
-9.69704
 11
26.3445
 21
-9.93326
  0
LINE
  8
0
 10
26.3445
 20
33.0667
 11
26.3601
 21
32.8305
  0
LINE
  8
0
 10
26.3601
 20
32.8305
 11
26.4068
 21
32.6032
  0
LINE
  8
0
 10
26.4068
 20
32.6032
 11
26.4846
 21
32.3848
  0
LINE
  8
0
 10
26.4846
 20
32.3848
 11
26.5896
 21
32.18
  0
LINE
  8
0
 10
26.5896
 20
32.18
 11
26.7166
 21
31.9937
  0
LINE
  8
0
 10
26.7166
 20
31.9937
 11
26.8656
 21
31.8258
  0
LINE
  8
0
 10
26.8656
 20
31.8258
 11
27.0351
 21
31.6779
  0
LINE
  8
0
 10
27.0351
 20
31.6779
 11
27.2238
 21
31.5515
  0
LINE
  8
0
 10
27.2238
 20
31.5515
 11
27.4315
 21
31.4468
  0
LINE
  8
0
 10
27.4315
 20
31.4468
 11
27.6552
 21
31.369
  0
LINE
  8
0
 10
27.6552
 20
31.369
 11
27.8902
 21
31.3223
  0
LINE
  8
0
 10
27.8902
 20
31.3223
 11
28.1366
 21
31.3068
  0
LINE
  8
0
 10
28.1366
 20
31.3068
 11
28.38
 21
31.3223
  0
LINE
  8
0
 10
28.38
 20
31.3223
 11
28.613
 21
31.369
  0
LINE
  8
0
 10
28.613
 20
31.369
 11
28.8356
 21
31.4468
  0
LINE
  8
0
 10
28.8356
 20
31.4468
 11
29.0441
 21
31.5518
  0
LINE
  8
0
 10
29.0441
 20
31.5518
 11
29.2338
 21
31.6788
  0
LINE
  8
0
 10
29.2338
 20
31.6788
 11
29.4046
 21
31.8278
  0
LINE
  8
0
 10
29.4046
 20
31.8278
 11
29.5551
 21
31.997
  0
LINE
  8
0
 10
29.5551
 20
31.997
 11
29.6828
 21
32.1833
  0
LINE
  8
0
 10
29.6828
 20
32.1833
 11
29.7876
 21
32.3868
  0
LINE
  8
0
 10
29.7876
 20
32.3868
 11
29.8659
 21
32.6041
  0
LINE
  8
0
 10
29.8659
 20
32.6041
 11
29.9129
 21
32.8308
  0
LINE
  8
0
 10
29.9129
 20
32.8308
 11
29.9286
 21
33.0667
  0
LINE
  8
0
 10
29.9286
 20
33.0667
 11
29.9129
 21
33.3026
  0
LINE
  8
0
 10
29.9129
 20
33.3026
 11
29.8659
 21
33.529
  0
LINE
  8
0
 10
29.8659
 20
33.529
 11
29.7876
 21
33.7457
  0
LINE
  8
0
 10
29.7876
 20
33.7457
 11
29.6828
 21
33.9496
  0
LINE
  8
0
 10
29.6828
 20
33.9496
 11
29.5551
 21
34.136
  0
LINE
  8
0
 10
29.5551
 20
34.136
 11
29.4046
 21
34.3047
  0
LINE
  8
0
 10
29.4046
 20
34.3047
 11
29.2338
 21
34.4542
  0
LINE
  8
0
 10
29.2338
 20
34.4542
 11
29.0441
 21
34.5812
  0
LINE
  8
0
 10
29.0441
 20
34.5812
 11
28.8356
 21
34.6857
  0
LINE
  8
0
 10
28.8356
 20
34.6857
 11
28.613
 21
34.7641
  0
LINE
  8
0
 10
28.613
 20
34.7641
 11
28.38
 21
34.8111
  0
LINE
  8
0
 10
28.38
 20
34.8111
 11
28.1366
 21
34.8267
  0
LINE
  8
0
 10
28.1366
 20
34.8267
 11
27.8902
 21
34.8111
  0
LINE
  8
0
 10
27.8902
 20
34.8111
 11
27.6552
 21
34.7641
  0
LINE
  8
0
 10
27.6552
 20
34.7641
 11
27.4315
 21
34.6857
  0
LINE
  8
0
 10
27.4315
 20
34.6857
 11
27.2238
 21
34.5815
  0
LINE
  8
0
 10
27.2238
 20
34.5815
 11
27.0351
 21
34.4555
  0
LINE
  8
0
 10
27.0351
 20
34.4555
 11
26.8656
 21
34.3077
  0
LINE
  8
0
 10
26.8656
 20
34.3077
 11
26.7166
 21
34.1398
  0
LINE
  8
0
 10
26.7166
 20
34.1398
 11
26.5896
 21
33.9535
  0
LINE
  8
0
 10
26.5896
 20
33.9535
 11
26.4846
 21
33.7487
  0
LINE
  8
0
 10
26.4846
 20
33.7487
 11
26.4068
 21
33.5303
  0
LINE
  8
0
 10
26.4068
 20
33.5303
 11
26.3601
 21
33.303
  0
LINE
  8
0
 10
26.3601
 20
33.303
 11
26.3445
 21
33.0667
  0
ENDSEC
  0
SECTION
  2
OBJECTS
  0
DICTIONARY
  0
ENDSEC
  0
EOF
