  0
SECTION
  2
BLOCKS
  0
ENDSEC
  0
SECTION
  2
ENTITIES
  0
LINE
  8
0
 10
-39.995
 20
-7.5
 11
-37
 21
-7.5
  0
LINE
  8
0
 10
-37
 20
-7.5
 11
-37
 21
-27.995
  0
LINE
  8
0
 10
-37
 20
-27.995
 11
37
 21
-27.995
  0
LINE
  8
0
 10
37
 20
-27.995
 11
37
 21
-7.5
  0
LINE
  8
0
 10
37
 20
-7.5
 11
39.995
 21
-7.5
  0
LINE
  8
0
 10
39.995
 20
-7.5
 11
39.995
 21
7.5
  0
LINE
  8
0
 10
39.995
 20
7.5
 11
37
 21
7.5
  0
LINE
  8
0
 10
37
 20
7.5
 11
37
 21
11.995
  0
LINE
  8
0
 10
37
 20
11.995
 11
31.55
 21
11.995
  0
LINE
  8
0
 10
31.55
 20
11.995
 11
31.55
 21
0
  0
LINE
  8
0
 10
31.55
 20
0
 11
31.4741
 21
-0.478976
  0
LINE
  8
0
 10
31.4741
 20
-0.478976
 11
31.254
 21
-0.911067
  0
LINE
  8
0
 10
31.254
 20
-0.911067
 11
30.9111
 21
-1.25398
  0
LINE
  8
0
 10
30.9111
 20
-1.25398
 11
30.479
 21
-1.47414
  0
LINE
  8
0
 10
30.479
 20
-1.47414
 11
30
 21
-1.55
  0
LINE
  8
0
 10
30
 20
-1.55
 11
29.521
 21
-1.47414
  0
LINE
  8
0
 10
29.521
 20
-1.47414
 11
29.0889
 21
-1.25398
  0
LINE
  8
0
 10
29.0889
 20
-1.25398
 11
28.746
 21
-0.911067
  0
LINE
  8
0
 10
28.746
 20
-0.911067
 11
28.5259
 21
-0.478976
  0
LINE
  8
0
 10
28.5259
 20
-0.478976
 11
28.45
 21
0
  0
LINE
  8
0
 10
28.45
 20
0
 11
28.45
 21
11.995
  0
LINE
  8
0
 10
28.45
 20
11.995
 11
-37
 21
11.995
  0
LINE
  8
0
 10
-37
 20
11.995
 11
-37
 21
7.5
  0
LINE
  8
0
 10
-37
 20
7.5
 11
-39.995
 21
7.5
  0
LINE
  8
0
 10
-39.995
 20
7.5
 11
-39.995
 21
-7.5
  0
LINE
  8
0
 10
-3.75
 20
0
 11
-3.71792
 21
0.489472
  0
LINE
  8
0
 10
-3.71792
 20
0.489472
 11
-3.62222
 21
0.970571
  0
LINE
  8
0
 10
-3.62222
 20
0.970571
 11
-3.46455
 21
1.43506
  0
LINE
  8
0
 10
-3.46455
 20
1.43506
 11
-3.24759
 21
1.875
  0
LINE
  8
0
 10
-3.24759
 20
1.875
 11
-2.97507
 21
2.28286
  0
LINE
  8
0
 10
-2.97507
 20
2.28286
 11
-2.65165
 21
2.65165
  0
LINE
  8
0
 10
-2.65165
 20
2.65165
 11
-2.28286
 21
2.97507
  0
LINE
  8
0
 10
-2.28286
 20
2.97507
 11
-1.875
 21
3.24759
  0
LINE
  8
0
 10
-1.875
 20
3.24759
 11
-1.43506
 21
3.46455
  0
LINE
  8
0
 10
-1.43506
 20
3.46455
 11
-0.970571
 21
3.62222
  0
LINE
  8
0
 10
-0.970571
 20
3.62222
 11
-0.489472
 21
3.71792
  0
LINE
  8
0
 10
-0.489472
 20
3.71792
 11
-3.41676e-15
 21
3.75
  0
LINE
  8
0
 10
-3.41676e-15
 20
3.75
 11
0.489472
 21
3.71792
  0
LINE
  8
0
 10
0.489472
 20
3.71792
 11
0.970571
 21
3.62222
  0
LINE
  8
0
 10
0.970571
 20
3.62222
 11
1.43506
 21
3.46455
  0
LINE
  8
0
 10
1.43506
 20
3.46455
 11
1.875
 21
3.24759
  0
LINE
  8
0
 10
1.875
 20
3.24759
 11
2.28286
 21
2.97507
  0
LINE
  8
0
 10
2.28286
 20
2.97507
 11
2.65165
 21
2.65165
  0
LINE
  8
0
 10
2.65165
 20
2.65165
 11
2.97507
 21
2.28286
  0
LINE
  8
0
 10
2.97507
 20
2.28286
 11
3.24759
 21
1.875
  0
LINE
  8
0
 10
3.24759
 20
1.875
 11
3.46455
 21
1.43506
  0
LINE
  8
0
 10
3.46455
 20
1.43506
 11
3.62222
 21
0.970571
  0
LINE
  8
0
 10
3.62222
 20
0.970571
 11
3.71792
 21
0.489472
  0
LINE
  8
0
 10
3.71792
 20
0.489472
 11
3.75
 21
0
  0
LINE
  8
0
 10
3.75
 20
0
 11
3.71792
 21
-0.489472
  0
LINE
  8
0
 10
3.71792
 20
-0.489472
 11
3.62222
 21
-0.970571
  0
LINE
  8
0
 10
3.62222
 20
-0.970571
 11
3.46455
 21
-1.43506
  0
LINE
  8
0
 10
3.46455
 20
-1.43506
 11
3.24759
 21
-1.875
  0
LINE
  8
0
 10
3.24759
 20
-1.875
 11
2.97507
 21
-2.28286
  0
LINE
  8
0
 10
2.97507
 20
-2.28286
 11
2.65165
 21
-2.65165
  0
LINE
  8
0
 10
2.65165
 20
-2.65165
 11
2.28286
 21
-2.97507
  0
LINE
  8
0
 10
2.28286
 20
-2.97507
 11
1.875
 21
-3.24759
  0
LINE
  8
0
 10
1.875
 20
-3.24759
 11
1.43506
 21
-3.46455
  0
LINE
  8
0
 10
1.43506
 20
-3.46455
 11
0.970571
 21
-3.62222
  0
LINE
  8
0
 10
0.970571
 20
-3.62222
 11
0.489472
 21
-3.71792
  0
LINE
  8
0
 10
0.489472
 20
-3.71792
 11
-3.41676e-15
 21
-3.75
  0
LINE
  8
0
 10
-3.41676e-15
 20
-3.75
 11
-0.489472
 21
-3.71792
  0
LINE
  8
0
 10
-0.489472
 20
-3.71792
 11
-0.970571
 21
-3.62222
  0
LINE
  8
0
 10
-0.970571
 20
-3.62222
 11
-1.43506
 21
-3.46455
  0
LINE
  8
0
 10
-1.43506
 20
-3.46455
 11
-1.875
 21
-3.24759
  0
LINE
  8
0
 10
-1.875
 20
-3.24759
 11
-2.28286
 21
-2.97507
  0
LINE
  8
0
 10
-2.28286
 20
-2.97507
 11
-2.65165
 21
-2.65165
  0
LINE
  8
0
 10
-2.65165
 20
-2.65165
 11
-2.97507
 21
-2.28286
  0
LINE
  8
0
 10
-2.97507
 20
-2.28286
 11
-3.24759
 21
-1.875
  0
LINE
  8
0
 10
-3.24759
 20
-1.875
 11
-3.46455
 21
-1.43506
  0
LINE
  8
0
 10
-3.46455
 20
-1.43506
 11
-3.62222
 21
-0.970571
  0
LINE
  8
0
 10
-3.62222
 20
-0.970571
 11
-3.71792
 21
-0.489472
  0
LINE
  8
0
 10
-3.71792
 20
-0.489472
 11
-3.75
 21
0
  0
LINE
  8
0
 10
-39.995
 20
35.5
 11
-37
 21
35.5
  0
LINE
  8
0
 10
-37
 20
35.5
 11
-37
 21
15.005
  0
LINE
  8
0
 10
-37
 20
15.005
 11
37
 21
15.005
  0
LINE
  8
0
 10
37
 20
15.005
 11
37
 21
35.5
  0
LINE
  8
0
 10
37
 20
35.5
 11
39.995
 21
35.5
  0
LINE
  8
0
 10
39.995
 20
35.5
 11
39.995
 21
50.5
  0
LINE
  8
0
 10
39.995
 20
50.5
 11
37
 21
50.5
  0
LINE
  8
0
 10
37
 20
50.5
 11
37
 21
54.995
  0
LINE
  8
0
 10
37
 20
54.995
 11
-37
 21
54.995
  0
LINE
  8
0
 10
-37
 20
54.995
 11
-37
 21
50.5
  0
LINE
  8
0
 10
-37
 20
50.5
 11
-39.995
 21
50.5
  0
LINE
  8
0
 10
-39.995
 20
50.5
 11
-39.995
 21
35.5
  0
LINE
  8
0
 10
-33.8
 20
42
 11
-33.8
 21
44
  0
LINE
  8
0
 10
-33.8
 20
44
 11
-33.2
 21
44
  0
LINE
  8
0
 10
-33.2
 20
44
 11
-33.2
 21
42
  0
LINE
  8
0
 10
-33.2
 20
42
 11
-33.8
 21
42
  0
LINE
  8
0
 10
-33.2434
 20
29.2827
 11
-33.1103
 21
30.3487
  0
LINE
  8
0
 10
-33.1103
 20
30.3487
 11
-32.711
 21
31.3054
  0
LINE
  8
0
 10
-32.711
 20
31.3054
 11
-32.0454
 21
32.1527
  0
LINE
  8
0
 10
-32.0454
 20
32.1527
 11
-31.1888
 21
32.8161
  0
LINE
  8
0
 10
-31.1888
 20
32.8161
 11
-30.2228
 21
33.2141
  0
LINE
  8
0
 10
-30.2228
 20
33.2141
 11
-29.1474
 21
33.3467
  0
LINE
  8
0
 10
-29.1474
 20
33.3467
 11
-28.0749
 21
33.2141
  0
LINE
  8
0
 10
-28.0749
 20
33.2141
 11
-27.1105
 21
32.8161
  0
LINE
  8
0
 10
-27.1105
 20
32.8161
 11
-26.2544
 21
32.1527
  0
LINE
  8
0
 10
-26.2544
 20
32.1527
 11
-25.8857
 21
31.7409
  0
LINE
  8
0
 10
-25.8857
 20
31.7409
 11
-25.5847
 21
31.3038
  0
LINE
  8
0
 10
-25.5847
 20
31.3038
 11
-25.3514
 21
30.8417
  0
LINE
  8
0
 10
-25.3514
 20
30.8417
 11
-25.1848
 21
30.3525
  0
LINE
  8
0
 10
-25.1848
 20
30.3525
 11
-25.0848
 21
29.8329
  0
LINE
  8
0
 10
-25.0848
 20
29.8329
 11
-25.0514
 21
29.2827
  0
LINE
  8
0
 10
-25.0514
 20
29.2827
 11
-25.1851
 21
28.2162
  0
LINE
  8
0
 10
-25.1851
 20
28.2162
 11
-25.5861
 21
27.2579
  0
LINE
  8
0
 10
-25.5861
 20
27.2579
 11
-26.2544
 21
26.4078
  0
LINE
  8
0
 10
-26.2544
 20
26.4078
 11
-27.1083
 21
25.7472
  0
LINE
  8
0
 10
-27.1083
 20
25.7472
 11
-28.0727
 21
25.3509
  0
LINE
  8
0
 10
-28.0727
 20
25.3509
 11
-29.1474
 21
25.2187
  0
LINE
  8
0
 10
-29.1474
 20
25.2187
 11
-30.225
 21
25.3509
  0
LINE
  8
0
 10
-30.225
 20
25.3509
 11
-31.191
 21
25.7472
  0
LINE
  8
0
 10
-31.191
 20
25.7472
 11
-32.0454
 21
26.4078
  0
LINE
  8
0
 10
-32.0454
 20
26.4078
 11
-32.711
 21
27.2552
  0
LINE
  8
0
 10
-32.711
 20
27.2552
 11
-33.1103
 21
28.2135
  0
LINE
  8
0
 10
-33.1103
 20
28.2135
 11
-33.2434
 21
29.2827
  0
LINE
  8
0
 10
-30
 20
43
 11
-29.9591
 21
43.4938
  0
LINE
  8
0
 10
-29.9591
 20
43.4938
 11
-29.8375
 21
43.9741
  0
LINE
  8
0
 10
-29.8375
 20
43.9741
 11
-29.6384
 21
44.4278
  0
LINE
  8
0
 10
-29.6384
 20
44.4278
 11
-29.3674
 21
44.8426
  0
LINE
  8
0
 10
-29.3674
 20
44.8426
 11
-29.0318
 21
45.2072
  0
LINE
  8
0
 10
-29.0318
 20
45.2072
 11
-28.6408
 21
45.5115
  0
LINE
  8
0
 10
-28.6408
 20
45.5115
 11
-28.2051
 21
45.7473
  0
LINE
  8
0
 10
-28.2051
 20
45.7473
 11
-27.7365
 21
45.9082
  0
LINE
  8
0
 10
-27.7365
 20
45.9082
 11
-27.2477
 21
45.9898
  0
LINE
  8
0
 10
-27.2477
 20
45.9898
 11
-26.7523
 21
45.9898
  0
LINE
  8
0
 10
-26.7523
 20
45.9898
 11
-26.2635
 21
45.9082
  0
LINE
  8
0
 10
-26.2635
 20
45.9082
 11
-25.7949
 21
45.7473
  0
LINE
  8
0
 10
-25.7949
 20
45.7473
 11
-25.3592
 21
45.5115
  0
LINE
  8
0
 10
-25.3592
 20
45.5115
 11
-24.9682
 21
45.2072
  0
LINE
  8
0
 10
-24.9682
 20
45.2072
 11
-24.6326
 21
44.8426
  0
LINE
  8
0
 10
-24.6326
 20
44.8426
 11
-24.3616
 21
44.4278
  0
LINE
  8
0
 10
-24.3616
 20
44.4278
 11
-24.1625
 21
43.9741
  0
LINE
  8
0
 10
-24.1625
 20
43.9741
 11
-24.0409
 21
43.4938
  0
LINE
  8
0
 10
-24.0409
 20
43.4938
 11
-24
 21
43
  0
LINE
  8
0
 10
-24
 20
43
 11
-24.0409
 21
42.5062
  0
LINE
  8
0
 10
-24.0409
 20
42.5062
 11
-24.1625
 21
42.0259
  0
LINE
  8
0
 10
-24.1625
 20
42.0259
 11
-24.3616
 21
41.5722
  0
LINE
  8
0
 10
-24.3616
 20
41.5722
 11
-24.6326
 21
41.1574
  0
LINE
  8
0
 10
-24.6326
 20
41.1574
 11
-24.9682
 21
40.7928
  0
LINE
  8
0
 10
-24.9682
 20
40.7928
 11
-25.3592
 21
40.4885
  0
LINE
  8
0
 10
-25.3592
 20
40.4885
 11
-25.7949
 21
40.2527
  0
LINE
  8
0
 10
-25.7949
 20
40.2527
 11
-26.2635
 21
40.0918
  0
LINE
  8
0
 10
-26.2635
 20
40.0918
 11
-26.7523
 21
40.0102
  0
LINE
  8
0
 10
-26.7523
 20
40.0102
 11
-27.2477
 21
40.0102
  0
LINE
  8
0
 10
-27.2477
 20
40.0102
 11
-27.7365
 21
40.0918
  0
LINE
  8
0
 10
-27.7365
 20
40.0918
 11
-28.2051
 21
40.2527
  0
LINE
  8
0
 10
-28.2051
 20
40.2527
 11
-28.6408
 21
40.4885
  0
LINE
  8
0
 10
-28.6408
 20
40.4885
 11
-29.0318
 21
40.7928
  0
LINE
  8
0
 10
-29.0318
 20
40.7928
 11
-29.3674
 21
41.1574
  0
LINE
  8
0
 10
-29.3674
 20
41.1574
 11
-29.6384
 21
41.5722
  0
LINE
  8
0
 10
-29.6384
 20
41.5722
 11
-29.8375
 21
42.0259
  0
LINE
  8
0
 10
-29.8375
 20
42.0259
 11
-29.9591
 21
42.5062
  0
LINE
  8
0
 10
-29.9591
 20
42.5062
 11
-30
 21
43
  0
LINE
  8
0
 10
-24.4886
 20
23.3148
 11
-24.4886
 21
28.0697
  0
LINE
  8
0
 10
-24.4886
 20
28.0697
 11
-24.3949
 21
28.8173
  0
LINE
  8
0
 10
-24.3949
 20
28.8173
 11
-24.1139
 21
29.488
  0
LINE
  8
0
 10
-24.1139
 20
29.488
 11
-23.6456
 21
30.0817
  0
LINE
  8
0
 10
-23.6456
 20
30.0817
 11
-23.0441
 21
30.5445
  0
LINE
  8
0
 10
-23.0441
 20
30.5445
 11
-22.3651
 21
30.8222
  0
LINE
  8
0
 10
-22.3651
 20
30.8222
 11
-21.6086
 21
30.9147
  0
LINE
  8
0
 10
-21.6086
 20
30.9147
 11
-20.8564
 21
30.8221
  0
LINE
  8
0
 10
-20.8564
 20
30.8221
 11
-20.1774
 21
30.5441
  0
LINE
  8
0
 10
-20.1774
 20
30.5441
 11
-19.5715
 21
30.0807
  0
LINE
  8
0
 10
-19.5715
 20
30.0807
 11
-19.3142
 21
29.7956
  0
LINE
  8
0
 10
-19.3142
 20
29.7956
 11
-19.1035
 21
29.4896
  0
LINE
  8
0
 10
-19.1035
 20
29.4896
 11
-18.9395
 21
29.1627
  0
LINE
  8
0
 10
-18.9395
 20
29.1627
 11
-18.8223
 21
28.8161
  0
LINE
  8
0
 10
-18.8223
 20
28.8161
 11
-18.752
 21
28.4507
  0
LINE
  8
0
 10
-18.752
 20
28.4507
 11
-18.7285
 21
28.0667
  0
LINE
  8
0
 10
-18.7285
 20
28.0667
 11
-18.822
 21
27.3141
  0
LINE
  8
0
 10
-18.822
 20
27.3141
 11
-19.1023
 21
26.6428
  0
LINE
  8
0
 10
-19.1023
 20
26.6428
 11
-19.5695
 21
26.0528
  0
LINE
  8
0
 10
-19.5695
 20
26.0528
 11
-19.8651
 21
25.7954
  0
LINE
  8
0
 10
-19.8651
 20
25.7954
 11
-20.1771
 21
25.5861
  0
LINE
  8
0
 10
-20.1771
 20
25.5861
 11
-20.5056
 21
25.4248
  0
LINE
  8
0
 10
-20.5056
 20
25.4248
 11
-20.8517
 21
25.3103
  0
LINE
  8
0
 10
-20.8517
 20
25.3103
 11
-21.2167
 21
25.2417
  0
LINE
  8
0
 10
-21.2167
 20
25.2417
 11
-21.6006
 21
25.2187
  0
LINE
  8
0
 10
-21.6006
 20
25.2187
 11
-22.2588
 21
25.2899
  0
LINE
  8
0
 10
-22.2588
 20
25.2899
 11
-22.8588
 21
25.5032
  0
LINE
  8
0
 10
-22.8588
 20
25.5032
 11
-23.4006
 21
25.8588
  0
LINE
  8
0
 10
-23.4006
 20
25.8588
 11
-23.4006
 21
23.3168
  0
LINE
  8
0
 10
-23.4006
 20
23.3168
 11
-23.4182
 21
23.1729
  0
LINE
  8
0
 10
-23.4182
 20
23.1729
 11
-23.4712
 21
23.0465
  0
LINE
  8
0
 10
-23.4712
 20
23.0465
 11
-23.5596
 21
22.9378
  0
LINE
  8
0
 10
-23.5596
 20
22.9378
 11
-23.6733
 21
22.8539
  0
LINE
  8
0
 10
-23.6733
 20
22.8539
 11
-23.8027
 21
22.8035
  0
LINE
  8
0
 10
-23.8027
 20
22.8035
 11
-23.9476
 21
22.7868
  0
LINE
  8
0
 10
-23.9476
 20
22.7868
 11
-24.0947
 21
22.8034
  0
LINE
  8
0
 10
-24.0947
 20
22.8034
 11
-24.224
 21
22.8534
  0
LINE
  8
0
 10
-24.224
 20
22.8534
 11
-24.3356
 21
22.9368
  0
LINE
  8
0
 10
-24.3356
 20
22.9368
 11
-24.4205
 21
23.0454
  0
LINE
  8
0
 10
-24.4205
 20
23.0454
 11
-24.4716
 21
23.1714
  0
LINE
  8
0
 10
-24.4716
 20
23.1714
 11
-24.4886
 21
23.3148
  0
LINE
  8
0
 10
-18.0974
 20
28.0667
 11
-18.0046
 21
28.815
  0
LINE
  8
0
 10
-18.0046
 20
28.815
 11
-17.7263
 21
29.4863
  0
LINE
  8
0
 10
-17.7263
 20
29.4863
 11
-17.2624
 21
30.0807
  0
LINE
  8
0
 10
-17.2624
 20
30.0807
 11
-16.6671
 21
30.5441
  0
LINE
  8
0
 10
-16.6671
 20
30.5441
 11
-15.9948
 21
30.8221
  0
LINE
  8
0
 10
-15.9948
 20
30.8221
 11
-15.2454
 21
30.9147
  0
LINE
  8
0
 10
-15.2454
 20
30.9147
 11
-14.5004
 21
30.8216
  0
LINE
  8
0
 10
-14.5004
 20
30.8216
 11
-13.828
 21
30.5423
  0
LINE
  8
0
 10
-13.828
 20
30.5423
 11
-13.2284
 21
30.0767
  0
LINE
  8
0
 10
-13.2284
 20
30.0767
 11
-12.9729
 21
29.7903
  0
LINE
  8
0
 10
-12.9729
 20
29.7903
 11
-12.7639
 21
29.483
  0
LINE
  8
0
 10
-12.7639
 20
29.483
 11
-12.6014
 21
29.1547
  0
LINE
  8
0
 10
-12.6014
 20
29.1547
 11
-12.4852
 21
28.8066
  0
LINE
  8
0
 10
-12.4852
 20
28.8066
 11
-12.4156
 21
28.4396
  0
LINE
  8
0
 10
-12.4156
 20
28.4396
 11
-12.3924
 21
28.0537
  0
LINE
  8
0
 10
-12.3924
 20
28.0537
 11
-12.4097
 21
27.9092
  0
LINE
  8
0
 10
-12.4097
 20
27.9092
 11
-12.4617
 21
27.7822
  0
LINE
  8
0
 10
-12.4617
 20
27.7822
 11
-12.5484
 21
27.6728
  0
LINE
  8
0
 10
-12.5484
 20
27.6728
 11
-12.6594
 21
27.5894
  0
LINE
  8
0
 10
-12.6594
 20
27.5894
 11
-12.7857
 21
27.5394
  0
LINE
  8
0
 10
-12.7857
 20
27.5394
 11
-12.9274
 21
27.5228
  0
LINE
  8
0
 10
-12.9274
 20
27.5228
 11
-16.9624
 21
27.5228
  0
LINE
  8
0
 10
-16.9624
 20
27.5228
 11
-16.8954
 21
27.3473
  0
LINE
  8
0
 10
-16.8954
 20
27.3473
 11
-16.8104
 21
27.1823
  0
LINE
  8
0
 10
-16.8104
 20
27.1823
 11
-16.7074
 21
27.0278
  0
LINE
  8
0
 10
-16.7074
 20
27.0278
 11
-16.5888
 21
26.8855
  0
LINE
  8
0
 10
-16.5888
 20
26.8855
 11
-16.4571
 21
26.7575
  0
LINE
  8
0
 10
-16.4571
 20
26.7575
 11
-16.3124
 21
26.6438
  0
LINE
  8
0
 10
-16.3124
 20
26.6438
 11
-16.156
 21
26.545
  0
LINE
  8
0
 10
-16.156
 20
26.545
 11
-15.9897
 21
26.462
  0
LINE
  8
0
 10
-15.9897
 20
26.462
 11
-15.8134
 21
26.3948
  0
LINE
  8
0
 10
-15.8134
 20
26.3948
 11
-15.6289
 21
26.3459
  0
LINE
  8
0
 10
-15.6289
 20
26.3459
 11
-15.4396
 21
26.3165
  0
LINE
  8
0
 10
-15.4396
 20
26.3165
 11
-15.2454
 21
26.3068
  0
LINE
  8
0
 10
-15.2454
 20
26.3068
 11
-15.0276
 21
26.3174
  0
LINE
  8
0
 10
-15.0276
 20
26.3174
 11
-14.8223
 21
26.3494
  0
LINE
  8
0
 10
-14.8223
 20
26.3494
 11
-14.6294
 21
26.4028
  0
LINE
  8
0
 10
-14.6294
 20
26.4028
 11
-14.4467
 21
26.4781
  0
LINE
  8
0
 10
-14.4467
 20
26.4781
 11
-14.2734
 21
26.5748
  0
LINE
  8
0
 10
-14.2734
 20
26.5748
 11
-14.1094
 21
26.6928
  0
LINE
  8
0
 10
-14.1094
 20
26.6928
 11
-14.0024
 21
26.7605
  0
LINE
  8
0
 10
-14.0024
 20
26.7605
 11
-13.8854
 21
26.8025
  0
LINE
  8
0
 10
-13.8854
 20
26.8025
 11
-13.7584
 21
26.8188
  0
LINE
  8
0
 10
-13.7584
 20
26.8188
 11
-13.6139
 21
26.8021
  0
LINE
  8
0
 10
-13.6139
 20
26.8021
 11
-13.4873
 21
26.7521
  0
LINE
  8
0
 10
-13.4873
 20
26.7521
 11
-13.3784
 21
26.6688
  0
LINE
  8
0
 10
-13.3784
 20
26.6688
 11
-13.295
 21
26.5601
  0
LINE
  8
0
 10
-13.295
 20
26.5601
 11
-13.245
 21
26.4341
  0
LINE
  8
0
 10
-13.245
 20
26.4341
 11
-13.2284
 21
26.2908
  0
LINE
  8
0
 10
-13.2284
 20
26.2908
 11
-13.2454
 21
26.1489
  0
LINE
  8
0
 10
-13.2454
 20
26.1489
 11
-13.2964
 21
26.0219
  0
LINE
  8
0
 10
-13.2964
 20
26.0219
 11
-13.3814
 21
25.9098
  0
LINE
  8
0
 10
-13.3814
 20
25.9098
 11
-13.9391
 21
25.5259
  0
LINE
  8
0
 10
-13.9391
 20
25.5259
 11
-14.5605
 21
25.2955
  0
LINE
  8
0
 10
-14.5605
 20
25.2955
 11
-15.2454
 21
25.2187
  0
LINE
  8
0
 10
-15.2454
 20
25.2187
 11
-15.9948
 21
25.3114
  0
LINE
  8
0
 10
-15.9948
 20
25.3114
 11
-16.6671
 21
25.5894
  0
LINE
  8
0
 10
-16.6671
 20
25.5894
 11
-17.2624
 21
26.0528
  0
LINE
  8
0
 10
-17.2624
 20
26.0528
 11
-17.7263
 21
26.6472
  0
LINE
  8
0
 10
-17.7263
 20
26.6472
 11
-18.0046
 21
27.3185
  0
LINE
  8
0
 10
-18.0046
 20
27.3185
 11
-18.0974
 21
28.0667
  0
LINE
  8
0
 10
-17.45
 20
43
 11
-17.3998
 21
43.4932
  0
LINE
  8
0
 10
-17.3998
 20
43.4932
 11
-17.2514
 21
43.9662
  0
LINE
  8
0
 10
-17.2514
 20
43.9662
 11
-17.0109
 21
44.3996
  0
LINE
  8
0
 10
-17.0109
 20
44.3996
 11
-16.688
 21
44.7757
  0
LINE
  8
0
 10
-16.688
 20
44.7757
 11
-16.296
 21
45.0792
  0
LINE
  8
0
 10
-16.296
 20
45.0792
 11
-15.8509
 21
45.2975
  0
LINE
  8
0
 10
-15.8509
 20
45.2975
 11
-15.371
 21
45.4217
  0
LINE
  8
0
 10
-15.371
 20
45.4217
 11
-14.8759
 21
45.4469
  0
LINE
  8
0
 10
-14.8759
 20
45.4469
 11
-14.3859
 21
45.3718
  0
LINE
  8
0
 10
-14.3859
 20
45.3718
 11
-13.921
 21
45.1996
  0
LINE
  8
0
 10
-13.921
 20
45.1996
 11
-13.5003
 21
44.9374
  0
LINE
  8
0
 10
-13.5003
 20
44.9374
 11
-13.141
 21
44.5959
  0
LINE
  8
0
 10
-13.141
 20
44.5959
 11
-12.8579
 21
44.189
  0
LINE
  8
0
 10
-12.8579
 20
44.189
 11
-12.6624
 21
43.7334
  0
LINE
  8
0
 10
-12.6624
 20
43.7334
 11
-12.5626
 21
43.2479
  0
LINE
  8
0
 10
-12.5626
 20
43.2479
 11
-12.5626
 21
42.7521
  0
LINE
  8
0
 10
-12.5626
 20
42.7521
 11
-12.6624
 21
42.2666
  0
LINE
  8
0
 10
-12.6624
 20
42.2666
 11
-12.8579
 21
41.811
  0
LINE
  8
0
 10
-12.8579
 20
41.811
 11
-13.141
 21
41.4041
  0
LINE
  8
0
 10
-13.141
 20
41.4041
 11
-13.5003
 21
41.0626
  0
LINE
  8
0
 10
-13.5003
 20
41.0626
 11
-13.921
 21
40.8004
  0
LINE
  8
0
 10
-13.921
 20
40.8004
 11
-14.3859
 21
40.6282
  0
LINE
  8
0
 10
-14.3859
 20
40.6282
 11
-14.8759
 21
40.5531
  0
LINE
  8
0
 10
-14.8759
 20
40.5531
 11
-15.371
 21
40.5783
  0
LINE
  8
0
 10
-15.371
 20
40.5783
 11
-15.8509
 21
40.7025
  0
LINE
  8
0
 10
-15.8509
 20
40.7025
 11
-16.296
 21
40.9208
  0
LINE
  8
0
 10
-16.296
 20
40.9208
 11
-16.688
 21
41.2243
  0
LINE
  8
0
 10
-16.688
 20
41.2243
 11
-17.0109
 21
41.6004
  0
LINE
  8
0
 10
-17.0109
 20
41.6004
 11
-17.2514
 21
42.0338
  0
LINE
  8
0
 10
-17.2514
 20
42.0338
 11
-17.3998
 21
42.5068
  0
LINE
  8
0
 10
-17.3998
 20
42.5068
 11
-17.45
 21
43
  0
LINE
  8
0
 10
-11.7542
 20
25.7528
 11
-11.7542
 21
30.3807
  0
LINE
  8
0
 10
-11.7542
 20
30.3807
 11
-11.7365
 21
30.5199
  0
LINE
  8
0
 10
-11.7365
 20
30.5199
 11
-11.6835
 21
30.6452
  0
LINE
  8
0
 10
-11.6835
 20
30.6452
 11
-11.5952
 21
30.7567
  0
LINE
  8
0
 10
-11.5952
 20
30.7567
 11
-11.4814
 21
30.8445
  0
LINE
  8
0
 10
-11.4814
 20
30.8445
 11
-11.3521
 21
30.8972
  0
LINE
  8
0
 10
-11.3521
 20
30.8972
 11
-11.2072
 21
30.9147
  0
LINE
  8
0
 10
-11.2072
 20
30.9147
 11
-11.0656
 21
30.8967
  0
LINE
  8
0
 10
-11.0656
 20
30.8967
 11
-10.9383
 21
30.8427
  0
LINE
  8
0
 10
-10.9383
 20
30.8427
 11
-10.8252
 21
30.7527
  0
LINE
  8
0
 10
-10.8252
 20
30.7527
 11
-10.7368
 21
30.6396
  0
LINE
  8
0
 10
-10.7368
 20
30.6396
 11
-10.6838
 21
30.515
  0
LINE
  8
0
 10
-10.6838
 20
30.515
 11
-10.6662
 21
30.3787
  0
LINE
  8
0
 10
-10.6662
 20
30.3787
 11
-10.1841
 21
30.6765
  0
LINE
  8
0
 10
-10.1841
 20
30.6765
 11
-9.64839
 21
30.8552
  0
LINE
  8
0
 10
-9.64839
 20
30.8552
 11
-9.05917
 21
30.9147
  0
LINE
  8
0
 10
-9.05917
 20
30.9147
 11
-8.70529
 21
30.8915
  0
LINE
  8
0
 10
-8.70529
 20
30.8915
 11
-8.36362
 21
30.8219
  0
LINE
  8
0
 10
-8.36362
 20
30.8219
 11
-8.03418
 21
30.7057
  0
LINE
  8
0
 10
-8.03418
 20
30.7057
 11
-7.72362
 21
30.5503
  0
LINE
  8
0
 10
-7.72362
 20
30.5503
 11
-7.43861
 21
30.3613
  0
LINE
  8
0
 10
-7.43861
 20
30.3613
 11
-7.17917
 21
30.1387
  0
LINE
  8
0
 10
-7.17917
 20
30.1387
 11
-6.94974
 21
29.8858
  0
LINE
  8
0
 10
-6.94974
 20
29.8858
 11
-6.75473
 21
29.6045
  0
LINE
  8
0
 10
-6.75473
 20
29.6045
 11
-6.59418
 21
29.2947
  0
LINE
  8
0
 10
-6.59418
 20
29.2947
 11
-6.47418
 21
28.9642
  0
LINE
  8
0
 10
-6.47418
 20
28.9642
 11
-6.40218
 21
28.6192
  0
LINE
  8
0
 10
-6.40218
 20
28.6192
 11
-6.37817
 21
28.2597
  0
LINE
  8
0
 10
-6.37817
 20
28.2597
 11
-6.37817
 21
25.7528
  0
LINE
  8
0
 10
-6.37817
 20
25.7528
 11
-6.39584
 21
25.6111
  0
LINE
  8
0
 10
-6.39584
 20
25.6111
 11
-6.44884
 21
25.4848
  0
LINE
  8
0
 10
-6.44884
 20
25.4848
 11
-6.53717
 21
25.3738
  0
LINE
  8
0
 10
-6.53717
 20
25.3738
 11
-6.65028
 21
25.2876
  0
LINE
  8
0
 10
-6.65028
 20
25.2876
 11
-6.77762
 21
25.236
  0
LINE
  8
0
 10
-6.77762
 20
25.236
 11
-6.91917
 21
25.2187
  0
LINE
  8
0
 10
-6.91917
 20
25.2187
 11
-7.06407
 21
25.2359
  0
LINE
  8
0
 10
-7.06407
 20
25.2359
 11
-7.19341
 21
25.2872
  0
LINE
  8
0
 10
-7.19341
 20
25.2872
 11
-7.30717
 21
25.3728
  0
LINE
  8
0
 10
-7.30717
 20
25.3728
 11
-7.39551
 21
25.4835
  0
LINE
  8
0
 10
-7.39551
 20
25.4835
 11
-7.44852
 21
25.6092
  0
LINE
  8
0
 10
-7.44852
 20
25.6092
 11
-7.46617
 21
25.7498
  0
LINE
  8
0
 10
-7.46617
 20
25.7498
 11
-7.46617
 21
28.2437
  0
LINE
  8
0
 10
-7.46617
 20
28.2437
 11
-7.48039
 21
28.4557
  0
LINE
  8
0
 10
-7.48039
 20
28.4557
 11
-7.52307
 21
28.6597
  0
LINE
  8
0
 10
-7.52307
 20
28.6597
 11
-7.59418
 21
28.8557
  0
LINE
  8
0
 10
-7.59418
 20
28.8557
 11
-7.68939
 21
29.0396
  0
LINE
  8
0
 10
-7.68939
 20
29.0396
 11
-7.8044
 21
29.2073
  0
LINE
  8
0
 10
-7.8044
 20
29.2073
 11
-7.93918
 21
29.3587
  0
LINE
  8
0
 10
-7.93918
 20
29.3587
 11
-8.09218
 21
29.4922
  0
LINE
  8
0
 10
-8.09218
 20
29.4922
 11
-8.26184
 21
29.6059
  0
LINE
  8
0
 10
-8.26184
 20
29.6059
 11
-8.44818
 21
29.6997
  0
LINE
  8
0
 10
-8.44818
 20
29.6997
 11
-8.64618
 21
29.7703
  0
LINE
  8
0
 10
-8.64618
 20
29.7703
 11
-8.85217
 21
29.8126
  0
LINE
  8
0
 10
-8.85217
 20
29.8126
 11
-9.06618
 21
29.8267
  0
LINE
  8
0
 10
-9.06618
 20
29.8267
 11
-9.28273
 21
29.813
  0
LINE
  8
0
 10
-9.28273
 20
29.813
 11
-9.48973
 21
29.7716
  0
LINE
  8
0
 10
-9.48973
 20
29.7716
 11
-9.68718
 21
29.7027
  0
LINE
  8
0
 10
-9.68718
 20
29.7027
 11
-9.87218
 21
29.6096
  0
LINE
  8
0
 10
-9.87218
 20
29.6096
 11
-10.0418
 21
29.4956
  0
LINE
  8
0
 10
-10.0418
 20
29.4956
 11
-10.1962
 21
29.3607
  0
LINE
  8
0
 10
-10.1962
 20
29.3607
 11
-10.3323
 21
29.2082
  0
LINE
  8
0
 10
-10.3323
 20
29.2082
 11
-10.4473
 21
29.0399
  0
LINE
  8
0
 10
-10.4473
 20
29.0399
 11
-10.5412
 21
28.8557
  0
LINE
  8
0
 10
-10.5412
 20
28.8557
 11
-10.6106
 21
28.6597
  0
LINE
  8
0
 10
-10.6106
 20
28.6597
 11
-10.6523
 21
28.4557
  0
LINE
  8
0
 10
-10.6523
 20
28.4557
 11
-10.6662
 21
28.2437
  0
LINE
  8
0
 10
-10.6662
 20
28.2437
 11
-10.6662
 21
25.7498
  0
LINE
  8
0
 10
-10.6662
 20
25.7498
 11
-10.6838
 21
25.6092
  0
LINE
  8
0
 10
-10.6838
 20
25.6092
 11
-10.7368
 21
25.4835
  0
LINE
  8
0
 10
-10.7368
 20
25.4835
 11
-10.8252
 21
25.3728
  0
LINE
  8
0
 10
-10.8252
 20
25.3728
 11
-10.9383
 21
25.2872
  0
LINE
  8
0
 10
-10.9383
 20
25.2872
 11
-11.0656
 21
25.2359
  0
LINE
  8
0
 10
-11.0656
 20
25.2359
 11
-11.2072
 21
25.2187
  0
LINE
  8
0
 10
-11.2072
 20
25.2187
 11
-11.3521
 21
25.236
  0
LINE
  8
0
 10
-11.3521
 20
25.236
 11
-11.4814
 21
25.2876
  0
LINE
  8
0
 10
-11.4814
 20
25.2876
 11
-11.5952
 21
25.3738
  0
LINE
  8
0
 10
-11.5952
 20
25.3738
 11
-11.6835
 21
25.4848
  0
LINE
  8
0
 10
-11.6835
 20
25.4848
 11
-11.7365
 21
25.6111
  0
LINE
  8
0
 10
-11.7365
 20
25.6111
 11
-11.7542
 21
25.7528
  0
LINE
  8
0
 10
-8.35
 20
41.5
 11
-8.35
 21
44.5
  0
LINE
  8
0
 10
-8.35
 20
44.5
 11
-7.25
 21
44.5
  0
LINE
  8
0
 10
-7.25
 20
44.5
 11
-7.25
 21
41.5
  0
LINE
  8
0
 10
-7.25
 20
41.5
 11
-8.35
 21
41.5
  0
LINE
  8
0
 10
-5.78445
 20
25.7568
 11
-5.78445
 21
32.8087
  0
LINE
  8
0
 10
-5.78445
 20
32.8087
 11
-5.77968
 21
32.8814
  0
LINE
  8
0
 10
-5.77968
 20
32.8814
 11
-5.76534
 21
32.9514
  0
LINE
  8
0
 10
-5.76534
 20
32.9514
 11
-5.74146
 21
33.0187
  0
LINE
  8
0
 10
-5.74146
 20
33.0187
 11
-5.70889
 21
33.0816
  0
LINE
  8
0
 10
-5.70889
 20
33.0816
 11
-5.66989
 21
33.1383
  0
LINE
  8
0
 10
-5.66989
 20
33.1383
 11
-5.62445
 21
33.1887
  0
LINE
  8
0
 10
-5.62445
 20
33.1887
 11
-5.57256
 21
33.2335
  0
LINE
  8
0
 10
-5.57256
 20
33.2335
 11
-5.51556
 21
33.2719
  0
LINE
  8
0
 10
-5.51556
 20
33.2719
 11
-5.45345
 21
33.3037
  0
LINE
  8
0
 10
-5.45345
 20
33.3037
 11
-5.38712
 21
33.3276
  0
LINE
  8
0
 10
-5.38712
 20
33.3276
 11
-5.31744
 21
33.342
  0
LINE
  8
0
 10
-5.31744
 20
33.342
 11
-5.24445
 21
33.3467
  0
LINE
  8
0
 10
-5.24445
 20
33.3467
 11
-3.66945
 21
33.3467
  0
LINE
  8
0
 10
-3.66945
 20
33.3467
 11
-3.38623
 21
33.3284
  0
LINE
  8
0
 10
-3.38623
 20
33.3284
 11
-3.11389
 21
33.2734
  0
LINE
  8
0
 10
-3.11389
 20
33.2734
 11
-2.85245
 21
33.1817
  0
LINE
  8
0
 10
-2.85245
 20
33.1817
 11
-2.60657
 21
33.0582
  0
LINE
  8
0
 10
-2.60657
 20
33.0582
 11
-2.38223
 21
32.9075
  0
LINE
  8
0
 10
-2.38223
 20
32.9075
 11
-2.17944
 21
32.7297
  0
LINE
  8
0
 10
-2.17944
 20
32.7297
 11
-2.00111
 21
32.5276
  0
LINE
  8
0
 10
-2.00111
 20
32.5276
 11
-1.93316
 21
32.427
  0
LINE
  8
0
 10
-1.93316
 20
32.427
 11
-1.85011
 21
32.304
  0
LINE
  8
0
 10
-1.85011
 20
32.304
 11
-1.72646
 21
32.0587
  0
LINE
  8
0
 10
-1.72646
 20
32.0587
 11
-1.63423
 21
31.798
  0
LINE
  8
0
 10
-1.63423
 20
31.798
 11
-1.57889
 21
31.5263
  0
LINE
  8
0
 10
-1.57889
 20
31.5263
 11
-1.56045
 21
31.2437
  0
LINE
  8
0
 10
-1.56045
 20
31.2437
 11
-1.61368
 21
30.7511
  0
LINE
  8
0
 10
-1.61368
 20
30.7511
 11
-1.77333
 21
30.3024
  0
LINE
  8
0
 10
-1.77333
 20
30.3024
 11
-1.89308
 21
30.1203
  0
LINE
  8
0
 10
-1.89308
 20
30.1203
 11
-2.03944
 21
29.8977
  0
LINE
  8
0
 10
-2.03944
 20
29.8977
 11
-1.95015
 21
29.84
  0
LINE
  8
0
 10
-1.95015
 20
29.84
 11
-1.841
 21
29.7695
  0
LINE
  8
0
 10
-1.841
 20
29.7695
 11
-1.66034
 21
29.6289
  0
LINE
  8
0
 10
-1.66034
 20
29.6289
 11
-1.49745
 21
29.4757
  0
LINE
  8
0
 10
-1.49745
 20
29.4757
 11
-1.35167
 21
29.3116
  0
LINE
  8
0
 10
-1.35167
 20
29.3116
 11
-1.22234
 21
29.138
  0
LINE
  8
0
 10
-1.22234
 20
29.138
 11
-1.10945
 21
28.9547
  0
LINE
  8
0
 10
-1.10945
 20
28.9547
 11
-1.01334
 21
28.7634
  0
LINE
  8
0
 10
-1.01334
 20
28.7634
 11
-0.934341
 21
28.5654
  0
LINE
  8
0
 10
-0.934341
 20
28.5654
 11
-0.872451
 21
28.3607
  0
LINE
  8
0
 10
-0.872451
 20
28.3607
 11
-0.828002
 21
28.1506
  0
LINE
  8
0
 10
-0.828002
 20
28.1506
 11
-0.801345
 21
27.9363
  0
LINE
  8
0
 10
-0.801345
 20
27.9363
 11
-0.792449
 21
27.7178
  0
LINE
  8
0
 10
-0.792449
 20
27.7178
 11
-0.814453
 21
27.3822
  0
LINE
  8
0
 10
-0.814453
 20
27.3822
 11
-0.880447
 21
27.0595
  0
LINE
  8
0
 10
-0.880447
 20
27.0595
 11
-0.990447
 21
26.7498
  0
LINE
  8
0
 10
-0.990447
 20
26.7498
 11
-1.138
 21
26.4596
  0
LINE
  8
0
 10
-1.138
 20
26.4596
 11
-1.31667
 21
26.1946
  0
LINE
  8
0
 10
-1.31667
 20
26.1946
 11
-1.52644
 21
25.9548
  0
LINE
  8
0
 10
-1.52644
 20
25.9548
 11
-1.76479
 21
25.7439
  0
LINE
  8
0
 10
-1.76479
 20
25.7439
 11
-1.88373
 21
25.6632
  0
LINE
  8
0
 10
-1.88373
 20
25.6632
 11
-2.02911
 21
25.5645
  0
LINE
  8
0
 10
-2.02911
 20
25.5645
 11
-2.31944
 21
25.4168
  0
LINE
  8
0
 10
-2.31944
 20
25.4168
 11
-2.62856
 21
25.3068
  0
LINE
  8
0
 10
-2.62856
 20
25.3068
 11
-2.95056
 21
25.2408
  0
LINE
  8
0
 10
-2.95056
 20
25.2408
 11
-3.28545
 21
25.2187
  0
LINE
  8
0
 10
-3.28545
 20
25.2187
 11
-5.24644
 21
25.2187
  0
LINE
  8
0
 10
-5.24644
 20
25.2187
 11
-5.31889
 21
25.2235
  0
LINE
  8
0
 10
-5.31889
 20
25.2235
 11
-5.38823
 21
25.2379
  0
LINE
  8
0
 10
-5.38823
 20
25.2379
 11
-5.45445
 21
25.2618
  0
LINE
  8
0
 10
-5.45445
 20
25.2618
 11
-5.51601
 21
25.2935
  0
LINE
  8
0
 10
-5.51601
 20
25.2935
 11
-5.57268
 21
25.3315
  0
LINE
  8
0
 10
-5.57268
 20
25.3315
 11
-5.62445
 21
25.3758
  0
LINE
  8
0
 10
-5.62445
 20
25.3758
 11
-5.67033
 21
25.4268
  0
LINE
  8
0
 10
-5.67033
 20
25.4268
 11
-5.70934
 21
25.4838
  0
LINE
  8
0
 10
-5.70934
 20
25.4838
 11
-5.74146
 21
25.5468
  0
LINE
  8
0
 10
-5.74146
 20
25.5468
 11
-5.76534
 21
25.6141
  0
LINE
  8
0
 10
-5.76534
 20
25.6141
 11
-5.77968
 21
25.6841
  0
LINE
  8
0
 10
-5.77968
 20
25.6841
 11
-5.78445
 21
25.7568
  0
LINE
  8
0
 10
-3.5
 20
43
 11
-3.46437
 21
43.4981
  0
LINE
  8
0
 10
-3.46437
 20
43.4981
 11
-3.35822
 21
43.9861
  0
LINE
  8
0
 10
-3.35822
 20
43.9861
 11
-3.18371
 21
44.454
  0
LINE
  8
0
 10
-3.18371
 20
44.454
 11
-2.94439
 21
44.8922
  0
LINE
  8
0
 10
-2.94439
 20
44.8922
 11
-2.64512
 21
45.292
  0
LINE
  8
0
 10
-2.64512
 20
45.292
 11
-2.29201
 21
45.6451
  0
LINE
  8
0
 10
-2.29201
 20
45.6451
 11
-1.89224
 21
45.9444
  0
LINE
  8
0
 10
-1.89224
 20
45.9444
 11
-1.45395
 21
46.1837
  0
LINE
  8
0
 10
-1.45395
 20
46.1837
 11
-0.986063
 21
46.3582
  0
LINE
  8
0
 10
-0.986063
 20
46.3582
 11
-0.498101
 21
46.4644
  0
LINE
  8
0
 10
-0.498101
 20
46.4644
 11
-3.41676e-15
 21
46.5
  0
LINE
  8
0
 10
-3.41676e-15
 20
46.5
 11
0.498101
 21
46.4644
  0
LINE
  8
0
 10
0.498101
 20
46.4644
 11
0.986063
 21
46.3582
  0
LINE
  8
0
 10
0.986063
 20
46.3582
 11
1.45395
 21
46.1837
  0
LINE
  8
0
 10
1.45395
 20
46.1837
 11
1.89224
 21
45.9444
  0
LINE
  8
0
 10
1.89224
 20
45.9444
 11
2.29201
 21
45.6451
  0
LINE
  8
0
 10
2.29201
 20
45.6451
 11
2.64512
 21
45.292
  0
LINE
  8
0
 10
2.64512
 20
45.292
 11
2.94439
 21
44.8922
  0
LINE
  8
0
 10
2.94439
 20
44.8922
 11
3.18371
 21
44.454
  0
LINE
  8
0
 10
3.18371
 20
44.454
 11
3.35822
 21
43.9861
  0
LINE
  8
0
 10
3.35822
 20
43.9861
 11
3.46437
 21
43.4981
  0
LINE
  8
0
 10
3.46437
 20
43.4981
 11
3.5
 21
43
  0
LINE
  8
0
 10
3.5
 20
43
 11
3.46437
 21
42.5019
  0
LINE
  8
0
 10
3.46437
 20
42.5019
 11
3.35822
 21
42.0139
  0
LINE
  8
0
 10
3.35822
 20
42.0139
 11
3.18371
 21
41.546
  0
LINE
  8
0
 10
3.18371
 20
41.546
 11
2.94439
 21
41.1078
  0
LINE
  8
0
 10
2.94439
 20
41.1078
 11
2.64512
 21
40.708
  0
LINE
  8
0
 10
2.64512
 20
40.708
 11
2.29201
 21
40.3549
  0
LINE
  8
0
 10
2.29201
 20
40.3549
 11
1.89224
 21
40.0556
  0
LINE
  8
0
 10
1.89224
 20
40.0556
 11
1.45395
 21
39.8163
  0
LINE
  8
0
 10
1.45395
 20
39.8163
 11
0.986063
 21
39.6418
  0
LINE
  8
0
 10
0.986063
 20
39.6418
 11
0.498101
 21
39.5356
  0
LINE
  8
0
 10
0.498101
 20
39.5356
 11
-3.41676e-15
 21
39.5
  0
LINE
  8
0
 10
-3.41676e-15
 20
39.5
 11
-0.498101
 21
39.5356
  0
LINE
  8
0
 10
-0.498101
 20
39.5356
 11
-0.986063
 21
39.6418
  0
LINE
  8
0
 10
-0.986063
 20
39.6418
 11
-1.45395
 21
39.8163
  0
LINE
  8
0
 10
-1.45395
 20
39.8163
 11
-1.89224
 21
40.0556
  0
LINE
  8
0
 10
-1.89224
 20
40.0556
 11
-2.29201
 21
40.3549
  0
LINE
  8
0
 10
-2.29201
 20
40.3549
 11
-2.64512
 21
40.708
  0
LINE
  8
0
 10
-2.64512
 20
40.708
 11
-2.94439
 21
41.1078
  0
LINE
  8
0
 10
-2.94439
 20
41.1078
 11
-3.18371
 21
41.546
  0
LINE
  8
0
 10
-3.18371
 20
41.546
 11
-3.35822
 21
42.0139
  0
LINE
  8
0
 10
-3.35822
 20
42.0139
 11
-3.46437
 21
42.5019
  0
LINE
  8
0
 10
-3.46437
 20
42.5019
 11
-3.5
 21
43
  0
LINE
  8
0
 10
-0.00115914
 20
31.9387
 11
0.0191646
 21
32.1067
  0
LINE
  8
0
 10
0.0191646
 20
32.1067
 11
0.080154
 21
32.2574
  0
LINE
  8
0
 10
0.080154
 20
32.2574
 11
0.181823
 21
32.3907
  0
LINE
  8
0
 10
0.181823
 20
32.3907
 11
0.312942
 21
32.4952
  0
LINE
  8
0
 10
0.312942
 20
32.4952
 11
0.460937
 21
32.5578
  0
LINE
  8
0
 10
0.460937
 20
32.5578
 11
0.625824
 21
32.5787
  0
LINE
  8
0
 10
0.625824
 20
32.5787
 11
0.790039
 21
32.5578
  0
LINE
  8
0
 10
0.790039
 20
32.5578
 11
0.937378
 21
32.4952
  0
LINE
  8
0
 10
0.937378
 20
32.4952
 11
1.06782
 21
32.3907
  0
LINE
  8
0
 10
1.06782
 20
32.3907
 11
1.17004
 21
32.2574
  0
LINE
  8
0
 10
1.17004
 20
32.2574
 11
1.23138
 21
32.1067
  0
LINE
  8
0
 10
1.23138
 20
32.1067
 11
1.25183
 21
31.9387
  0
LINE
  8
0
 10
1.25183
 20
31.9387
 11
1.23138
 21
31.7706
  0
LINE
  8
0
 10
1.23138
 20
31.7706
 11
1.17004
 21
31.6196
  0
LINE
  8
0
 10
1.17004
 20
31.6196
 11
1.06782
 21
31.4857
  0
LINE
  8
0
 10
1.06782
 20
31.4857
 11
0.937378
 21
31.3819
  0
LINE
  8
0
 10
0.937378
 20
31.3819
 11
0.790039
 21
31.3195
  0
LINE
  8
0
 10
0.790039
 20
31.3195
 11
0.625824
 21
31.2987
  0
LINE
  8
0
 10
0.625824
 20
31.2987
 11
0.460937
 21
31.3195
  0
LINE
  8
0
 10
0.460937
 20
31.3195
 11
0.312942
 21
31.3819
  0
LINE
  8
0
 10
0.312942
 20
31.3819
 11
0.181823
 21
31.4857
  0
LINE
  8
0
 10
0.181823
 20
31.4857
 11
0.080154
 21
31.6196
  0
LINE
  8
0
 10
0.080154
 20
31.6196
 11
0.0191646
 21
31.7706
  0
LINE
  8
0
 10
0.0191646
 20
31.7706
 11
-0.00115914
 21
31.9387
  0
LINE
  8
0
 10
0.106826
 20
25.7538
 11
0.106826
 21
30.3887
  0
LINE
  8
0
 10
0.106826
 20
30.3887
 11
0.124496
 21
30.5304
  0
LINE
  8
0
 10
0.124496
 20
30.5304
 11
0.17749
 21
30.6567
  0
LINE
  8
0
 10
0.17749
 20
30.6567
 11
0.265823
 21
30.7677
  0
LINE
  8
0
 10
0.265823
 20
30.7677
 11
0.378936
 21
30.8544
  0
LINE
  8
0
 10
0.378936
 20
30.8544
 11
0.506271
 21
30.9064
  0
LINE
  8
0
 10
0.506271
 20
30.9064
 11
0.647827
 21
30.9237
  0
LINE
  8
0
 10
0.647827
 20
30.9237
 11
0.789932
 21
30.9064
  0
LINE
  8
0
 10
0.789932
 20
30.9064
 11
0.917602
 21
30.8544
  0
LINE
  8
0
 10
0.917602
 20
30.8544
 11
1.03082
 21
30.7677
  0
LINE
  8
0
 10
1.03082
 20
30.7677
 11
1.11972
 21
30.6567
  0
LINE
  8
0
 10
1.11972
 20
30.6567
 11
1.17438
 21
30.5304
  0
LINE
  8
0
 10
1.17438
 20
30.5304
 11
1.19482
 21
30.3887
  0
LINE
  8
0
 10
1.19482
 20
30.3887
 11
1.19482
 21
25.7538
  0
LINE
  8
0
 10
1.19482
 20
25.7538
 11
1.17438
 21
25.612
  0
LINE
  8
0
 10
1.17438
 20
25.612
 11
1.11972
 21
25.4853
  0
LINE
  8
0
 10
1.11972
 20
25.4853
 11
1.03082
 21
25.3738
  0
LINE
  8
0
 10
1.03082
 20
25.3738
 11
0.917602
 21
25.2876
  0
LINE
  8
0
 10
0.917602
 20
25.2876
 11
0.789932
 21
25.236
  0
LINE
  8
0
 10
0.789932
 20
25.236
 11
0.647827
 21
25.2187
  0
LINE
  8
0
 10
0.647827
 20
25.2187
 11
0.506271
 21
25.236
  0
LINE
  8
0
 10
0.506271
 20
25.236
 11
0.378936
 21
25.2876
  0
LINE
  8
0
 10
0.378936
 20
25.2876
 11
0.265823
 21
25.3738
  0
LINE
  8
0
 10
0.265823
 20
25.3738
 11
0.17749
 21
25.4853
  0
LINE
  8
0
 10
0.17749
 20
25.4853
 11
0.124496
 21
25.612
  0
LINE
  8
0
 10
0.124496
 20
25.612
 11
0.106826
 21
25.7538
  0
LINE
  8
0
 10
2.17451
 20
25.7528
 11
2.17451
 21
30.3807
  0
LINE
  8
0
 10
2.17451
 20
30.3807
 11
2.19218
 21
30.5199
  0
LINE
  8
0
 10
2.19218
 20
30.5199
 11
2.24519
 21
30.6452
  0
LINE
  8
0
 10
2.24519
 20
30.6452
 11
2.33353
 21
30.7567
  0
LINE
  8
0
 10
2.33353
 20
30.7567
 11
2.4473
 21
30.8445
  0
LINE
  8
0
 10
2.4473
 20
30.8445
 11
2.57663
 21
30.8972
  0
LINE
  8
0
 10
2.57663
 20
30.8972
 11
2.72153
 21
30.9147
  0
LINE
  8
0
 10
2.72153
 20
30.9147
 11
2.86308
 21
30.8967
  0
LINE
  8
0
 10
2.86308
 20
30.8967
 11
2.9904
 21
30.8427
  0
LINE
  8
0
 10
2.9904
 20
30.8427
 11
3.10352
 21
30.7527
  0
LINE
  8
0
 10
3.10352
 20
30.7527
 11
3.19185
 21
30.6396
  0
LINE
  8
0
 10
3.19185
 20
30.6396
 11
3.24486
 21
30.515
  0
LINE
  8
0
 10
3.24486
 20
30.515
 11
3.26251
 21
30.3787
  0
LINE
  8
0
 10
3.26251
 20
30.3787
 11
3.74463
 21
30.6765
  0
LINE
  8
0
 10
3.74463
 20
30.6765
 11
4.2803
 21
30.8552
  0
LINE
  8
0
 10
4.2803
 20
30.8552
 11
4.86952
 21
30.9147
  0
LINE
  8
0
 10
4.86952
 20
30.9147
 11
5.2234
 21
30.8915
  0
LINE
  8
0
 10
5.2234
 20
30.8915
 11
5.56508
 21
30.8219
  0
LINE
  8
0
 10
5.56508
 20
30.8219
 11
5.89452
 21
30.7057
  0
LINE
  8
0
 10
5.89452
 20
30.7057
 11
6.20508
 21
30.5503
  0
LINE
  8
0
 10
6.20508
 20
30.5503
 11
6.49008
 21
30.3613
  0
LINE
  8
0
 10
6.49008
 20
30.3613
 11
6.74953
 21
30.1387
  0
LINE
  8
0
 10
6.74953
 20
30.1387
 11
6.97896
 21
29.8858
  0
LINE
  8
0
 10
6.97896
 20
29.8858
 11
7.17397
 21
29.6045
  0
LINE
  8
0
 10
7.17397
 20
29.6045
 11
7.33452
 21
29.2947
  0
LINE
  8
0
 10
7.33452
 20
29.2947
 11
7.45451
 21
28.9642
  0
LINE
  8
0
 10
7.45451
 20
28.9642
 11
7.52652
 21
28.6192
  0
LINE
  8
0
 10
7.52652
 20
28.6192
 11
7.55052
 21
28.2597
  0
LINE
  8
0
 10
7.55052
 20
28.2597
 11
7.55052
 21
25.7528
  0
LINE
  8
0
 10
7.55052
 20
25.7528
 11
7.53285
 21
25.6111
  0
LINE
  8
0
 10
7.53285
 20
25.6111
 11
7.47986
 21
25.4848
  0
LINE
  8
0
 10
7.47986
 20
25.4848
 11
7.39153
 21
25.3738
  0
LINE
  8
0
 10
7.39153
 20
25.3738
 11
7.27841
 21
25.2876
  0
LINE
  8
0
 10
7.27841
 20
25.2876
 11
7.15108
 21
25.236
  0
LINE
  8
0
 10
7.15108
 20
25.236
 11
7.00952
 21
25.2187
  0
LINE
  8
0
 10
7.00952
 20
25.2187
 11
6.86462
 21
25.2359
  0
LINE
  8
0
 10
6.86462
 20
25.2359
 11
6.73529
 21
25.2872
  0
LINE
  8
0
 10
6.73529
 20
25.2872
 11
6.62152
 21
25.3728
  0
LINE
  8
0
 10
6.62152
 20
25.3728
 11
6.53319
 21
25.4835
  0
LINE
  8
0
 10
6.53319
 20
25.4835
 11
6.48018
 21
25.6092
  0
LINE
  8
0
 10
6.48018
 20
25.6092
 11
6.46252
 21
25.7498
  0
LINE
  8
0
 10
6.46252
 20
25.7498
 11
6.46252
 21
28.2437
  0
LINE
  8
0
 10
6.46252
 20
28.2437
 11
6.4483
 21
28.4557
  0
LINE
  8
0
 10
6.4483
 20
28.4557
 11
6.40562
 21
28.6597
  0
LINE
  8
0
 10
6.40562
 20
28.6597
 11
6.33452
 21
28.8557
  0
LINE
  8
0
 10
6.33452
 20
28.8557
 11
6.2393
 21
29.0396
  0
LINE
  8
0
 10
6.2393
 20
29.0396
 11
6.1243
 21
29.2073
  0
LINE
  8
0
 10
6.1243
 20
29.2073
 11
5.98952
 21
29.3587
  0
LINE
  8
0
 10
5.98952
 20
29.3587
 11
5.83652
 21
29.4922
  0
LINE
  8
0
 10
5.83652
 20
29.4922
 11
5.66685
 21
29.6059
  0
LINE
  8
0
 10
5.66685
 20
29.6059
 11
5.48051
 21
29.6997
  0
LINE
  8
0
 10
5.48051
 20
29.6997
 11
5.28252
 21
29.7703
  0
LINE
  8
0
 10
5.28252
 20
29.7703
 11
5.07652
 21
29.8126
  0
LINE
  8
0
 10
5.07652
 20
29.8126
 11
4.86252
 21
29.8267
  0
LINE
  8
0
 10
4.86252
 20
29.8267
 11
4.64597
 21
29.813
  0
LINE
  8
0
 10
4.64597
 20
29.813
 11
4.43896
 21
29.7716
  0
LINE
  8
0
 10
4.43896
 20
29.7716
 11
4.24152
 21
29.7027
  0
LINE
  8
0
 10
4.24152
 20
29.7027
 11
4.05652
 21
29.6096
  0
LINE
  8
0
 10
4.05652
 20
29.6096
 11
3.88686
 21
29.4956
  0
LINE
  8
0
 10
3.88686
 20
29.4956
 11
3.73251
 21
29.3607
  0
LINE
  8
0
 10
3.73251
 20
29.3607
 11
3.59641
 21
29.2082
  0
LINE
  8
0
 10
3.59641
 20
29.2082
 11
3.48141
 21
29.0399
  0
LINE
  8
0
 10
3.48141
 20
29.0399
 11
3.38751
 21
28.8557
  0
LINE
  8
0
 10
3.38751
 20
28.8557
 11
3.31807
 21
28.6597
  0
LINE
  8
0
 10
3.31807
 20
28.6597
 11
3.27641
 21
28.4557
  0
LINE
  8
0
 10
3.27641
 20
28.4557
 11
3.26251
 21
28.2437
  0
LINE
  8
0
 10
3.26251
 20
28.2437
 11
3.26251
 21
25.7498
  0
LINE
  8
0
 10
3.26251
 20
25.7498
 11
3.24486
 21
25.6092
  0
LINE
  8
0
 10
3.24486
 20
25.6092
 11
3.19185
 21
25.4835
  0
LINE
  8
0
 10
3.19185
 20
25.4835
 11
3.10352
 21
25.3728
  0
LINE
  8
0
 10
3.10352
 20
25.3728
 11
2.9904
 21
25.2872
  0
LINE
  8
0
 10
2.9904
 20
25.2872
 11
2.86308
 21
25.2359
  0
LINE
  8
0
 10
2.86308
 20
25.2359
 11
2.72153
 21
25.2187
  0
LINE
  8
0
 10
2.72153
 20
25.2187
 11
2.57663
 21
25.236
  0
LINE
  8
0
 10
2.57663
 20
25.236
 11
2.4473
 21
25.2876
  0
LINE
  8
0
 10
2.4473
 20
25.2876
 11
2.33353
 21
25.3738
  0
LINE
  8
0
 10
2.33353
 20
25.3738
 11
2.24519
 21
25.4848
  0
LINE
  8
0
 10
2.24519
 20
25.4848
 11
2.19218
 21
25.6111
  0
LINE
  8
0
 10
2.19218
 20
25.6111
 11
2.17451
 21
25.7528
  0
LINE
  8
0
 10
8.14424
 20
28.0667
 11
8.23792
 21
28.815
  0
LINE
  8
0
 10
8.23792
 20
28.815
 11
8.51891
 21
29.4863
  0
LINE
  8
0
 10
8.51891
 20
29.4863
 11
8.98724
 21
30.0807
  0
LINE
  8
0
 10
8.98724
 20
30.0807
 11
9.58868
 21
30.5441
  0
LINE
  8
0
 10
9.58868
 20
30.5441
 11
10.2677
 21
30.8221
  0
LINE
  8
0
 10
10.2677
 20
30.8221
 11
11.0242
 21
30.9147
  0
LINE
  8
0
 10
11.0242
 20
30.9147
 11
11.7764
 21
30.8221
  0
LINE
  8
0
 10
11.7764
 20
30.8221
 11
12.4554
 21
30.5441
  0
LINE
  8
0
 10
12.4554
 20
30.5441
 11
13.0612
 21
30.0807
  0
LINE
  8
0
 10
13.0612
 20
30.0807
 11
13.5296
 21
29.4863
  0
LINE
  8
0
 10
13.5296
 20
29.4863
 11
13.8106
 21
28.815
  0
LINE
  8
0
 10
13.8106
 20
28.815
 11
13.9043
 21
28.0667
  0
LINE
  8
0
 10
13.9043
 20
28.0667
 11
13.9043
 21
25.7478
  0
LINE
  8
0
 10
13.9043
 20
25.7478
 11
13.8866
 21
25.6089
  0
LINE
  8
0
 10
13.8866
 20
25.6089
 11
13.8336
 21
25.4842
  0
LINE
  8
0
 10
13.8336
 20
25.4842
 11
13.7452
 21
25.3738
  0
LINE
  8
0
 10
13.7452
 20
25.3738
 11
13.6321
 21
25.2876
  0
LINE
  8
0
 10
13.6321
 20
25.2876
 11
13.5048
 21
25.236
  0
LINE
  8
0
 10
13.5048
 20
25.236
 11
13.3633
 21
25.2187
  0
LINE
  8
0
 10
13.3633
 20
25.2187
 11
13.2184
 21
25.2364
  0
LINE
  8
0
 10
13.2184
 20
25.2364
 11
13.089
 21
25.2894
  0
LINE
  8
0
 10
13.089
 20
25.2894
 11
12.9753
 21
25.3778
  0
LINE
  8
0
 10
12.9753
 20
25.3778
 11
12.8869
 21
25.491
  0
LINE
  8
0
 10
12.8869
 20
25.491
 11
12.8339
 21
25.6187
  0
LINE
  8
0
 10
12.8339
 20
25.6187
 11
12.8163
 21
25.7608
  0
LINE
  8
0
 10
12.8163
 20
25.7608
 11
12.8292
 21
25.8648
  0
LINE
  8
0
 10
12.8292
 20
25.8648
 11
12.5645
 21
25.6723
  0
LINE
  8
0
 10
12.5645
 20
25.6723
 11
12.2848
 21
25.5123
  0
LINE
  8
0
 10
12.2848
 20
25.5123
 11
11.9902
 21
25.3848
  0
LINE
  8
0
 10
11.9902
 20
25.3848
 11
11.682
 21
25.2925
  0
LINE
  8
0
 10
11.682
 20
25.2925
 11
11.36
 21
25.2372
  0
LINE
  8
0
 10
11.36
 20
25.2372
 11
11.0242
 21
25.2187
  0
LINE
  8
0
 10
11.0242
 20
25.2187
 11
10.2677
 21
25.3114
  0
LINE
  8
0
 10
10.2677
 20
25.3114
 11
9.58868
 21
25.5894
  0
LINE
  8
0
 10
9.58868
 20
25.5894
 11
8.98724
 21
26.0528
  0
LINE
  8
0
 10
8.98724
 20
26.0528
 11
8.51891
 21
26.6472
  0
LINE
  8
0
 10
8.51891
 20
26.6472
 11
8.23792
 21
27.3185
  0
LINE
  8
0
 10
8.23792
 20
27.3185
 11
8.14424
 21
28.0667
  0
LINE
  8
0
 10
14.5114
 20
27.8738
 11
14.5114
 21
30.3857
  0
LINE
  8
0
 10
14.5114
 20
30.3857
 11
14.5291
 21
30.5246
  0
LINE
  8
0
 10
14.5291
 20
30.5246
 11
14.5821
 21
30.6493
  0
LINE
  8
0
 10
14.5821
 20
30.6493
 11
14.6704
 21
30.7597
  0
LINE
  8
0
 10
14.6704
 20
30.7597
 11
14.7842
 21
30.8459
  0
LINE
  8
0
 10
14.7842
 20
30.8459
 11
14.9135
 21
30.8975
  0
LINE
  8
0
 10
14.9135
 20
30.8975
 11
15.0584
 21
30.9147
  0
LINE
  8
0
 10
15.0584
 20
30.9147
 11
15.2
 21
30.8975
  0
LINE
  8
0
 10
15.2
 20
30.8975
 11
15.3273
 21
30.8459
  0
LINE
  8
0
 10
15.3273
 20
30.8459
 11
15.4404
 21
30.7597
  0
LINE
  8
0
 10
15.4404
 20
30.7597
 11
15.5288
 21
30.6501
  0
LINE
  8
0
 10
15.5288
 20
30.6501
 11
15.5818
 21
30.5264
  0
LINE
  8
0
 10
15.5818
 20
30.5264
 11
15.5994
 21
30.3887
  0
LINE
  8
0
 10
15.5994
 20
30.3887
 11
15.5994
 21
27.8898
  0
LINE
  8
0
 10
15.5994
 20
27.8898
 11
15.6133
 21
27.675
  0
LINE
  8
0
 10
15.6133
 20
27.675
 11
15.655
 21
27.4693
  0
LINE
  8
0
 10
15.655
 20
27.4693
 11
15.7244
 21
27.2728
  0
LINE
  8
0
 10
15.7244
 20
27.2728
 11
15.818
 21
27.0889
  0
LINE
  8
0
 10
15.818
 20
27.0889
 11
15.932
 21
26.9212
  0
LINE
  8
0
 10
15.932
 20
26.9212
 11
16.0664
 21
26.7698
  0
LINE
  8
0
 10
16.0664
 20
26.7698
 11
16.2199
 21
26.6365
  0
LINE
  8
0
 10
16.2199
 20
26.6365
 11
16.3895
 21
26.5235
  0
LINE
  8
0
 10
16.3895
 20
26.5235
 11
16.5754
 21
26.4308
  0
LINE
  8
0
 10
16.5754
 20
26.4308
 11
16.7746
 21
26.3619
  0
LINE
  8
0
 10
16.7746
 20
26.3619
 11
16.9825
 21
26.3205
  0
LINE
  8
0
 10
16.9825
 20
26.3205
 11
17.1994
 21
26.3068
  0
LINE
  8
0
 10
17.1994
 20
26.3068
 11
17.4134
 21
26.3205
  0
LINE
  8
0
 10
17.4134
 20
26.3205
 11
17.6194
 21
26.3619
  0
LINE
  8
0
 10
17.6194
 20
26.3619
 11
17.8174
 21
26.4308
  0
LINE
  8
0
 10
17.8174
 20
26.4308
 11
18.0041
 21
26.5238
  0
LINE
  8
0
 10
18.0041
 20
26.5238
 11
18.1748
 21
26.6374
  0
LINE
  8
0
 10
18.1748
 20
26.6374
 11
18.3294
 21
26.7718
  0
LINE
  8
0
 10
18.3294
 20
26.7718
 11
18.4655
 21
26.9245
  0
LINE
  8
0
 10
18.4655
 20
26.9245
 11
18.5806
 21
27.0922
  0
LINE
  8
0
 10
18.5806
 20
27.0922
 11
18.6744
 21
27.2748
  0
LINE
  8
0
 10
18.6744
 20
27.2748
 11
18.7439
 21
27.4702
  0
LINE
  8
0
 10
18.7439
 20
27.4702
 11
18.7855
 21
27.6752
  0
LINE
  8
0
 10
18.7855
 20
27.6752
 11
18.7994
 21
27.8898
  0
LINE
  8
0
 10
18.7994
 20
27.8898
 11
18.7994
 21
30.3887
  0
LINE
  8
0
 10
18.7994
 20
30.3887
 11
18.8171
 21
30.5264
  0
LINE
  8
0
 10
18.8171
 20
30.5264
 11
18.8701
 21
30.6501
  0
LINE
  8
0
 10
18.8701
 20
30.6501
 11
18.9584
 21
30.7597
  0
LINE
  8
0
 10
18.9584
 20
30.7597
 11
19.0722
 21
30.8459
  0
LINE
  8
0
 10
19.0722
 20
30.8459
 11
19.2015
 21
30.8975
  0
LINE
  8
0
 10
19.2015
 20
30.8975
 11
19.3464
 21
30.9147
  0
LINE
  8
0
 10
19.3464
 20
30.9147
 11
19.488
 21
30.8975
  0
LINE
  8
0
 10
19.488
 20
30.8975
 11
19.6153
 21
30.8459
  0
LINE
  8
0
 10
19.6153
 20
30.8459
 11
19.7284
 21
30.7597
  0
LINE
  8
0
 10
19.7284
 20
30.7597
 11
19.8168
 21
30.6493
  0
LINE
  8
0
 10
19.8168
 20
30.6493
 11
19.8698
 21
30.5246
  0
LINE
  8
0
 10
19.8698
 20
30.5246
 11
19.8874
 21
30.3857
  0
LINE
  8
0
 10
19.8874
 20
30.3857
 11
19.8874
 21
25.7478
  0
LINE
  8
0
 10
19.8874
 20
25.7478
 11
19.8698
 21
25.6089
  0
LINE
  8
0
 10
19.8698
 20
25.6089
 11
19.8168
 21
25.4842
  0
LINE
  8
0
 10
19.8168
 20
25.4842
 11
19.7284
 21
25.3738
  0
LINE
  8
0
 10
19.7284
 20
25.3738
 11
19.6147
 21
25.2876
  0
LINE
  8
0
 10
19.6147
 20
25.2876
 11
19.4853
 21
25.236
  0
LINE
  8
0
 10
19.4853
 20
25.236
 11
19.3404
 21
25.2187
  0
LINE
  8
0
 10
19.3404
 20
25.2187
 11
19.1936
 21
25.2361
  0
LINE
  8
0
 10
19.1936
 20
25.2361
 11
19.0653
 21
25.2881
  0
LINE
  8
0
 10
19.0653
 20
25.2881
 11
18.9554
 21
25.3748
  0
LINE
  8
0
 10
18.9554
 20
25.3748
 11
18.871
 21
25.4863
  0
LINE
  8
0
 10
18.871
 20
25.4863
 11
18.819
 21
25.613
  0
LINE
  8
0
 10
18.819
 20
25.613
 11
18.7994
 21
25.7548
  0
LINE
  8
0
 10
18.7994
 20
25.7548
 11
18.5588
 21
25.5844
  0
LINE
  8
0
 10
18.5588
 20
25.5844
 11
18.3088
 21
25.4481
  0
LINE
  8
0
 10
18.3088
 20
25.4481
 11
18.0494
 21
25.3458
  0
LINE
  8
0
 10
18.0494
 20
25.3458
 11
17.7787
 21
25.2752
  0
LINE
  8
0
 10
17.7787
 20
25.2752
 11
17.493
 21
25.2329
  0
LINE
  8
0
 10
17.493
 20
25.2329
 11
17.1924
 21
25.2187
  0
LINE
  8
0
 10
17.1924
 20
25.2187
 11
16.8327
 21
25.2422
  0
LINE
  8
0
 10
16.8327
 20
25.2422
 11
16.4866
 21
25.3125
  0
LINE
  8
0
 10
16.4866
 20
25.3125
 11
16.1544
 21
25.4298
  0
LINE
  8
0
 10
16.1544
 20
25.4298
 11
15.8428
 21
25.5871
  0
LINE
  8
0
 10
15.8428
 20
25.5871
 11
15.5584
 21
25.7778
  0
LINE
  8
0
 10
15.5584
 20
25.7778
 11
15.3014
 21
26.0018
  0
LINE
  8
0
 10
15.3014
 20
26.0018
 11
15.0755
 21
26.256
  0
LINE
  8
0
 10
15.0755
 20
26.256
 11
14.8832
 21
26.5373
  0
LINE
  8
0
 10
14.8832
 20
26.5373
 11
14.7244
 21
26.8458
  0
LINE
  8
0
 10
14.7244
 20
26.8458
 11
14.6061
 21
27.1751
  0
LINE
  8
0
 10
14.6061
 20
27.1751
 11
14.5351
 21
27.5178
  0
LINE
  8
0
 10
14.5351
 20
27.5178
 11
14.5114
 21
27.8738
  0
LINE
  8
0
 10
20.4812
 20
25.7478
 11
20.4812
 21
30.3857
  0
LINE
  8
0
 10
20.4812
 20
30.3857
 11
20.4988
 21
30.5246
  0
LINE
  8
0
 10
20.4988
 20
30.5246
 11
20.5518
 21
30.6493
  0
LINE
  8
0
 10
20.5518
 20
30.6493
 11
20.6402
 21
30.7597
  0
LINE
  8
0
 10
20.6402
 20
30.7597
 11
20.7539
 21
30.8459
  0
LINE
  8
0
 10
20.7539
 20
30.8459
 11
20.8833
 21
30.8975
  0
LINE
  8
0
 10
20.8833
 20
30.8975
 11
21.0282
 21
30.9147
  0
LINE
  8
0
 10
21.0282
 20
30.9147
 11
21.1697
 21
30.8971
  0
LINE
  8
0
 10
21.1697
 20
30.8971
 11
21.297
 21
30.8441
  0
LINE
  8
0
 10
21.297
 20
30.8441
 11
21.4102
 21
30.7557
  0
LINE
  8
0
 10
21.4102
 20
30.7557
 11
21.4985
 21
30.6425
  0
LINE
  8
0
 10
21.4985
 20
30.6425
 11
21.5515
 21
30.5148
  0
LINE
  8
0
 10
21.5515
 20
30.5148
 11
21.5692
 21
30.3727
  0
LINE
  8
0
 10
21.5692
 20
30.3727
 11
21.5692
 21
30.2687
  0
LINE
  8
0
 10
21.5692
 20
30.2687
 11
21.8312
 21
30.4611
  0
LINE
  8
0
 10
21.8312
 20
30.4611
 11
22.1078
 21
30.6207
  0
LINE
  8
0
 10
22.1078
 20
30.6207
 11
22.3992
 21
30.7477
  0
LINE
  8
0
 10
22.3992
 20
30.7477
 11
22.7047
 21
30.8405
  0
LINE
  8
0
 10
22.7047
 20
30.8405
 11
23.024
 21
30.8962
  0
LINE
  8
0
 10
23.024
 20
30.8962
 11
23.3572
 21
30.9147
  0
LINE
  8
0
 10
23.3572
 20
30.9147
 11
23.5102
 21
30.9112
  0
LINE
  8
0
 10
23.5102
 20
30.9112
 11
23.6705
 21
30.9005
  0
LINE
  8
0
 10
23.6705
 20
30.9005
 11
23.8382
 21
30.8827
  0
LINE
  8
0
 10
23.8382
 20
30.8827
 11
24.0049
 21
30.8565
  0
LINE
  8
0
 10
24.0049
 20
30.8565
 11
24.1626
 21
30.8192
  0
LINE
  8
0
 10
24.1626
 20
30.8192
 11
24.3112
 21
30.7707
  0
LINE
  8
0
 10
24.3112
 20
30.7707
 11
24.4475
 21
30.7101
  0
LINE
  8
0
 10
24.4475
 20
30.7101
 11
24.5672
 21
30.6361
  0
LINE
  8
0
 10
24.5672
 20
30.6361
 11
24.6702
 21
30.5487
  0
LINE
  8
0
 10
24.6702
 20
30.5487
 11
24.7496
 21
30.4455
  0
LINE
  8
0
 10
24.7496
 20
30.4455
 11
24.7973
 21
30.3239
  0
LINE
  8
0
 10
24.7973
 20
30.3239
 11
24.8132
 21
30.1837
  0
LINE
  8
0
 10
24.8132
 20
30.1837
 11
24.8084
 21
30.1087
  0
LINE
  8
0
 10
24.8084
 20
30.1087
 11
24.7941
 21
30.0371
  0
LINE
  8
0
 10
24.7941
 20
30.0371
 11
24.7702
 21
29.9687
  0
LINE
  8
0
 10
24.7702
 20
29.9687
 11
24.7383
 21
29.9053
  0
LINE
  8
0
 10
24.7383
 20
29.9053
 11
24.6999
 21
29.847
  0
LINE
  8
0
 10
24.6999
 20
29.847
 11
24.6552
 21
29.7937
  0
LINE
  8
0
 10
24.6552
 20
29.7937
 11
24.6049
 21
29.7474
  0
LINE
  8
0
 10
24.6049
 20
29.7474
 11
24.5489
 21
29.7084
  0
LINE
  8
0
 10
24.5489
 20
29.7084
 11
24.4872
 21
29.6767
  0
LINE
  8
0
 10
24.4872
 20
29.6767
 11
24.4214
 21
29.6534
  0
LINE
  8
0
 10
24.4214
 20
29.6534
 11
24.3521
 21
29.6394
  0
LINE
  8
0
 10
24.3521
 20
29.6394
 11
24.2792
 21
29.6347
  0
LINE
  8
0
 10
24.2792
 20
29.6347
 11
24.211
 21
29.6413
  0
LINE
  8
0
 10
24.211
 20
29.6413
 11
24.136
 21
29.661
  0
LINE
  8
0
 10
24.136
 20
29.661
 11
24.0542
 21
29.6937
  0
LINE
  8
0
 10
24.0542
 20
29.6937
 11
23.8345
 21
29.7676
  0
LINE
  8
0
 10
23.8345
 20
29.7676
 11
23.6022
 21
29.812
  0
LINE
  8
0
 10
23.6022
 20
29.812
 11
23.3572
 21
29.8267
  0
LINE
  8
0
 10
23.3572
 20
29.8267
 11
23.1143
 21
29.8113
  0
LINE
  8
0
 10
23.1143
 20
29.8113
 11
22.8816
 21
29.765
  0
LINE
  8
0
 10
22.8816
 20
29.765
 11
22.6592
 21
29.6877
  0
LINE
  8
0
 10
22.6592
 20
29.6877
 11
22.4512
 21
29.5837
  0
LINE
  8
0
 10
22.4512
 20
29.5837
 11
22.2618
 21
29.4571
  0
LINE
  8
0
 10
22.2618
 20
29.4571
 11
22.0912
 21
29.3077
  0
LINE
  8
0
 10
22.0912
 20
29.3077
 11
21.9412
 21
29.1384
  0
LINE
  8
0
 10
21.9412
 20
29.1384
 11
21.8138
 21
28.9504
  0
LINE
  8
0
 10
21.8138
 20
28.9504
 11
21.7092
 21
28.7437
  0
LINE
  8
0
 10
21.7092
 20
28.7437
 11
21.6314
 21
28.5233
  0
LINE
  8
0
 10
21.6314
 20
28.5233
 11
21.5847
 21
28.2926
  0
LINE
  8
0
 10
21.5847
 20
28.2926
 11
21.5692
 21
28.0517
  0
LINE
  8
0
 10
21.5692
 20
28.0517
 11
21.5692
 21
25.7448
  0
LINE
  8
0
 10
21.5692
 20
25.7448
 11
21.5515
 21
25.607
  0
LINE
  8
0
 10
21.5515
 20
25.607
 11
21.4985
 21
25.483
  0
LINE
  8
0
 10
21.4985
 20
25.483
 11
21.4102
 21
25.3728
  0
LINE
  8
0
 10
21.4102
 20
25.3728
 11
21.297
 21
25.2872
  0
LINE
  8
0
 10
21.297
 20
25.2872
 11
21.1697
 21
25.2359
  0
LINE
  8
0
 10
21.1697
 20
25.2359
 11
21.0282
 21
25.2187
  0
LINE
  8
0
 10
21.0282
 20
25.2187
 11
20.8833
 21
25.236
  0
LINE
  8
0
 10
20.8833
 20
25.236
 11
20.7539
 21
25.2876
  0
LINE
  8
0
 10
20.7539
 20
25.2876
 11
20.6402
 21
25.3738
  0
LINE
  8
0
 10
20.6402
 20
25.3738
 11
20.5518
 21
25.4842
  0
LINE
  8
0
 10
20.5518
 20
25.4842
 11
20.4988
 21
25.6089
  0
LINE
  8
0
 10
20.4988
 20
25.6089
 11
20.4812
 21
25.7478
  0
LINE
  8
0
 10
25.2565
 20
28.0667
 11
25.3502
 21
28.815
  0
LINE
  8
0
 10
25.3502
 20
28.815
 11
25.6312
 21
29.4863
  0
LINE
  8
0
 10
25.6312
 20
29.4863
 11
26.0995
 21
30.0807
  0
LINE
  8
0
 10
26.0995
 20
30.0807
 11
26.701
 21
30.5441
  0
LINE
  8
0
 10
26.701
 20
30.5441
 11
27.38
 21
30.8221
  0
LINE
  8
0
 10
27.38
 20
30.8221
 11
28.1366
 21
30.9147
  0
LINE
  8
0
 10
28.1366
 20
30.9147
 11
28.8887
 21
30.8221
  0
LINE
  8
0
 10
28.8887
 20
30.8221
 11
29.5677
 21
30.5441
  0
LINE
  8
0
 10
29.5677
 20
30.5441
 11
30.1736
 21
30.0807
  0
LINE
  8
0
 10
30.1736
 20
30.0807
 11
30.6419
 21
29.4863
  0
LINE
  8
0
 10
30.6419
 20
29.4863
 11
30.9229
 21
28.815
  0
LINE
  8
0
 10
30.9229
 20
28.815
 11
31.0166
 21
28.0667
  0
LINE
  8
0
 10
31.0166
 20
28.0667
 11
31.0166
 21
25.7478
  0
LINE
  8
0
 10
31.0166
 20
25.7478
 11
30.9989
 21
25.6089
  0
LINE
  8
0
 10
30.9989
 20
25.6089
 11
30.9459
 21
25.4842
  0
LINE
  8
0
 10
30.9459
 20
25.4842
 11
30.8575
 21
25.3738
  0
LINE
  8
0
 10
30.8575
 20
25.3738
 11
30.7444
 21
25.2876
  0
LINE
  8
0
 10
30.7444
 20
25.2876
 11
30.6171
 21
25.236
  0
LINE
  8
0
 10
30.6171
 20
25.236
 11
30.4756
 21
25.2187
  0
LINE
  8
0
 10
30.4756
 20
25.2187
 11
30.3307
 21
25.2364
  0
LINE
  8
0
 10
30.3307
 20
25.2364
 11
30.2013
 21
25.2894
  0
LINE
  8
0
 10
30.2013
 20
25.2894
 11
30.0876
 21
25.3778
  0
LINE
  8
0
 10
30.0876
 20
25.3778
 11
29.9992
 21
25.491
  0
LINE
  8
0
 10
29.9992
 20
25.491
 11
29.9462
 21
25.6187
  0
LINE
  8
0
 10
29.9462
 20
25.6187
 11
29.9286
 21
25.7608
  0
LINE
  8
0
 10
29.9286
 20
25.7608
 11
29.9415
 21
25.8648
  0
LINE
  8
0
 10
29.9415
 20
25.8648
 11
29.6768
 21
25.6723
  0
LINE
  8
0
 10
29.6768
 20
25.6723
 11
29.3971
 21
25.5123
  0
LINE
  8
0
 10
29.3971
 20
25.5123
 11
29.1026
 21
25.3848
  0
LINE
  8
0
 10
29.1026
 20
25.3848
 11
28.7943
 21
25.2925
  0
LINE
  8
0
 10
28.7943
 20
25.2925
 11
28.4723
 21
25.2372
  0
LINE
  8
0
 10
28.4723
 20
25.2372
 11
28.1366
 21
25.2187
  0
LINE
  8
0
 10
28.1366
 20
25.2187
 11
27.38
 21
25.3114
  0
LINE
  8
0
 10
27.38
 20
25.3114
 11
26.701
 21
25.5894
  0
LINE
  8
0
 10
26.701
 20
25.5894
 11
26.0995
 21
26.0528
  0
LINE
  8
0
 10
26.0995
 20
26.0528
 11
25.6312
 21
26.6472
  0
LINE
  8
0
 10
25.6312
 20
26.6472
 11
25.3502
 21
27.3185
  0
LINE
  8
0
 10
25.3502
 20
27.3185
 11
25.2565
 21
28.0667
  0
LINE
  8
0
 10
31.5597
 20
25.7468
 11
31.5597
 21
32.8137
  0
LINE
  8
0
 10
31.5597
 20
32.8137
 11
31.5768
 21
32.9548
  0
LINE
  8
0
 10
31.5768
 20
32.9548
 11
31.6282
 21
33.0809
  0
LINE
  8
0
 10
31.6282
 20
33.0809
 11
31.7137
 21
33.1917
  0
LINE
  8
0
 10
31.7137
 20
33.1917
 11
31.826
 21
33.2778
  0
LINE
  8
0
 10
31.826
 20
33.2778
 11
31.956
 21
33.3295
  0
LINE
  8
0
 10
31.956
 20
33.3295
 11
32.1037
 21
33.3467
  0
LINE
  8
0
 10
32.1037
 20
33.3467
 11
32.2514
 21
33.3295
  0
LINE
  8
0
 10
32.2514
 20
33.3295
 11
32.3811
 21
33.2778
  0
LINE
  8
0
 10
32.3811
 20
33.2778
 11
32.4927
 21
33.1917
  0
LINE
  8
0
 10
32.4927
 20
33.1917
 11
32.5788
 21
33.0815
  0
LINE
  8
0
 10
32.5788
 20
33.0815
 11
32.6305
 21
32.9562
  0
LINE
  8
0
 10
32.6305
 20
32.9562
 11
32.6477
 21
32.8157
  0
LINE
  8
0
 10
32.6477
 20
32.8157
 11
32.6477
 21
26.3068
  0
LINE
  8
0
 10
32.6477
 20
26.3068
 11
32.8907
 21
26.3068
  0
LINE
  8
0
 10
32.8907
 20
26.3068
 11
33.0284
 21
26.2891
  0
LINE
  8
0
 10
33.0284
 20
26.2891
 11
33.1521
 21
26.2361
  0
LINE
  8
0
 10
33.1521
 20
26.2361
 11
33.2617
 21
26.1478
  0
LINE
  8
0
 10
33.2617
 20
26.1478
 11
33.3473
 21
26.034
  0
LINE
  8
0
 10
33.3473
 20
26.034
 11
33.3986
 21
25.9046
  0
LINE
  8
0
 10
33.3986
 20
25.9046
 11
33.4157
 21
25.7598
  0
LINE
  8
0
 10
33.4157
 20
25.7598
 11
33.3983
 21
25.6182
  0
LINE
  8
0
 10
33.3983
 20
25.6182
 11
33.346
 21
25.4909
  0
LINE
  8
0
 10
33.346
 20
25.4909
 11
33.2587
 21
25.3778
  0
LINE
  8
0
 10
33.2587
 20
25.3778
 11
33.1469
 21
25.2894
  0
LINE
  8
0
 10
33.1469
 20
25.2894
 11
33.0205
 21
25.2364
  0
LINE
  8
0
 10
33.0205
 20
25.2364
 11
32.8797
 21
25.2187
  0
LINE
  8
0
 10
32.8797
 20
25.2187
 11
32.0907
 21
25.2187
  0
LINE
  8
0
 10
32.0907
 20
25.2187
 11
31.9502
 21
25.236
  0
LINE
  8
0
 10
31.9502
 20
25.236
 11
31.8245
 21
25.2876
  0
LINE
  8
0
 10
31.8245
 20
25.2876
 11
31.7137
 21
25.3738
  0
LINE
  8
0
 10
31.7137
 20
25.3738
 11
31.6282
 21
25.4841
  0
LINE
  8
0
 10
31.6282
 20
25.4841
 11
31.5768
 21
25.6084
  0
LINE
  8
0
 10
31.5768
 20
25.6084
 11
31.5597
 21
25.7468
  0
LINE
  8
0
 10
-38
 20
-87
 11
-14.5
 21
-87
  0
LINE
  8
0
 10
-14.5
 20
-87
 11
-14.5
 21
-84
  0
LINE
  8
0
 10
-14.5
 20
-84
 11
0.5
 21
-84
  0
LINE
  8
0
 10
0.5
 20
-84
 11
0.5
 21
-87
  0
LINE
  8
0
 10
0.5
 20
-87
 11
10
 21
-87
  0
LINE
  8
0
 10
10
 20
-87
 11
10.6972
 21
-86.9696
  0
LINE
  8
0
 10
10.6972
 20
-86.9696
 11
11.3892
 21
-86.8785
  0
LINE
  8
0
 10
11.3892
 20
-86.8785
 11
12.0706
 21
-86.7274
  0
LINE
  8
0
 10
12.0706
 20
-86.7274
 11
12.7362
 21
-86.5175
  0
LINE
  8
0
 10
12.7362
 20
-86.5175
 11
13.3809
 21
-86.2505
  0
LINE
  8
0
 10
13.3809
 20
-86.2505
 11
14
 21
-85.9282
  0
LINE
  8
0
 10
14
 20
-85.9282
 11
14.5886
 21
-85.5532
  0
LINE
  8
0
 10
14.5886
 20
-85.5532
 11
15.1423
 21
-85.1284
  0
LINE
  8
0
 10
15.1423
 20
-85.1284
 11
15.6569
 21
-84.6569
  0
LINE
  8
0
 10
15.6569
 20
-84.6569
 11
16.1284
 21
-84.1423
  0
LINE
  8
0
 10
16.1284
 20
-84.1423
 11
16.5532
 21
-83.5886
  0
LINE
  8
0
 10
16.5532
 20
-83.5886
 11
16.9282
 21
-83
  0
LINE
  8
0
 10
16.9282
 20
-83
 11
17.2505
 21
-82.3809
  0
LINE
  8
0
 10
17.2505
 20
-82.3809
 11
17.5175
 21
-81.7362
  0
LINE
  8
0
 10
17.5175
 20
-81.7362
 11
17.7274
 21
-81.0706
  0
LINE
  8
0
 10
17.7274
 20
-81.0706
 11
17.8785
 21
-80.3892
  0
LINE
  8
0
 10
17.8785
 20
-80.3892
 11
17.9696
 21
-79.6972
  0
LINE
  8
0
 10
17.9696
 20
-79.6972
 11
18
 21
-79
  0
LINE
  8
0
 10
18
 20
-79
 11
17.9696
 21
-78.3028
  0
LINE
  8
0
 10
17.9696
 20
-78.3028
 11
17.8785
 21
-77.6108
  0
LINE
  8
0
 10
17.8785
 20
-77.6108
 11
17.7274
 21
-76.9294
  0
LINE
  8
0
 10
17.7274
 20
-76.9294
 11
17.5175
 21
-76.2638
  0
LINE
  8
0
 10
17.5175
 20
-76.2638
 11
17.2505
 21
-75.6191
  0
LINE
  8
0
 10
17.2505
 20
-75.6191
 11
16.9282
 21
-75
  0
LINE
  8
0
 10
16.9282
 20
-75
 11
16.5532
 21
-74.4114
  0
LINE
  8
0
 10
16.5532
 20
-74.4114
 11
16.1284
 21
-73.8577
  0
LINE
  8
0
 10
16.1284
 20
-73.8577
 11
15.6569
 21
-73.3431
  0
LINE
  8
0
 10
15.6569
 20
-73.3431
 11
15.1423
 21
-72.8716
  0
LINE
  8
0
 10
15.1423
 20
-72.8716
 11
14.5886
 21
-72.4468
  0
LINE
  8
0
 10
14.5886
 20
-72.4468
 11
14
 21
-72.0718
  0
LINE
  8
0
 10
14
 20
-72.0718
 11
13.3809
 21
-71.7495
  0
LINE
  8
0
 10
13.3809
 20
-71.7495
 11
12.7362
 21
-71.4825
  0
LINE
  8
0
 10
12.7362
 20
-71.4825
 11
12.0706
 21
-71.2726
  0
LINE
  8
0
 10
12.0706
 20
-71.2726
 11
11.3892
 21
-71.1215
  0
LINE
  8
0
 10
11.3892
 20
-71.1215
 11
10.6972
 21
-71.0304
  0
LINE
  8
0
 10
10.6972
 20
-71.0304
 11
10
 21
-71
  0
LINE
  8
0
 10
10
 20
-71
 11
-22
 21
-71
  0
LINE
  8
0
 10
-22
 20
-71
 11
-22
 21
-39
  0
LINE
  8
0
 10
-22
 20
-39
 11
-22.0304
 21
-38.3028
  0
LINE
  8
0
 10
-22.0304
 20
-38.3028
 11
-22.1215
 21
-37.6108
  0
LINE
  8
0
 10
-22.1215
 20
-37.6108
 11
-22.2726
 21
-36.9294
  0
LINE
  8
0
 10
-22.2726
 20
-36.9294
 11
-22.4825
 21
-36.2638
  0
LINE
  8
0
 10
-22.4825
 20
-36.2638
 11
-22.7495
 21
-35.6191
  0
LINE
  8
0
 10
-22.7495
 20
-35.6191
 11
-23.0718
 21
-35
  0
LINE
  8
0
 10
-23.0718
 20
-35
 11
-23.4468
 21
-34.4114
  0
LINE
  8
0
 10
-23.4468
 20
-34.4114
 11
-23.8716
 21
-33.8577
  0
LINE
  8
0
 10
-23.8716
 20
-33.8577
 11
-24.3431
 21
-33.3431
  0
LINE
  8
0
 10
-24.3431
 20
-33.3431
 11
-24.8577
 21
-32.8716
  0
LINE
  8
0
 10
-24.8577
 20
-32.8716
 11
-25.4114
 21
-32.4468
  0
LINE
  8
0
 10
-25.4114
 20
-32.4468
 11
-26
 21
-32.0718
  0
LINE
  8
0
 10
-26
 20
-32.0718
 11
-26.6191
 21
-31.7495
  0
LINE
  8
0
 10
-26.6191
 20
-31.7495
 11
-27.2638
 21
-31.4825
  0
LINE
  8
0
 10
-27.2638
 20
-31.4825
 11
-27.9294
 21
-31.2726
  0
LINE
  8
0
 10
-27.9294
 20
-31.2726
 11
-28.6108
 21
-31.1215
  0
LINE
  8
0
 10
-28.6108
 20
-31.1215
 11
-29.3028
 21
-31.0304
  0
LINE
  8
0
 10
-29.3028
 20
-31.0304
 11
-30
 21
-31
  0
LINE
  8
0
 10
-30
 20
-31
 11
-30.6972
 21
-31.0304
  0
LINE
  8
0
 10
-30.6972
 20
-31.0304
 11
-31.3892
 21
-31.1215
  0
LINE
  8
0
 10
-31.3892
 20
-31.1215
 11
-32.0706
 21
-31.2726
  0
LINE
  8
0
 10
-32.0706
 20
-31.2726
 11
-32.7362
 21
-31.4825
  0
LINE
  8
0
 10
-32.7362
 20
-31.4825
 11
-33.3809
 21
-31.7495
  0
LINE
  8
0
 10
-33.3809
 20
-31.7495
 11
-34
 21
-32.0718
  0
LINE
  8
0
 10
-34
 20
-32.0718
 11
-34.5886
 21
-32.4468
  0
LINE
  8
0
 10
-34.5886
 20
-32.4468
 11
-35.1423
 21
-32.8716
  0
LINE
  8
0
 10
-35.1423
 20
-32.8716
 11
-35.6569
 21
-33.3431
  0
LINE
  8
0
 10
-35.6569
 20
-33.3431
 11
-36.1284
 21
-33.8577
  0
LINE
  8
0
 10
-36.1284
 20
-33.8577
 11
-36.5532
 21
-34.4114
  0
LINE
  8
0
 10
-36.5532
 20
-34.4114
 11
-36.9282
 21
-35
  0
LINE
  8
0
 10
-36.9282
 20
-35
 11
-37.2505
 21
-35.6191
  0
LINE
  8
0
 10
-37.2505
 20
-35.6191
 11
-37.5175
 21
-36.2638
  0
LINE
  8
0
 10
-37.5175
 20
-36.2638
 11
-37.7274
 21
-36.9294
  0
LINE
  8
0
 10
-37.7274
 20
-36.9294
 11
-37.8785
 21
-37.6108
  0
LINE
  8
0
 10
-37.8785
 20
-37.6108
 11
-37.9696
 21
-38.3028
  0
LINE
  8
0
 10
-37.9696
 20
-38.3028
 11
-38
 21
-39
  0
LINE
  8
0
 10
-38
 20
-39
 11
-38
 21
-51.5
  0
LINE
  8
0
 10
-38
 20
-51.5
 11
-35
 21
-51.5
  0
LINE
  8
0
 10
-35
 20
-51.5
 11
-35
 21
-66.5
  0
LINE
  8
0
 10
-35
 20
-66.5
 11
-38
 21
-66.5
  0
LINE
  8
0
 10
-38
 20
-66.5
 11
-38
 21
-87
  0
LINE
  8
0
 10
-31.4795
 20
-79.2469
 11
-31.4795
 21
-78.7531
  0
LINE
  8
0
 10
-31.4795
 20
-78.7531
 11
-31.3192
 21
-78.2861
  0
LINE
  8
0
 10
-31.3192
 20
-78.2861
 11
-31.0159
 21
-77.8964
  0
LINE
  8
0
 10
-31.0159
 20
-77.8964
 11
-30.6025
 21
-77.6263
  0
LINE
  8
0
 10
-30.6025
 20
-77.6263
 11
-30.1239
 21
-77.5051
  0
LINE
  8
0
 10
-30.1239
 20
-77.5051
 11
-29.6318
 21
-77.5459
  0
LINE
  8
0
 10
-29.6318
 20
-77.5459
 11
-29.1796
 21
-77.7442
  0
LINE
  8
0
 10
-29.1796
 20
-77.7442
 11
-28.8163
 21
-78.0787
  0
LINE
  8
0
 10
-28.8163
 20
-78.0787
 11
-28.5813
 21
-78.5129
  0
LINE
  8
0
 10
-28.5813
 20
-78.5129
 11
-28.5
 21
-79
  0
LINE
  8
0
 10
-28.5
 20
-79
 11
-28.5813
 21
-79.487
  0
LINE
  8
0
 10
-28.5813
 20
-79.487
 11
-28.8163
 21
-79.9213
  0
LINE
  8
0
 10
-28.8163
 20
-79.9213
 11
-29.1796
 21
-80.2557
  0
LINE
  8
0
 10
-29.1796
 20
-80.2557
 11
-29.6318
 21
-80.4541
  0
LINE
  8
0
 10
-29.6318
 20
-80.4541
 11
-30.1239
 21
-80.4949
  0
LINE
  8
0
 10
-30.1239
 20
-80.4949
 11
-30.6025
 21
-80.3737
  0
LINE
  8
0
 10
-30.6025
 20
-80.3737
 11
-31.0159
 21
-80.1036
  0
LINE
  8
0
 10
-31.0159
 20
-80.1036
 11
-31.3192
 21
-79.7139
  0
LINE
  8
0
 10
-31.3192
 20
-79.7139
 11
-31.4795
 21
-79.2469
  0
LINE
  8
0
 10
-31.4795
 20
-39.2469
 11
-31.4795
 21
-38.7531
  0
LINE
  8
0
 10
-31.4795
 20
-38.7531
 11
-31.3192
 21
-38.2861
  0
LINE
  8
0
 10
-31.3192
 20
-38.2861
 11
-31.0159
 21
-37.8964
  0
LINE
  8
0
 10
-31.0159
 20
-37.8964
 11
-30.6025
 21
-37.6263
  0
LINE
  8
0
 10
-30.6025
 20
-37.6263
 11
-30.1239
 21
-37.5051
  0
LINE
  8
0
 10
-30.1239
 20
-37.5051
 11
-29.6318
 21
-37.5459
  0
LINE
  8
0
 10
-29.6318
 20
-37.5459
 11
-29.1796
 21
-37.7443
  0
LINE
  8
0
 10
-29.1796
 20
-37.7443
 11
-28.8163
 21
-38.0787
  0
LINE
  8
0
 10
-28.8163
 20
-38.0787
 11
-28.5813
 21
-38.513
  0
LINE
  8
0
 10
-28.5813
 20
-38.513
 11
-28.5
 21
-39
  0
LINE
  8
0
 10
-28.5
 20
-39
 11
-28.5813
 21
-39.4871
  0
LINE
  8
0
 10
-28.5813
 20
-39.4871
 11
-28.8163
 21
-39.9213
  0
LINE
  8
0
 10
-28.8163
 20
-39.9213
 11
-29.1796
 21
-40.2558
  0
LINE
  8
0
 10
-29.1796
 20
-40.2558
 11
-29.6318
 21
-40.4541
  0
LINE
  8
0
 10
-29.6318
 20
-40.4541
 11
-30.1239
 21
-40.4949
  0
LINE
  8
0
 10
-30.1239
 20
-40.4949
 11
-30.6025
 21
-40.3737
  0
LINE
  8
0
 10
-30.6025
 20
-40.3737
 11
-31.0159
 21
-40.1036
  0
LINE
  8
0
 10
-31.0159
 20
-40.1036
 11
-31.3192
 21
-39.7139
  0
LINE
  8
0
 10
-31.3192
 20
-39.7139
 11
-31.4795
 21
-39.2469
  0
LINE
  8
0
 10
8.52046
 20
-79.2469
 11
8.52046
 21
-78.7531
  0
LINE
  8
0
 10
8.52046
 20
-78.7531
 11
8.68079
 21
-78.2861
  0
LINE
  8
0
 10
8.68079
 20
-78.2861
 11
8.98408
 21
-77.8964
  0
LINE
  8
0
 10
8.98408
 20
-77.8964
 11
9.39746
 21
-77.6263
  0
LINE
  8
0
 10
9.39746
 20
-77.6263
 11
9.87613
 21
-77.5051
  0
LINE
  8
0
 10
9.87613
 20
-77.5051
 11
10.3682
 21
-77.5459
  0
LINE
  8
0
 10
10.3682
 20
-77.5459
 11
10.8204
 21
-77.7442
  0
LINE
  8
0
 10
10.8204
 20
-77.7442
 11
11.1837
 21
-78.0787
  0
LINE
  8
0
 10
11.1837
 20
-78.0787
 11
11.4187
 21
-78.5129
  0
LINE
  8
0
 10
11.4187
 20
-78.5129
 11
11.5
 21
-79
  0
LINE
  8
0
 10
11.5
 20
-79
 11
11.4187
 21
-79.487
  0
LINE
  8
0
 10
11.4187
 20
-79.487
 11
11.1837
 21
-79.9213
  0
LINE
  8
0
 10
11.1837
 20
-79.9213
 11
10.8204
 21
-80.2557
  0
LINE
  8
0
 10
10.8204
 20
-80.2557
 11
10.3682
 21
-80.4541
  0
LINE
  8
0
 10
10.3682
 20
-80.4541
 11
9.87613
 21
-80.4949
  0
LINE
  8
0
 10
9.87613
 20
-80.4949
 11
9.39746
 21
-80.3737
  0
LINE
  8
0
 10
9.39746
 20
-80.3737
 11
8.98408
 21
-80.1036
  0
LINE
  8
0
 10
8.98408
 20
-80.1036
 11
8.68079
 21
-79.7139
  0
LINE
  8
0
 10
8.68079
 20
-79.7139
 11
8.52046
 21
-79.2469
  0
LINE
  8
0
 10
-32.1554
 20
29.2827
 11
-32.0577
 21
28.5
  0
LINE
  8
0
 10
-32.0577
 20
28.5
 11
-31.7643
 21
27.7983
  0
LINE
  8
0
 10
-31.7643
 20
27.7983
 11
-31.2754
 21
27.1778
  0
LINE
  8
0
 10
-31.2754
 20
27.1778
 11
-30.6479
 21
26.6939
  0
LINE
  8
0
 10
-30.6479
 20
26.6939
 11
-29.9385
 21
26.4035
  0
LINE
  8
0
 10
-29.9385
 20
26.4035
 11
-29.1474
 21
26.3068
  0
LINE
  8
0
 10
-29.1474
 20
26.3068
 11
-28.3563
 21
26.4035
  0
LINE
  8
0
 10
-28.3563
 20
26.4035
 11
-27.647
 21
26.6939
  0
LINE
  8
0
 10
-27.647
 20
26.6939
 11
-27.0194
 21
27.1778
  0
LINE
  8
0
 10
-27.0194
 20
27.1778
 11
-26.5305
 21
27.7983
  0
LINE
  8
0
 10
-26.5305
 20
27.7983
 11
-26.2372
 21
28.5
  0
LINE
  8
0
 10
-26.2372
 20
28.5
 11
-26.1394
 21
29.2827
  0
LINE
  8
0
 10
-26.1394
 20
29.2827
 11
-26.2372
 21
30.0627
  0
LINE
  8
0
 10
-26.2372
 20
30.0627
 11
-26.5305
 21
30.7627
  0
LINE
  8
0
 10
-26.5305
 20
30.7627
 11
-27.0194
 21
31.3827
  0
LINE
  8
0
 10
-27.0194
 20
31.3827
 11
-27.6492
 21
31.8694
  0
LINE
  8
0
 10
-27.6492
 20
31.8694
 11
-28.3586
 21
32.1614
  0
LINE
  8
0
 10
-28.3586
 20
32.1614
 11
-29.1474
 21
32.2587
  0
LINE
  8
0
 10
-29.1474
 20
32.2587
 11
-29.558
 21
32.2345
  0
LINE
  8
0
 10
-29.558
 20
32.2345
 11
-29.9443
 21
32.1618
  0
LINE
  8
0
 10
-29.9443
 20
32.1618
 11
-30.3064
 21
32.0407
  0
LINE
  8
0
 10
-30.3064
 20
32.0407
 11
-30.647
 21
31.8712
  0
LINE
  8
0
 10
-30.647
 20
31.8712
 11
-30.97
 21
31.6519
  0
LINE
  8
0
 10
-30.97
 20
31.6519
 11
-31.2754
 21
31.3827
  0
LINE
  8
0
 10
-31.2754
 20
31.3827
 11
-31.5469
 21
31.081
  0
LINE
  8
0
 10
-31.5469
 20
31.081
 11
-31.7679
 21
30.7623
  0
LINE
  8
0
 10
-31.7679
 20
30.7623
 11
-31.9384
 21
30.4267
  0
LINE
  8
0
 10
-31.9384
 20
30.4267
 11
-32.059
 21
30.0703
  0
LINE
  8
0
 10
-32.059
 20
30.0703
 11
-32.1313
 21
29.689
  0
LINE
  8
0
 10
-32.1313
 20
29.689
 11
-32.1554
 21
29.2827
  0
LINE
  8
0
 10
-23.4006
 20
28.0667
 11
-23.385
 21
27.8305
  0
LINE
  8
0
 10
-23.385
 20
27.8305
 11
-23.3383
 21
27.6032
  0
LINE
  8
0
 10
-23.3383
 20
27.6032
 11
-23.2605
 21
27.3848
  0
LINE
  8
0
 10
-23.2605
 20
27.3848
 11
-23.1555
 21
27.18
  0
LINE
  8
0
 10
-23.1555
 20
27.18
 11
-23.0285
 21
26.9937
  0
LINE
  8
0
 10
-23.0285
 20
26.9937
 11
-22.8795
 21
26.8258
  0
LINE
  8
0
 10
-22.8795
 20
26.8258
 11
-22.71
 21
26.6779
  0
LINE
  8
0
 10
-22.71
 20
26.6779
 11
-22.5213
 21
26.5515
  0
LINE
  8
0
 10
-22.5213
 20
26.5515
 11
-22.3136
 21
26.4468
  0
LINE
  8
0
 10
-22.3136
 20
26.4468
 11
-22.0899
 21
26.369
  0
LINE
  8
0
 10
-22.0899
 20
26.369
 11
-21.8549
 21
26.3223
  0
LINE
  8
0
 10
-21.8549
 20
26.3223
 11
-21.6086
 21
26.3068
  0
LINE
  8
0
 10
-21.6086
 20
26.3068
 11
-21.3651
 21
26.3223
  0
LINE
  8
0
 10
-21.3651
 20
26.3223
 11
-21.1321
 21
26.369
  0
LINE
  8
0
 10
-21.1321
 20
26.369
 11
-20.9095
 21
26.4468
  0
LINE
  8
0
 10
-20.9095
 20
26.4468
 11
-20.701
 21
26.5518
  0
LINE
  8
0
 10
-20.701
 20
26.5518
 11
-20.5113
 21
26.6788
  0
LINE
  8
0
 10
-20.5113
 20
26.6788
 11
-20.3405
 21
26.8278
  0
LINE
  8
0
 10
-20.3405
 20
26.8278
 11
-20.19
 21
26.997
  0
LINE
  8
0
 10
-20.19
 20
26.997
 11
-20.0623
 21
27.1833
  0
LINE
  8
0
 10
-20.0623
 20
27.1833
 11
-19.9576
 21
27.3868
  0
LINE
  8
0
 10
-19.9576
 20
27.3868
 11
-19.8792
 21
27.6041
  0
LINE
  8
0
 10
-19.8792
 20
27.6041
 11
-19.8322
 21
27.8308
  0
LINE
  8
0
 10
-19.8322
 20
27.8308
 11
-19.8165
 21
28.0667
  0
LINE
  8
0
 10
-19.8165
 20
28.0667
 11
-19.8322
 21
28.3026
  0
LINE
  8
0
 10
-19.8322
 20
28.3026
 11
-19.8792
 21
28.529
  0
LINE
  8
0
 10
-19.8792
 20
28.529
 11
-19.9576
 21
28.7457
  0
LINE
  8
0
 10
-19.9576
 20
28.7457
 11
-20.0623
 21
28.9496
  0
LINE
  8
0
 10
-20.0623
 20
28.9496
 11
-20.19
 21
29.136
  0
LINE
  8
0
 10
-20.19
 20
29.136
 11
-20.3405
 21
29.3047
  0
LINE
  8
0
 10
-20.3405
 20
29.3047
 11
-20.5113
 21
29.4542
  0
LINE
  8
0
 10
-20.5113
 20
29.4542
 11
-20.701
 21
29.5812
  0
LINE
  8
0
 10
-20.701
 20
29.5812
 11
-20.9095
 21
29.6857
  0
LINE
  8
0
 10
-20.9095
 20
29.6857
 11
-21.1321
 21
29.7641
  0
LINE
  8
0
 10
-21.1321
 20
29.7641
 11
-21.3651
 21
29.8111
  0
LINE
  8
0
 10
-21.3651
 20
29.8111
 11
-21.6086
 21
29.8267
  0
LINE
  8
0
 10
-21.6086
 20
29.8267
 11
-21.8549
 21
29.8111
  0
LINE
  8
0
 10
-21.8549
 20
29.8111
 11
-22.0899
 21
29.7641
  0
LINE
  8
0
 10
-22.0899
 20
29.7641
 11
-22.3136
 21
29.6857
  0
LINE
  8
0
 10
-22.3136
 20
29.6857
 11
-22.5213
 21
29.5815
  0
LINE
  8
0
 10
-22.5213
 20
29.5815
 11
-22.71
 21
29.4555
  0
LINE
  8
0
 10
-22.71
 20
29.4555
 11
-22.8795
 21
29.3077
  0
LINE
  8
0
 10
-22.8795
 20
29.3077
 11
-23.0285
 21
29.1398
  0
LINE
  8
0
 10
-23.0285
 20
29.1398
 11
-23.1555
 21
28.9535
  0
LINE
  8
0
 10
-23.1555
 20
28.9535
 11
-23.2605
 21
28.7487
  0
LINE
  8
0
 10
-23.2605
 20
28.7487
 11
-23.3383
 21
28.5303
  0
LINE
  8
0
 10
-23.3383
 20
28.5303
 11
-23.385
 21
28.303
  0
LINE
  8
0
 10
-23.385
 20
28.303
 11
-23.4006
 21
28.0667
  0
LINE
  8
0
 10
-18
 20
-39
 11
-17.9696
 21
-39.6972
  0
LINE
  8
0
 10
-17.9696
 20
-39.6972
 11
-17.8785
 21
-40.3892
  0
LINE
  8
0
 10
-17.8785
 20
-40.3892
 11
-17.7274
 21
-41.0706
  0
LINE
  8
0
 10
-17.7274
 20
-41.0706
 11
-17.5175
 21
-41.7362
  0
LINE
  8
0
 10
-17.5175
 20
-41.7362
 11
-17.2505
 21
-42.3809
  0
LINE
  8
0
 10
-17.2505
 20
-42.3809
 11
-16.9282
 21
-43
  0
LINE
  8
0
 10
-16.9282
 20
-43
 11
-16.5532
 21
-43.5886
  0
LINE
  8
0
 10
-16.5532
 20
-43.5886
 11
-16.1284
 21
-44.1423
  0
LINE
  8
0
 10
-16.1284
 20
-44.1423
 11
-15.6569
 21
-44.6569
  0
LINE
  8
0
 10
-15.6569
 20
-44.6569
 11
-15.1423
 21
-45.1284
  0
LINE
  8
0
 10
-15.1423
 20
-45.1284
 11
-14.5886
 21
-45.5532
  0
LINE
  8
0
 10
-14.5886
 20
-45.5532
 11
-14
 21
-45.9282
  0
LINE
  8
0
 10
-14
 20
-45.9282
 11
-13.3809
 21
-46.2505
  0
LINE
  8
0
 10
-13.3809
 20
-46.2505
 11
-12.7362
 21
-46.5175
  0
LINE
  8
0
 10
-12.7362
 20
-46.5175
 11
-12.0706
 21
-46.7274
  0
LINE
  8
0
 10
-12.0706
 20
-46.7274
 11
-11.3892
 21
-46.8785
  0
LINE
  8
0
 10
-11.3892
 20
-46.8785
 11
-10.6972
 21
-46.9696
  0
LINE
  8
0
 10
-10.6972
 20
-46.9696
 11
-10
 21
-47
  0
LINE
  8
0
 10
-10
 20
-47
 11
22
 21
-47
  0
LINE
  8
0
 10
22
 20
-47
 11
22
 21
-79
  0
LINE
  8
0
 10
22
 20
-79
 11
22.0304
 21
-79.6972
  0
LINE
  8
0
 10
22.0304
 20
-79.6972
 11
22.1215
 21
-80.3892
  0
LINE
  8
0
 10
22.1215
 20
-80.3892
 11
22.2726
 21
-81.0706
  0
LINE
  8
0
 10
22.2726
 20
-81.0706
 11
22.4825
 21
-81.7362
  0
LINE
  8
0
 10
22.4825
 20
-81.7362
 11
22.7495
 21
-82.3809
  0
LINE
  8
0
 10
22.7495
 20
-82.3809
 11
23.0718
 21
-83
  0
LINE
  8
0
 10
23.0718
 20
-83
 11
23.4468
 21
-83.5886
  0
LINE
  8
0
 10
23.4468
 20
-83.5886
 11
23.8716
 21
-84.1423
  0
LINE
  8
0
 10
23.8716
 20
-84.1423
 11
24.3431
 21
-84.6569
  0
LINE
  8
0
 10
24.3431
 20
-84.6569
 11
24.8577
 21
-85.1284
  0
LINE
  8
0
 10
24.8577
 20
-85.1284
 11
25.4114
 21
-85.5532
  0
LINE
  8
0
 10
25.4114
 20
-85.5532
 11
26
 21
-85.9282
  0
LINE
  8
0
 10
26
 20
-85.9282
 11
26.6191
 21
-86.2505
  0
LINE
  8
0
 10
26.6191
 20
-86.2505
 11
27.2638
 21
-86.5175
  0
LINE
  8
0
 10
27.2638
 20
-86.5175
 11
27.9294
 21
-86.7274
  0
LINE
  8
0
 10
27.9294
 20
-86.7274
 11
28.6108
 21
-86.8785
  0
LINE
  8
0
 10
28.6108
 20
-86.8785
 11
29.3028
 21
-86.9696
  0
LINE
  8
0
 10
29.3028
 20
-86.9696
 11
30
 21
-87
  0
LINE
  8
0
 10
30
 20
-87
 11
30.6972
 21
-86.9696
  0
LINE
  8
0
 10
30.6972
 20
-86.9696
 11
31.3892
 21
-86.8785
  0
LINE
  8
0
 10
31.3892
 20
-86.8785
 11
32.0706
 21
-86.7274
  0
LINE
  8
0
 10
32.0706
 20
-86.7274
 11
32.7362
 21
-86.5175
  0
LINE
  8
0
 10
32.7362
 20
-86.5175
 11
33.3809
 21
-86.2505
  0
LINE
  8
0
 10
33.3809
 20
-86.2505
 11
34
 21
-85.9282
  0
LINE
  8
0
 10
34
 20
-85.9282
 11
34.5886
 21
-85.5532
  0
LINE
  8
0
 10
34.5886
 20
-85.5532
 11
35.1423
 21
-85.1284
  0
LINE
  8
0
 10
35.1423
 20
-85.1284
 11
35.6569
 21
-84.6569
  0
LINE
  8
0
 10
35.6569
 20
-84.6569
 11
36.1284
 21
-84.1423
  0
LINE
  8
0
 10
36.1284
 20
-84.1423
 11
36.5532
 21
-83.5886
  0
LINE
  8
0
 10
36.5532
 20
-83.5886
 11
36.9282
 21
-83
  0
LINE
  8
0
 10
36.9282
 20
-83
 11
37.2505
 21
-82.3809
  0
LINE
  8
0
 10
37.2505
 20
-82.3809
 11
37.5175
 21
-81.7362
  0
LINE
  8
0
 10
37.5175
 20
-81.7362
 11
37.7274
 21
-81.0706
  0
LINE
  8
0
 10
37.7274
 20
-81.0706
 11
37.8785
 21
-80.3892
  0
LINE
  8
0
 10
37.8785
 20
-80.3892
 11
37.9696
 21
-79.6972
  0
LINE
  8
0
 10
37.9696
 20
-79.6972
 11
38
 21
-79
  0
LINE
  8
0
 10
38
 20
-79
 11
38
 21
-69.5
  0
LINE
  8
0
 10
38
 20
-69.5
 11
35
 21
-69.5
  0
LINE
  8
0
 10
35
 20
-69.5
 11
35
 21
-54.5
  0
LINE
  8
0
 10
35
 20
-54.5
 11
38
 21
-54.5
  0
LINE
  8
0
 10
38
 20
-54.5
 11
38
 21
-31
  0
LINE
  8
0
 10
38
 20
-31
 11
17.5
 21
-31
  0
LINE
  8
0
 10
17.5
 20
-31
 11
17.5
 21
-34
  0
LINE
  8
0
 10
17.5
 20
-34
 11
2.5
 21
-34
  0
LINE
  8
0
 10
2.5
 20
-34
 11
2.5
 21
-31
  0
LINE
  8
0
 10
2.5
 20
-31
 11
-10
 21
-31
  0
LINE
  8
0
 10
-10
 20
-31
 11
-10.6972
 21
-31.0304
  0
LINE
  8
0
 10
-10.6972
 20
-31.0304
 11
-11.3892
 21
-31.1215
  0
LINE
  8
0
 10
-11.3892
 20
-31.1215
 11
-12.0706
 21
-31.2726
  0
LINE
  8
0
 10
-12.0706
 20
-31.2726
 11
-12.7362
 21
-31.4825
  0
LINE
  8
0
 10
-12.7362
 20
-31.4825
 11
-13.3809
 21
-31.7495
  0
LINE
  8
0
 10
-13.3809
 20
-31.7495
 11
-14
 21
-32.0718
  0
LINE
  8
0
 10
-14
 20
-32.0718
 11
-14.5886
 21
-32.4468
  0
LINE
  8
0
 10
-14.5886
 20
-32.4468
 11
-15.1423
 21
-32.8716
  0
LINE
  8
0
 10
-15.1423
 20
-32.8716
 11
-15.6569
 21
-33.3431
  0
LINE
  8
0
 10
-15.6569
 20
-33.3431
 11
-16.1284
 21
-33.8577
  0
LINE
  8
0
 10
-16.1284
 20
-33.8577
 11
-16.5532
 21
-34.4114
  0
LINE
  8
0
 10
-16.5532
 20
-34.4114
 11
-16.9282
 21
-35
  0
LINE
  8
0
 10
-16.9282
 20
-35
 11
-17.2505
 21
-35.6191
  0
LINE
  8
0
 10
-17.2505
 20
-35.6191
 11
-17.5175
 21
-36.2638
  0
LINE
  8
0
 10
-17.5175
 20
-36.2638
 11
-17.7274
 21
-36.9294
  0
LINE
  8
0
 10
-17.7274
 20
-36.9294
 11
-17.8785
 21
-37.6108
  0
LINE
  8
0
 10
-17.8785
 20
-37.6108
 11
-17.9696
 21
-38.3028
  0
LINE
  8
0
 10
-17.9696
 20
-38.3028
 11
-18
 21
-39
  0
LINE
  8
0
 10
-11.4949
 20
-38.8761
 11
-11.3737
 21
-38.3975
  0
LINE
  8
0
 10
-11.3737
 20
-38.3975
 11
-11.1036
 21
-37.9841
  0
LINE
  8
0
 10
-11.1036
 20
-37.9841
 11
-10.7139
 21
-37.6808
  0
LINE
  8
0
 10
-10.7139
 20
-37.6808
 11
-10.2469
 21
-37.5205
  0
LINE
  8
0
 10
-10.2469
 20
-37.5205
 11
-9.75311
 21
-37.5205
  0
LINE
  8
0
 10
-9.75311
 20
-37.5205
 11
-9.28608
 21
-37.6808
  0
LINE
  8
0
 10
-9.28608
 20
-37.6808
 11
-8.89641
 21
-37.9841
  0
LINE
  8
0
 10
-8.89641
 20
-37.9841
 11
-8.62634
 21
-38.3975
  0
LINE
  8
0
 10
-8.62634
 20
-38.3975
 11
-8.50512
 21
-38.8761
  0
LINE
  8
0
 10
-8.50512
 20
-38.8761
 11
-8.5459
 21
-39.3682
  0
LINE
  8
0
 10
-8.5459
 20
-39.3682
 11
-8.74425
 21
-39.8204
  0
LINE
  8
0
 10
-8.74425
 20
-39.8204
 11
-9.07868
 21
-40.1837
  0
LINE
  8
0
 10
-9.07868
 20
-40.1837
 11
-9.51295
 21
-40.4187
  0
LINE
  8
0
 10
-9.51295
 20
-40.4187
 11
-10
 21
-40.5
  0
LINE
  8
0
 10
-10
 20
-40.5
 11
-10.487
 21
-40.4187
  0
LINE
  8
0
 10
-10.487
 20
-40.4187
 11
-10.9213
 21
-40.1837
  0
LINE
  8
0
 10
-10.9213
 20
-40.1837
 11
-11.2557
 21
-39.8204
  0
LINE
  8
0
 10
-11.2557
 20
-39.8204
 11
-11.4541
 21
-39.3682
  0
LINE
  8
0
 10
-11.4541
 20
-39.3682
 11
-11.4949
 21
-38.8761
  0
LINE
  8
0
 10
28.5051
 20
-78.8761
 11
28.6263
 21
-78.3975
  0
LINE
  8
0
 10
28.6263
 20
-78.3975
 11
28.8964
 21
-77.9841
  0
LINE
  8
0
 10
28.8964
 20
-77.9841
 11
29.2861
 21
-77.6808
  0
LINE
  8
0
 10
29.2861
 20
-77.6808
 11
29.7531
 21
-77.5205
  0
LINE
  8
0
 10
29.7531
 20
-77.5205
 11
30.2469
 21
-77.5205
  0
LINE
  8
0
 10
30.2469
 20
-77.5205
 11
30.7139
 21
-77.6808
  0
LINE
  8
0
 10
30.7139
 20
-77.6808
 11
31.1036
 21
-77.9841
  0
LINE
  8
0
 10
31.1036
 20
-77.9841
 11
31.3737
 21
-78.3975
  0
LINE
  8
0
 10
31.3737
 20
-78.3975
 11
31.4949
 21
-78.8761
  0
LINE
  8
0
 10
31.4949
 20
-78.8761
 11
31.4541
 21
-79.3682
  0
LINE
  8
0
 10
31.4541
 20
-79.3682
 11
31.2557
 21
-79.8204
  0
LINE
  8
0
 10
31.2557
 20
-79.8204
 11
30.9213
 21
-80.1837
  0
LINE
  8
0
 10
30.9213
 20
-80.1837
 11
30.487
 21
-80.4187
  0
LINE
  8
0
 10
30.487
 20
-80.4187
 11
30
 21
-80.5
  0
LINE
  8
0
 10
30
 20
-80.5
 11
29.5129
 21
-80.4187
  0
LINE
  8
0
 10
29.5129
 20
-80.4187
 11
29.0787
 21
-80.1837
  0
LINE
  8
0
 10
29.0787
 20
-80.1837
 11
28.7442
 21
-79.8204
  0
LINE
  8
0
 10
28.7442
 20
-79.8204
 11
28.5459
 21
-79.3682
  0
LINE
  8
0
 10
28.5459
 20
-79.3682
 11
28.5051
 21
-78.8761
  0
LINE
  8
0
 10
28.5051
 20
-38.8761
 11
28.6263
 21
-38.3975
  0
LINE
  8
0
 10
28.6263
 20
-38.3975
 11
28.8964
 21
-37.9841
  0
LINE
  8
0
 10
28.8964
 20
-37.9841
 11
29.2861
 21
-37.6808
  0
LINE
  8
0
 10
29.2861
 20
-37.6808
 11
29.7531
 21
-37.5205
  0
LINE
  8
0
 10
29.7531
 20
-37.5205
 11
30.2469
 21
-37.5205
  0
LINE
  8
0
 10
30.2469
 20
-37.5205
 11
30.7139
 21
-37.6808
  0
LINE
  8
0
 10
30.7139
 20
-37.6808
 11
31.1036
 21
-37.9841
  0
LINE
  8
0
 10
31.1036
 20
-37.9841
 11
31.3737
 21
-38.3975
  0
LINE
  8
0
 10
31.3737
 20
-38.3975
 11
31.4949
 21
-38.8761
  0
LINE
  8
0
 10
31.4949
 20
-38.8761
 11
31.4541
 21
-39.3682
  0
LINE
  8
0
 10
31.4541
 20
-39.3682
 11
31.2557
 21
-39.8204
  0
LINE
  8
0
 10
31.2557
 20
-39.8204
 11
30.9213
 21
-40.1837
  0
LINE
  8
0
 10
30.9213
 20
-40.1837
 11
30.487
 21
-40.4187
  0
LINE
  8
0
 10
30.487
 20
-40.4187
 11
30
 21
-40.5
  0
LINE
  8
0
 10
30
 20
-40.5
 11
29.5129
 21
-40.4187
  0
LINE
  8
0
 10
29.5129
 20
-40.4187
 11
29.0787
 21
-40.1837
  0
LINE
  8
0
 10
29.0787
 20
-40.1837
 11
28.7442
 21
-39.8204
  0
LINE
  8
0
 10
28.7442
 20
-39.8204
 11
28.5459
 21
-39.3682
  0
LINE
  8
0
 10
28.5459
 20
-39.3682
 11
28.5051
 21
-38.8761
  0
LINE
  8
0
 10
-16.9624
 20
28.6107
 11
-13.5284
 21
28.6107
  0
LINE
  8
0
 10
-13.5284
 20
28.6107
 11
-13.5957
 21
28.7862
  0
LINE
  8
0
 10
-13.5957
 20
28.7862
 11
-13.6817
 21
28.9512
  0
LINE
  8
0
 10
-13.6817
 20
28.9512
 11
-13.7864
 21
29.1057
  0
LINE
  8
0
 10
-13.7864
 20
29.1057
 11
-13.906
 21
29.248
  0
LINE
  8
0
 10
-13.906
 20
29.248
 11
-14.0384
 21
29.376
  0
LINE
  8
0
 10
-14.0384
 20
29.376
 11
-14.1834
 21
29.4897
  0
LINE
  8
0
 10
-14.1834
 20
29.4897
 11
-14.3398
 21
29.5884
  0
LINE
  8
0
 10
-14.3398
 20
29.5884
 11
-14.5065
 21
29.6711
  0
LINE
  8
0
 10
-14.5065
 20
29.6711
 11
-14.6834
 21
29.7377
  0
LINE
  8
0
 10
-14.6834
 20
29.7377
 11
-14.8667
 21
29.7872
  0
LINE
  8
0
 10
-14.8667
 20
29.7872
 11
-15.054
 21
29.8168
  0
LINE
  8
0
 10
-15.054
 20
29.8168
 11
-15.2454
 21
29.8267
  0
LINE
  8
0
 10
-15.2454
 20
29.8267
 11
-15.437
 21
29.8168
  0
LINE
  8
0
 10
-15.437
 20
29.8168
 11
-15.6254
 21
29.7872
  0
LINE
  8
0
 10
-15.6254
 20
29.7872
 11
-15.8104
 21
29.7377
  0
LINE
  8
0
 10
-15.8104
 20
29.7377
 11
-15.9887
 21
29.6711
  0
LINE
  8
0
 10
-15.9887
 20
29.6711
 11
-16.157
 21
29.5884
  0
LINE
  8
0
 10
-16.157
 20
29.5884
 11
-16.3154
 21
29.4897
  0
LINE
  8
0
 10
-16.3154
 20
29.4897
 11
-16.4613
 21
29.376
  0
LINE
  8
0
 10
-16.4613
 20
29.376
 11
-16.5936
 21
29.248
  0
LINE
  8
0
 10
-16.5936
 20
29.248
 11
-16.7124
 21
29.1057
  0
LINE
  8
0
 10
-16.7124
 20
29.1057
 11
-16.8148
 21
28.9512
  0
LINE
  8
0
 10
-16.8148
 20
28.9512
 11
-16.8981
 21
28.7862
  0
LINE
  8
0
 10
-16.8981
 20
28.7862
 11
-16.9624
 21
28.6107
  0
LINE
  8
0
 10
-4.69646
 20
26.3068
 11
-3.28545
 21
26.3068
  0
LINE
  8
0
 10
-3.28545
 20
26.3068
 11
-3.09467
 21
26.3191
  0
LINE
  8
0
 10
-3.09467
 20
26.3191
 11
-2.91167
 21
26.3561
  0
LINE
  8
0
 10
-2.91167
 20
26.3561
 11
-2.73645
 21
26.4178
  0
LINE
  8
0
 10
-2.73645
 20
26.4178
 11
-2.57278
 21
26.5006
  0
LINE
  8
0
 10
-2.57278
 20
26.5006
 11
-2.42445
 21
26.6013
  0
LINE
  8
0
 10
-2.42445
 20
26.6013
 11
-2.29144
 21
26.7198
  0
LINE
  8
0
 10
-2.29144
 20
26.7198
 11
-2.17412
 21
26.8549
  0
LINE
  8
0
 10
-2.17412
 20
26.8549
 11
-2.07411
 21
27.0042
  0
LINE
  8
0
 10
-2.07411
 20
27.0042
 11
-2.02865
 21
27.0942
  0
LINE
  8
0
 10
-2.02865
 20
27.0942
 11
-1.99145
 21
27.1678
  0
LINE
  8
0
 10
-1.99145
 20
27.1678
 11
-1.92978
 21
27.3431
  0
LINE
  8
0
 10
-1.92978
 20
27.3431
 11
-1.89278
 21
27.5264
  0
LINE
  8
0
 10
-1.89278
 20
27.5264
 11
-1.88045
 21
27.7178
  0
LINE
  8
0
 10
-1.88045
 20
27.7178
 11
-1.89278
 21
27.9056
  0
LINE
  8
0
 10
-1.89278
 20
27.9056
 11
-1.92978
 21
28.0866
  0
LINE
  8
0
 10
-1.92978
 20
28.0866
 11
-1.99145
 21
28.2607
  0
LINE
  8
0
 10
-1.99145
 20
28.2607
 11
-2.0371
 21
28.3509
  0
LINE
  8
0
 10
-2.0371
 20
28.3509
 11
-2.07445
 21
28.4247
  0
LINE
  8
0
 10
-2.07445
 20
28.4247
 11
-2.17545
 21
28.5741
  0
LINE
  8
0
 10
-2.17545
 20
28.5741
 11
-2.29445
 21
28.7087
  0
LINE
  8
0
 10
-2.29445
 20
28.7087
 11
-2.42912
 21
28.8277
  0
LINE
  8
0
 10
-2.42912
 20
28.8277
 11
-2.57845
 21
28.9287
  0
LINE
  8
0
 10
-2.57845
 20
28.9287
 11
-2.74245
 21
29.0117
  0
LINE
  8
0
 10
-2.74245
 20
29.0117
 11
-2.91656
 21
29.0734
  0
LINE
  8
0
 10
-2.91656
 20
29.0734
 11
-3.09756
 21
29.1104
  0
LINE
  8
0
 10
-3.09756
 20
29.1104
 11
-3.28545
 21
29.1227
  0
LINE
  8
0
 10
-3.28545
 20
29.1227
 11
-4.69646
 21
29.1227
  0
LINE
  8
0
 10
-4.69646
 20
29.1227
 11
-4.69646
 21
26.3068
  0
LINE
  8
0
 10
-4.69646
 20
30.2107
 11
-3.66945
 21
30.2107
  0
LINE
  8
0
 10
-3.66945
 20
30.2107
 11
-3.53123
 21
30.2197
  0
LINE
  8
0
 10
-3.53123
 20
30.2197
 11
-3.39923
 21
30.2467
  0
LINE
  8
0
 10
-3.39923
 20
30.2467
 11
-3.27345
 21
30.2917
  0
LINE
  8
0
 10
-3.27345
 20
30.2917
 11
-3.15523
 21
30.3524
  0
LINE
  8
0
 10
-3.15523
 20
30.3524
 11
-3.04723
 21
30.4264
  0
LINE
  8
0
 10
-3.04723
 20
30.4264
 11
-2.94945
 21
30.5137
  0
LINE
  8
0
 10
-2.94945
 20
30.5137
 11
-2.86322
 21
30.6131
  0
LINE
  8
0
 10
-2.86322
 20
30.6131
 11
-2.78989
 21
30.7217
  0
LINE
  8
0
 10
-2.78989
 20
30.7217
 11
-2.72945
 21
30.8397
  0
LINE
  8
0
 10
-2.72945
 20
30.8397
 11
-2.68445
 21
30.9662
  0
LINE
  8
0
 10
-2.68445
 20
30.9662
 11
-2.65746
 21
31.0988
  0
LINE
  8
0
 10
-2.65746
 20
31.0988
 11
-2.64845
 21
31.2377
  0
LINE
  8
0
 10
-2.64845
 20
31.2377
 11
-2.65746
 21
31.3732
  0
LINE
  8
0
 10
-2.65746
 20
31.3732
 11
-2.68445
 21
31.5035
  0
LINE
  8
0
 10
-2.68445
 20
31.5035
 11
-2.72945
 21
31.6287
  0
LINE
  8
0
 10
-2.72945
 20
31.6287
 11
-2.79022
 21
31.7472
  0
LINE
  8
0
 10
-2.79022
 20
31.7472
 11
-2.86456
 21
31.8559
  0
LINE
  8
0
 10
-2.86456
 20
31.8559
 11
-2.95245
 21
31.9547
  0
LINE
  8
0
 10
-2.95245
 20
31.9547
 11
-3.05135
 21
32.0426
  0
LINE
  8
0
 10
-3.05135
 20
32.0426
 11
-3.16
 21
32.117
  0
LINE
  8
0
 10
-3.16
 20
32.117
 11
-3.27844
 21
32.1777
  0
LINE
  8
0
 10
-3.27844
 20
32.1777
 11
-3.40367
 21
32.2227
  0
LINE
  8
0
 10
-3.40367
 20
32.2227
 11
-3.53401
 21
32.2497
  0
LINE
  8
0
 10
-3.53401
 20
32.2497
 11
-3.66945
 21
32.2587
  0
LINE
  8
0
 10
-3.66945
 20
32.2587
 11
-4.69646
 21
32.2587
  0
LINE
  8
0
 10
-4.69646
 20
32.2587
 11
-4.69646
 21
30.2107
  0
LINE
  8
0
 10
9.23224
 20
28.0667
 11
9.2478
 21
27.8305
  0
LINE
  8
0
 10
9.2478
 20
27.8305
 11
9.29446
 21
27.6032
  0
LINE
  8
0
 10
9.29446
 20
27.6032
 11
9.37225
 21
27.3848
  0
LINE
  8
0
 10
9.37225
 20
27.3848
 11
9.47725
 21
27.18
  0
LINE
  8
0
 10
9.47725
 20
27.18
 11
9.60425
 21
26.9937
  0
LINE
  8
0
 10
9.60425
 20
26.9937
 11
9.75325
 21
26.8258
  0
LINE
  8
0
 10
9.75325
 20
26.8258
 11
9.92281
 21
26.6779
  0
LINE
  8
0
 10
9.92281
 20
26.6779
 11
10.1115
 21
26.5515
  0
LINE
  8
0
 10
10.1115
 20
26.5515
 11
10.3192
 21
26.4468
  0
LINE
  8
0
 10
10.3192
 20
26.4468
 11
10.5429
 21
26.369
  0
LINE
  8
0
 10
10.5429
 20
26.369
 11
10.7779
 21
26.3223
  0
LINE
  8
0
 10
10.7779
 20
26.3223
 11
11.0242
 21
26.3068
  0
LINE
  8
0
 10
11.0242
 20
26.3068
 11
11.2677
 21
26.3223
  0
LINE
  8
0
 10
11.2677
 20
26.3223
 11
11.5007
 21
26.369
  0
LINE
  8
0
 10
11.5007
 20
26.369
 11
11.7233
 21
26.4468
  0
LINE
  8
0
 10
11.7233
 20
26.4468
 11
11.9318
 21
26.5518
  0
LINE
  8
0
 10
11.9318
 20
26.5518
 11
12.1215
 21
26.6788
  0
LINE
  8
0
 10
12.1215
 20
26.6788
 11
12.2923
 21
26.8278
  0
LINE
  8
0
 10
12.2923
 20
26.8278
 11
12.4428
 21
26.997
  0
LINE
  8
0
 10
12.4428
 20
26.997
 11
12.5705
 21
27.1833
  0
LINE
  8
0
 10
12.5705
 20
27.1833
 11
12.6752
 21
27.3868
  0
LINE
  8
0
 10
12.6752
 20
27.3868
 11
12.7536
 21
27.6041
  0
LINE
  8
0
 10
12.7536
 20
27.6041
 11
12.8006
 21
27.8308
  0
LINE
  8
0
 10
12.8006
 20
27.8308
 11
12.8163
 21
28.0667
  0
LINE
  8
0
 10
12.8163
 20
28.0667
 11
12.8006
 21
28.3026
  0
LINE
  8
0
 10
12.8006
 20
28.3026
 11
12.7536
 21
28.529
  0
LINE
  8
0
 10
12.7536
 20
28.529
 11
12.6752
 21
28.7457
  0
LINE
  8
0
 10
12.6752
 20
28.7457
 11
12.5705
 21
28.9496
  0
LINE
  8
0
 10
12.5705
 20
28.9496
 11
12.4428
 21
29.136
  0
LINE
  8
0
 10
12.4428
 20
29.136
 11
12.2923
 21
29.3047
  0
LINE
  8
0
 10
12.2923
 20
29.3047
 11
12.1215
 21
29.4542
  0
LINE
  8
0
 10
12.1215
 20
29.4542
 11
11.9318
 21
29.5812
  0
LINE
  8
0
 10
11.9318
 20
29.5812
 11
11.7233
 21
29.6857
  0
LINE
  8
0
 10
11.7233
 20
29.6857
 11
11.5007
 21
29.7641
  0
LINE
  8
0
 10
11.5007
 20
29.7641
 11
11.2677
 21
29.8111
  0
LINE
  8
0
 10
11.2677
 20
29.8111
 11
11.0242
 21
29.8267
  0
LINE
  8
0
 10
11.0242
 20
29.8267
 11
10.7779
 21
29.8111
  0
LINE
  8
0
 10
10.7779
 20
29.8111
 11
10.5429
 21
29.7641
  0
LINE
  8
0
 10
10.5429
 20
29.7641
 11
10.3192
 21
29.6857
  0
LINE
  8
0
 10
10.3192
 20
29.6857
 11
10.1115
 21
29.5815
  0
LINE
  8
0
 10
10.1115
 20
29.5815
 11
9.92281
 21
29.4555
  0
LINE
  8
0
 10
9.92281
 20
29.4555
 11
9.75325
 21
29.3077
  0
LINE
  8
0
 10
9.75325
 20
29.3077
 11
9.60425
 21
29.1398
  0
LINE
  8
0
 10
9.60425
 20
29.1398
 11
9.47725
 21
28.9535
  0
LINE
  8
0
 10
9.47725
 20
28.9535
 11
9.37225
 21
28.7487
  0
LINE
  8
0
 10
9.37225
 20
28.7487
 11
9.29446
 21
28.5303
  0
LINE
  8
0
 10
9.29446
 20
28.5303
 11
9.2478
 21
28.303
  0
LINE
  8
0
 10
9.2478
 20
28.303
 11
9.23224
 21
28.0667
  0
LINE
  8
0
 10
26.3445
 20
28.0667
 11
26.3601
 21
27.8305
  0
LINE
  8
0
 10
26.3601
 20
27.8305
 11
26.4068
 21
27.6032
  0
LINE
  8
0
 10
26.4068
 20
27.6032
 11
26.4846
 21
27.3848
  0
LINE
  8
0
 10
26.4846
 20
27.3848
 11
26.5896
 21
27.18
  0
LINE
  8
0
 10
26.5896
 20
27.18
 11
26.7166
 21
26.9937
  0
LINE
  8
0
 10
26.7166
 20
26.9937
 11
26.8656
 21
26.8258
  0
LINE
  8
0
 10
26.8656
 20
26.8258
 11
27.0351
 21
26.6779
  0
LINE
  8
0
 10
27.0351
 20
26.6779
 11
27.2238
 21
26.5515
  0
LINE
  8
0
 10
27.2238
 20
26.5515
 11
27.4315
 21
26.4468
  0
LINE
  8
0
 10
27.4315
 20
26.4468
 11
27.6552
 21
26.369
  0
LINE
  8
0
 10
27.6552
 20
26.369
 11
27.8902
 21
26.3223
  0
LINE
  8
0
 10
27.8902
 20
26.3223
 11
28.1366
 21
26.3068
  0
LINE
  8
0
 10
28.1366
 20
26.3068
 11
28.38
 21
26.3223
  0
LINE
  8
0
 10
28.38
 20
26.3223
 11
28.613
 21
26.369
  0
LINE
  8
0
 10
28.613
 20
26.369
 11
28.8356
 21
26.4468
  0
LINE
  8
0
 10
28.8356
 20
26.4468
 11
29.0441
 21
26.5518
  0
LINE
  8
0
 10
29.0441
 20
26.5518
 11
29.2338
 21
26.6788
  0
LINE
  8
0
 10
29.2338
 20
26.6788
 11
29.4046
 21
26.8278
  0
LINE
  8
0
 10
29.4046
 20
26.8278
 11
29.5551
 21
26.997
  0
LINE
  8
0
 10
29.5551
 20
26.997
 11
29.6828
 21
27.1833
  0
LINE
  8
0
 10
29.6828
 20
27.1833
 11
29.7876
 21
27.3868
  0
LINE
  8
0
 10
29.7876
 20
27.3868
 11
29.8659
 21
27.6041
  0
LINE
  8
0
 10
29.8659
 20
27.6041
 11
29.9129
 21
27.8308
  0
LINE
  8
0
 10
29.9129
 20
27.8308
 11
29.9286
 21
28.0667
  0
LINE
  8
0
 10
29.9286
 20
28.0667
 11
29.9129
 21
28.3026
  0
LINE
  8
0
 10
29.9129
 20
28.3026
 11
29.8659
 21
28.529
  0
LINE
  8
0
 10
29.8659
 20
28.529
 11
29.7876
 21
28.7457
  0
LINE
  8
0
 10
29.7876
 20
28.7457
 11
29.6828
 21
28.9496
  0
LINE
  8
0
 10
29.6828
 20
28.9496
 11
29.5551
 21
29.136
  0
LINE
  8
0
 10
29.5551
 20
29.136
 11
29.4046
 21
29.3047
  0
LINE
  8
0
 10
29.4046
 20
29.3047
 11
29.2338
 21
29.4542
  0
LINE
  8
0
 10
29.2338
 20
29.4542
 11
29.0441
 21
29.5812
  0
LINE
  8
0
 10
29.0441
 20
29.5812
 11
28.8356
 21
29.6857
  0
LINE
  8
0
 10
28.8356
 20
29.6857
 11
28.613
 21
29.7641
  0
LINE
  8
0
 10
28.613
 20
29.7641
 11
28.38
 21
29.8111
  0
LINE
  8
0
 10
28.38
 20
29.8111
 11
28.1366
 21
29.8267
  0
LINE
  8
0
 10
28.1366
 20
29.8267
 11
27.8902
 21
29.8111
  0
LINE
  8
0
 10
27.8902
 20
29.8111
 11
27.6552
 21
29.7641
  0
LINE
  8
0
 10
27.6552
 20
29.7641
 11
27.4315
 21
29.6857
  0
LINE
  8
0
 10
27.4315
 20
29.6857
 11
27.2238
 21
29.5815
  0
LINE
  8
0
 10
27.2238
 20
29.5815
 11
27.0351
 21
29.4555
  0
LINE
  8
0
 10
27.0351
 20
29.4555
 11
26.8656
 21
29.3077
  0
LINE
  8
0
 10
26.8656
 20
29.3077
 11
26.7166
 21
29.1398
  0
LINE
  8
0
 10
26.7166
 20
29.1398
 11
26.5896
 21
28.9535
  0
LINE
  8
0
 10
26.5896
 20
28.9535
 11
26.4846
 21
28.7487
  0
LINE
  8
0
 10
26.4846
 20
28.7487
 11
26.4068
 21
28.5303
  0
LINE
  8
0
 10
26.4068
 20
28.5303
 11
26.3601
 21
28.303
  0
LINE
  8
0
 10
26.3601
 20
28.303
 11
26.3445
 21
28.0667
  0
ENDSEC
  0
SECTION
  2
OBJECTS
  0
DICTIONARY
  0
ENDSEC
  0
EOF
