M48
;DRILL file {kicad (after 2015-mar-04 BZR unknown)-product} date Sat 13 Jun 2015 02:25:12 BST
;FORMAT={-:-/ absolute / inch / decimal}
FMAT,2
INCH,TZ
T1C0.031
T2C0.032
T3C0.039
T4C0.043
%
G90
G05
M72
T1
X3.42Y-4.3781
X3.42Y-4.575
X3.5431Y-3.71
X3.62Y-4.38
X3.62Y-4.5769
X3.74Y-3.71
T2
X2.995Y-3.73
X2.995Y-4.03
X2.995Y-4.33
X3.095Y-3.73
X3.095Y-4.03
X3.095Y-4.33
X3.435Y-3.865
X3.435Y-4.165
X3.535Y-3.865
X3.535Y-4.165
X3.575Y-5.025
X3.575Y-5.125
X3.635Y-3.865
X3.635Y-4.165
X3.735Y-3.865
X3.735Y-4.165
X3.77Y-4.925
X3.845Y-4.58
X3.845Y-4.68
X3.87Y-4.925
T3
X3.13Y-4.9466
X3.13Y-5.1435
X3.225Y-3.945
X3.225Y-4.345
X3.27Y-4.69
X3.28Y-4.9515
X3.28Y-5.1484
X3.335Y-3.815
X3.335Y-4.215
X3.415Y-4.275
X3.67Y-4.69
X3.75Y-4.365
X3.815Y-4.275
X4.015Y-4.6015
X4.015Y-4.7984
X4.11Y-4.9566
X4.11Y-5.1535
X4.15Y-4.365
X4.15Y-4.4851
X4.15Y-4.5851
T4
X2.985Y-4.57
X3.055Y-4.72
X3.155Y-4.72
X3.285Y-4.57
X3.305Y-3.69
X3.405Y-3.69
X3.415Y-4.81
X3.515Y-4.81
X3.795Y-5.14
X3.895Y-5.14
X3.95Y-3.705
X3.95Y-4.105
X3.9531Y-3.9019
X3.995Y-5.14
X4.15Y-3.705
X4.15Y-3.9019
X4.15Y-4.105
T0
M30
