M48
;DRILL file {kicad (after 2015-mar-04 BZR unknown)-product} date Sat 13 Jun 2015 13:33:15 BST
;FORMAT={-:-/ absolute / inch / decimal}
FMAT,2
INCH,TZ
T1C0.031
T2C0.032
T3C0.039
T4C0.043
%
G90
G05
M72
T1
X0.2525Y0.8875
X0.2525Y0.6906
X0.9206Y0.5675
X0.9225Y0.7675
X1.1175Y0.5675
X1.1194Y0.7675
T2
X0.2725Y0.2425
X0.2725Y0.1425
X0.4075Y0.8825
X0.4075Y0.7825
X0.4075Y0.6825
X0.4075Y0.5825
X0.5725Y0.2425
X0.5725Y0.1425
X0.7075Y0.8825
X0.7075Y0.7825
X0.7075Y0.6825
X0.7075Y0.5825
X0.8725Y0.2425
X0.8725Y0.1425
X1.1225Y0.9925
X1.2225Y0.9925
X1.4675Y1.0175
X1.4675Y0.9175
X1.5675Y0.7225
X1.6675Y0.7225
T3
X0.3575Y0.4825
X0.4875Y0.3725
X0.7575Y0.4825
X0.8175Y0.9625
X0.8175Y0.5625
X0.8875Y0.3725
X0.9075Y1.2975
X0.9075Y0.8975
X1.0276Y1.2975
X1.1276Y1.2975
X1.144Y1.1625
X1.2325Y0.8175
X1.2325Y0.4175
X1.3409Y1.1625
X1.4891Y0.2775
X1.494Y0.4275
X1.4991Y1.2575
X1.686Y0.2775
X1.6909Y0.4275
X1.696Y1.2575
T4
X0.2325Y0.5525
X0.2325Y0.4525
X0.2475Y1.2975
X0.2475Y1.0975
X0.4444Y1.2975
X0.4444Y1.1006
X0.6475Y1.2975
X0.6475Y1.0975
X1.1125Y0.4325
X1.1125Y0.1325
X1.2625Y0.3025
X1.2625Y0.2025
X1.3525Y0.6625
X1.3525Y0.5625
X1.6825Y1.1425
X1.6825Y1.0425
X1.6825Y0.9425
T0
M30
