G04 #@! TF.FileFunction,Copper,L2,Bot,Signal*
%FSLAX46Y46*%
G04 Gerber Fmt 4.6, Leading zero omitted, Abs format (unit mm)*
G04 Created by KiCad (PCBNEW (after 2015-mar-04 BZR unknown)-product) date Sat 13 Jun 2015 13:33:09 BST*
%MOMM*%
G01*
G04 APERTURE LIST*
%ADD10C,0.100000*%
%ADD11C,0.300000*%
%ADD12R,3.000000X2.000000*%
%ADD13O,3.000000X2.000000*%
%ADD14R,2.000000X2.000000*%
%ADD15C,2.000000*%
%ADD16R,3.000000X3.000000*%
%ADD17C,3.000000*%
%ADD18R,1.699260X1.699260*%
%ADD19C,1.998980*%
%ADD20R,2.286000X1.574800*%
%ADD21O,2.286000X1.574800*%
%ADD22R,1.651000X1.651000*%
%ADD23C,1.651000*%
%ADD24C,0.700000*%
G04 APERTURE END LIST*
D10*
D11*
X41763071Y30460214D02*
X41048786Y30960214D01*
X41763071Y31317357D02*
X40263071Y31317357D01*
X40263071Y30745929D01*
X40334500Y30603071D01*
X40405929Y30531643D01*
X40548786Y30460214D01*
X40763071Y30460214D01*
X40905929Y30531643D01*
X40977357Y30603071D01*
X41048786Y30745929D01*
X41048786Y31317357D01*
X41382071Y21697214D02*
X41382071Y22411500D01*
X39882071Y22411500D01*
X32555643Y18668928D02*
X32555643Y17526071D01*
X33127071Y18097500D02*
X31984214Y18097500D01*
X19474643Y21843928D02*
X19474643Y20701071D01*
X20046071Y21272500D02*
X18903214Y21272500D01*
X26586643Y25780928D02*
X26586643Y24638071D01*
X27158071Y25209500D02*
X26015214Y25209500D01*
X37381643Y28320928D02*
X37381643Y27178071D01*
X37953071Y27749500D02*
X36810214Y27749500D01*
X39921643Y20827928D02*
X39921643Y19685071D01*
X40493071Y20256500D02*
X39350214Y20256500D01*
X29507643Y8254928D02*
X29507643Y7112071D01*
X30079071Y7683500D02*
X28936214Y7683500D01*
X24046643Y6730928D02*
X24046643Y5588071D01*
X24618071Y6159500D02*
X23475214Y6159500D01*
X16426643Y6730928D02*
X16426643Y5588071D01*
X16998071Y6159500D02*
X15855214Y6159500D01*
X6012643Y10032928D02*
X6012643Y8890071D01*
X6584071Y9461500D02*
X5441214Y9461500D01*
X4996643Y6730928D02*
X4996643Y5588071D01*
X5568071Y6159500D02*
X4425214Y6159500D01*
D12*
X42735500Y23939500D03*
D13*
X42735500Y26479500D03*
X42735500Y29019500D03*
D12*
X34353500Y14287500D03*
D13*
X34353500Y16827500D03*
D12*
X32067500Y5143500D03*
D13*
X32067500Y7683500D03*
D12*
X5905500Y14033500D03*
D13*
X5905500Y11493500D03*
D14*
X28384500Y14414500D03*
D15*
X23384500Y14414500D03*
D14*
X23431500Y19494500D03*
D15*
X28431500Y19494500D03*
D16*
X28257500Y10985500D03*
D17*
X28257500Y3365500D03*
D14*
X6413500Y22542500D03*
D15*
X6413500Y17542500D03*
D17*
X6286500Y27876500D03*
X11287760Y27955240D03*
X16446500Y27876500D03*
X11287760Y32956500D03*
X6286500Y32956500D03*
X16446500Y32956500D03*
D18*
X28639840Y32956500D03*
D19*
X26099840Y32956500D03*
X22542500Y9461500D03*
X12382500Y9461500D03*
X31305500Y10604500D03*
X31305500Y20764500D03*
X20764500Y24447500D03*
X20764500Y14287500D03*
X19240500Y12255500D03*
X9080500Y12255500D03*
X23050500Y22796500D03*
X23050500Y32956500D03*
D20*
X10350500Y22415500D03*
D21*
X10350500Y19875500D03*
X10350500Y17335500D03*
X10350500Y14795500D03*
X17970500Y14795500D03*
X17970500Y17335500D03*
X17970500Y19875500D03*
X17970500Y22415500D03*
D22*
X6921500Y6159500D03*
D23*
X6921500Y3619500D03*
D22*
X28511500Y25209500D03*
D23*
X31051500Y25209500D03*
D22*
X14541500Y6159500D03*
D23*
X14541500Y3619500D03*
D22*
X22161500Y6159500D03*
D23*
X22161500Y3619500D03*
D22*
X39814500Y18351500D03*
D23*
X42354500Y18351500D03*
D22*
X37274500Y25844500D03*
D23*
X37274500Y23304500D03*
D19*
X37823140Y7048500D03*
X42824400Y7048500D03*
X34058860Y29527500D03*
X29057600Y29527500D03*
X42948860Y10858500D03*
X37947600Y10858500D03*
X38077140Y31940500D03*
X43078400Y31940500D03*
D24*
X6921500Y3619500D02*
X7810500Y3619500D01*
X9842500Y5651500D02*
X9842500Y9461500D01*
X7810500Y3619500D02*
X9842500Y5651500D01*
X7937500Y9461500D02*
X5905500Y11493500D01*
X9842500Y9461500D02*
X7937500Y9461500D01*
X12382500Y9461500D02*
X9842500Y9461500D01*
X2857500Y19494500D02*
X7429500Y19494500D01*
X7429500Y19494500D02*
X7937500Y18986500D01*
X6286500Y32956500D02*
X6286500Y32829500D01*
X6286500Y32829500D02*
X2857500Y29400500D01*
X2857500Y10223500D02*
X6921500Y6159500D01*
X2857500Y29400500D02*
X2857500Y19494500D01*
X2857500Y19494500D02*
X2857500Y10223500D01*
X8826500Y19875500D02*
X10350500Y19875500D01*
X7937500Y18986500D02*
X8826500Y19875500D01*
X7556500Y18605500D02*
X7937500Y18986500D01*
X6493500Y17542500D02*
X7556500Y18605500D01*
X6413500Y17542500D02*
X6493500Y17542500D01*
X31051500Y21018500D02*
X31305500Y20764500D01*
X31051500Y22923500D02*
X31051500Y21018500D01*
X31051500Y25209500D02*
X31051500Y22923500D01*
X34353500Y20637500D02*
X32067500Y22923500D01*
X32067500Y22923500D02*
X31051500Y22923500D01*
X34353500Y16827500D02*
X34353500Y20637500D01*
X6286500Y27876500D02*
X7175500Y27876500D01*
X7175500Y27876500D02*
X10477500Y24574500D01*
X10477500Y24574500D02*
X12001500Y24574500D01*
X12001500Y24574500D02*
X13398500Y23177500D01*
X13398500Y23177500D02*
X13398500Y20637500D01*
X13398500Y20637500D02*
X16700500Y17335500D01*
X16700500Y17335500D02*
X17970500Y17335500D01*
X26272500Y17335500D02*
X28431500Y19494500D01*
X17970500Y17335500D02*
X26272500Y17335500D01*
X17462500Y17335500D02*
X17970500Y17335500D01*
X28431500Y25129500D02*
X28511500Y25209500D01*
X28431500Y19494500D02*
X28431500Y25129500D01*
X28257500Y3365500D02*
X22415500Y3365500D01*
X22415500Y3365500D02*
X22161500Y3619500D01*
X14541500Y3619500D02*
X13779500Y3619500D01*
X13779500Y3619500D02*
X12890500Y4508500D01*
X11620500Y12001500D02*
X10223500Y13398500D01*
X12636500Y12001500D02*
X11620500Y12001500D01*
X14414500Y10223500D02*
X12636500Y12001500D01*
X14414500Y8699500D02*
X14414500Y10223500D01*
X12890500Y7175500D02*
X14414500Y8699500D01*
X12890500Y4508500D02*
X12890500Y7175500D01*
X23384500Y14414500D02*
X23384500Y13478500D01*
X19494500Y9588500D02*
X19494500Y3619500D01*
X23384500Y13478500D02*
X19494500Y9588500D01*
X22161500Y3619500D02*
X19494500Y3619500D01*
X19494500Y3619500D02*
X14541500Y3619500D01*
X10350500Y13525500D02*
X10223500Y13398500D01*
X10223500Y13398500D02*
X9080500Y12255500D01*
X10350500Y14795500D02*
X10350500Y13525500D01*
X7302500Y14033500D02*
X9080500Y12255500D01*
X5905500Y14033500D02*
X7302500Y14033500D01*
X30035500Y5143500D02*
X28257500Y3365500D01*
X32067500Y5143500D02*
X30035500Y5143500D01*
X29908500Y32956500D02*
X30924500Y33972500D01*
X30924500Y33972500D02*
X43751500Y33972500D01*
X44640500Y33083500D02*
X45148500Y32575500D01*
X43751500Y33972500D02*
X44640500Y33083500D01*
X45148500Y12001500D02*
X45148500Y11874500D01*
X45148500Y11874500D02*
X45148500Y6413500D01*
X45148500Y26225500D02*
X45148500Y12001500D01*
X45148500Y32575500D02*
X45148500Y26225500D01*
X28639840Y32956500D02*
X29908500Y32956500D01*
X44894500Y26479500D02*
X45148500Y26225500D01*
X42735500Y26479500D02*
X44894500Y26479500D01*
X43497500Y31940500D02*
X44640500Y33083500D01*
X43078400Y31940500D02*
X43497500Y31940500D01*
X34607500Y5143500D02*
X32067500Y5143500D01*
X34988500Y5524500D02*
X34607500Y5143500D01*
X34988500Y7810500D02*
X34988500Y5524500D01*
X37947600Y10769600D02*
X34988500Y7810500D01*
X37947600Y10858500D02*
X37947600Y10769600D01*
X43878500Y5143500D02*
X45148500Y6413500D01*
X32067500Y5143500D02*
X43878500Y5143500D01*
X32321500Y14287500D02*
X29781500Y16827500D01*
X29781500Y16827500D02*
X27495500Y16827500D01*
X27495500Y16827500D02*
X25082500Y14414500D01*
X25082500Y14414500D02*
X23384500Y14414500D01*
X34353500Y14287500D02*
X32321500Y14287500D01*
X19240500Y12255500D02*
X19240500Y10858500D01*
X19240500Y10858500D02*
X14541500Y6159500D01*
X12890500Y17335500D02*
X15430500Y14795500D01*
X15430500Y14795500D02*
X17970500Y14795500D01*
X10350500Y17335500D02*
X12890500Y17335500D01*
X20256500Y14795500D02*
X20764500Y14287500D01*
X17970500Y14795500D02*
X20256500Y14795500D01*
X17970500Y13525500D02*
X19240500Y12255500D01*
X17970500Y14795500D02*
X17970500Y13525500D01*
X19240500Y12255500D02*
X19240500Y11366500D01*
X11287760Y32956500D02*
X10858500Y32956500D01*
X10858500Y32956500D02*
X8191500Y30289500D01*
X8191500Y23558500D02*
X8191500Y22542500D01*
X7302500Y24447500D02*
X8191500Y23558500D01*
X6286500Y24447500D02*
X7302500Y24447500D01*
X3873500Y26860500D02*
X6286500Y24447500D01*
X3873500Y28892500D02*
X3873500Y26860500D01*
X5270500Y30289500D02*
X3873500Y28892500D01*
X8191500Y30289500D02*
X5270500Y30289500D01*
X10223500Y22542500D02*
X10350500Y22415500D01*
X7683500Y22542500D02*
X8191500Y22542500D01*
X8191500Y22542500D02*
X10223500Y22542500D01*
X6413500Y22542500D02*
X7683500Y22542500D01*
X11287760Y32956500D02*
X11287760Y32877760D01*
X11287760Y32956500D02*
X12382500Y32956500D01*
X11287760Y32956500D02*
X12255500Y32956500D01*
X14795500Y30416500D02*
X21018500Y30416500D01*
X21018500Y30416500D02*
X21526500Y30924500D01*
X21526500Y30924500D02*
X27876500Y30924500D01*
X27876500Y30924500D02*
X28257500Y31305500D01*
X28257500Y31305500D02*
X29908500Y31305500D01*
X29908500Y31305500D02*
X34861500Y26352500D01*
X34861500Y26352500D02*
X34861500Y23177500D01*
X34861500Y23177500D02*
X37020500Y21018500D01*
X12255500Y32956500D02*
X14795500Y30416500D01*
X38036500Y20002500D02*
X37020500Y21018500D01*
X38036500Y14287500D02*
X38036500Y20002500D01*
X39941500Y12382500D02*
X38036500Y14287500D01*
X39941500Y9969500D02*
X39941500Y12382500D01*
X37823140Y7851140D02*
X39941500Y9969500D01*
X37823140Y7048500D02*
X37823140Y7851140D01*
X11287760Y27955240D02*
X11287760Y27574240D01*
X15049500Y23812500D02*
X15684500Y23177500D01*
X14732000Y24130000D02*
X15049500Y23812500D01*
X11287760Y27574240D02*
X14732000Y24130000D01*
X16319500Y19875500D02*
X17970500Y19875500D01*
X15684500Y20510500D02*
X16319500Y19875500D01*
X15684500Y23177500D02*
X15684500Y20510500D01*
X18351500Y19494500D02*
X17970500Y19875500D01*
X23431500Y19494500D02*
X18351500Y19494500D01*
X17970500Y19875500D02*
X17589500Y19875500D01*
X22415500Y29527500D02*
X17716500Y24828500D01*
X17716500Y24828500D02*
X16065500Y24828500D01*
X16065500Y24828500D02*
X15049500Y23812500D01*
X29057600Y29527500D02*
X22415500Y29527500D01*
X31305500Y10604500D02*
X31305500Y12509500D01*
X30670500Y13144500D02*
X28384500Y13144500D01*
X31305500Y12509500D02*
X30670500Y13144500D01*
X22542500Y9461500D02*
X24447500Y9461500D01*
X25971500Y10985500D02*
X28257500Y10985500D01*
X24447500Y9461500D02*
X25971500Y10985500D01*
X28384500Y14414500D02*
X28384500Y13144500D01*
X28384500Y13144500D02*
X28384500Y11112500D01*
X28384500Y11112500D02*
X28257500Y10985500D01*
X23050500Y22796500D02*
X23050500Y24447500D01*
X23050500Y24447500D02*
X20764500Y24447500D01*
X20002500Y24447500D02*
X17970500Y22415500D01*
X20764500Y24447500D02*
X20002500Y24447500D01*
X34734500Y10604500D02*
X36893500Y12763500D01*
X36893500Y12763500D02*
X36893500Y19621500D01*
X36893500Y19621500D02*
X32829500Y23685500D01*
X32829500Y23685500D02*
X32829500Y26098500D01*
X32829500Y26098500D02*
X31813500Y27114500D01*
X31813500Y27114500D02*
X25717500Y27114500D01*
X25717500Y27114500D02*
X23050500Y24447500D01*
X31305500Y10604500D02*
X34734500Y10604500D01*
X34734500Y10350500D02*
X32067500Y7683500D01*
X34734500Y10604500D02*
X34734500Y10350500D01*
X24447500Y8826500D02*
X24447500Y9461500D01*
X22161500Y6540500D02*
X24447500Y8826500D01*
X22161500Y6159500D02*
X22161500Y6540500D01*
X42354500Y23558500D02*
X42735500Y23939500D01*
X42354500Y18351500D02*
X42354500Y23558500D01*
X42948860Y17757140D02*
X42354500Y18351500D01*
X42948860Y10858500D02*
X42948860Y17757140D01*
X39814500Y15049500D02*
X41084500Y13779500D01*
X41084500Y13779500D02*
X41084500Y8788400D01*
X41084500Y8788400D02*
X42824400Y7048500D01*
X39814500Y18351500D02*
X39814500Y15049500D01*
X38290500Y31727140D02*
X38077140Y31940500D01*
X38163500Y23304500D02*
X39433500Y24574500D01*
X39433500Y28892500D02*
X39433500Y30584140D01*
X39433500Y24574500D02*
X39433500Y28892500D01*
X39433500Y30584140D02*
X38077140Y31940500D01*
X37274500Y23304500D02*
X38163500Y23304500D01*
X39433500Y29019500D02*
X39433500Y28892500D01*
X42735500Y29019500D02*
X39433500Y29019500D01*
X34058860Y29060140D02*
X37274500Y25844500D01*
X34058860Y29527500D02*
X34058860Y29060140D01*
X26099840Y32956500D02*
X23050500Y32956500D01*
M02*
