M48
;DRILL file {kicad (after 2015-mar-04 BZR unknown)-product} date Sat 13 Jun 2015 12:12:51 BST
;FORMAT={-:-/ absolute / inch / decimal}
FMAT,2
INCH,TZ
T1C0.031
T2C0.032
T3C0.039
T4C0.043
%
G90
G05
M72
T1
X0.555Y0.9519
X0.555Y0.755
X0.6781Y1.62
X0.755Y0.95
X0.755Y0.7531
X0.875Y1.62
T2
X0.13Y1.6
X0.13Y1.3
X0.13Y1.
X0.23Y1.6
X0.23Y1.3
X0.23Y1.
X0.57Y1.465
X0.57Y1.165
X0.67Y1.465
X0.67Y1.165
X0.71Y0.305
X0.71Y0.205
X0.77Y1.465
X0.77Y1.165
X0.87Y1.465
X0.87Y1.165
X0.905Y0.405
X0.98Y0.75
X0.98Y0.65
X1.005Y0.405
T3
X0.265Y0.3834
X0.265Y0.1865
X0.36Y1.385
X0.36Y0.985
X0.405Y0.64
X0.415Y0.3785
X0.415Y0.1816
X0.47Y1.515
X0.47Y1.115
X0.55Y1.055
X0.805Y0.64
X0.885Y0.965
X0.95Y1.055
X1.15Y0.7285
X1.15Y0.5316
X1.245Y0.3734
X1.245Y0.1765
X1.285Y0.965
X1.285Y0.8449
X1.285Y0.7449
T4
X0.12Y0.76
X0.19Y0.61
X0.29Y0.61
X0.42Y0.76
X0.44Y1.64
X0.54Y1.64
X0.55Y0.52
X0.65Y0.52
X0.93Y0.19
X1.03Y0.19
X1.085Y1.625
X1.085Y1.225
X1.0881Y1.4281
X1.13Y0.19
X1.285Y1.625
X1.285Y1.4281
X1.285Y1.225
T0
M30
