G04 #@! TF.FileFunction,Copper,L2,Bot,Signal*
%FSLAX46Y46*%
G04 Gerber Fmt 4.6, Leading zero omitted, Abs format (unit mm)*
G04 Created by KiCad (PCBNEW (after 2015-mar-04 BZR unknown)-product) date Sat 13 Jun 2015 12:12:42 BST*
%MOMM*%
G01*
G04 APERTURE LIST*
%ADD10C,0.100000*%
%ADD11C,0.300000*%
%ADD12R,2.000000X3.000000*%
%ADD13O,2.000000X3.000000*%
%ADD14R,2.000000X2.000000*%
%ADD15C,2.000000*%
%ADD16R,3.000000X3.000000*%
%ADD17C,3.000000*%
%ADD18R,1.699260X1.699260*%
%ADD19C,1.998980*%
%ADD20R,1.574800X2.286000*%
%ADD21O,1.574800X2.286000*%
%ADD22R,1.651000X1.651000*%
%ADD23C,1.651000*%
%ADD24C,0.700000*%
G04 APERTURE END LIST*
D10*
D11*
X30142714Y5798429D02*
X30642714Y6512714D01*
X30999857Y5798429D02*
X30999857Y7298429D01*
X30428429Y7298429D01*
X30285571Y7227000D01*
X30214143Y7155571D01*
X30142714Y7012714D01*
X30142714Y6798429D01*
X30214143Y6655571D01*
X30285571Y6584143D01*
X30428429Y6512714D01*
X30999857Y6512714D01*
X21379714Y6179429D02*
X22094000Y6179429D01*
X22094000Y7679429D01*
X18351428Y15005857D02*
X17208571Y15005857D01*
X17780000Y14434429D02*
X17780000Y15577286D01*
X21526428Y28086857D02*
X20383571Y28086857D01*
X20955000Y27515429D02*
X20955000Y28658286D01*
X25463428Y20974857D02*
X24320571Y20974857D01*
X24892000Y20403429D02*
X24892000Y21546286D01*
X28003428Y10179857D02*
X26860571Y10179857D01*
X27432000Y9608429D02*
X27432000Y10751286D01*
X20510428Y7639857D02*
X19367571Y7639857D01*
X19939000Y7068429D02*
X19939000Y8211286D01*
X7937428Y18053857D02*
X6794571Y18053857D01*
X7366000Y17482429D02*
X7366000Y18625286D01*
X6413428Y23514857D02*
X5270571Y23514857D01*
X5842000Y22943429D02*
X5842000Y24086286D01*
X6413428Y31134857D02*
X5270571Y31134857D01*
X5842000Y30563429D02*
X5842000Y31706286D01*
X9715428Y41548857D02*
X8572571Y41548857D01*
X9144000Y40977429D02*
X9144000Y42120286D01*
X6413428Y42564857D02*
X5270571Y42564857D01*
X5842000Y41993429D02*
X5842000Y43136286D01*
D12*
X23622000Y4826000D03*
D13*
X26162000Y4826000D03*
X28702000Y4826000D03*
D12*
X13970000Y13208000D03*
D13*
X16510000Y13208000D03*
D12*
X4826000Y15494000D03*
D13*
X7366000Y15494000D03*
D12*
X13716000Y41656000D03*
D13*
X11176000Y41656000D03*
D14*
X14097000Y19177000D03*
D15*
X14097000Y24177000D03*
D14*
X19177000Y24130000D03*
D15*
X19177000Y19130000D03*
D16*
X10668000Y19304000D03*
D17*
X3048000Y19304000D03*
D14*
X22225000Y41148000D03*
D15*
X17225000Y41148000D03*
D17*
X27559000Y41275000D03*
X27637740Y36273740D03*
X27559000Y31115000D03*
X32639000Y36273740D03*
X32639000Y41275000D03*
X32639000Y31115000D03*
D18*
X32639000Y18921660D03*
D19*
X32639000Y21461660D03*
X9144000Y25019000D03*
X9144000Y35179000D03*
X10287000Y16256000D03*
X20447000Y16256000D03*
X24130000Y26797000D03*
X13970000Y26797000D03*
X11938000Y28321000D03*
X11938000Y38481000D03*
X22479000Y24511000D03*
X32639000Y24511000D03*
D20*
X22098000Y37211000D03*
D21*
X19558000Y37211000D03*
X17018000Y37211000D03*
X14478000Y37211000D03*
X14478000Y29591000D03*
X17018000Y29591000D03*
X19558000Y29591000D03*
X22098000Y29591000D03*
D22*
X5842000Y40640000D03*
D23*
X3302000Y40640000D03*
D22*
X24892000Y19050000D03*
D23*
X24892000Y16510000D03*
D22*
X5842000Y33020000D03*
D23*
X3302000Y33020000D03*
D22*
X5842000Y25400000D03*
D23*
X3302000Y25400000D03*
D22*
X18034000Y7747000D03*
D23*
X18034000Y5207000D03*
D22*
X25527000Y10287000D03*
D23*
X22987000Y10287000D03*
D19*
X6731000Y9738360D03*
X6731000Y4737100D03*
X29210000Y13502640D03*
X29210000Y18503900D03*
X10541000Y4612640D03*
X10541000Y9613900D03*
X31623000Y9484360D03*
X31623000Y4483100D03*
D24*
X9144000Y35179000D02*
X9144000Y37719000D01*
X9144000Y37719000D02*
X9144000Y39624000D01*
X9144000Y39624000D02*
X11176000Y41656000D01*
X3302000Y39751000D02*
X5334000Y37719000D01*
X5334000Y37719000D02*
X9144000Y37719000D01*
X3302000Y40640000D02*
X3302000Y39751000D01*
X17225000Y41148000D02*
X17225000Y41068000D01*
X17225000Y41068000D02*
X18288000Y40005000D01*
X18288000Y40005000D02*
X18669000Y39624000D01*
X18669000Y39624000D02*
X19558000Y38735000D01*
X19558000Y38735000D02*
X19558000Y37211000D01*
X19177000Y44704000D02*
X9906000Y44704000D01*
X29083000Y44704000D02*
X19177000Y44704000D01*
X9906000Y44704000D02*
X5842000Y40640000D01*
X32512000Y41275000D02*
X29083000Y44704000D01*
X32639000Y41275000D02*
X32512000Y41275000D01*
X19177000Y40132000D02*
X18669000Y39624000D01*
X19177000Y44704000D02*
X19177000Y40132000D01*
X16510000Y13208000D02*
X20320000Y13208000D01*
X22606000Y15494000D02*
X22606000Y16510000D01*
X20320000Y13208000D02*
X22606000Y15494000D01*
X24892000Y16510000D02*
X22606000Y16510000D01*
X22606000Y16510000D02*
X20701000Y16510000D01*
X20701000Y16510000D02*
X20447000Y16256000D01*
X19177000Y19130000D02*
X24812000Y19130000D01*
X24812000Y19130000D02*
X24892000Y19050000D01*
X17018000Y30099000D02*
X17018000Y29591000D01*
X17018000Y29591000D02*
X17018000Y21289000D01*
X17018000Y21289000D02*
X19177000Y19130000D01*
X17018000Y30861000D02*
X17018000Y29591000D01*
X20320000Y34163000D02*
X17018000Y30861000D01*
X22860000Y34163000D02*
X20320000Y34163000D01*
X24257000Y35560000D02*
X22860000Y34163000D01*
X24257000Y37084000D02*
X24257000Y35560000D01*
X27559000Y40386000D02*
X24257000Y37084000D01*
X27559000Y41275000D02*
X27559000Y40386000D01*
X13970000Y13208000D02*
X13970000Y15240000D01*
X14097000Y22479000D02*
X14097000Y24177000D01*
X16510000Y20066000D02*
X14097000Y22479000D01*
X16510000Y17780000D02*
X16510000Y20066000D01*
X13970000Y15240000D02*
X16510000Y17780000D01*
X4826000Y15494000D02*
X4826000Y3683000D01*
X4826000Y3683000D02*
X6096000Y2413000D01*
X10541000Y9613900D02*
X10452100Y9613900D01*
X10452100Y9613900D02*
X7493000Y12573000D01*
X7493000Y12573000D02*
X5207000Y12573000D01*
X5207000Y12573000D02*
X4826000Y12954000D01*
X4826000Y12954000D02*
X4826000Y15494000D01*
X31623000Y4483100D02*
X31623000Y4064000D01*
X31623000Y4064000D02*
X32766000Y2921000D01*
X26162000Y4826000D02*
X26162000Y2667000D01*
X26162000Y2667000D02*
X25908000Y2413000D01*
X32639000Y18921660D02*
X32639000Y17653000D01*
X32258000Y2413000D02*
X25908000Y2413000D01*
X25908000Y2413000D02*
X11684000Y2413000D01*
X11557000Y2413000D02*
X6096000Y2413000D01*
X11684000Y2413000D02*
X11557000Y2413000D01*
X33655000Y3810000D02*
X32766000Y2921000D01*
X32766000Y2921000D02*
X32258000Y2413000D01*
X33655000Y16637000D02*
X33655000Y3810000D01*
X32639000Y17653000D02*
X33655000Y16637000D01*
X4826000Y15494000D02*
X4826000Y17526000D01*
X4826000Y17526000D02*
X3048000Y19304000D01*
X13716000Y41656000D02*
X13716000Y40259000D01*
X13716000Y40259000D02*
X11938000Y38481000D01*
X14478000Y37211000D02*
X13208000Y37211000D01*
X13081000Y37338000D02*
X11938000Y38481000D01*
X13208000Y37211000D02*
X13081000Y37338000D01*
X3302000Y28067000D02*
X3302000Y33020000D01*
X3302000Y25400000D02*
X3302000Y28067000D01*
X13161000Y24177000D02*
X9271000Y28067000D01*
X9271000Y28067000D02*
X3302000Y28067000D01*
X14097000Y24177000D02*
X13161000Y24177000D01*
X4191000Y34671000D02*
X6858000Y34671000D01*
X6858000Y34671000D02*
X8382000Y33147000D01*
X8382000Y33147000D02*
X9906000Y33147000D01*
X9906000Y33147000D02*
X11684000Y34925000D01*
X11684000Y34925000D02*
X11684000Y35941000D01*
X11684000Y35941000D02*
X13081000Y37338000D01*
X3302000Y33782000D02*
X4191000Y34671000D01*
X3302000Y33020000D02*
X3302000Y33782000D01*
X3048000Y25146000D02*
X3302000Y25400000D01*
X3048000Y19304000D02*
X3048000Y25146000D01*
X11938000Y28321000D02*
X11049000Y28321000D01*
X14478000Y29591000D02*
X13208000Y29591000D01*
X13208000Y29591000D02*
X11938000Y28321000D01*
X14478000Y29591000D02*
X14478000Y27305000D01*
X14478000Y27305000D02*
X13970000Y26797000D01*
X17018000Y37211000D02*
X17018000Y34671000D01*
X14478000Y32131000D02*
X14478000Y29591000D01*
X17018000Y34671000D02*
X14478000Y32131000D01*
X10541000Y28321000D02*
X5842000Y33020000D01*
X11938000Y28321000D02*
X10541000Y28321000D01*
X6731000Y9738360D02*
X7533640Y9738360D01*
X7533640Y9738360D02*
X9652000Y7620000D01*
X9652000Y7620000D02*
X12065000Y7620000D01*
X12065000Y7620000D02*
X13970000Y9525000D01*
X13970000Y9525000D02*
X19685000Y9525000D01*
X19685000Y9525000D02*
X20701000Y10541000D01*
X32639000Y35306000D02*
X30099000Y32766000D01*
X22860000Y12700000D02*
X20701000Y10541000D01*
X26035000Y12700000D02*
X22860000Y12700000D01*
X30988000Y17653000D02*
X26035000Y12700000D01*
X30988000Y19304000D02*
X30988000Y17653000D01*
X30607000Y19685000D02*
X30988000Y19304000D01*
X30607000Y26035000D02*
X30607000Y19685000D01*
X30099000Y26543000D02*
X30607000Y26035000D01*
X30099000Y32766000D02*
X30099000Y26543000D01*
X32639000Y36273740D02*
X32639000Y35306000D01*
X32639000Y36273740D02*
X32639000Y35179000D01*
X32639000Y36273740D02*
X32560260Y36273740D01*
X22225000Y41148000D02*
X22225000Y39878000D01*
X22225000Y39370000D02*
X22225000Y37338000D01*
X22225000Y39878000D02*
X22225000Y39370000D01*
X22225000Y37338000D02*
X22098000Y37211000D01*
X29972000Y39370000D02*
X29972000Y42291000D01*
X29972000Y42291000D02*
X28575000Y43688000D01*
X28575000Y43688000D02*
X26543000Y43688000D01*
X26543000Y43688000D02*
X24130000Y41275000D01*
X24130000Y41275000D02*
X24130000Y40259000D01*
X24130000Y40259000D02*
X23241000Y39370000D01*
X23241000Y39370000D02*
X22225000Y39370000D01*
X32639000Y36703000D02*
X29972000Y39370000D01*
X32639000Y36273740D02*
X32639000Y36703000D01*
X29210000Y18503900D02*
X29210000Y25146000D01*
X24511000Y31496000D02*
X23495000Y32512000D01*
X24511000Y29845000D02*
X24511000Y31496000D01*
X29210000Y25146000D02*
X24511000Y29845000D01*
X19558000Y29591000D02*
X19558000Y29972000D01*
X19177000Y24130000D02*
X19177000Y29210000D01*
X19177000Y29210000D02*
X19558000Y29591000D01*
X22860000Y31877000D02*
X20193000Y31877000D01*
X20193000Y31877000D02*
X19558000Y31242000D01*
X19558000Y31242000D02*
X19558000Y29591000D01*
X27256740Y36273740D02*
X23812500Y32829500D01*
X23812500Y32829500D02*
X23495000Y32512000D01*
X23495000Y32512000D02*
X22860000Y31877000D01*
X27637740Y36273740D02*
X27256740Y36273740D01*
X5842000Y25400000D02*
X6223000Y25400000D01*
X6223000Y25400000D02*
X8509000Y23114000D01*
X8509000Y23114000D02*
X9144000Y23114000D01*
X10287000Y12827000D02*
X10033000Y12827000D01*
X10033000Y12827000D02*
X7366000Y15494000D01*
X10287000Y16256000D02*
X10287000Y12827000D01*
X26797000Y21844000D02*
X24130000Y24511000D01*
X26797000Y15748000D02*
X26797000Y21844000D01*
X25781000Y14732000D02*
X26797000Y15748000D01*
X23368000Y14732000D02*
X25781000Y14732000D01*
X19304000Y10668000D02*
X23368000Y14732000D01*
X12446000Y10668000D02*
X19304000Y10668000D01*
X10287000Y12827000D02*
X12446000Y10668000D01*
X24130000Y26797000D02*
X24130000Y27559000D01*
X24130000Y27559000D02*
X22098000Y29591000D01*
X24130000Y24511000D02*
X24130000Y26797000D01*
X22479000Y24511000D02*
X24130000Y24511000D01*
X10795000Y19177000D02*
X10668000Y19304000D01*
X12827000Y19177000D02*
X10795000Y19177000D01*
X14097000Y19177000D02*
X12827000Y19177000D01*
X9144000Y23114000D02*
X10668000Y21590000D01*
X10668000Y21590000D02*
X10668000Y19304000D01*
X9144000Y25019000D02*
X9144000Y23114000D01*
X12192000Y16256000D02*
X12827000Y16891000D01*
X12827000Y16891000D02*
X12827000Y19177000D01*
X10287000Y16256000D02*
X12192000Y16256000D01*
X10541000Y4612640D02*
X17439640Y4612640D01*
X17439640Y4612640D02*
X18034000Y5207000D01*
X18034000Y5207000D02*
X23241000Y5207000D01*
X23241000Y5207000D02*
X23622000Y4826000D01*
X18034000Y7747000D02*
X14732000Y7747000D01*
X8470900Y6477000D02*
X6731000Y4737100D01*
X13462000Y6477000D02*
X8470900Y6477000D01*
X14732000Y7747000D02*
X13462000Y6477000D01*
X28702000Y4826000D02*
X28702000Y8128000D01*
X28702000Y8128000D02*
X28575000Y8128000D01*
X22987000Y10287000D02*
X22987000Y9398000D01*
X30266640Y8128000D02*
X31623000Y9484360D01*
X24257000Y8128000D02*
X28575000Y8128000D01*
X28575000Y8128000D02*
X30266640Y8128000D01*
X22987000Y9398000D02*
X24257000Y8128000D01*
X31409640Y9271000D02*
X31623000Y9484360D01*
X29210000Y13502640D02*
X28742640Y13502640D01*
X28742640Y13502640D02*
X25527000Y10287000D01*
X32639000Y21461660D02*
X32639000Y24511000D01*
M02*
